<svg width="389" height="404" viewBox="0 0 389 404" fill="none" xmlns="http://www.w3.org/2000/svg">
<path d="M361.255 403.61H27.184C12.233 403.61 0 391.377 0 376.426V131.214C0 116.263 12.233 104.03 27.184 104.03H361.255C376.206 104.03 388.439 116.263 388.439 131.214V376.426C388.439 391.377 376.206 403.61 361.255 403.61Z" fill="#6C93F9"/>
<path d="M380.585 130.61V377.029C380.585 386.981 372.447 395.119 362.495 395.119H25.945C15.993 395.119 7.85498 386.981 7.85498 377.029V130.61C7.85498 120.658 15.993 112.52 25.945 112.52H362.495C372.447 112.52 380.585 120.658 380.585 130.61Z" fill="#E8EFFC"/>
<path d="M380.585 187.506V305.446C329.287 288.885 252.114 270.614 174.942 277.222C103.385 283.356 45.823 298.82 7.85498 311.821V133.953C50.229 160.777 120.577 194.391 213.973 201.061C292.13 206.642 345.96 197.899 380.585 187.506Z" fill="#D2E1F7"/>
<path d="M380.58 366.709V377.029C380.58 386.979 372.45 395.119 362.49 395.119H25.9401C15.9901 395.119 7.8501 386.979 7.8501 377.029V366.709H380.58Z" fill="#231F20"/>
<path d="M43.602 379.381L34.24 374.138C33.21 373.561 31.939 374.306 31.939 375.487V386.347C31.939 387.548 33.25 388.291 34.28 387.672L43.642 382.055C44.66 381.444 44.638 379.961 43.602 379.381Z" fill="white"/>
<path d="M55.9341 380.917H361.226" stroke="white" stroke-width="2.8347" stroke-miterlimit="10" stroke-linecap="round"/>
<path d="M55.9341 380.917H164.256" stroke="#F76DB6" stroke-width="5.6693" stroke-miterlimit="10" stroke-linecap="round"/>
<path d="M167.507 388.812C171.868 387.017 173.948 382.026 172.153 377.665C170.357 373.304 165.367 371.225 161.006 373.02C156.645 374.815 154.565 379.806 156.361 384.167C158.156 388.528 163.147 390.607 167.507 388.812Z" fill="#F76DB6"/>
<path d="M125.434 117.28H30.229C19.713 117.28 11.188 125.805 11.188 136.321V249.615L18.407 149.356C19.192 138.455 27.562 129.624 38.405 128.256L125.434 117.28Z" fill="white"/>
<path d="M300.32 366.709H159.36C159.86 362.219 160.43 357.439 161.06 352.829C163.26 336.669 170.61 292.589 180.89 271.279C180.89 271.279 225.71 276.419 256.57 263.929C283.21 296.499 295.28 340.989 300.32 366.709Z" fill="#2F3B7F"/>
<path d="M149.486 209.38C148.017 215.441 146.18 217.094 152.608 220.217C159.036 223.34 176.853 225.911 182.179 223.523C187.506 221.135 182.546 208.462 181.261 208.645C179.976 208.829 149.486 209.38 149.486 209.38Z" fill="#4B5059"/>
<path d="M306.6 222.335C306.58 222.365 306.55 222.395 306.53 222.425C301.93 227.935 289.26 229.955 282.83 229.585C281.13 229.485 279.86 229.405 278.87 229.135C276.1 228.405 275.51 226.275 274.02 218.565C274.02 218.565 303.4 209.015 303.96 208.645C304.51 208.275 311.05 216.825 306.6 222.335Z" fill="#4B5059"/>
<path d="M308 212.995C303.72 217.925 293.48 221.535 284.99 222.475C280.84 222.945 277.1 222.775 274.69 221.805C267.34 218.875 266.36 209.565 266.36 209.565C266.36 209.565 260.49 232.095 259.02 244.335C257.55 256.585 268.32 268.825 264.4 274.215C244.32 289.895 203.67 287.445 188.98 280.585C174.28 273.725 178.2 274.215 179.18 262.955C180.16 251.685 182.12 249.725 172.32 216.915C157.38 215.445 152.73 216.425 144.89 209.565C143.61 208.445 142.8 206.845 142.37 204.875C140.14 194.795 147.73 175.165 152.24 162.055C157.63 146.385 167.91 152.255 172.81 151.765C177.71 151.275 185.65 143.375 200.73 138.055C209.06 135.115 230.61 132.175 239.42 134.135C248.24 136.095 266.85 152.255 275.18 150.295C283.51 148.335 292.32 148.825 298.69 167.935C305.06 187.035 314.36 205.645 308 212.995Z" fill="#82916B"/>
<path d="M206.853 10.4618C196.567 2.37981 180.159 6.54381 175.261 17.5638C170.363 28.5838 177.71 35.1968 167.914 45.4818C158.118 55.7668 145.873 69.9718 159.098 83.1958C172.322 96.4208 172.322 95.9308 168.159 103.033C163.996 110.135 158.853 124.094 171.098 131.686C183.343 139.278 197.547 133.645 208.567 132.421C219.587 131.196 237.465 132.176 249.465 135.36C261.465 138.544 278.608 133.156 283.016 118.707C287.424 104.258 275.424 100.095 279.343 81.7268C283.261 63.3598 281.302 48.9108 271.261 42.7878C261.22 36.6658 258.281 32.5018 254.608 20.9918C250.935 9.48182 242.853 0.909814 232.567 0.175814C222.282 -0.558186 211.507 0.665811 206.853 10.4618Z" fill="#232965"/>
<path d="M209.915 123.605C203.801 126.431 196.863 133.488 196.69 141.238C196.576 146.34 200.902 153.12 204.404 151.891C207.715 150.729 211.2 143.075 214.139 147.115C217.078 151.156 219.833 159.054 229.384 152.258C238.935 145.462 244.996 138.115 242.608 131.87C240.221 125.625 229.384 114.605 209.915 123.605Z" fill="#4B5059"/>
<path opacity="0.45" d="M210.649 116.258C198.403 121.91 183.098 126.544 179.792 119.564C176.486 112.584 175.751 99.7268 176.853 93.1148C177.955 86.5028 168.771 79.5228 165.465 71.0738C162.159 62.6248 165.465 53.0738 170.975 49.7678C176.485 46.4618 180.159 45.3598 180.526 39.8498C180.893 34.3398 185.302 31.4008 191.179 31.0338C197.057 30.6668 202.199 27.7278 202.567 22.2178C205.873 36.1768 209.914 39.1158 217.261 36.5448C224.608 33.9728 234.159 35.8098 236.363 46.4628C238.567 57.1158 238.2 66.6668 247.016 64.8298C255.832 62.9928 261.343 68.8708 259.506 78.4218C257.669 87.9728 252.894 90.5438 257.669 96.0548C262.444 101.565 272.73 105.606 265.383 114.422C258.036 123.238 246.281 123.606 239.669 117.361C233.057 111.115 215.425 114.054 210.649 116.258Z" fill="#202A67"/>
<path d="M252.89 80.7448C251.67 88.3348 247.02 93.2348 240.16 89.8048C237.96 95.1948 232.32 117.725 233.06 128.015C231.83 133.405 226.93 142.955 215.42 144.425C203.91 145.895 205.87 133.155 205.87 133.155C205.87 133.155 207.24 127.935 206.7 121.605C206.52 119.485 206.12 117.245 205.38 115.035C199.42 116.085 194.65 114.545 190.85 111.205C179.66 101.345 176.79 75.8748 176.24 55.0348C179.42 54.7848 182.36 53.8048 183.59 47.4448C184.81 41.0748 186.28 37.8948 190.45 37.1548C194.61 36.4248 197.79 39.6048 200 29.5648C200.49 38.1348 202.2 40.3348 207.1 42.0548C212 43.7648 214.69 38.1348 222.28 41.0748C229.87 44.0148 227.91 53.0748 230.12 64.3348C232.32 75.6048 240.65 73.1548 245.55 70.7048C250.45 68.2548 254.12 73.1548 252.89 80.7448Z" fill="#FFD2D5"/>
<path d="M187.507 78.2378C194.405 78.2378 199.997 72.6458 199.997 65.7478C199.997 58.8498 194.405 53.2578 187.507 53.2578C180.609 53.2578 175.017 58.8498 175.017 65.7478C175.017 72.6458 180.609 78.2378 187.507 78.2378Z" stroke="#231F20" stroke-width="1.4173" stroke-miterlimit="10"/>
<path d="M228.828 68.338C230.301 61.5993 226.033 54.942 219.294 53.4686C212.555 51.9952 205.898 56.2636 204.425 63.0023C202.951 69.741 207.22 76.3982 213.958 77.8716C220.697 79.345 227.354 75.0767 228.828 68.338Z" stroke="#231F20" stroke-width="1.4173" stroke-miterlimit="10"/>
<path d="M195.037 96.4208C200.547 97.1558 210.466 96.2368 212.853 89.0738" stroke="#F99BA4" stroke-width="0.75" stroke-miterlimit="10" stroke-linecap="round"/>
<path d="M210.098 88.3398C212.669 88.3398 213.771 89.4418 214.322 90.9108" stroke="#F99BA4" stroke-width="0.75" stroke-miterlimit="10" stroke-linecap="round"/>
<path opacity="0.68" d="M250.935 77.3188C249.955 73.4008 248.241 72.5438 245.057 75.3598C241.873 78.1758 241.139 83.1968 242.975 85.1558C244.811 87.1148 247.261 86.2578 247.628 83.5638C247.995 80.8698 247.138 76.7068 245.424 78.1758C246.894 74.6248 249.098 74.2578 250.935 77.3188Z" fill="#FFD2D5"/>
<path d="M222.649 48.7888C218.149 46.1638 214.077 46.7068 210.894 48.4218C207.71 50.1358 207.465 53.1968 210.527 52.2178C213.588 51.2378 216.16 50.5038 219.466 51.9728C222.772 53.4418 223.629 53.1968 224.119 52.2178C224.609 51.2378 224.119 49.6458 222.649 48.7888Z" fill="#231F20"/>
<path d="M182.609 51.6048C185.935 50.4958 188.609 49.8908 191.67 51.2378C194.731 52.5848 195.343 52.8298 195.956 51.4828C196.568 50.1358 195.834 47.8098 191.915 47.1968C187.997 46.5848 185.67 46.3397 183.099 47.8087C180.527 49.2777 180.404 52.3398 182.609 51.6048Z" fill="#231F20"/>
<path d="M220.568 66.7268C220.568 68.5188 219.143 69.9718 217.384 69.9718C215.625 69.9718 214.2 68.5188 214.2 66.7268C214.2 64.9348 215.625 63.4818 217.384 63.4818C219.143 63.4818 220.568 64.9348 220.568 66.7268Z" fill="#231F20"/>
<path d="M191.976 66.7268C191.976 68.5188 190.551 69.9718 188.792 69.9718C187.034 69.9718 185.608 68.5188 185.608 66.7268C185.608 64.9348 187.033 63.4818 188.792 63.4818C190.55 63.4828 191.976 64.9348 191.976 66.7268Z" fill="#231F20"/>
<path d="M199.996 65.0738C201.71 63.9718 203.914 65.0738 203.914 65.0738" stroke="#231F20" stroke-width="1.4173" stroke-miterlimit="10"/>
<path d="M229.139 64.7068L252.772 65.3188" stroke="#231F20" stroke-width="1.4173" stroke-miterlimit="10"/>
<path opacity="0.68" d="M231.96 95.3148C222.77 111.845 216.89 117.355 210.65 120.295C209.5 120.835 208.15 121.265 206.7 121.605C206.52 119.485 206.12 117.245 205.38 115.035C199.42 116.085 194.65 114.545 190.85 111.205C203.78 112.085 220.53 109.025 231.96 95.3148Z" fill="#FFD2D5"/>
<path d="M210.649 150.054C208.077 160.34 201.465 178.34 202.935 210.299C204.404 242.258 213.955 262.462 210.282 281.932" stroke="#4B5059" stroke-width="1.0001" stroke-miterlimit="10" stroke-linecap="round"/>
<path d="M216.527 161.625C216.527 163.552 215.129 165.115 213.405 165.115C211.681 165.115 210.283 163.552 210.283 161.625C210.283 159.698 211.681 158.135 213.405 158.135C215.129 158.136 216.527 159.698 216.527 161.625Z" fill="#4B5059"/>
<path d="M212.67 203.687C212.67 205.614 211.272 207.177 209.548 207.177C207.823 207.177 206.426 205.615 206.426 203.687C206.426 201.76 207.824 200.197 209.548 200.197C211.272 200.197 212.67 201.759 212.67 203.687Z" fill="#4B5059"/>
<path d="M213.404 182.013C213.404 183.94 212.006 185.503 210.282 185.503C208.558 185.503 207.16 183.941 207.16 182.013C207.16 180.086 208.558 178.523 210.282 178.523C212.007 178.523 213.404 180.086 213.404 182.013Z" fill="#4B5059"/>
<path d="M214.507 229.401C214.507 231.328 213.109 232.891 211.385 232.891C209.66 232.891 208.263 231.329 208.263 229.401C208.263 227.473 209.661 225.911 211.385 225.911C213.108 225.911 214.507 227.474 214.507 229.401Z" fill="#4B5059"/>
<path d="M219.282 254.013C219.282 255.94 217.884 257.503 216.16 257.503C214.436 257.503 213.038 255.941 213.038 254.013C213.038 252.086 214.436 250.523 216.16 250.523C217.884 250.523 219.282 252.086 219.282 254.013Z" fill="#4B5059"/>
<path d="M284.99 222.475C280.84 222.945 277.1 222.775 274.69 221.805C267.34 218.875 266.36 209.565 266.36 209.565C266.36 209.565 260.49 232.095 259.02 244.335C257.55 256.585 268.32 268.825 264.4 274.215C244.32 289.895 203.67 287.445 188.98 280.585C174.28 273.725 178.2 274.215 179.18 262.955C180.16 251.685 182.12 249.725 172.32 216.915C157.38 215.445 152.73 216.425 144.89 209.565C143.61 208.445 142.8 206.845 142.37 204.875C144.63 206.755 147.78 208.705 151.87 209.195C161.06 210.295 163.63 204.785 172.45 165.845C171.34 181.275 179.06 201.845 189.34 208.095C199.63 214.335 198.28 221.315 193.02 226.465C187.75 231.605 184.2 235.645 185.67 245.195C187.14 254.745 183.83 262.825 182.73 268.705C181.63 274.585 201.1 278.255 216.16 280.825C231.22 283.405 249.96 275.315 252.53 270.915C255.1 266.505 252.53 249.975 248.85 242.995C245.18 236.015 242.24 231.975 242.24 223.155C242.24 214.335 251.42 212.135 256.57 204.055C261.71 195.975 265.75 173.195 265.75 173.195C265.75 173.195 266.12 182.745 267.22 194.135C268.19 204.235 276.68 216.915 284.99 222.475Z" fill="#6C7755"/>
<path d="M221.67 275.503C221.67 277.43 220.272 278.993 218.548 278.993C216.823 278.993 215.426 277.431 215.426 275.503C215.426 273.576 216.824 272.013 218.548 272.013C220.272 272.013 221.67 273.576 221.67 275.503Z" fill="#4B5059"/>
<path d="M149.486 209.38C149.486 209.38 143.425 239.931 142.445 248.258C126.282 241.891 94.4451 243.85 86.1191 237.972C77.7921 232.094 75.3431 218.87 71.4251 214.462C67.5071 210.054 63.0981 209.074 57.7111 208.095C52.3231 207.115 51.8332 210.544 49.3842 211.523C46.9352 212.503 42.0372 210.054 38.1192 212.013C34.2012 213.972 32.2411 216.911 37.1391 221.809C33.7101 228.176 34.6901 231.115 40.5671 232.095C39.0981 237.483 40.0771 240.666 45.9551 241.156C47.9141 248.993 53.5471 249.727 56.4861 249.727C62.3641 254.625 70.4452 255.115 77.3022 256.584C84.1592 258.053 147.343 287.931 159.098 281.564C170.853 275.197 179.669 212.992 179.669 212.992L149.486 209.38Z" fill="#FFD2D5"/>
<path opacity="0.5" d="M204.487 176.268L224.099 270.151C225.434 276.545 221.303 282.869 214.909 284.205L82.5682 311.85C76.1742 313.186 69.8562 309.044 68.5212 302.65L48.9092 208.767C47.5732 202.374 51.7052 196.049 58.0992 194.713L190.44 167.068C196.833 165.733 203.151 169.875 204.487 176.268Z" fill="#7DBEEA"/>
<path d="M204.487 176.268L205.65 181.834L50.0712 214.333L48.9082 208.767C47.5722 202.374 51.7042 196.049 58.0982 194.713L190.439 167.068C196.833 165.733 203.151 169.875 204.487 176.268Z" fill="#1479E0"/>
<path d="M174.777 179.312C175.273 181.686 173.75 184.012 171.377 184.508C169.003 185.004 166.677 183.482 166.181 181.108C165.685 178.734 167.207 176.408 169.581 175.912C171.955 175.416 174.281 176.938 174.777 179.312Z" fill="white"/>
<path d="M186.227 176.92C186.723 179.294 185.201 181.62 182.827 182.116C180.453 182.612 178.127 181.09 177.631 178.716C177.135 176.342 178.657 174.016 181.031 173.52C183.405 173.024 185.732 174.546 186.227 176.92Z" fill="white"/>
<path d="M197.678 174.528C198.174 176.902 196.652 179.228 194.278 179.724C191.904 180.22 189.578 178.697 189.082 176.324C188.586 173.95 190.109 171.624 192.482 171.128C194.856 170.632 197.182 172.154 197.678 174.528Z" fill="white"/>
<path d="M197.743 192.039L130.977 205.987L132.222 211.948L198.988 198L197.743 192.039Z" stroke="white" stroke-miterlimit="10"/>
<path d="M203.943 221.712L137.177 235.66L138.422 241.622L205.188 227.674L203.943 221.712Z" stroke="white" stroke-miterlimit="10"/>
<path d="M207.043 236.548L140.277 250.496L141.522 256.458L208.288 242.51L207.043 236.548Z" stroke="white" stroke-miterlimit="10"/>
<path d="M200.844 206.875L134.078 220.823L135.323 226.785L202.089 212.837L200.844 206.875Z" stroke="white" stroke-miterlimit="10"/>
<path d="M106.051 216.419C114.601 216.419 121.531 223.349 121.531 231.909C121.531 237.019 119.051 241.559 115.231 244.379C112.391 240.929 108.081 238.719 103.261 238.719C101.951 238.719 100.671 238.879 99.4505 239.199C98.5705 234.299 95.3805 230.199 91.0405 228.069C92.7505 221.369 98.8305 216.419 106.051 216.419Z" fill="#91CFF9"/>
<path d="M115.23 244.379C117.43 247.049 118.74 250.479 118.74 254.199C118.74 262.759 111.81 269.689 103.26 269.689C95.6603 269.689 89.3403 264.209 88.0303 256.979C93.5103 255.589 97.8203 251.279 99.2203 245.809C101.28 246.819 103.6 247.389 106.05 247.389C109.49 247.389 112.66 246.269 115.23 244.379Z" fill="#91CFF9"/>
<path d="M103.261 238.719C108.081 238.719 112.391 240.929 115.231 244.379C112.661 246.269 109.491 247.389 106.051 247.389C103.601 247.389 101.281 246.819 99.2207 245.809C99.5307 244.579 99.7007 243.299 99.7007 241.969C99.7007 241.019 99.6207 240.099 99.4507 239.199C100.671 238.879 101.951 238.719 103.261 238.719Z" fill="#45A2EF"/>
<path d="M99.4506 239.199C99.6206 240.099 99.7006 241.019 99.7006 241.969C99.7006 243.299 99.5306 244.579 99.2206 245.809C97.2306 244.829 95.4706 243.429 94.0806 241.729C95.6706 240.559 97.4906 239.689 99.4506 239.199Z" fill="#1479E0"/>
<path d="M91.0406 228.069C95.3806 230.199 98.5706 234.299 99.4506 239.199C97.4906 239.689 95.6705 240.559 94.0805 241.729C91.8705 239.049 90.5605 235.639 90.5605 231.909C90.5605 230.579 90.7306 229.299 91.0406 228.069Z" fill="#45A2EF"/>
<path d="M99.2203 245.809C97.8203 251.279 93.5103 255.589 88.0303 256.979C87.8703 256.079 87.7803 255.149 87.7803 254.199C87.7803 249.079 90.2603 244.549 94.0803 241.729C95.4703 243.429 97.2303 244.829 99.2203 245.809Z" fill="#45A2EF"/>
<path d="M94.0804 241.729C90.2604 244.549 87.7805 249.079 87.7805 254.199C87.7805 255.149 87.8705 256.079 88.0305 256.979C86.8105 257.299 85.5304 257.459 84.2104 257.459C75.6604 257.459 68.7305 250.519 68.7305 241.969C68.7305 233.419 75.6604 226.489 84.2104 226.489C86.6604 226.489 88.9805 227.059 91.0405 228.069C90.7305 229.299 90.5605 230.579 90.5605 231.909C90.5605 235.639 91.8704 239.049 94.0804 241.729Z" fill="#91CFF9"/>
<path d="M99.4505 239.199C99.6205 240.099 99.7005 241.019 99.7005 241.969C99.7005 243.299 99.5305 244.579 99.2205 245.809C97.8205 251.279 93.5105 255.589 88.0305 256.979C86.8105 257.299 85.5304 257.459 84.2104 257.459C75.6604 257.459 68.7305 250.519 68.7305 241.969C68.7305 233.419 75.6604 226.489 84.2104 226.489C86.6604 226.489 88.9805 227.059 91.0405 228.069C95.3805 230.199 98.5705 234.299 99.4505 239.199Z" stroke="white" stroke-miterlimit="10"/>
<path d="M115.23 244.379C117.43 247.049 118.74 250.479 118.74 254.199C118.74 262.759 111.81 269.689 103.26 269.689C95.6603 269.689 89.3403 264.209 88.0303 256.979C87.8703 256.079 87.7803 255.149 87.7803 254.199C87.7803 249.079 90.2603 244.549 94.0803 241.729C95.6703 240.559 97.4903 239.689 99.4503 239.199C100.67 238.879 101.95 238.719 103.26 238.719C108.08 238.719 112.39 240.929 115.23 244.379Z" stroke="white" stroke-miterlimit="10"/>
<path d="M91.0406 228.069C92.7506 221.369 98.8305 216.419 106.051 216.419C114.601 216.419 121.531 223.349 121.531 231.909C121.531 237.019 119.051 241.559 115.231 244.379C112.661 246.269 109.491 247.389 106.051 247.389C103.601 247.389 101.281 246.819 99.2206 245.809C97.2306 244.829 95.4705 243.429 94.0805 241.729C91.8705 239.049 90.5605 235.639 90.5605 231.909C90.5605 230.579 90.7306 229.299 91.0406 228.069Z" stroke="white" stroke-miterlimit="10"/>
<path d="M299.18 283.035C287.79 284.135 244.45 269.075 235.63 266.875C226.81 264.665 218 259.155 212.85 251.805C207.71 244.465 208.81 242.255 204.04 241.525C199.26 240.785 183.1 237.725 181.63 233.805C180.16 229.895 184.32 230.625 189.47 231.605C194.61 232.585 202.69 234.295 203.67 233.315C204.65 232.335 194.61 228.175 191.67 227.685C188.73 227.195 180.4 228.665 178.69 226.215C176.98 223.765 177.96 221.565 181.38 221.315C184.81 221.075 189.47 220.095 191.67 220.335C193.87 220.585 198.28 221.315 198.28 221.315C198.28 221.315 192.65 218.135 189.71 218.135C186.77 218.135 178.93 220.585 177.71 218.135C176.49 215.685 176.24 213.235 182.36 212.505C188.49 211.765 190.93 211.275 190.93 211.275C190.93 211.275 186.28 209.805 191.42 207.845C196.57 205.895 199.26 206.385 203.91 207.355C208.57 208.335 212.24 210.295 216.65 212.995C221.06 215.685 227.42 219.605 232.08 229.895C236.73 240.175 233.79 248.745 253.87 250.215C273.96 251.685 283.02 249.485 288.65 252.915C282.67 242.215 279.9 233.125 278.87 229.135C279.86 229.405 281.13 229.485 282.83 229.585C289.26 229.955 301.93 227.935 306.53 222.425C306.55 222.395 306.58 222.365 306.6 222.335C311.03 235.045 317.24 258.985 317.91 269.075C318.65 280.095 310.57 281.935 299.18 283.035Z" fill="#FFD2D5"/>
<path d="M47.9152 212.258C47.9152 212.258 59.1802 213.291 60.4052 216.562C61.6302 219.833 52.8132 220.866 47.9152 220.522C43.0172 220.177 47.9152 212.258 47.9152 212.258Z" fill="#FFD2D5"/>
<path d="M49.378 220.912C49.378 220.912 60.7121 220.974 62.3421 224.769C63.9721 228.564 55.3341 230.723 50.4191 230.822C45.5041 230.921 49.378 220.912 49.378 220.912Z" fill="#FFD2D5"/>
<path d="M50.1129 230.708C50.1129 230.708 61.4469 230.77 63.0769 234.565C64.7069 238.36 56.0689 240.519 51.1539 240.618C46.2389 240.716 50.1129 230.708 50.1129 230.708Z" fill="#FFD2D5"/>
<path d="M54.0314 239.769C54.0314 239.769 65.3654 239.832 66.9954 243.627C68.6254 247.422 59.9874 249.581 55.0724 249.68C50.1574 249.778 54.0314 239.769 54.0314 239.769Z" fill="#FFD2D5"/>
</svg>
