<svg width="252" height="323" viewBox="0 0 252 323" fill="none" xmlns="http://www.w3.org/2000/svg">
<path d="M116.381 223.562C129.506 220.843 142.062 215.326 153.02 207.196L165.319 198.071L166.621 168.398C166.621 168.398 130.12 199.763 79.9453 192.087L66.5034 214.026C81.9934 221.775 89.3063 227.569 116.381 223.562Z" fill="#E9E9E9"/>
<path d="M95.8403 198.176C92.9793 198.176 90.1053 198.056 87.2393 197.827C85.6283 197.698 84.5733 196.057 85.1603 194.551C85.1663 194.535 85.1723 194.52 85.1783 194.504C85.5723 193.499 86.5713 192.873 87.6473 192.959C90.4263 193.181 93.1614 193.297 95.8394 193.297C112.613 193.297 127.31 189.286 138.91 184.484C140.055 184.01 141.372 184.491 141.95 185.587C141.964 185.614 141.978 185.641 141.992 185.668C142.662 186.933 142.104 188.495 140.781 189.042C128.709 194.029 113.395 198.176 95.8403 198.176Z" fill="#FFD800"/>
<path d="M110.743 207.695C123.868 204.976 136.424 199.459 147.382 191.329L159.681 182.204L160.075 173.218C164.318 170.377 166.621 168.398 166.621 168.398L165.319 198.071L153.02 207.196C142.062 215.327 129.506 220.843 116.381 223.562C89.3053 227.569 81.9934 221.775 66.5034 214.025L72.6113 204.056C82.0293 208.391 91.2803 210.575 110.743 207.695Z" fill="url(#paint0_linear_240_135)"/>
<path d="M141.044 322.091H249.194V211.011C249.194 184.1 227.379 162.285 200.468 162.285H190.435C163.157 162.285 141.044 184.398 141.044 211.676V322.091Z" fill="white"/>
<path d="M180.767 182.265C172.073 204.034 167.606 227.26 167.606 250.7L167.606 321.091" stroke="#E9E5F6" stroke-width="3" stroke-miterlimit="10"/>
<path d="M182.218 281.682C182.218 289.773 191.622 292.159 199.5 292.091C207.267 292.024 216.449 290.773 216.449 281.682C216.449 272.591 216.449 254.091 216.449 254.091H182.218C182.218 254.091 182.218 273.591 182.218 281.682Z" fill="#E9E5F6"/>
<path d="M180.401 260.813L199.333 266.174L218.266 260.813V254.091H180.401V260.813Z" fill="#D7D1EB"/>
<path d="M226.871 191.859C226.871 182.425 224.182 173.623 219.541 166.162C236.973 173.584 249.196 190.869 249.196 211.011L249.348 322.091H227L226.871 191.859Z" fill="url(#paint1_linear_240_135)"/>
<path d="M147.55 211.677V251.584C147.55 253.66 145.62 255.178 143.596 254.717C143.574 254.712 143.552 254.707 143.531 254.702C142.073 254.37 141.044 253.064 141.044 251.569V211.677C141.044 194.419 149.901 179.239 163.312 170.41C165.35 169.068 168.072 170.34 168.32 172.767C168.323 172.796 168.326 172.826 168.329 172.855C168.45 174.033 167.908 175.186 166.919 175.837C155.263 183.511 147.55 196.707 147.55 211.677Z" fill="#EBAF3C"/>
<path d="M155.554 181.507C155.575 181.525 155.597 181.542 155.618 181.56C156.968 182.67 157.161 184.633 156.112 186.032C153.667 189.293 151.674 192.911 150.228 196.793C149.558 198.591 147.497 199.418 145.775 198.572C145.755 198.562 145.736 198.553 145.716 198.543C144.249 197.823 143.536 196.109 144.102 194.576C145.777 190.039 148.096 185.815 150.953 182.017C152.046 180.564 154.151 180.353 155.554 181.507Z" fill="#FFD800"/>
<path d="M144.548 261.049C144.57 261.051 144.592 261.053 144.614 261.054C146.277 261.19 147.551 262.596 147.551 264.265V271.934C147.551 274.084 145.488 275.625 143.426 275.021C143.404 275.015 143.382 275.008 143.36 275.002C141.989 274.601 141.046 273.344 141.046 271.915V264.259C141.044 262.37 142.664 260.9 144.548 261.049Z" fill="#EBAF3C"/>
<path d="M219.051 123.47V167.132L177.605 190.365L173.009 167.132V123.47H219.051Z" fill="#FFAD91"/>
<path d="M173.009 157.198V123.541L173.019 123.47H219.051V161.171C212.272 167.103 203.06 170.181 193.434 168.865L189.343 168.306C182.185 167.327 176.313 163.034 173.009 157.198Z" fill="#CD8B74"/>
<path d="M209.629 137.355C208.691 144.218 213.494 150.543 220.357 151.481C227.22 152.419 233.545 147.616 234.483 140.753C235.421 133.89 230.618 127.565 223.755 126.627C216.892 125.689 210.568 130.492 209.629 137.355Z" fill="#7F45C5"/>
<path d="M176.11 89.425L224.592 96.0551L220.052 129.246L171.571 122.616L176.11 89.425Z" fill="#9D4EC5"/>
<path d="M219.357 126.026C218.419 132.889 223.222 139.214 230.085 140.152C236.948 141.09 243.273 136.287 244.211 129.424C245.149 122.561 240.346 116.236 233.483 115.298C226.62 114.359 220.296 119.163 219.357 126.026Z" fill="#7F45C5"/>
<path d="M168.594 127.465C161.851 126.714 156.994 120.639 157.745 113.897C158.496 107.154 164.571 102.297 171.314 103.048C178.057 103.799 182.914 109.874 182.163 116.617C181.412 123.359 175.337 128.216 168.594 127.465Z" fill="#9D4EC5"/>
<path d="M159.676 99.58C158.757 106.302 163.461 112.497 170.183 113.416C176.905 114.335 183.1 109.631 184.019 102.909C184.938 96.187 180.234 89.993 173.512 89.073C166.789 88.153 160.595 92.858 159.676 99.58Z" fill="#9D4EC5"/>
<path d="M162.899 100.02C162.72 101.328 162.828 102.631 163.201 103.858C163.425 104.596 163.047 105.383 162.352 105.718C162.342 105.723 162.332 105.727 162.323 105.732C161.43 106.163 160.361 105.697 160.077 104.747C159.59 103.122 159.432 101.37 159.677 99.579C160.519 93.421 165.786 88.957 171.832 88.957V92.21C167.347 92.211 163.507 95.568 162.899 100.02Z" fill="#FFD800"/>
<path d="M212.684 118.677C206.55 110.663 208.074 99.195 216.088 93.061C224.101 86.928 235.57 88.452 241.703 96.465C247.837 104.479 246.313 115.947 238.299 122.081C230.286 128.214 218.817 126.69 212.684 118.677Z" fill="#9D4EC5"/>
<path d="M220.426 119.348C230.424 120.715 239.638 113.718 241.005 103.72C241.455 100.431 240.994 97.2291 239.825 94.3611C243.905 98.2711 246.124 104.01 245.3 110.038C243.933 120.037 234.719 127.034 224.721 125.666C218.012 124.749 212.659 120.296 210.273 114.446C212.961 117.021 216.455 118.805 220.426 119.348Z" fill="#7F45C5"/>
<path d="M196.067 99.9741C190.411 92.3511 192.006 81.5861 199.63 75.9301C207.253 70.2741 218.018 71.8701 223.674 79.4931C229.33 87.1171 227.734 97.8821 220.111 103.537C212.487 109.193 201.722 107.598 196.067 99.9741Z" fill="#9D4EC5"/>
<path d="M189.414 109.289C179.466 109.148 171.515 100.97 171.655 91.022C171.796 81.075 179.974 73.124 189.922 73.264C199.87 73.404 207.82 81.583 207.68 91.53C207.54 101.478 199.362 109.429 189.414 109.289Z" fill="#9D4EC5"/>
<path d="M175.852 89.392C175.656 90.826 175.689 92.254 175.93 93.639C176.104 94.638 175.456 95.584 174.483 95.871C174.47 95.875 174.457 95.879 174.444 95.883C173.294 96.224 172.107 95.461 171.906 94.279C171.609 92.525 171.569 90.698 171.823 88.842C172.95 80.596 179.489 74.421 187.367 73.411C188.574 73.256 189.646 74.197 189.646 75.414V75.442C189.646 76.437 188.925 77.314 187.938 77.437C181.769 78.208 176.714 83.09 175.852 89.392Z" fill="#FFD800"/>
<path d="M180.09 78.989C180.111 79.026 180.131 79.063 180.152 79.1C180.593 79.88 180.414 80.845 179.783 81.481C178.359 82.917 177.241 84.662 176.543 86.615C176.209 87.549 175.216 88.081 174.251 87.852C174.213 87.843 174.176 87.834 174.138 87.826C172.979 87.558 172.311 86.344 172.71 85.223C173.629 82.644 175.108 80.362 176.985 78.502C177.911 77.584 179.453 77.851 180.09 78.989Z" fill="white"/>
<path d="M177.426 103.882C177.426 103.882 200.784 107.078 213.052 108.757C217.103 109.312 219.934 113.045 219.38 117.096L217.276 132.487C216.957 134.817 218.588 136.964 220.918 137.283L224.672 137.796C221.421 154.461 205.681 165.884 188.647 163.555L184.556 162.996C172.383 161.331 163.864 150.114 165.528 137.941L169.346 110.018C169.882 106.093 173.5 103.345 177.426 103.882Z" fill="#FFAD91"/>
<path d="M217.276 132.488C217.145 133.446 217.357 134.364 217.798 135.145L216.82 135.011C214.49 134.692 212.859 132.545 213.178 130.215L215.282 114.824C215.592 112.557 214.841 110.392 213.412 108.825C217.268 109.546 219.919 113.167 219.382 117.096L217.276 132.488Z" fill="#CD8B74"/>
<path d="M180.456 160.724L184.547 161.283C201.033 163.537 216.306 152.909 220.219 137.115C220.445 137.186 220.675 137.25 220.918 137.283L224.672 137.796C221.421 154.461 205.681 165.884 188.647 163.555L184.556 162.996C180.902 162.497 177.588 161.123 174.77 159.135C176.55 159.892 178.447 160.449 180.456 160.724Z" fill="#E69C83"/>
<path d="M169.137 149.53C168.285 150.098 167.106 149.745 166.745 148.786C165.482 145.438 165.008 141.737 165.527 137.942L166.282 132.417C166.41 131.478 167.318 130.855 168.242 131.066C168.253 131.069 168.263 131.071 168.274 131.073C169.085 131.259 169.617 132.036 169.504 132.86L168.749 138.382C168.307 141.613 168.713 144.767 169.791 147.623C170.052 148.315 169.788 149.094 169.173 149.505C169.162 149.513 169.149 149.521 169.137 149.53Z" fill="#FFD800"/>
<path d="M170.558 152.748C170.567 152.741 170.576 152.733 170.585 152.726C171.281 152.151 172.302 152.258 172.873 152.958C173.871 154.183 175.021 155.285 176.3 156.233C176.972 156.732 177.153 157.661 176.715 158.374C176.709 158.383 176.704 158.392 176.698 158.402C176.204 159.203 175.119 159.411 174.362 158.85C172.862 157.739 171.512 156.447 170.341 155.011C169.782 154.326 169.876 153.311 170.558 152.748Z" fill="#FFD800"/>
<path d="M184.322 125.202L180.767 133.93L186.597 134.727L190.896 125.26L184.322 125.202Z" fill="#E69C83"/>
<path d="M225.78 141.543L224.246 141.333L226.959 121.49L228.493 121.7C233.972 122.449 237.807 127.499 237.058 132.978C236.308 138.458 231.259 142.292 225.78 141.543Z" fill="#E69C83"/>
<path d="M167.055 109.912L219.373 117.067L218.708 121.926L166.39 114.771L167.055 109.912Z" fill="#33AEFF"/>
<path d="M200.38 114.47L204.685 115.059C206.099 115.252 207.038 116.619 206.719 118.01C206.715 118.026 206.712 118.042 206.708 118.058C206.428 119.282 205.26 120.087 204.016 119.917L199.712 119.328C198.325 119.138 197.364 117.813 197.663 116.446C197.666 116.43 197.67 116.414 197.673 116.398C197.946 115.145 199.109 114.297 200.38 114.47Z" fill="#FFD800"/>
<path d="M166.756 112.215C167.004 110.911 168.318 110.087 169.633 110.267L190.331 113.097C191.825 113.301 192.792 114.811 192.316 116.242C192.311 116.258 192.305 116.273 192.3 116.289C191.926 117.407 190.826 118.114 189.658 117.954L168.831 115.106C167.447 114.917 166.491 113.605 166.756 112.215Z" fill="#FFD800"/>
<path d="M218.72 121.927L233.883 124C234.25 121.317 232.372 118.844 229.689 118.477L219.384 117.068L218.72 121.927Z" fill="#0D68BE"/>
<path d="M217.022 134.346L218.72 121.927L226.749 123.025L219.867 131.962C219.09 132.971 218.113 133.774 217.022 134.346Z" fill="#E3E3E3"/>
<path d="M192.561 118.351L218.719 121.928L217.021 134.347C215.452 135.169 213.643 135.509 211.829 135.261L201 133.78C198.86 133.487 196.833 132.605 195.228 131.212C195.176 131.166 195.12 131.126 195.069 131.079C194.959 130.979 194.86 130.867 194.754 130.763C194.343 130.353 193.956 129.916 193.614 129.436C193.533 129.322 193.442 129.219 193.356 129.111C193.278 129.014 193.205 128.911 193.124 128.819C193.03 128.713 192.928 128.617 192.83 128.517C192.744 128.43 192.662 128.337 192.572 128.254C192.469 128.16 192.36 128.077 192.253 127.989C192.16 127.912 192.07 127.83 191.974 127.759C191.862 127.676 191.744 127.604 191.628 127.528C191.53 127.463 191.435 127.393 191.335 127.333C191.212 127.259 191.083 127.198 190.956 127.132C190.858 127.081 190.763 127.024 190.663 126.978C190.529 126.916 190.39 126.866 190.253 126.811C190.156 126.773 190.061 126.728 189.962 126.693C189.815 126.642 189.665 126.604 189.516 126.562C189.423 126.536 189.333 126.503 189.239 126.481C189.038 126.433 188.835 126.398 188.631 126.367C188.543 126.353 188.456 126.342 188.367 126.331C188.162 126.307 187.957 126.285 187.751 126.278C187.655 126.274 187.559 126.281 187.463 126.282C187.308 126.282 187.153 126.278 186.998 126.288C186.894 126.295 186.79 126.312 186.687 126.323C186.54 126.338 186.393 126.349 186.247 126.373C186.138 126.391 186.031 126.42 185.923 126.443C185.783 126.472 185.642 126.497 185.504 126.535C185.391 126.566 185.281 126.608 185.169 126.644C185.037 126.686 184.904 126.724 184.774 126.774C184.662 126.817 184.554 126.872 184.443 126.921C184.317 126.977 184.188 127.027 184.064 127.091C183.955 127.146 183.851 127.214 183.745 127.275C183.623 127.345 183.499 127.409 183.38 127.487C183.277 127.554 183.179 127.633 183.078 127.706C182.966 127.787 182.851 127.862 182.742 127.95C182.285 128.32 181.795 128.637 181.289 128.921C181.159 128.994 181.032 129.075 180.899 129.142C180.838 129.173 180.773 129.197 180.711 129.227C178.791 130.138 176.601 130.444 174.46 130.151L169.499 129.473C168.807 129.378 168.167 129.148 167.602 128.812C167.178 128.56 166.797 128.249 166.467 127.892C166.247 127.654 166.051 127.395 165.881 127.12C165.711 126.845 165.566 126.552 165.451 126.247C165.393 126.095 165.343 125.939 165.3 125.78C165.214 125.463 165.159 125.135 165.137 124.799C165.115 124.464 165.126 124.121 165.173 123.775L166.404 114.774L192.561 118.351Z" fill="white"/>
<path d="M165.172 123.775L165.688 120C165.821 119.028 166.785 118.4 167.729 118.67C167.74 118.673 167.75 118.676 167.761 118.679C168.53 118.9 169.019 119.653 168.911 120.445L168.396 124.215C168.379 124.339 168.375 124.463 168.383 124.583C168.391 124.7 168.41 124.816 168.441 124.929C168.456 124.985 168.474 125.04 168.494 125.094C168.535 125.202 168.587 125.308 168.648 125.407C168.709 125.506 168.78 125.6 168.86 125.686C168.979 125.815 169.115 125.926 169.264 126.014C169.47 126.136 169.697 126.215 169.94 126.248L171.542 126.467C172.398 126.584 173.019 127.358 172.928 128.217C172.927 128.228 172.926 128.238 172.925 128.249C172.828 129.159 172.01 129.814 171.103 129.69L169.499 129.471C168.807 129.376 168.167 129.146 167.602 128.81C167.178 128.558 166.797 128.247 166.467 127.89C166.247 127.652 166.051 127.393 165.881 127.118C165.71 126.843 165.566 126.55 165.451 126.245C165.393 126.093 165.343 125.937 165.3 125.778C165.214 125.461 165.159 125.133 165.136 124.797C165.114 124.463 165.125 124.121 165.172 123.775Z" fill="#FFD800"/>
<path d="M209.587 132.998C209.682 134.006 208.846 134.852 207.843 134.715L201 133.779C200.09 133.655 199.202 133.422 198.357 133.088C197.492 132.747 197.137 131.737 197.559 130.908C197.568 130.889 197.578 130.871 197.587 130.852C197.959 130.108 198.808 129.769 199.582 130.072C200.173 130.303 200.798 130.468 201.44 130.556L208.248 131.487C208.977 131.587 209.515 132.189 209.579 132.922C209.583 132.947 209.585 132.973 209.587 132.998Z" fill="#FFD800"/>
<path d="M188.581 155.065C191.805 155.506 194.777 153.249 195.218 150.025L195.803 145.746C196.244 142.522 193.987 139.55 190.763 139.109C187.539 138.668 184.567 140.925 184.126 144.149L183.541 148.428C183.1 151.653 185.357 154.624 188.581 155.065Z" fill="#E84C3D"/>
<path d="M199.674 126.148C199.466 127.673 200.533 129.079 202.058 129.287C203.583 129.495 204.989 128.428 205.197 126.903C205.406 125.378 204.338 123.972 202.813 123.764C201.288 123.555 199.883 124.623 199.674 126.148Z" fill="#0D68BE"/>
<path d="M173.26 122.536C173.052 124.061 174.119 125.467 175.644 125.675C177.169 125.884 178.575 124.816 178.783 123.291C178.992 121.766 177.924 120.36 176.399 120.152C174.874 119.944 173.469 121.011 173.26 122.536Z" fill="#0D68BE"/>
<path d="M206.606 130.756C206.967 130.756 207.31 130.545 207.461 130.191C207.662 129.719 207.443 129.173 206.971 128.972C206.831 128.911 203.479 127.511 200.345 128.857C199.873 129.059 199.655 129.606 199.858 130.077C200.06 130.549 200.607 130.768 201.078 130.564C203.489 129.528 206.215 130.668 206.242 130.68C206.361 130.732 206.485 130.756 206.606 130.756Z" fill="#E69C83"/>
<path d="M175.574 127.748C175.907 127.887 176.305 127.824 176.58 127.556C176.947 127.198 176.956 126.61 176.597 126.242C176.491 126.132 173.937 123.549 170.526 123.584C170.013 123.589 169.601 124.009 169.606 124.522C169.611 125.036 170.031 125.448 170.544 125.442C173.168 125.415 175.244 127.517 175.265 127.538C175.357 127.631 175.462 127.701 175.574 127.748Z" fill="#E69C83"/>
<path d="M209.99 113.79C210.348 113.79 210.708 113.667 211 113.414C211.648 112.856 211.72 111.878 211.162 111.23C207.754 107.276 202.134 109.699 201.896 109.804C201.114 110.15 200.76 111.065 201.106 111.847C201.452 112.628 202.363 112.981 203.145 112.639C203.221 112.606 206.922 111.053 208.816 113.253C209.122 113.608 209.555 113.79 209.99 113.79Z" fill="#9D4EC5"/>
<path d="M181.808 109.934C182.257 109.934 182.703 109.74 183.008 109.366C183.547 108.705 183.453 107.734 182.794 107.193C182.593 107.027 177.829 103.187 173.485 106.079C172.773 106.554 172.58 107.515 173.055 108.226C173.53 108.938 174.49 109.13 175.202 108.656C177.63 107.037 180.799 109.562 180.831 109.588C181.119 109.821 181.464 109.934 181.808 109.934Z" fill="#9D4EC5"/>
<path d="M226.38 136.555C226.771 136.555 227.136 136.306 227.263 135.913C228.991 130.611 232.974 130.456 233.142 130.452C233.652 130.44 234.061 130.018 234.052 129.507C234.043 128.997 233.647 128.608 233.117 128.593C232.895 128.595 227.652 128.722 225.495 135.336C225.336 135.824 225.603 136.348 226.091 136.507C226.188 136.54 226.285 136.555 226.38 136.555Z" fill="#CD8B74"/>
<path d="M244.343 139.144C244.448 139.144 244.554 139.133 244.66 139.111C245.497 138.937 246.035 138.117 245.86 137.279C244.773 132.058 241.472 130.422 241.332 130.355C240.562 129.985 239.636 130.311 239.266 131.082C238.9 131.846 239.216 132.762 239.973 133.138C240.096 133.203 242.078 134.309 242.827 137.91C242.981 138.642 243.625 139.144 244.343 139.144Z" fill="#7F45C5"/>
<path d="M242.726 110.608C242.967 110.608 243.212 110.551 243.441 110.432C243.506 110.399 246.701 108.799 249.273 110.259C250.018 110.681 250.962 110.421 251.384 109.677C251.807 108.933 251.546 107.988 250.802 107.566C246.729 105.253 242.194 107.588 242.003 107.688C241.246 108.086 240.956 109.022 241.354 109.779C241.631 110.307 242.169 110.608 242.726 110.608Z" fill="#7F45C5"/>
<path d="M199.042 77.9171C199.226 78.0471 199.442 78.1381 199.679 78.1781C200.523 78.3201 201.321 77.7501 201.462 76.9071C201.496 76.7031 202.243 71.8281 197.258 65.4271C196.731 64.7511 195.759 64.6321 195.085 65.1571C194.41 65.6821 194.289 66.6551 194.815 67.3301C198.908 72.5851 198.414 76.3591 198.408 76.3961C198.306 77.0021 198.572 77.5851 199.042 77.9171Z" fill="#9D4EC5"/>
<path d="M198.491 79.9441C199.025 80.3211 199.761 80.3311 200.312 79.9191C200.997 79.4071 201.137 78.4371 200.625 77.7521C200.426 77.4861 195.703 71.2091 191.499 68.3841C190.789 67.9081 189.826 68.0971 189.35 68.8081C188.874 69.5181 189.088 70.4791 189.774 70.9571C193.535 73.4721 198.1 79.5471 198.145 79.6071C198.245 79.7401 198.362 79.8531 198.491 79.9441Z" fill="#9D4EC5"/>
<path d="M155.154 108.575C155.365 108.772 155.632 108.912 155.937 108.967L162.638 110.168C163.48 110.319 164.284 109.759 164.435 108.917C164.586 108.076 164.026 107.271 163.184 107.12L156.483 105.919C155.641 105.768 154.836 106.328 154.685 107.17C154.59 107.706 154.783 108.228 155.154 108.575Z" fill="#9D4EC5"/>
<path d="M227.033 92.0561C227.369 92.0561 227.708 91.9471 227.992 91.7221L232.66 88.0321C233.331 87.5021 233.445 86.5281 232.914 85.8571C232.385 85.1861 231.411 85.0721 230.739 85.6031L226.071 89.2931C225.4 89.8231 225.286 90.7971 225.817 91.4681C226.123 91.8541 226.576 92.0561 227.033 92.0561Z" fill="#9D4EC5"/>
<path d="M187.044 139.836C188.23 139.157 189.656 138.877 191.122 139.169C194.205 139.783 196.204 142.805 195.778 145.92L195.733 146.249L189.139 144.623C187.433 144.202 186.391 142.478 186.812 140.772L187.044 139.836Z" fill="white"/>
<path d="M157.76 113.592C157.922 112.404 158.253 111.282 158.721 110.242C159.133 109.326 160.286 108.988 161.104 109.57C161.116 109.579 161.128 109.588 161.141 109.596C161.785 110.059 161.995 110.897 161.672 111.622C161.336 112.375 161.099 113.182 160.983 114.032C160.656 116.422 161.28 118.797 162.739 120.718C163.058 121.138 163.408 121.524 163.787 121.876C164.338 122.389 164.488 123.203 164.116 123.858C164.111 123.867 164.105 123.877 164.1 123.886C163.585 124.785 162.365 124.974 161.604 124.27C158.759 121.643 157.195 117.721 157.76 113.592Z" fill="#FFD800"/>
<path d="M205.971 74.3361C205.976 74.3461 205.982 74.3561 205.987 74.3661C206.447 75.2231 206.037 76.2881 205.123 76.6221C202.273 77.6651 199.833 79.6221 198.185 82.1581C197.684 82.9291 196.626 83.0941 195.89 82.5431C195.878 82.5341 195.866 82.5251 195.854 82.5161C195.181 82.0121 194.996 81.0651 195.455 80.3601C197.493 77.2271 200.507 74.8391 204.007 73.5651C204.76 73.2901 205.593 73.6291 205.971 74.3361Z" fill="#FFD800"/>
<path d="M168.75 138.382C168.559 139.776 168.529 141.155 168.641 142.502C168.701 143.226 168.261 143.892 167.578 144.143C167.565 144.148 167.552 144.152 167.539 144.157C166.535 144.525 165.477 143.806 165.391 142.74C165.265 141.171 165.304 139.564 165.526 137.94L165.875 135.386C166.004 134.44 166.924 133.822 167.852 134.047C167.863 134.05 167.873 134.052 167.884 134.055C168.685 134.25 169.209 135.013 169.098 135.83L168.75 138.382Z" fill="white"/>
<path d="M125.656 238.059H149.082C174 238.059 198.479 231.5 220.058 219.041L231.034 212.704C238.44 208.428 240.978 198.958 236.702 191.551C232.426 184.145 222.956 181.607 215.549 185.883L204.573 192.22C187.725 201.947 168.537 207.088 149.082 207.088H125.655L125.656 238.059Z" fill="#E9E9E9"/>
<path d="M139.874 226.46C164.792 226.46 189.271 219.901 210.85 207.442L221.825 201.105C227.606 197.767 230.402 191.266 229.325 185.05C232.32 186.316 234.95 188.517 236.701 191.55C240.977 198.956 238.439 208.427 231.033 212.703L220.057 219.04C198.478 231.499 173.999 238.058 149.081 238.058H125.655V226.46H139.874Z" fill="url(#paint2_linear_240_135)"/>
<path d="M149.083 212.781H131.558C131.558 212.781 127.612 212.99 125.656 212.666V207.088H149.083C161.26 207.088 173.329 205.064 184.788 201.17C186.156 200.705 187.651 201.378 188.239 202.698L188.262 202.75C188.94 204.272 188.155 206.041 186.577 206.577C174.543 210.661 161.869 212.781 149.083 212.781Z" fill="#FFD800"/>
<path d="M167.068 207.842C167.075 207.86 167.082 207.878 167.089 207.896C167.733 209.598 166.629 211.459 164.826 211.705C161.593 212.146 158.338 212.451 155.071 212.619C153.712 212.689 152.481 211.756 152.204 210.423C152.199 210.398 152.194 210.374 152.189 210.349C151.83 208.64 153.043 207.008 154.788 206.919C157.883 206.762 160.966 206.478 164.029 206.062C165.335 205.887 166.601 206.609 167.068 207.842Z" fill="#EBAF3C"/>
<path d="M193.991 200.42C193.985 200.402 193.979 200.384 193.973 200.366C193.508 199.011 194.149 197.52 195.451 196.922C196.829 196.289 198.194 195.627 199.546 194.937C201.172 194.107 203.148 194.994 203.574 196.77C203.579 196.791 203.584 196.813 203.589 196.834C203.895 198.095 203.313 199.415 202.156 200.004C200.734 200.728 199.299 201.423 197.851 202.087C196.323 202.787 194.535 202.011 193.991 200.42Z" fill="#EBAF3C"/>
<path d="M106.625 203.563L117.943 214.881C118.391 215.329 119.117 215.329 119.565 214.881L123.295 211.151C126.178 208.268 126.178 203.593 123.295 200.71L116.386 193.801C113.691 191.106 109.32 191.106 106.625 193.801C103.93 196.497 103.93 200.867 106.625 203.563Z" fill="#0D68BE"/>
<path opacity="0.75" d="M100.518 232.738V191.022H98.296C96.303 191.022 94.688 189.407 94.688 187.414C94.688 185.421 96.303 183.806 98.296 183.806H119.435C121.427 183.806 123.043 185.421 123.043 187.414C123.043 189.407 121.428 191.022 119.435 191.022H117.213V232.738C125.239 236.029 130.898 243.911 130.898 253.122C130.898 265.29 121.034 275.154 108.866 275.154C96.698 275.154 86.834 265.29 86.834 253.122C86.833 243.91 92.491 236.028 100.518 232.738Z" fill="white"/>
<path d="M119.435 186.101H98.2962C97.9182 186.101 97.5861 186.264 97.3531 186.522C96.9641 186.954 96.3601 187.109 95.8611 186.81C95.8521 186.805 95.8442 186.8 95.8352 186.794C95.2692 186.453 95.0811 185.681 95.4911 185.164C96.1471 184.337 97.1562 183.805 98.2952 183.805H119.434C120.332 183.805 121.148 184.135 121.775 184.679C122.413 185.233 122.264 186.25 121.493 186.595C121.486 186.598 121.479 186.601 121.472 186.605C121.059 186.792 120.595 186.68 120.246 186.392C120.025 186.211 119.745 186.101 119.435 186.101Z" fill="#FFD800"/>
<path d="M91.424 253.122C91.424 253.983 91.493 254.827 91.62 255.652C91.785 256.725 91.207 257.771 90.19 258.151C90.176 258.156 90.161 258.162 90.147 258.167C88.785 258.676 87.303 257.802 87.083 256.365C86.921 255.307 86.834 254.225 86.834 253.122C86.834 248.455 88.296 244.136 90.775 240.576C91.516 239.512 93.025 239.331 94.038 240.141C94.05 240.151 94.062 240.16 94.074 240.17C94.99 240.903 95.227 242.231 94.555 243.192C92.586 246.011 91.424 249.43 91.424 253.122Z" fill="#FFD800"/>
<path d="M92.1224 263.853C92.1354 263.841 92.1494 263.83 92.1624 263.818C93.1084 262.992 94.5674 263.125 95.3594 264.1C95.9894 264.877 96.6844 265.598 97.4364 266.257C98.3814 267.085 98.4204 268.551 97.5634 269.47C97.5534 269.481 97.5424 269.493 97.5314 269.504C96.7014 270.394 95.3074 270.504 94.3924 269.702C93.4464 268.873 92.5714 267.965 91.7794 266.988C91.0104 266.038 91.1994 264.654 92.1224 263.853Z" fill="#FFD800"/>
<path d="M107.662 253.865C115.829 250.086 120.497 250.332 124.889 250.721C125.005 251.505 125.067 252.306 125.067 253.122C125.067 262.07 117.813 269.324 108.865 269.324C100.58 269.324 93.7522 263.104 92.7852 255.08C96.6262 256 102.589 256.212 107.662 253.865Z" fill="#E84C3D"/>
<path d="M94.0734 199.334H94.1624H115.133H118.178C122.308 199.334 125.657 202.682 125.657 206.813V209.858V213.139V238.059H102.97C98.1064 238.059 94.1634 234.116 94.1634 229.252V213.139H94.0744C90.2624 213.139 87.1724 210.049 87.1724 206.237C87.1714 202.424 90.2614 199.334 94.0734 199.334Z" fill="#33AEFF"/>
<path d="M47.3281 203.584L66.9251 215.014L81.1331 190.653C84.0611 185.633 82.3651 179.189 77.3451 176.261L59.2301 165.695L44.1571 191.538C41.7071 195.741 43.1261 201.134 47.3281 203.584Z" fill="#0D68BE"/>
<path opacity="0.75" d="M44.7583 211.545L70.7063 167.288L84.0443 175.108L68.7893 166.164C67.0703 165.156 66.4943 162.946 67.5013 161.227C68.5093 159.508 70.7193 158.932 72.4383 159.939L90.6743 170.631C92.3933 171.639 92.9693 173.849 91.9623 175.568C90.9543 177.287 88.7443 177.863 87.0253 176.856L85.1083 175.732L59.1603 219.989C56.8283 223.966 51.7143 225.3 47.7373 222.968C43.7603 220.637 42.4273 215.522 44.7583 211.545Z" fill="white"/>
<path d="M91.3732 176.304L67.1152 162.246C67.1952 161.897 67.3122 161.552 67.5022 161.227C68.5102 159.508 70.7202 158.932 72.4392 159.939L90.6752 170.631C92.3942 171.639 92.9702 173.849 91.9632 175.568C91.7982 175.849 91.5932 176.086 91.3732 176.304Z" fill="#FFD800"/>
<path d="M49.8603 219.348C52.1303 220.679 55.0493 219.918 56.3803 217.648L76.7633 182.883L68.5433 178.064L48.1613 212.829C46.8293 215.099 47.5903 218.018 49.8603 219.348Z" fill="#FE61CA"/>
<path d="M66.4268 203.566C66.4388 203.575 66.4509 203.585 66.4639 203.595C67.3699 204.296 67.6218 205.558 67.0418 206.546L61.2399 216.441C60.6199 217.499 59.2728 217.872 58.1928 217.294C58.1788 217.287 58.1658 217.279 58.1518 217.272C57.0218 216.663 56.6298 215.229 57.2798 214.121L63.0849 204.22C63.7769 203.039 65.3468 202.729 66.4268 203.566Z" fill="#FFD800"/>
<path d="M48.1042 172.293L63.5092 181.376C66.5572 183.173 70.4862 182.159 72.2832 179.111C74.3582 175.592 73.1872 171.057 69.6682 168.983L55.1152 160.402C51.8312 158.466 47.6002 159.558 45.6642 162.842C43.7282 166.125 44.8202 170.357 48.1042 172.293Z" fill="#33AEFF"/>
<path d="M84.5092 191.341L85.9652 187.965C87.3872 184.667 85.8662 180.84 82.5682 179.418C78.8652 177.822 74.5692 179.529 72.9732 183.232L71.8332 185.876C70.3242 189.377 71.9383 193.438 75.4383 194.947C78.9383 196.456 82.9992 194.841 84.5092 191.341Z" fill="#33AEFF"/>
<path d="M48.8591 170.818L55.0391 174.462C57.3771 175.84 60.3891 175.063 61.7671 172.725C63.3121 170.104 62.4401 166.727 59.8201 165.182L54.1531 161.841C51.6741 160.379 48.4791 161.204 47.0171 163.683C45.5551 166.161 46.3801 169.356 48.8591 170.818Z" fill="#FFD800"/>
<path d="M44.3982 203.092L49.1982 205.892C54.1042 208.753 60.4002 207.096 63.2612 202.19L66.6262 196.421C69.9292 190.758 68.0162 183.49 62.3532 180.187L52.3692 174.364C50.7052 173.394 48.5692 173.956 47.5992 175.62L40.4112 187.944C37.3292 193.228 39.1142 200.01 44.3982 203.092Z" fill="#33AEFF"/>
<path d="M108.62 132.783C99.3461 132.783 91.8281 125.265 91.8281 115.991C91.8281 106.717 99.3461 99.1991 108.62 99.1991C117.894 99.1991 125.412 106.717 125.412 115.991C125.412 125.265 117.894 132.783 108.62 132.783Z" fill="#E9662C"/>
<path d="M19.6553 115.352C15.7186 115.352 12.5273 112.161 12.5273 108.224C12.5273 104.287 15.7186 101.096 19.6553 101.096C23.592 101.096 26.7833 104.287 26.7833 108.224C26.7833 112.161 23.592 115.352 19.6553 115.352Z" fill="#E9662C"/>
<path d="M98.5695 80.416C95.3368 77.183 95.3368 71.942 98.5695 68.709C101.802 65.477 107.044 65.477 110.276 68.709C113.509 71.942 113.509 77.183 110.276 80.416C107.044 83.649 101.802 83.649 98.5695 80.416Z" fill="#E9662C"/>
<path d="M86.7116 65.4231C79.5448 62.7911 75.8683 54.8481 78.4998 47.6821C81.1313 40.5161 89.0744 36.8401 96.2412 39.4721C103.408 42.1031 107.085 50.0461 104.453 57.2121C101.821 64.3791 93.8784 68.0551 86.7116 65.4231Z" fill="#E9662C"/>
<path d="M16.1274 87.9931C16.1274 78.6251 20.2534 70.2261 26.7814 64.4971C25.6354 61.9831 24.9924 59.1931 24.9924 56.2501C24.9924 46.0821 32.6144 37.7011 42.4554 36.4921C43.6904 23.9541 53.9504 13.8321 66.6464 12.9591C81.9384 11.9071 94.6704 24.0001 94.6704 39.0681C94.6704 45.5011 92.3454 51.3881 88.4954 55.9451C88.7334 55.9341 88.9674 55.9091 89.2084 55.9091C97.2524 55.9091 103.773 62.4301 103.773 70.4751C103.773 71.4121 103.676 72.3251 103.507 73.2121C104.491 73.0701 105.495 72.9931 106.518 72.9931C118.09 72.9931 127.471 82.3741 127.471 93.9461C127.471 105.502 118.115 114.872 106.565 114.898C108.162 116.974 109.121 119.566 109.121 122.388C109.121 122.908 109.078 123.417 109.016 123.921C111.582 123.335 114.32 123.203 117.158 123.679C127.884 125.478 135.219 135.366 134.61 146.225C134.012 156.894 128.238 165.005 117.292 165.005C114.583 165.199 112.27 167.035 111.467 169.63L109.084 177.328L106.75 170.048C105.867 167.294 103.291 165.437 100.399 165.471L84.2004 165.658C73.5714 165.658 64.9284 157.265 64.6414 146.806C62.2334 147.573 59.6384 147.921 56.9394 147.75C46.6574 147.1 38.2594 138.845 37.4464 128.574C37.1514 124.847 37.8434 121.311 39.2774 118.185C25.9464 114.611 16.1274 102.451 16.1274 87.9931Z" fill="#EBAF3C"/>
<path d="M45.9282 118.446C54.8802 118.446 62.9122 114.527 68.4162 108.316C74.9392 111.884 79.3642 118.809 79.3642 126.768C79.3642 138.377 69.9531 147.787 58.3451 147.787C46.7361 147.787 37.3262 138.376 37.3262 126.768C37.3262 123.528 38.0601 120.459 39.3701 117.719C41.4821 118.19 43.6752 118.446 45.9282 118.446Z" fill="#E9662C"/>
<path d="M28.3201 133.827C21.2498 133.827 15.5181 128.095 15.5181 121.025C15.5181 113.955 21.2498 108.223 28.3201 108.223C35.3905 108.223 41.1221 113.955 41.1221 121.025C41.1221 128.095 35.3905 133.827 28.3201 133.827Z" fill="#E9662C"/>
<path d="M30.1973 136.388C30.1973 140.325 33.3883 143.516 37.3253 143.516C41.2623 143.516 44.4533 140.325 44.4533 136.388C44.4533 132.451 41.2623 129.26 37.3253 129.26C33.3883 129.26 30.1973 132.451 30.1973 136.388Z" fill="#E9662C"/>
<path d="M90.9712 80.0181C88.8662 76.8061 85.9042 74.2061 82.4072 72.5481C86.2292 68.7541 88.5972 63.4961 88.5972 57.6851C88.5972 57.1131 88.5682 56.5491 88.5232 55.9881C88.5992 55.9711 88.6722 55.9501 88.7482 55.9311C88.9012 55.9211 89.0542 55.9081 89.2092 55.9081C97.2532 55.9081 103.774 62.4291 103.774 70.4741C103.774 71.4091 103.677 72.3211 103.509 73.2071C98.5462 73.9511 94.1532 76.4331 90.9712 80.0181Z" fill="#E9662C"/>
<path d="M49.6169 41.83C47.8611 31.081 55.1519 20.943 65.9014 19.187C76.6508 17.431 86.7884 24.722 88.5442 35.472C90.3 46.221 83.0092 56.359 72.2597 58.114C61.5103 59.87 51.3727 52.579 49.6169 41.83Z" fill="#FFD800"/>
<path d="M34.4874 52.412C26.8715 48.745 23.6702 39.599 27.337 31.983C31.0037 24.367 40.1502 21.166 47.7661 24.833C55.382 28.499 58.5833 37.646 54.9166 45.262C51.2498 52.878 42.1033 56.079 34.4874 52.412Z" fill="#FFD800"/>
<path d="M53.7081 67.287C46.952 67.287 41.4751 61.81 41.4751 55.054C41.4751 48.298 46.952 42.821 53.7081 42.821C60.4642 42.821 65.9411 48.298 65.9411 55.054C65.9411 61.81 60.4642 67.287 53.7081 67.287Z" fill="#FFD800"/>
<path d="M114.063 158.947C105.211 158.947 98.0342 151.771 98.0342 142.918C98.0342 134.065 105.211 126.889 114.063 126.889C122.916 126.889 130.092 134.065 130.092 142.918C130.092 151.771 122.916 158.947 114.063 158.947Z" fill="#FFD800"/>
<path d="M92.8673 94.1001C90.9669 85.9951 95.996 77.8851 104.101 75.9851C112.205 74.0841 120.315 79.1141 122.216 87.2181C124.116 95.3221 119.087 103.433 110.982 105.333C102.878 107.233 94.7676 102.204 92.8673 94.1001Z" fill="#FFD800"/>
<path d="M85.5725 133.349C84.6216 127.509 88.5852 122.004 94.4254 121.053C100.266 120.102 105.771 124.066 106.722 129.906C107.673 135.746 103.709 141.251 97.8689 142.202C92.0287 143.153 86.5234 139.19 85.5725 133.349Z" fill="#FFD800"/>
<path d="M75.9815 150.792C71.8288 150.792 68.4624 147.426 68.4624 143.273C68.4624 139.12 71.8288 135.754 75.9815 135.754C80.1341 135.754 83.5004 139.12 83.5004 143.273C83.5004 147.426 80.1341 150.792 75.9815 150.792Z" fill="#FFD800"/>
<path d="M80.3891 79.3511C76.2365 79.3511 72.8701 75.9851 72.8701 71.8321C72.8701 67.6791 76.2365 64.3131 80.3891 64.3131C84.5417 64.3131 87.9081 67.6791 87.9081 71.8321C87.9081 75.9851 84.5417 79.3511 80.3891 79.3511Z" fill="#FFD800"/>
<path d="M74.2141 85.168C71.3698 85.168 69.064 82.8621 69.064 80.0181C69.064 77.1741 71.3698 74.868 74.2141 74.868C77.0583 74.868 79.3641 77.1741 79.3641 80.0181C79.3641 82.8621 77.0583 85.168 74.2141 85.168Z" fill="#FFD800"/>
<path d="M86.6099 98.602C83.5983 95.85 83.3873 91.178 86.1387 88.167C88.8901 85.155 93.562 84.944 96.5736 87.696C99.5853 90.447 99.7963 95.119 97.0449 98.131C94.2934 101.142 89.6216 101.353 86.6099 98.602Z" fill="#FFD800"/>
<path d="M42.1664 100.04C41.2262 96.0701 43.6818 92.0901 47.6512 91.1501C51.6207 90.2101 55.6008 92.6651 56.541 96.6351C57.4813 100.604 55.0256 104.584 51.0562 105.525C47.0867 106.465 43.1067 104.009 42.1664 100.04Z" fill="#FFD800"/>
<path d="M37.6021 102.192C28.7075 102.192 21.4971 94.9821 21.4971 86.0871C21.4971 77.1921 28.7075 69.9821 37.6021 69.9821C46.4966 69.9821 53.7071 77.1921 53.7071 86.0871C53.7071 94.9821 46.4966 102.192 37.6021 102.192Z" fill="#FFD800"/>
<path d="M43.5381 118.338C44.3271 118.402 45.1231 118.445 45.9291 118.445C52.9091 118.445 59.3241 116.054 64.4231 112.06C67.1651 114.431 68.9051 117.926 68.9051 121.835C68.9051 128.978 63.1151 134.769 55.9711 134.769C48.8271 134.769 43.0371 128.978 43.0371 121.835C43.0381 120.621 43.2211 119.452 43.5381 118.338Z" fill="#FFD800"/>
<path d="M96.141 64.4061C95.0729 64.4061 94.207 63.5401 94.207 62.4721C94.207 61.4041 95.0729 60.5381 96.141 60.5381C97.2091 60.5381 98.075 61.4041 98.075 62.4721C98.075 63.5401 97.2091 64.4061 96.141 64.4061Z" fill="#FFD800"/>
<path d="M24.8574 82.0441C24.8574 85.5631 27.7104 88.4161 31.2294 88.4161C34.7484 88.4161 37.6014 85.5631 37.6014 82.0441C37.6014 78.5251 34.7484 75.6721 31.2294 75.6721C27.7114 75.6721 24.8574 78.5251 24.8574 82.0441Z" fill="white"/>
<path d="M100.938 87.555C99.9326 83.31 102.558 79.055 106.803 78.049C111.047 77.044 115.303 79.67 116.309 83.914C117.314 88.159 114.688 92.415 110.444 93.42C106.199 94.426 101.943 91.8 100.938 87.555Z" fill="white"/>
<path d="M118.264 145.254C114.326 145.254 111.134 142.062 111.134 138.124C111.134 134.186 114.326 130.994 118.264 130.994C122.202 130.994 125.394 134.186 125.394 138.124C125.394 142.062 122.202 145.254 118.264 145.254Z" fill="white"/>
<path d="M63.2366 32.498C62.4759 27.798 65.6691 23.371 70.3688 22.61C75.0686 21.85 79.4952 25.043 80.256 29.743C81.0167 34.442 77.8235 38.869 73.1238 39.63C68.424 40.39 63.9974 37.197 63.2366 32.498Z" fill="white"/>
<path d="M115.713 62.1671C115.713 65.6241 118.515 68.4261 121.972 68.4261C125.428 68.4261 128.231 65.6241 128.231 62.1671C128.231 58.7101 125.429 55.9081 121.972 55.9081C118.515 55.9081 115.713 58.7101 115.713 62.1671Z" fill="#EBAF3C"/>
<path d="M3.38818 98.3591C3.38818 100.153 4.84318 101.608 6.63718 101.608C8.43118 101.608 9.8862 100.153 9.8862 98.3591C9.8862 96.5651 8.43118 95.1101 6.63718 95.1101C4.84218 95.1101 3.38818 96.5641 3.38818 98.3591Z" fill="#E9662C"/>
<path d="M122.621 117.422C122.621 119.485 124.293 121.157 126.356 121.157C128.419 121.157 130.091 119.485 130.091 117.422C130.091 115.359 128.419 113.687 126.356 113.687C124.293 113.686 122.621 115.359 122.621 117.422Z" fill="#FFD800"/>
<path d="M35.8311 6.48801C35.8311 10.071 38.7361 12.976 42.3191 12.976C45.9021 12.976 48.8071 10.071 48.8071 6.48801C48.8071 2.90501 45.9021 0 42.3191 0C38.7361 0 35.8311 2.90401 35.8311 6.48801Z" fill="#FFD800"/>
<path d="M46.1863 158.271C44.4306 158.271 43.0073 156.848 43.0073 155.092C43.0073 153.336 44.4306 151.913 46.1863 151.913C47.942 151.913 49.3653 153.336 49.3653 155.092C49.3653 156.848 47.942 158.271 46.1863 158.271Z" fill="#E9662C"/>
<path d="M97.25 31.2361C97.25 33.2161 98.855 34.8201 100.835 34.8201C102.815 34.8201 104.419 33.2151 104.419 31.2361C104.419 29.2561 102.814 27.6511 100.835 27.6511C98.855 27.6511 97.25 29.2561 97.25 31.2361Z" fill="#E9662C"/>
<path d="M30.5393 57.522L19.6553 49.158L19.8713 53.942L10.7393 48.134L22.0903 60.167L22.8583 56.754L29.6863 62.472L30.5393 57.522Z" fill="#FFD800"/>
<path d="M32.2461 128.052L22.6881 145.254L30.1971 144.201L21.4971 162.609L38.9641 138.525L30.1971 140.078L39.7001 128.699L32.2461 128.052Z" fill="#FFD800"/>
<path d="M118.899 81.837L131.303 69.433L130.506 76.147L144.086 65.244L128.112 87.898L128.813 82.065L118.899 91.162V81.837Z" fill="#FFD800"/>
<path d="M77.6494 104.632C77.6494 104.632 83.9873 108.15 85.4273 115.352" stroke="#FFD800" stroke-width="6.8276" stroke-miterlimit="10" stroke-linecap="round"/>
<path d="M65.1893 69.9821C65.1893 69.9821 60.0683 72.1311 61.4343 80.0181" stroke="#E9662C" stroke-width="6.8276" stroke-miterlimit="10" stroke-linecap="round"/>
<path d="M91.6012 150.792C91.6012 150.792 89.2132 157.46 82.4072 158.271" stroke="#E9662C" stroke-width="6.8276" stroke-miterlimit="10" stroke-linecap="round"/>
<path d="M44.8805 200.035L45.7085 200.523C49.4805 202.747 54.3415 201.492 56.5655 197.72L60.0505 191.809C62.5445 187.58 61.1375 182.13 56.9075 179.636C52.9065 177.277 47.7515 178.608 45.3925 182.609L41.9075 188.52C39.5485 192.52 40.8795 197.676 44.8805 200.035Z" fill="#FFD800"/>
<path d="M100.97 233.355C103.344 233.355 105.268 231.431 105.268 229.057V205.92C105.268 203.546 103.344 201.622 100.97 201.622C98.5964 201.622 96.6724 203.546 96.6724 205.92V229.057C96.6734 231.431 98.5974 233.355 100.97 233.355Z" fill="#FFD800"/>
<path d="M5.85001 69.6391C6.48101 69.6391 6.99201 69.1281 6.99201 68.4971V66.3951C6.99201 65.7641 6.48101 65.2531 5.85001 65.2531C5.21901 65.2531 4.70801 65.7641 4.70801 66.3951V68.4971C4.70901 69.1281 5.22001 69.6391 5.85001 69.6391Z" fill="#E9662C"/>
<path d="M7.75033 70.736C8.06533 71.282 8.76433 71.469 9.31033 71.154L11.1303 70.103C11.6763 69.788 11.8633 69.089 11.5483 68.543C11.2333 67.997 10.5343 67.81 9.98834 68.125L8.16833 69.176C7.62133 69.491 7.43433 70.189 7.75033 70.736Z" fill="#E9662C"/>
<path d="M7.75015 72.928C7.43515 73.474 7.62216 74.173 8.16816 74.488L9.98816 75.539C10.5342 75.854 11.2332 75.667 11.5482 75.121C11.8632 74.575 11.6762 73.877 11.1302 73.561L9.31015 72.51C8.76315 72.195 8.06515 72.382 7.75015 72.928Z" fill="#E9662C"/>
<path d="M5.85001 74.025C5.21901 74.025 4.70801 74.536 4.70801 75.167V77.269C4.70801 77.9 5.21901 78.411 5.85001 78.411C6.48101 78.411 6.99201 77.9 6.99201 77.269V75.167C6.99201 74.536 6.48101 74.025 5.85001 74.025Z" fill="#E9662C"/>
<path d="M3.95099 72.928C3.63599 72.382 2.93699 72.195 2.39099 72.51L0.570986 73.561C0.0249858 73.876 -0.162013 74.575 0.152987 75.121C0.467987 75.667 1.16698 75.854 1.71298 75.539L3.53299 74.488C4.07999 74.173 4.26699 73.474 3.95099 72.928Z" fill="#E9662C"/>
<path d="M3.95148 70.736C4.26648 70.19 4.07948 69.491 3.53348 69.176L1.71347 68.125C1.16747 67.81 0.468475 67.997 0.153475 68.543C-0.161525 69.089 0.0254744 69.788 0.571474 70.103L2.39148 71.154C2.93848 71.469 3.63648 71.282 3.95148 70.736Z" fill="#E9662C"/>
<path d="M136.427 166.205C137.058 166.205 137.569 165.694 137.569 165.063V162.961C137.569 162.33 137.058 161.819 136.427 161.819C135.796 161.819 135.285 162.33 135.285 162.961V165.063C135.285 165.694 135.797 166.205 136.427 166.205Z" fill="#E9662C"/>
<path d="M138.326 167.302C138.641 167.848 139.34 168.035 139.886 167.72L141.706 166.669C142.252 166.354 142.439 165.655 142.124 165.109C141.809 164.563 141.11 164.376 140.564 164.691L138.744 165.742C138.198 166.057 138.011 166.755 138.326 167.302Z" fill="#E9662C"/>
<path d="M138.326 169.494C138.011 170.04 138.198 170.738 138.744 171.054L140.564 172.105C141.11 172.42 141.808 172.233 142.124 171.687C142.439 171.141 142.252 170.442 141.706 170.127L139.886 169.076C139.34 168.761 138.642 168.948 138.326 169.494Z" fill="#E9662C"/>
<path d="M136.427 170.591C135.796 170.591 135.285 171.102 135.285 171.733V173.835C135.285 174.466 135.796 174.977 136.427 174.977C137.058 174.977 137.569 174.466 137.569 173.835V171.733C137.569 171.102 137.058 170.591 136.427 170.591Z" fill="#E9662C"/>
<path d="M134.528 169.494C134.213 168.948 133.514 168.761 132.968 169.076L131.148 170.127C130.602 170.442 130.415 171.141 130.73 171.687C131.045 172.233 131.744 172.42 132.29 172.105L134.11 171.054C134.656 170.739 134.843 170.04 134.528 169.494Z" fill="#E9662C"/>
<path d="M134.528 167.302C134.843 166.756 134.656 166.057 134.11 165.742L132.29 164.691C131.744 164.376 131.045 164.563 130.73 165.109C130.415 165.655 130.602 166.353 131.148 166.669L132.968 167.72C133.515 168.035 134.213 167.848 134.528 167.302Z" fill="#E9662C"/>
<defs>
<linearGradient id="paint0_linear_240_135" x1="174.803" y1="252.346" x2="109.34" y2="183.63" gradientUnits="userSpaceOnUse">
<stop stop-color="#FBA5E2"/>
<stop offset="1" stop-color="#D7D1EB"/>
</linearGradient>
<linearGradient id="paint1_linear_240_135" x1="284.384" y1="338.113" x2="232.47" y2="232.59" gradientUnits="userSpaceOnUse">
<stop stop-color="#FBA5E2"/>
<stop offset="1" stop-color="#D7D1EB"/>
</linearGradient>
<linearGradient id="paint2_linear_240_135" x1="213.666" y1="259.675" x2="187.587" y2="223.599" gradientUnits="userSpaceOnUse">
<stop stop-color="#FBA5E2"/>
<stop offset="1" stop-color="#D7D1EB"/>
</linearGradient>
</defs>
</svg>
