<svg width="236" height="180" viewBox="0 0 236 180" fill="none" xmlns="http://www.w3.org/2000/svg">
<path d="M0.5 0V179H235.5" stroke="#E1EAF7" stroke-miterlimit="10"/>
<path d="M23.9951 179V178.156" stroke="#E1EAF7" stroke-width="0.25" stroke-miterlimit="10"/>
<path d="M23.9951 176.468V1.68799" stroke="#E1EAF7" stroke-width="0.25" stroke-miterlimit="10" stroke-dasharray="1 1"/>
<path d="M23.9951 0.844005V0" stroke="#E1EAF7" stroke-width="0.25" stroke-miterlimit="10"/>
<path d="M47.4963 179V178.156" stroke="#E1EAF7" stroke-width="0.25" stroke-miterlimit="10"/>
<path d="M47.4963 176.468V1.68799" stroke="#E1EAF7" stroke-width="0.25" stroke-miterlimit="10" stroke-dasharray="1 1"/>
<path d="M47.4963 0.844005V0" stroke="#E1EAF7" stroke-width="0.25" stroke-miterlimit="10"/>
<path d="M70.9958 179V178.156" stroke="#E1EAF7" stroke-width="0.25" stroke-miterlimit="10"/>
<path d="M70.9958 176.468V1.68799" stroke="#E1EAF7" stroke-width="0.25" stroke-miterlimit="10" stroke-dasharray="1 1"/>
<path d="M70.9958 0.844005V0" stroke="#E1EAF7" stroke-width="0.25" stroke-miterlimit="10"/>
<path d="M94.4961 179V178.156" stroke="#E1EAF7" stroke-width="0.25" stroke-miterlimit="10"/>
<path d="M94.4961 176.468V1.68799" stroke="#E1EAF7" stroke-width="0.25" stroke-miterlimit="10" stroke-dasharray="1 1"/>
<path d="M94.4961 0.844005V0" stroke="#E1EAF7" stroke-width="0.25" stroke-miterlimit="10"/>
<path d="M117.996 179V178.156" stroke="#E1EAF7" stroke-width="0.25" stroke-miterlimit="10"/>
<path d="M117.996 176.468V1.68799" stroke="#E1EAF7" stroke-width="0.25" stroke-miterlimit="10" stroke-dasharray="1 1"/>
<path d="M117.996 0.844005V0" stroke="#E1EAF7" stroke-width="0.25" stroke-miterlimit="10"/>
<path d="M141.498 179V178.156" stroke="#E1EAF7" stroke-width="0.25" stroke-miterlimit="10"/>
<path d="M141.498 176.468V1.68799" stroke="#E1EAF7" stroke-width="0.25" stroke-miterlimit="10" stroke-dasharray="1 1"/>
<path d="M141.498 0.844005V0" stroke="#E1EAF7" stroke-width="0.25" stroke-miterlimit="10"/>
<path d="M164.998 179V178.156" stroke="#E1EAF7" stroke-width="0.25" stroke-miterlimit="10"/>
<path d="M164.998 176.468V1.68799" stroke="#E1EAF7" stroke-width="0.25" stroke-miterlimit="10" stroke-dasharray="1 1"/>
<path d="M164.998 0.844005V0" stroke="#E1EAF7" stroke-width="0.25" stroke-miterlimit="10"/>
<path d="M188.499 179V178.156" stroke="#E1EAF7" stroke-width="0.25" stroke-miterlimit="10"/>
<path d="M188.499 176.468V1.68799" stroke="#E1EAF7" stroke-width="0.25" stroke-miterlimit="10" stroke-dasharray="1 1"/>
<path d="M188.499 0.844005V0" stroke="#E1EAF7" stroke-width="0.25" stroke-miterlimit="10"/>
<path d="M211.999 179V178.156" stroke="#E1EAF7" stroke-width="0.25" stroke-miterlimit="10"/>
<path d="M211.999 176.468V1.68799" stroke="#E1EAF7" stroke-width="0.25" stroke-miterlimit="10" stroke-dasharray="1 1"/>
<path d="M211.999 0.844005V0" stroke="#E1EAF7" stroke-width="0.25" stroke-miterlimit="10"/>
<path d="M235.5 179V178.156" stroke="#E1EAF7" stroke-width="0.25" stroke-miterlimit="10"/>
<path d="M235.5 176.468V1.68799" stroke="#E1EAF7" stroke-width="0.25" stroke-miterlimit="10" stroke-dasharray="1 1"/>
<path d="M235.5 0.844005V0" stroke="#E1EAF7" stroke-width="0.25" stroke-miterlimit="10"/>
<path d="M0.5 140.925H235.5" stroke="#E1EAF7" stroke-width="0.25" stroke-miterlimit="10" stroke-dasharray="1 1"/>
<path d="M0.5 102.854H235.5" stroke="#E1EAF7" stroke-width="0.25" stroke-miterlimit="10" stroke-dasharray="1 1"/>
<path d="M0.5 64.7809H235.5" stroke="#E1EAF7" stroke-width="0.25" stroke-miterlimit="10" stroke-dasharray="1 1"/>
<path d="M0.5 26.7045H235.5" stroke="#E1EAF7" stroke-width="0.25" stroke-miterlimit="10" stroke-dasharray="1 1"/>
<path d="M0.5 140.925C15.1858 140.925 19.2986 157.02 29.8706 152.378C44.0789 146.14 44.5554 68.2598 59.2402 68.2598C73.928 68.2598 73.9992 124.341 88.6138 126.778C101.68 128.957 103.302 97.8016 117.988 97.8016C132.676 97.8016 132.676 130.998 147.365 130.998C162.053 130.998 162.053 51.7308 176.74 51.7308C195.347 51.7308 191.431 28.8734 206.119 28.8734C220.809 28.8734 220.809 62.0715 235.498 62.0715" stroke="#292B2E" stroke-width="0.75" stroke-miterlimit="10"/>
<path d="M0.5 78.1058C15.1858 78.1058 15.1858 127.342 29.8706 127.342C44.5554 127.342 44.5554 102.854 59.2402 102.854C74.7215 102.854 78.6086 118.618 88.6138 113.556C102.679 106.439 103.302 24.0912 117.988 24.0912C132.676 24.0912 132.676 90.6258 147.365 90.6258C162.053 90.6258 162.053 140.925 176.74 140.925C191.431 140.925 190.08 157.02 206.119 157.02C221.804 157.02 220.809 100.614 235.498 100.614" stroke="#4066FF" stroke-width="0.75" stroke-miterlimit="10"/>
<path d="M0.5 102.089C15.1858 102.089 15.1858 33.0917 29.8706 33.0917C44.5554 33.0917 44.5554 86.5662 59.2402 86.5662C74.9723 86.5662 76.3556 55.6503 88.6138 62.9155C103.56 71.7759 103.302 159.976 117.988 159.976C132.676 159.976 132.676 102.854 147.365 102.854C162.053 102.854 162.053 102.854 176.74 102.854C191.431 102.854 191.431 55.1068 206.119 55.1068C220.809 55.1068 220.809 85.0689 235.498 85.0689" stroke="#FF425E" stroke-width="0.75" stroke-miterlimit="10"/>
</svg>
