<svg width="170" height="270" viewBox="0 0 170 270" fill="none" xmlns="http://www.w3.org/2000/svg">
<mask id="mask0_229_558" style="mask-type:luminance" maskUnits="userSpaceOnUse" x="135" y="224" width="4" height="12">
<path d="M138.879 224.37L138.861 230.824C138.856 232.459 137.787 234.092 135.652 235.333L135.67 228.879C137.805 227.638 138.874 226.006 138.879 224.37Z" fill="white"/>
</mask>
<g mask="url(#mask0_229_558)">
<path d="M138.879 224.37L138.861 230.824C138.858 231.817 138.463 232.81 137.673 233.715L137.691 227.261C138.48 226.356 138.876 225.364 138.879 224.37Z" fill="#252529"/>
<path d="M137.691 227.261L137.673 233.715C137.163 234.299 136.489 234.847 135.651 235.334L135.669 228.88C136.508 228.393 137.182 227.845 137.691 227.261Z" fill="#3F3E46"/>
</g>
<mask id="mask1_229_558" style="mask-type:luminance" maskUnits="userSpaceOnUse" x="6" y="225" width="4" height="12">
<path d="M6.65285 231.513L6.67085 225.059C6.66585 226.716 7.75385 228.376 9.93185 229.633L9.91385 236.087C7.73485 234.83 6.64785 233.17 6.65285 231.513Z" fill="white"/>
</mask>
<g mask="url(#mask1_229_558)">
<path d="M9.93185 229.633L9.91385 236.087C7.73585 234.83 6.64785 233.17 6.65285 231.513L6.67085 225.059C6.66585 226.716 7.75385 228.376 9.93185 229.633Z" fill="#252529"/>
</g>
<path d="M135.669 228.88L135.651 235.334L80.1367 267.583L80.1547 261.129L135.669 228.88Z" fill="#38373E"/>
<path d="M64.4801 261.127L64.4621 267.581L9.91309 236.087L9.93208 229.633L64.4801 261.127Z" fill="#252529"/>
<mask id="mask2_229_558" style="mask-type:luminance" maskUnits="userSpaceOnUse" x="64" y="261" width="17" height="9">
<path d="M80.1549 261.129L80.1359 267.583C75.8419 270.078 68.7879 270.079 64.4609 267.58L64.4789 261.126C68.8079 263.625 75.8609 263.625 80.1549 261.129Z" fill="white"/>
</mask>
<g mask="url(#mask2_229_558)">
<path d="M80.1548 261.129L80.1358 267.583C78.5838 268.485 76.6698 269.062 74.6548 269.311L74.6728 262.857C76.6888 262.608 78.6028 262.032 80.1548 261.129Z" fill="#38373E"/>
<path d="M74.6739 262.857L74.6559 269.311C71.0989 269.752 67.2239 269.175 64.4619 267.58L64.4799 261.126C67.2429 262.722 71.1159 263.298 74.6739 262.857Z" fill="#252529"/>
</g>
<path d="M135.618 219.797C139.945 222.295 139.968 226.381 135.669 228.88L80.1548 261.13C75.8608 263.625 68.8068 263.625 64.4798 261.127L9.93184 229.633C5.60484 227.135 5.58184 223.049 9.87584 220.554L65.3898 188.304C69.6888 185.805 76.7428 185.806 81.0698 188.304L135.618 219.797Z" fill="#3F3E46"/>
<path d="M107.428 209.224L107.407 216.672C107.397 220.044 105.181 223.411 100.754 225.984C91.8422 231.162 77.3452 231.163 68.3752 225.984C63.8612 223.378 61.6072 219.957 61.6172 216.541L61.6382 209.092C61.6282 212.508 63.8832 215.929 68.3962 218.535C77.3662 223.713 91.8632 223.713 100.774 218.535C105.202 215.963 107.418 212.596 107.428 209.224Z" fill="#E0E2EA"/>
<mask id="mask3_229_558" style="mask-type:luminance" maskUnits="userSpaceOnUse" x="61" y="209" width="47" height="21">
<path d="M107.428 209.224L107.407 216.672C107.397 220.044 105.181 223.411 100.754 225.984C91.8422 231.162 77.3452 231.163 68.3752 225.984C63.8612 223.378 61.6072 219.957 61.6172 216.541L61.6382 209.092C61.6282 212.508 63.8832 215.929 68.3962 218.535C77.3662 223.713 91.8632 223.713 100.774 218.535C105.202 215.963 107.418 212.596 107.428 209.224Z" fill="white"/>
</mask>
<g mask="url(#mask3_229_558)">
<path d="M107.428 209.224L107.407 216.672C107.404 217.723 107.187 218.773 106.755 219.799L106.776 212.35C107.207 211.325 107.425 210.275 107.428 209.224Z" fill="#E0E2EA"/>
<path d="M106.776 212.351L106.755 219.8C105.802 222.066 103.802 224.214 100.754 225.985C96.1934 228.635 90.1684 229.93 84.1704 229.867L84.1914 222.419C90.1894 222.482 96.2134 221.188 100.774 218.537C103.823 216.765 105.823 214.617 106.776 212.351Z" fill="#E0E2EA"/>
<path d="M84.1922 222.418L84.1712 229.866C78.4512 229.807 72.7552 228.512 68.3762 225.984C63.8622 223.378 61.6082 219.957 61.6182 216.541L61.6392 209.092C61.6292 212.508 63.8842 215.929 68.3972 218.535C72.7752 221.064 78.4712 222.358 84.1922 222.418Z" fill="#E0E2EA"/>
</g>
<path d="M100.67 199.781C109.64 204.96 109.687 213.357 100.775 218.536C91.863 223.715 77.367 223.715 68.397 218.536C59.427 213.357 59.38 204.96 68.292 199.781C77.203 194.603 91.7001 194.603 100.67 199.781Z" fill="#EEF0F8"/>
<path d="M90.1932 110.158L89.9152 208.317C89.9132 209.137 89.3742 209.956 88.2982 210.581C86.1312 211.84 82.6072 211.84 80.4262 210.581C79.3292 209.948 78.7812 209.116 78.7842 208.285L79.0622 110.126C79.0602 110.956 79.6072 111.788 80.7042 112.421C82.8852 113.68 86.4102 113.68 88.5762 112.421C89.6522 111.797 90.1912 110.978 90.1932 110.158Z" fill="#E0E2EA"/>
<mask id="mask4_229_558" style="mask-type:luminance" maskUnits="userSpaceOnUse" x="78" y="110" width="13" height="102">
<path d="M90.1932 110.158L89.9152 208.317C89.9132 209.137 89.3742 209.956 88.2982 210.581C86.1312 211.84 82.6072 211.84 80.4262 210.581C79.3292 209.948 78.7812 209.116 78.7842 208.285L79.0622 110.126C79.0602 110.956 79.6072 111.788 80.7042 112.421C82.8852 113.68 86.4102 113.68 88.5762 112.421C89.6522 111.797 90.1912 110.978 90.1932 110.158Z" fill="white"/>
</mask>
<g mask="url(#mask4_229_558)">
<path d="M90.0353 110.918L89.7573 209.077C89.8623 208.828 89.9153 208.572 89.9163 208.317L90.1943 110.158C90.1923 110.414 90.1403 110.669 90.0353 110.918Z" fill="#DFCEC5"/>
<path d="M90.0352 110.918C89.8032 111.469 89.3172 111.991 88.5772 112.421C87.4682 113.065 86.0042 113.38 84.5462 113.365C83.1552 113.35 81.7702 113.036 80.7062 112.421C79.6092 111.788 79.0612 110.956 79.0632 110.126L78.7852 208.285C78.7822 209.115 79.3302 209.948 80.4272 210.581C81.4912 211.196 82.8762 211.51 84.2672 211.525C85.7252 211.54 87.1902 211.226 88.2992 210.581C89.0392 210.151 89.5252 209.629 89.7572 209.078L90.0352 110.918Z" fill="url(#paint0_linear_229_558)"/>
</g>
<path d="M88.5513 107.863C90.7313 109.122 90.7433 111.164 88.5773 112.422C86.4113 113.681 82.8863 113.681 80.7053 112.422C78.5253 111.164 78.5143 109.122 80.6803 107.863C82.8453 106.604 86.3703 106.604 88.5513 107.863Z" fill="#E0E2EA"/>
<mask id="mask5_229_558" style="mask-type:luminance" maskUnits="userSpaceOnUse" x="76" y="101" width="21" height="11">
<path d="M81.5302 102.147L96.6852 110.954C95.3982 110.206 93.6162 110.312 91.6482 111.448L76.4932 102.641C78.4612 101.504 80.2432 101.399 81.5302 102.147Z" fill="white"/>
</mask>
<g mask="url(#mask5_229_558)">
<path d="M91.6482 111.448L76.4932 102.641C77.2442 102.208 77.9682 101.924 78.6482 101.781L93.8032 110.588C93.1232 110.731 92.3992 111.014 91.6482 111.448Z" fill="#38373E"/>
<path d="M93.8029 110.588L78.6479 101.781C79.6919 101.561 80.632 101.672 81.405 102.078L96.56 110.886C95.787 110.478 94.8469 110.367 93.8029 110.588Z" fill="#282632"/>
<path d="M96.5603 110.885L81.4053 102.077C81.4473 102.099 81.4893 102.122 81.5303 102.147L96.6853 110.954C96.6443 110.93 96.6033 110.907 96.5603 110.885Z" fill="#212029"/>
</g>
<mask id="mask6_229_558" style="mask-type:luminance" maskUnits="userSpaceOnUse" x="69" y="102" width="23" height="27">
<path d="M86.656 128.203L71.501 119.396C70.231 118.658 69.444 117.09 69.438 114.862C69.425 110.369 72.584 104.898 76.493 102.641L91.648 111.448C87.738 113.705 84.58 119.176 84.592 123.669C84.599 125.897 85.386 127.465 86.656 128.203Z" fill="white"/>
</mask>
<g mask="url(#mask6_229_558)">
<path d="M86.656 128.203L71.501 119.396C70.231 118.658 69.444 117.09 69.438 114.862C69.433 113.141 69.894 111.276 70.684 109.503L85.839 118.311C85.049 120.084 84.588 121.949 84.593 123.67C84.599 125.897 85.386 127.465 86.656 128.203Z" fill="#212029"/>
<path d="M85.8381 118.31L70.6831 109.502C71.2961 108.126 72.1081 106.806 73.0541 105.651L88.2091 114.458C87.2631 115.613 86.4521 116.933 85.8381 118.31Z" fill="#282632"/>
<path d="M88.2102 114.458L73.0552 105.651C74.0722 104.41 75.2442 103.362 76.4932 102.64L91.6482 111.447C90.3992 112.169 89.2272 113.218 88.2102 114.458Z" fill="#38373E"/>
</g>
<path d="M91.6478 111.448C95.5578 109.19 98.7368 111.002 98.7498 115.495C98.7618 119.981 95.6038 125.452 91.6938 127.709C87.7838 129.966 84.6048 128.155 84.5918 123.669C84.5798 119.176 87.7388 113.705 91.6478 111.448Z" fill="#292733"/>
<path d="M89.9182 108.196C89.9402 108.08 89.9542 107.964 89.9552 107.848V107.847L90.1542 37.7332C90.1542 37.8502 90.1402 37.9672 90.1172 38.0832C90.1102 38.1192 90.0992 38.1552 90.0902 38.1912C90.0702 38.2722 90.0462 38.3532 90.0142 38.4332C89.9992 38.4712 89.9832 38.5092 89.9662 38.5472C89.9202 38.6482 89.8662 38.7482 89.8032 38.8472C89.7892 38.8702 89.7772 38.8922 89.7622 38.9152C89.6812 39.0332 89.5862 39.1492 89.4802 39.2622C89.4532 39.2912 89.4232 39.3182 89.3942 39.3472C89.3072 39.4342 89.2112 39.5192 89.1082 39.6022C89.0702 39.6322 89.0332 39.6632 88.9922 39.6932C88.8522 39.7982 88.7032 39.9012 88.5372 39.9972C88.4002 40.0772 88.2572 40.1512 88.1102 40.2212C88.0592 40.2452 88.0062 40.2652 87.9542 40.2872C87.8552 40.3312 87.7572 40.3752 87.6542 40.4142C87.5922 40.4382 87.5272 40.4572 87.4632 40.4802C87.3672 40.5142 87.2722 40.5482 87.1742 40.5782C87.1042 40.5992 87.0322 40.6162 86.9612 40.6352C86.8662 40.6612 86.7712 40.6882 86.6742 40.7112C86.6002 40.7282 86.5232 40.7422 86.4482 40.7572C86.3522 40.7772 86.2562 40.7972 86.1582 40.8142C86.0802 40.8272 86.0002 40.8362 85.9222 40.8482C85.8252 40.8622 85.7282 40.8772 85.6302 40.8872C85.5492 40.8962 85.4672 40.9012 85.3842 40.9072C85.2872 40.9152 85.1912 40.9242 85.0942 40.9292C85.0102 40.9332 84.9272 40.9342 84.8442 40.9362C84.7482 40.9382 84.6512 40.9422 84.5552 40.9422C84.4612 40.9422 84.3682 40.9372 84.2742 40.9342C84.1922 40.9312 84.1112 40.9302 84.0292 40.9242C83.9352 40.9182 83.8412 40.9092 83.7472 40.9002C83.6662 40.8932 83.5862 40.8872 83.5062 40.8782C83.4112 40.8672 83.3182 40.8522 83.2242 40.8382C83.1472 40.8272 83.0682 40.8172 82.9912 40.8032C82.8972 40.7872 82.8052 40.7662 82.7112 40.7462C82.6362 40.7302 82.5602 40.7172 82.4862 40.6992C82.3932 40.6772 82.3022 40.6502 82.2112 40.6252C82.1402 40.6062 82.0682 40.5882 81.9992 40.5672C81.9042 40.5382 81.8122 40.5042 81.7192 40.4722C81.6562 40.4502 81.5912 40.4302 81.5302 40.4062C81.4282 40.3672 81.3312 40.3232 81.2332 40.2802C81.1842 40.2592 81.1332 40.2392 81.0842 40.2162C80.9402 40.1482 80.8002 40.0752 80.6652 39.9972C79.5682 39.3642 79.0202 38.5322 79.0232 37.7022L78.8242 107.816C78.8222 108.647 79.3692 109.478 80.4662 110.111C80.6012 110.189 80.7412 110.262 80.8852 110.33C80.9332 110.353 80.9852 110.372 81.0342 110.394C81.1322 110.437 81.2302 110.481 81.3312 110.52C81.3922 110.543 81.4562 110.563 81.5182 110.584C81.6122 110.617 81.7042 110.651 81.8002 110.681C81.8682 110.702 81.9382 110.719 82.0072 110.738C82.1012 110.764 82.1932 110.791 82.2882 110.813C82.3612 110.83 82.4362 110.844 82.5092 110.859C82.6032 110.879 82.6962 110.899 82.7922 110.916C82.8682 110.93 82.9472 110.939 83.0242 110.951C83.1182 110.964 83.2112 110.98 83.3062 110.99C83.3862 111 83.4672 111.005 83.5472 111.012C83.6412 111.021 83.7352 111.03 83.8292 111.036C83.9102 111.041 83.9922 111.043 84.0742 111.045C84.1512 111.048 84.2272 111.053 84.3042 111.054C84.3212 111.054 84.3372 111.053 84.3542 111.053C84.4502 111.053 84.5462 111.05 84.6422 111.048C84.7262 111.046 84.8102 111.045 84.8942 111.041C84.9902 111.036 85.0852 111.027 85.1812 111.02C85.2642 111.013 85.3472 111.008 85.4302 110.999C85.5282 110.989 85.6232 110.974 85.7192 110.96C85.7982 110.949 85.8782 110.94 85.9572 110.926C86.0552 110.91 86.1502 110.889 86.2472 110.869C86.3232 110.854 86.3992 110.841 86.4732 110.823C86.5702 110.801 86.6642 110.774 86.7602 110.747C86.8312 110.728 86.9032 110.711 86.9732 110.69C87.0712 110.66 87.1662 110.626 87.2622 110.592C87.3252 110.57 87.3912 110.55 87.4532 110.527C87.5562 110.488 87.6542 110.443 87.7522 110.4C87.8042 110.377 87.8582 110.357 87.9082 110.333C88.0552 110.263 88.1982 110.189 88.3342 110.109C88.5002 110.013 88.6492 109.91 88.7892 109.805C88.8292 109.775 88.8672 109.744 88.9052 109.713C89.0072 109.631 89.1022 109.546 89.1902 109.459C89.2192 109.43 89.2492 109.403 89.2772 109.374C89.3832 109.261 89.4782 109.145 89.5582 109.027C89.5732 109.005 89.5852 108.982 89.5992 108.96C89.6622 108.861 89.7172 108.761 89.7622 108.66C89.7702 108.642 89.7842 108.625 89.7922 108.606C89.8002 108.586 89.8032 108.566 89.8112 108.545C89.8422 108.465 89.8662 108.385 89.8872 108.304C89.9002 108.268 89.9112 108.232 89.9182 108.196Z" fill="url(#paint1_linear_229_558)"/>
<path d="M88.5111 35.4372C90.6911 36.6962 90.7031 38.7382 88.5371 39.9962C86.3711 41.2552 82.8461 41.2552 80.6651 39.9962C78.4851 38.7382 78.4731 36.6952 80.6401 35.4372C82.8061 34.1782 86.3311 34.1782 88.5111 35.4372Z" fill="#E0E2EA"/>
<mask id="mask7_229_558" style="mask-type:luminance" maskUnits="userSpaceOnUse" x="72" y="25" width="21" height="10">
<path d="M72.5488 34.4342L87.7038 25.6272C88.9908 24.8792 90.7738 24.9842 92.7408 26.1202L77.5858 34.9272C75.6178 33.7912 73.8358 33.6862 72.5488 34.4342Z" fill="white"/>
</mask>
<g mask="url(#mask7_229_558)">
<path d="M72.5488 34.4342L87.7038 25.6272C88.4228 25.2092 89.2958 25.0572 90.2708 25.2032L75.1148 34.0102C74.1418 33.8652 73.2678 34.0162 72.5488 34.4342Z" fill="#212029"/>
<path d="M75.1157 34.0103L90.2717 25.2032C90.8447 25.2892 91.4517 25.4773 92.0827 25.7743L76.9277 34.5823C76.2957 34.2843 75.6877 34.0963 75.1157 34.0103Z" fill="#282632"/>
<path d="M76.9268 34.5822L92.0818 25.7742C92.2988 25.8772 92.5188 25.9922 92.7408 26.1202L77.5858 34.9272C77.3638 34.7992 77.1438 34.6842 76.9268 34.5822Z" fill="#38373E"/>
</g>
<mask id="mask8_229_558" style="mask-type:luminance" maskUnits="userSpaceOnUse" x="77" y="26" width="23" height="26">
<path d="M97.732 42.8822L82.576 51.6892C83.847 50.9502 84.635 49.3802 84.641 47.1482C84.653 42.6552 81.496 37.1852 77.585 34.9272L92.74 26.1202C96.65 28.3782 99.808 33.8482 99.796 38.3412C99.79 40.5732 99.003 42.1442 97.732 42.8822Z" fill="white"/>
</mask>
<g mask="url(#mask8_229_558)">
<path d="M77.5859 34.9272L92.7409 26.1202C93.1589 26.3622 93.5689 26.6402 93.9669 26.9502L78.8119 35.7582C78.4139 35.4472 78.0039 35.1692 77.5859 34.9272Z" fill="#38373E"/>
<path d="M78.812 35.7583L93.967 26.9503C96.445 28.8793 98.475 32.0333 99.342 35.1763L84.187 43.9833C83.32 40.8413 81.29 37.6863 78.812 35.7583Z" fill="#3F3E46"/>
<path d="M84.187 43.9833L99.342 35.1763C99.558 35.9603 99.703 36.7433 99.763 37.5063L84.608 46.3133C84.548 45.5513 84.404 44.7683 84.187 43.9833Z" fill="#38373E"/>
<path d="M84.609 46.3143L99.764 37.5073C99.786 37.7883 99.798 38.0663 99.797 38.3413C99.795 38.7983 99.762 39.2283 99.697 39.6283L84.541 48.4363C84.606 48.0353 84.64 47.6063 84.641 47.1493C84.642 46.8743 84.631 46.5953 84.609 46.3143Z" fill="#282632"/>
<path d="M84.5421 48.4362L99.6981 39.6282C99.4481 41.1812 98.7431 42.2952 97.7331 42.8822L82.5781 51.6892C83.5871 51.1022 84.2921 49.9892 84.5421 48.4362Z" fill="#212029"/>
</g>
<path d="M77.5859 34.9273C81.4959 37.1853 84.6539 42.6552 84.6419 47.1482C84.6289 51.6412 81.4499 53.4533 77.5399 51.1953C73.6299 48.9383 70.4719 43.4673 70.4839 38.9743C70.4969 34.4823 73.6759 32.6703 77.5859 34.9273Z" fill="#1C1B23"/>
<path d="M148.235 68.2103C148.268 68.2033 148.299 68.1993 148.331 68.1933C148.395 68.1823 148.459 68.1723 148.522 68.1673C148.559 68.1643 148.595 68.1643 148.632 68.1633C148.69 68.1613 148.746 68.1623 148.802 68.1663C148.839 68.1693 148.875 68.1723 148.911 68.1783C148.965 68.1863 149.018 68.1963 149.07 68.2093C149.104 68.2183 149.138 68.2263 149.172 68.2373C149.224 68.2543 149.274 68.2763 149.324 68.2993C149.364 68.3173 149.404 68.3323 149.442 68.3543L93.2509 35.8973C93.2339 35.8873 93.2169 35.8773 93.1989 35.8683C93.1779 35.8573 93.1549 35.8513 93.1329 35.8413C93.0829 35.8183 93.0329 35.7963 92.9799 35.7793C92.9469 35.7683 92.9129 35.7593 92.8779 35.7513C92.8259 35.7383 92.7729 35.7283 92.7189 35.7203C92.6829 35.7153 92.6469 35.7113 92.6099 35.7093C92.5549 35.7053 92.4969 35.7043 92.4399 35.7063C92.4029 35.7073 92.3679 35.7073 92.3299 35.7103C92.2679 35.7153 92.2039 35.7253 92.1389 35.7363C92.1129 35.7403 92.0879 35.7413 92.0609 35.7473C92.0549 35.7483 92.0489 35.7513 92.0429 35.7523C91.9159 35.7803 91.7879 35.8203 91.6569 35.8703C91.6279 35.8813 91.5989 35.8943 91.5699 35.9063C91.4359 35.9623 91.3019 36.0253 91.1659 36.1033C91.0329 36.1803 90.8989 36.2703 90.7659 36.3683C90.7229 36.4003 90.6809 36.4363 90.6379 36.4703C90.5469 36.5413 90.4579 36.6153 90.3689 36.6963C90.3199 36.7403 90.2709 36.7883 90.2229 36.8353C90.1409 36.9153 90.0599 36.9983 89.9799 37.0853C89.9309 37.1383 89.8829 37.1933 89.8339 37.2493C89.8029 37.2853 89.7709 37.3173 89.7409 37.3543C89.6619 37.4513 89.5839 37.5513 89.5079 37.6553C89.3699 37.8453 89.2449 38.0403 89.1299 38.2383C89.1159 38.2623 89.1009 38.2853 89.0869 38.3093C88.9789 38.4973 88.8829 38.6883 88.7949 38.8803C88.7869 38.8983 88.7759 38.9153 88.7679 38.9333C88.7599 38.9503 88.7549 38.9673 88.7479 38.9843C88.6759 39.1483 88.6099 39.3143 88.5539 39.4783C88.5459 39.5033 88.5389 39.5263 88.5309 39.5503C88.4819 39.6983 88.4399 39.8463 88.4039 39.9913C88.3949 40.0263 88.3859 40.0613 88.3779 40.0953C88.3409 40.2563 88.3129 40.4153 88.2919 40.5713C88.2879 40.6013 88.2859 40.6313 88.2829 40.6613C88.2679 40.7993 88.2579 40.9343 88.2559 41.0663C88.2549 41.0933 88.2539 41.1203 88.2539 41.1463C88.2539 41.2933 88.2629 41.4343 88.2799 41.5703C88.2839 41.6013 88.2889 41.6303 88.2929 41.6603C88.3119 41.7843 88.3369 41.9033 88.3709 42.0163C88.3749 42.0313 88.3779 42.0463 88.3819 42.0613C88.4209 42.1823 88.4699 42.2953 88.5259 42.4023C88.5389 42.4273 88.5529 42.4513 88.5679 42.4763C88.6289 42.5813 88.6959 42.6803 88.7759 42.7673C88.8259 42.8223 88.8789 42.8713 88.9349 42.9153C88.9899 42.9603 89.0479 42.9993 89.1079 43.0343L145.299 75.4913C145.179 75.4213 145.068 75.3323 144.967 75.2243C144.887 75.1373 144.82 75.0383 144.759 74.9333C144.745 74.9093 144.731 74.8853 144.718 74.8593C144.662 74.7523 144.613 74.6393 144.574 74.5183C144.57 74.5033 144.567 74.4883 144.562 74.4733C144.529 74.3603 144.504 74.2403 144.485 74.1163C144.48 74.0863 144.475 74.0563 144.471 74.0263C144.455 73.8893 144.445 73.7483 144.445 73.6023C144.445 73.5763 144.447 73.5483 144.448 73.5223C144.451 73.3903 144.46 73.2553 144.475 73.1173C144.478 73.0873 144.481 73.0583 144.485 73.0273C144.505 72.8723 144.535 72.7133 144.571 72.5523C144.579 72.5183 144.588 72.4823 144.597 72.4483C144.633 72.3023 144.675 72.1553 144.724 72.0063C144.732 71.9823 144.739 71.9583 144.747 71.9343C144.804 71.7693 144.869 71.6043 144.941 71.4393C144.956 71.4043 144.972 71.3703 144.988 71.3353C145.076 71.1433 145.171 70.9523 145.279 70.7643C145.293 70.7403 145.308 70.7173 145.322 70.6933C145.438 70.4953 145.562 70.3003 145.701 70.1103C145.806 69.9653 145.916 69.8333 146.028 69.7033C146.076 69.6473 146.124 69.5933 146.173 69.5403C146.253 69.4523 146.334 69.3693 146.417 69.2893C146.465 69.2423 146.514 69.1943 146.563 69.1503C146.652 69.0693 146.742 68.9953 146.833 68.9243C146.876 68.8903 146.918 68.8543 146.961 68.8223C147.094 68.7243 147.227 68.6343 147.361 68.5573C147.497 68.4793 147.631 68.4153 147.765 68.3603C147.794 68.3483 147.823 68.3363 147.852 68.3243C147.979 68.2783 148.109 68.2383 148.235 68.2103Z" fill="url(#paint2_linear_229_558)"/>
<path d="M147.358 68.5612C148.289 68.0232 149.207 68.0042 149.777 68.6252C150.699 69.6232 150.369 71.9112 149.038 73.7352C148.532 74.4292 147.955 74.9562 147.382 75.2872C146.453 75.8232 145.537 75.8442 144.966 75.2272C144.045 74.2232 144.374 71.9352 145.7 70.1132C146.206 69.4192 146.785 68.8922 147.358 68.5612Z" fill="#C5C4C5"/>
<path d="M80.9758 119.019C80.9808 119.005 80.9828 118.989 80.9878 118.974C81.0208 118.861 81.0458 118.742 81.0648 118.618C81.0698 118.588 81.0748 118.558 81.0788 118.528C81.0958 118.391 81.1048 118.251 81.1048 118.104C81.1048 118.078 81.1028 118.05 81.1028 118.023C81.0998 117.892 81.0908 117.757 81.0748 117.62C81.0718 117.589 81.0698 117.559 81.0648 117.529C81.0448 117.373 81.0158 117.215 80.9788 117.054C80.9708 117.019 80.9618 116.984 80.9528 116.949C80.9168 116.803 80.8748 116.656 80.8258 116.508C80.8178 116.483 80.8108 116.46 80.8028 116.435C80.7468 116.27 80.6808 116.106 80.6088 115.941C80.6018 115.923 80.5958 115.906 80.5888 115.889C80.5808 115.871 80.5698 115.854 80.5618 115.836C80.4748 115.645 80.3788 115.454 80.2708 115.266C80.2568 115.242 80.2418 115.218 80.2278 115.194C80.1118 114.996 79.9878 114.801 79.8488 114.612C79.7728 114.508 79.6948 114.407 79.6158 114.311C79.5848 114.274 79.5528 114.242 79.5218 114.206C79.4738 114.15 79.4258 114.096 79.3768 114.043C79.2958 113.955 79.2148 113.872 79.1328 113.792C79.0848 113.745 79.0367 113.697 78.9867 113.653C78.8977 113.572 78.8078 113.498 78.7168 113.427C78.6738 113.393 78.6318 113.357 78.5898 113.326C78.4568 113.228 78.3228 113.138 78.1898 113.061C78.0538 112.983 77.9198 112.92 77.7858 112.864C77.7568 112.852 77.7278 112.84 77.6988 112.829C77.5678 112.779 77.4398 112.739 77.3128 112.711C77.3068 112.71 77.3008 112.707 77.2948 112.706C77.2688 112.701 77.2438 112.699 77.2168 112.695C77.1528 112.684 77.0887 112.674 77.0257 112.668C76.9887 112.665 76.9528 112.665 76.9168 112.664C76.8588 112.663 76.8028 112.663 76.7468 112.667C76.7098 112.67 76.6737 112.674 76.6377 112.679C76.5837 112.686 76.5308 112.697 76.4788 112.71C76.4448 112.718 76.4108 112.727 76.3778 112.738C76.3258 112.755 76.2748 112.777 76.2258 112.8C76.2048 112.81 76.1808 112.815 76.1598 112.826C76.1418 112.835 76.1257 112.845 76.1077 112.855L33.1768 137.749C33.2148 137.727 33.2558 137.712 33.2948 137.694C33.3448 137.671 33.3948 137.649 33.4468 137.633C33.4798 137.622 33.5138 137.613 33.5488 137.605C33.6008 137.592 33.6528 137.582 33.7068 137.574C33.7428 137.569 33.7798 137.565 33.8158 137.562C33.8718 137.558 33.9278 137.557 33.9848 137.559C34.0218 137.56 34.0578 137.56 34.0948 137.563C34.1568 137.568 34.2208 137.578 34.2848 137.59C34.3168 137.595 34.3488 137.599 34.3808 137.606C34.5068 137.634 34.6358 137.674 34.7668 137.724C34.7958 137.735 34.8248 137.747 34.8538 137.759C34.9878 137.815 35.1228 137.878 35.2578 137.956C35.3918 138.033 35.5248 138.123 35.6578 138.221C35.7008 138.252 35.7428 138.289 35.7848 138.322C35.8748 138.393 35.9648 138.467 36.0548 138.548C36.1038 138.593 36.1518 138.64 36.2008 138.688C36.2828 138.767 36.3638 138.851 36.4438 138.938C36.4928 138.991 36.5408 139.046 36.5898 139.102C36.7008 139.232 36.8108 139.364 36.9158 139.509C37.0538 139.698 37.1788 139.894 37.2948 140.092C37.3088 140.116 37.3238 140.139 37.3378 140.163C37.4448 140.351 37.5418 140.542 37.6288 140.734C37.6448 140.769 37.6608 140.803 37.6758 140.838C37.7478 141.003 37.8128 141.168 37.8698 141.333C37.8778 141.357 37.8848 141.381 37.8928 141.405C37.9418 141.553 37.9838 141.7 38.0198 141.846C38.0288 141.881 38.0378 141.915 38.0458 141.95C38.0828 142.111 38.1118 142.27 38.1318 142.425C38.1358 142.455 38.1388 142.485 38.1418 142.515C38.1568 142.653 38.1658 142.788 38.1688 142.92C38.1688 142.946 38.1708 142.974 38.1708 143C38.1708 143.146 38.1618 143.287 38.1448 143.424C38.1418 143.455 38.1358 143.484 38.1318 143.514C38.1128 143.638 38.0878 143.757 38.0548 143.87C38.0498 143.885 38.0478 143.9 38.0428 143.915C38.0048 144.037 37.9548 144.15 37.8988 144.257C37.8858 144.282 37.8718 144.306 37.8578 144.33C37.7968 144.435 37.7298 144.535 37.6498 144.622C37.5498 144.731 37.4378 144.82 37.3178 144.89L80.2488 119.996C80.3688 119.926 80.4798 119.837 80.5808 119.728C80.6608 119.641 80.7277 119.542 80.7887 119.436C80.8027 119.412 80.8168 119.388 80.8298 119.363C80.8878 119.254 80.9378 119.141 80.9758 119.019Z" fill="url(#paint3_linear_229_558)"/>
<path d="M35.2599 137.953C34.3289 137.415 33.4119 137.396 32.8409 138.018C31.9199 139.015 32.2489 141.304 33.5799 143.128C34.0859 143.822 34.6629 144.349 35.2359 144.679C36.1659 145.216 37.0809 145.236 37.6509 144.619C38.5719 143.615 38.2439 141.327 36.9179 139.505C36.4109 138.811 35.8329 138.284 35.2599 137.953Z" fill="#DFCEC5"/>
<path d="M89.9783 31.6353C90.0003 31.5193 90.0143 31.4033 90.0143 31.2863L90.0943 3.23927C90.0933 3.35527 90.0793 3.47226 90.0573 3.58926C90.0503 3.62526 90.0393 3.66127 90.0303 3.69727C90.0103 3.77827 89.9853 3.85927 89.9543 3.93927C89.9393 3.97727 89.9233 4.01526 89.9063 4.05326C89.8603 4.15426 89.8063 4.25426 89.7423 4.35326C89.7283 4.37626 89.7173 4.39826 89.7013 4.42126C89.6203 4.53926 89.5253 4.65526 89.4203 4.76826C89.3933 4.79726 89.3623 4.82426 89.3333 4.85326C89.2463 4.94026 89.1503 5.02526 89.0483 5.10826C89.0103 5.13926 88.9723 5.17026 88.9323 5.20026C88.7923 5.30526 88.6423 5.40826 88.4773 5.50426C88.3403 5.58426 88.1973 5.65826 88.0503 5.72826C88.0003 5.75226 87.9463 5.77227 87.8943 5.79427C87.7953 5.83827 87.6973 5.88226 87.5943 5.92126C87.5323 5.94526 87.4673 5.96427 87.4043 5.98627C87.3083 6.02027 87.2133 6.05427 87.1153 6.08427C87.0453 6.10527 86.9733 6.12227 86.9023 6.14127C86.8073 6.16727 86.7123 6.19427 86.6153 6.21727C86.5403 6.23427 86.4643 6.24826 86.3893 6.26326C86.2923 6.28226 86.1963 6.30427 86.0993 6.32027C86.0213 6.33327 85.9423 6.34327 85.8633 6.35427C85.7663 6.36827 85.6693 6.38226 85.5713 6.39326C85.4903 6.40226 85.4083 6.40727 85.3253 6.41327C85.2293 6.42127 85.1323 6.43026 85.0353 6.43526C84.9523 6.43926 84.8683 6.44026 84.7843 6.44226C84.6883 6.44426 84.5913 6.44727 84.4953 6.44727C84.4013 6.44727 84.3083 6.44327 84.2153 6.43927C84.1333 6.43627 84.0513 6.43426 83.9693 6.43026C83.8753 6.42426 83.7813 6.41527 83.6873 6.40627C83.6063 6.39927 83.5263 6.39327 83.4463 6.38427C83.3513 6.37327 83.2583 6.35826 83.1643 6.34426C83.0863 6.33226 83.0082 6.32326 82.9312 6.31026C82.8372 6.29326 82.7453 6.27327 82.6513 6.25327C82.5763 6.23827 82.5013 6.22426 82.4273 6.20626C82.3343 6.18426 82.2433 6.15727 82.1513 6.13227C82.0803 6.11227 82.0083 6.09526 81.9393 6.07426C81.8443 6.04526 81.7523 6.01127 81.6593 5.97927C81.5963 5.95727 81.5323 5.93726 81.4703 5.91426C81.3683 5.87526 81.2713 5.83127 81.1733 5.78827C81.1243 5.76627 81.0733 5.74727 81.0253 5.72427C80.8803 5.65627 80.7413 5.58326 80.6063 5.50526C79.9203 5.10926 79.4503 4.63627 79.1933 4.13427C79.0393 3.83327 78.9633 3.52227 78.9643 3.21027L78.8853 31.2563C78.8833 32.0863 79.4303 32.9183 80.5273 33.5523C80.6623 33.6293 80.8023 33.7023 80.9463 33.7713C80.9943 33.7943 81.0463 33.8133 81.0953 33.8353C81.1933 33.8783 81.2913 33.9223 81.3923 33.9613C81.4533 33.9853 81.5173 34.0043 81.5793 34.0263C81.6723 34.0593 81.7653 34.0933 81.8613 34.1223C81.9293 34.1433 81.9993 34.1603 82.0683 34.1793C82.1623 34.2053 82.2543 34.2313 82.3493 34.2553C82.4233 34.2723 82.4983 34.2863 82.5733 34.3013C82.6663 34.3213 82.7583 34.3413 82.8533 34.3583C82.9303 34.3713 83.0093 34.3813 83.0873 34.3933C83.1813 34.4073 83.2753 34.4223 83.3693 34.4333C83.4483 34.4423 83.5283 34.4483 83.6073 34.4553C83.7023 34.4633 83.7973 34.4733 83.8923 34.4793C83.9733 34.4843 84.0533 34.4863 84.1343 34.4883C84.2123 34.4903 84.2893 34.4963 84.3673 34.4963C84.3843 34.4963 84.4003 34.4953 84.4173 34.4953C84.5133 34.4953 84.6083 34.4923 84.7033 34.4903C84.7873 34.4883 84.8723 34.4873 84.9563 34.4833C85.0523 34.4783 85.1473 34.4703 85.2433 34.4623C85.3263 34.4563 85.4103 34.4503 85.4923 34.4413C85.5893 34.4313 85.6843 34.4163 85.7803 34.4033C85.8603 34.3923 85.9413 34.3823 86.0203 34.3693C86.1173 34.3533 86.2123 34.3323 86.3083 34.3133C86.3853 34.2983 86.4613 34.2843 86.5363 34.2673C86.6323 34.2453 86.7263 34.2183 86.8203 34.1923C86.8923 34.1733 86.9653 34.1553 87.0363 34.1343C87.1333 34.1043 87.2273 34.0703 87.3223 34.0373C87.3863 34.0153 87.4532 33.9953 87.5152 33.9703C87.6182 33.9313 87.7163 33.8873 87.8153 33.8443C87.8673 33.8213 87.9203 33.8013 87.9713 33.7773C88.1183 33.7083 88.2613 33.6333 88.3983 33.5543C88.5643 33.4573 88.7133 33.3553 88.8533 33.2503C88.8933 33.2203 88.9313 33.1893 88.9693 33.1583C89.0723 33.0753 89.1673 32.9913 89.2553 32.9033C89.2833 32.8753 89.3143 32.8473 89.3413 32.8183C89.4473 32.7053 89.5423 32.5903 89.6233 32.4723C89.6383 32.4493 89.6493 32.4273 89.6643 32.4043C89.7273 32.3053 89.7813 32.2053 89.8273 32.1043C89.8353 32.0863 89.8493 32.0693 89.8563 32.0503C89.8643 32.0303 89.8672 32.0103 89.8752 31.9893C89.9062 31.9093 89.9303 31.8293 89.9513 31.7483C89.9593 31.7073 89.9713 31.6723 89.9783 31.6353Z" fill="url(#paint4_linear_229_558)"/>
<path d="M88.4512 0.94425C90.6322 2.20325 90.6432 4.24525 88.4772 5.50325C86.3112 6.76225 82.7862 6.76225 80.6052 5.50325C78.4252 4.24525 78.4142 2.20325 80.5802 0.94425C82.7462 -0.31475 86.2712 -0.31475 88.4512 0.94425Z" fill="#BFBECC"/>
<path d="M38.1752 144.188L38.1552 151.199C38.1602 149.302 36.9122 147.401 34.4112 145.958C29.4362 143.086 21.3672 143.086 16.4252 145.958C13.9732 147.383 12.7452 149.253 12.7402 151.127L12.7602 144.115C12.7652 142.242 13.9932 140.372 16.4452 138.946C21.3882 136.074 29.4572 136.074 34.4322 138.946C36.9312 140.39 38.1802 142.29 38.1752 144.188Z" fill="#252529"/>
<mask id="mask9_229_558" style="mask-type:luminance" maskUnits="userSpaceOnUse" x="12" y="136" width="27" height="16">
<path d="M38.1752 144.188L38.1552 151.199C38.1602 149.302 36.9122 147.401 34.4112 145.958C29.4362 143.086 21.3672 143.086 16.4252 145.958C13.9732 147.383 12.7452 149.253 12.7402 151.127L12.7602 144.115C12.7652 142.242 13.9932 140.372 16.4452 138.946C21.3882 136.074 29.4572 136.074 34.4322 138.946C36.9312 140.39 38.1802 142.29 38.1752 144.188Z" fill="white"/>
</mask>
<g mask="url(#mask9_229_558)">
<path d="M38.1752 144.188L38.1552 151.199C38.1602 149.302 36.9122 147.401 34.4112 145.958C31.9832 144.556 28.8172 143.838 25.6372 143.805L25.6572 136.794C28.8372 136.827 32.0022 137.545 34.4312 138.947C36.9312 140.39 38.1802 142.29 38.1752 144.188Z" fill="#252529"/>
<path d="M25.6571 136.793L25.6371 143.804C22.3031 143.769 18.9541 144.487 16.4241 145.957C14.7371 146.937 13.6301 148.127 13.1011 149.385L13.1211 142.373C13.6501 141.116 14.7571 139.925 16.4431 138.946C18.9741 137.476 22.3231 136.759 25.6571 136.793Z" fill="#252529"/>
<path d="M13.1223 142.374L13.1023 149.386C12.8613 149.957 12.7413 150.542 12.7393 151.127L12.7593 144.115C12.7603 143.53 12.8813 142.945 13.1223 142.374Z" fill="#252529"/>
</g>
<path d="M41.6113 144.198L41.5913 151.209C41.5843 153.59 40.0233 155.967 36.9023 157.781C30.6283 161.427 20.3813 161.427 14.0653 157.781C10.8843 155.945 9.29527 153.529 9.30227 151.117L9.32227 144.106C9.31527 146.517 10.9043 148.933 14.0853 150.77C20.4003 154.416 30.6473 154.416 36.9213 150.77C40.0433 148.956 41.6043 146.579 41.6113 144.198Z" fill="#252529"/>
<path d="M16.4445 138.947C21.3875 136.074 29.4565 136.074 34.4315 138.947C36.3305 140.043 37.5045 141.403 37.9585 142.824H41.4415C40.9555 140.889 39.4255 139.024 36.8545 137.539C30.5335 133.89 20.2865 133.89 14.0065 137.539C11.4515 139.024 9.94349 140.889 9.47949 142.824H12.9615C13.3995 141.402 14.5585 140.043 16.4445 138.947Z" fill="#3F3E46"/>
<path d="M37.2373 127.792H14.0303V154.745H37.2373V127.792Z" fill="#A7D6E7"/>
<g opacity="0.3">
<path d="M37.2369 127.791V154.746H36.8299C36.4669 153.548 35.5159 152.398 33.9849 151.446V127.791H37.2369Z" fill="#A7D6E7"/>
</g>
<path d="M51.0141 180.108C49.9991 184.938 47.9661 188.505 44.8911 192.142C30.7901 206.956 6.12206 202.041 0.550062 180.259L0.541067 180.251V180.242C-1.90793 167.988 4.17307 156.716 14.4051 151.659C14.4141 153.127 35.6721 152.462 33.8601 151.37V150.328C33.9031 150.341 33.9461 150.354 33.9861 150.367C45.3431 153.975 53.5011 166.777 51.1371 179.129C51.0151 179.76 50.9141 180.389 51.0141 180.108Z" fill="#A7D6E7"/>
<path d="M13.2712 195.8C11.5652 194.747 10.5003 193.931 9.04325 192.581C7.78025 191.396 6.44825 189.747 5.94825 188.993C4.45325 186.757 4.06225 186.037 3.01825 183.423C2.72925 182.695 2.18125 181.091 1.78125 178.565C2.22925 181.625 4.43425 184.634 8.39525 187.019C17.6002 192.553 32.8382 192.702 42.4372 187.361C46.8522 184.897 49.3033 181.695 49.7643 178.424C49.6063 179.309 49.4053 180.52 49.1503 181.406C48.8603 182.432 48.3693 183.774 47.9713 184.765C47.8183 185.134 46.9712 187.089 45.2292 189.475C42.9982 192.518 39.7353 195.219 36.2763 196.868C32.5173 198.657 28.6503 199.421 24.4403 199.236C20.6423 199.054 16.4732 197.764 13.2712 195.8Z" fill="url(#paint5_linear_229_558)"/>
<path d="M43.139 167.637C33.939 162.094 18.695 161.944 9.09702 167.295C-0.493979 172.645 -0.808983 181.469 8.39602 187.02C17.601 192.554 32.839 192.703 42.438 187.362C52.033 182.003 52.348 173.18 43.139 167.637Z" fill="#F9A229"/>
<path opacity="0.4" d="M24.1952 175.743C19.2032 182.475 11.1002 184.947 6.07023 181.24C1.05023 177.551 1.02023 169.068 6.00423 162.314C10.9962 155.564 19.0872 153.13 24.1112 156.819C29.1412 160.526 29.1772 168.991 24.1952 175.743Z" fill="#F0F0F0"/>
<path opacity="0.4" d="M20.2228 166.465C18.8058 170.134 15.3348 172.208 12.4918 171.105C9.67783 170.002 8.53683 166.122 9.96183 162.452C11.3968 158.781 14.8498 156.727 17.6928 157.83C20.5178 158.914 21.6588 162.793 20.2228 166.465Z" fill="#F0F0F0"/>
<path d="M11.4421 128.958L11.4351 126.722C11.4351 128.774 12.7591 130.835 15.3991 132.414C20.8411 135.694 29.8571 135.791 35.5271 132.624C38.4481 130.994 39.9161 128.818 39.9121 126.643L39.9161 128.87C39.9251 131.046 38.4531 133.22 35.5361 134.852C29.8611 138.018 20.8461 137.922 15.4031 134.65C12.7621 133.054 11.4421 131.01 11.4421 128.958Z" fill="#8BC3DE"/>
<path d="M35.947 120.96C41.389 124.239 41.196 129.459 35.527 132.624C29.857 135.791 20.84 135.694 15.399 132.414C9.948 129.142 10.136 123.915 15.815 120.749C21.49 117.591 30.501 117.679 35.947 120.96Z" fill="#A7D6E7"/>
<path d="M25.6241 132.633C22.1901 132.633 18.8981 131.826 16.5821 130.441C14.7541 129.344 13.7151 127.976 13.7321 126.669C13.7541 125.318 14.9201 123.88 16.9381 122.757C19.2751 121.46 22.3931 120.74 25.7171 120.74C29.1511 120.74 32.4521 121.538 34.7591 122.924C36.5881 124.029 37.6281 125.406 37.6051 126.704C37.5841 128.063 36.4171 129.484 34.4051 130.607C32.0671 131.914 28.9481 132.633 25.6241 132.633Z" fill="#8BC3DE"/>
<path d="M16.9372 124.879C19.2742 123.573 22.3922 122.844 25.7162 122.844C29.1502 122.844 32.4512 123.651 34.7582 125.037C36.0872 125.843 36.9862 126.781 37.3762 127.72C37.5212 127.387 37.6002 127.035 37.6042 126.703C37.6272 125.405 36.5872 124.028 34.7582 122.923C32.4512 121.537 29.1502 120.739 25.7162 120.739C22.3922 120.739 19.2742 121.459 16.9372 122.756C14.9192 123.879 13.7532 125.317 13.7312 126.668C13.7262 127.028 13.8102 127.396 13.9592 127.755C14.3982 126.722 15.4242 125.713 16.9372 124.879Z" fill="#62A8CB"/>
<g opacity="0.3">
<path d="M51.5579 174.741C51.4879 172.558 51.4749 172.478 51.2859 171.049C50.8959 168.883 50.8909 168.847 50.4969 167.471C49.8339 165.445 49.7989 165.366 49.2069 164.041C48.2639 162.137 48.2289 162.068 47.4229 160.796C46.2869 159.147 46.1629 158.972 45.1189 157.761C43.6769 156.217 43.5939 156.13 42.2129 154.946C40.6249 153.718 40.5029 153.613 39.0639 152.728C37.3099 151.727 37.2799 151.71 36.0029 151.14C34.7059 150.614 34.3849 150.491 33.8579 150.324V150.423C45.1469 156.118 48.0809 171.455 44.3809 182.142C40.9219 190.791 30.7669 196.347 19.5349 194.873C10.3399 193.667 4.59687 187.229 0.338867 179.181C0.358867 179.307 0.378872 179.431 0.398872 179.546L0.539871 180.239V180.248L0.547867 180.257C1.21087 182.861 1.22787 182.923 1.82887 184.458C2.06987 184.993 2.35487 185.73 2.63087 186.256C3.08287 187.097 3.69587 188.23 4.23187 189.035C4.54787 189.51 4.96387 190.132 5.32887 190.561C5.99987 191.378 6.93387 192.439 7.66087 193.193C8.43387 193.904 9.48987 194.825 10.3279 195.473C10.9339 195.947 11.8009 196.499 12.4629 196.912C14.3499 197.973 14.3499 197.973 15.5239 198.482C17.2959 199.201 17.2959 199.201 18.2819 199.508C19.9399 199.955 19.9399 199.955 20.8179 200.131C22.3919 200.394 22.3919 200.394 23.1939 200.482C24.7339 200.595 24.7339 200.595 25.5019 200.614C27.0369 200.579 27.0369 200.579 27.7989 200.525C29.3689 200.367 29.3689 200.367 30.1539 200.236C31.7629 199.912 31.7939 199.903 32.6409 199.675C34.3689 199.149 34.3999 199.14 35.3369 198.762C37.1219 197.982 37.2309 197.947 38.3229 197.35C40.2049 196.21 40.3189 196.139 41.5589 195.209C43.3659 193.709 43.5199 193.578 44.8879 192.14C45.2429 191.72 45.7479 191.175 46.0809 190.719C46.6939 189.887 47.4659 188.746 48.0229 187.878C48.5759 186.843 49.2599 185.432 49.7329 184.361C49.9909 183.765 50.2589 182.94 50.4519 182.3C50.5559 181.907 50.6869 181.432 50.8069 180.969C50.8839 180.669 51.2059 178.968 51.3509 178.1C51.5139 177.101 51.5329 175.75 51.5579 174.741Z" fill="#90BCCC"/>
</g>
<path d="M41.1502 146.409C40.4772 148.008 39.0682 149.522 36.9222 150.769C33.7102 152.635 29.4582 153.546 25.2252 153.502C21.1882 153.46 17.1692 152.549 14.0862 150.769C10.9052 148.932 9.31624 146.516 9.32324 144.105L9.30325 151.116C9.29625 153.528 10.8852 155.944 14.0662 157.78C17.1492 159.56 21.1682 160.471 25.2052 160.513C29.4382 160.557 33.6902 159.646 36.9022 157.78C39.0482 156.533 40.4572 155.018 41.1302 153.42C41.4352 152.695 41.5892 151.952 41.5912 151.208L41.6112 144.197C41.6092 144.941 41.4552 145.684 41.1502 146.409Z" fill="#252529"/>
<path d="M37.9581 142.823C38.6931 145.123 37.5391 147.586 34.4841 149.361C29.5461 152.23 21.4781 152.231 16.5081 149.361C13.4331 147.586 12.2511 145.123 12.9601 142.823H9.47812C8.80212 145.64 10.3391 148.606 14.0861 150.769C20.4011 154.415 30.6481 154.415 36.9221 150.769C40.6451 148.606 42.1481 145.64 41.4411 142.823H37.9581Z" fill="#3F3E46"/>
<path d="M144.785 74.2082L144.802 80.1782C144.797 78.5622 145.861 76.9452 147.99 75.7152C152.226 73.2692 159.096 73.2692 163.305 75.7152C165.393 76.9282 166.438 78.5202 166.443 80.1162L166.426 74.1462C166.421 72.5512 165.376 70.9592 163.288 69.7452C159.08 67.2992 152.209 67.2992 147.973 69.7452C145.844 70.9752 144.781 72.5922 144.785 74.2082Z" fill="#252529"/>
<mask id="mask10_229_558" style="mask-type:luminance" maskUnits="userSpaceOnUse" x="144" y="67" width="23" height="14">
<path d="M144.785 74.2082L144.802 80.1782C144.797 78.5622 145.861 76.9452 147.99 75.7152C152.226 73.2692 159.096 73.2692 163.305 75.7152C165.393 76.9282 166.438 78.5202 166.443 80.1162L166.426 74.1462C166.421 72.5512 165.376 70.9592 163.288 69.7452C159.08 67.2992 152.209 67.2992 147.973 69.7452C145.844 70.9752 144.781 72.5922 144.785 74.2082Z" fill="white"/>
</mask>
<g mask="url(#mask10_229_558)">
<path d="M144.785 74.2082L144.802 80.1782C144.797 78.5622 145.861 76.9452 147.99 75.7152C150.058 74.5212 152.753 73.9102 155.461 73.8822L155.444 67.9122C152.737 67.9402 150.041 68.5512 147.973 69.7452C145.844 70.9752 144.781 72.5922 144.785 74.2082Z" fill="#252529"/>
<path d="M155.444 67.9122L155.461 73.8822C158.3 73.8522 161.151 74.4642 163.305 75.7152C164.741 76.5492 165.683 77.5632 166.134 78.6332L166.117 72.6632C165.667 71.5922 164.724 70.5792 163.288 69.7442C161.134 68.4932 158.282 67.8822 155.444 67.9122Z" fill="#252529"/>
<path d="M166.117 72.6642L166.134 78.6342C166.338 79.1202 166.441 79.6182 166.443 80.1162L166.426 74.1462C166.425 73.6482 166.322 73.1502 166.117 72.6642Z" fill="#252529"/>
</g>
<path d="M141.86 74.2162L141.877 80.1862C141.883 82.2132 143.213 84.2382 145.87 85.7822C151.212 88.8862 159.937 88.8862 165.314 85.7822C168.023 84.2182 169.376 82.1612 169.37 80.1082L169.353 74.1382C169.359 76.1912 168.006 78.2492 165.297 79.8122C159.92 82.9162 151.195 82.9162 145.853 79.8122C143.195 78.2682 141.865 76.2442 141.86 74.2162Z" fill="#252529"/>
<path d="M163.288 69.7462C159.079 67.3002 152.209 67.3002 147.973 69.7462C146.357 70.6792 145.357 71.8372 144.97 73.0472H142.005C142.419 71.3992 143.721 69.8112 145.911 68.5472C151.293 65.4402 160.018 65.4402 165.365 68.5472C167.541 69.8112 168.825 71.3992 169.22 73.0472H166.255C165.881 71.8362 164.894 70.6782 163.288 69.7462Z" fill="#3F3E46"/>
<path d="M164.718 59.0613V128.068C164.718 133.054 160.716 137.121 155.756 137.121C150.829 137.121 146.815 133.054 146.815 128.068V59.0613H164.718Z" fill="#A7D6E7"/>
<path d="M163.175 83.2993V128.068C163.175 132.201 159.848 135.563 155.756 135.563C151.677 135.563 148.357 132.201 148.357 128.068V83.2993H163.175Z" fill="url(#paint6_linear_229_558)"/>
<path d="M160.896 80.1813C163.848 81.8443 163.946 84.5913 161.113 86.3123C158.279 88.0373 153.59 88.0843 150.636 86.4203C147.684 84.7573 147.587 82.0113 150.421 80.2883C153.252 78.5653 157.943 78.5173 160.896 80.1813Z" fill="#829BFF"/>
<path opacity="0.6" d="M162.714 59.2543V122.955C162.714 127.601 161.691 131.39 160.422 131.39C159.162 131.39 158.136 127.601 158.136 122.955V59.2543H162.714Z" fill="#EEF0F8"/>
<path d="M166.559 62.6423L166.564 57.8293C166.559 59.3983 165.563 60.9683 163.559 62.1863C159.431 64.6973 152.598 64.7663 148.297 62.3423C146.084 61.0943 144.971 59.4293 144.975 57.7653L144.971 62.5773C144.966 64.2433 146.08 65.9083 148.293 67.1563C152.595 69.5793 159.427 69.5093 163.554 66.9983C165.557 65.7813 166.554 64.2123 166.559 62.6423Z" fill="#8BC3DE"/>
<path d="M163.24 53.2533C167.541 55.6783 167.682 59.6773 163.556 62.1873C159.429 64.6983 152.596 64.7673 148.293 62.3433C143.992 59.9183 143.85 55.9183 147.977 53.4093C152.103 50.8983 158.937 50.8293 163.24 53.2533Z" fill="#BEE9F7"/>
<path d="M155.8 62.5593C158.44 62.5593 160.978 61.9363 162.761 60.8523C164.235 59.9553 165.036 58.8653 165.018 57.7833C165 56.6643 164.078 55.5083 162.489 54.6113C160.686 53.5963 158.285 53.0353 155.732 53.0353C153.092 53.0353 150.555 53.6593 148.771 54.7423C147.297 55.6383 146.495 56.7283 146.512 57.8113C146.532 58.9303 147.453 60.0863 149.044 60.9813C150.848 61.9983 153.247 62.5593 155.8 62.5593Z" fill="#86C0DA"/>
<path d="M146.513 57.8122C146.522 58.2772 146.686 58.7492 146.99 59.2052C147.37 58.6392 147.972 58.0932 148.772 57.6072C150.556 56.5232 153.092 55.9012 155.732 55.9012C158.285 55.9012 160.685 56.4612 162.49 57.4772C163.418 58.0002 164.119 58.6132 164.542 59.2542C164.862 58.7752 165.026 58.2792 165.018 57.7842C165 56.6662 164.078 55.5092 162.49 54.6122C160.685 53.5972 158.285 53.0372 155.732 53.0372C153.092 53.0372 150.555 53.6592 148.772 54.7432C147.298 55.6382 146.496 56.7282 146.513 57.8122Z" fill="#62A8CB"/>
<path d="M142.252 76.0992C142.824 77.4612 144.024 78.7502 145.852 79.8122C148.586 81.4012 152.207 82.1772 155.811 82.1392C159.249 82.1032 162.671 81.3272 165.296 79.8122C168.005 78.2482 169.358 76.1912 169.352 74.1382L169.369 80.1082C169.375 82.1622 168.022 84.2192 165.313 85.7822C162.688 87.2972 159.266 88.0732 155.829 88.1092C152.225 88.1472 148.604 87.3712 145.869 85.7822C144.041 84.7202 142.842 83.4312 142.269 82.0692C142.009 81.4512 141.878 80.8192 141.876 80.1862L141.859 74.2162C141.861 74.8492 141.992 75.4822 142.252 76.0992Z" fill="#252529"/>
<path d="M144.97 73.0472C144.344 75.0052 145.327 77.1022 147.928 78.6142C152.132 81.0572 159.002 81.0572 163.234 78.6142C165.852 77.1022 166.859 75.0052 166.255 73.0472H169.22C169.795 75.4452 168.487 77.9712 165.296 79.8132C159.919 82.9172 151.194 82.9172 145.852 79.8132C142.683 77.9712 141.402 75.4452 142.004 73.0472H144.97Z" fill="#3F3E46"/>
<defs>
<linearGradient id="paint0_linear_229_558" x1="78.7845" y1="160.826" x2="90.0349" y2="160.826" gradientUnits="userSpaceOnUse">
<stop offset="0.0148" stop-color="#8F8E99"/>
<stop offset="0.2862" stop-color="#E2E1F2"/>
<stop offset="0.5524" stop-color="#5F5F66"/>
<stop offset="0.648" stop-color="#66666E"/>
<stop offset="0.7933" stop-color="#7A7983"/>
<stop offset="0.9123" stop-color="#8F8E99"/>
<stop offset="1" stop-color="#5F5F66"/>
</linearGradient>
<linearGradient id="paint1_linear_229_558" x1="78.824" y1="74.3774" x2="90.1537" y2="74.3774" gradientUnits="userSpaceOnUse">
<stop offset="0.0148" stop-color="#8F8E99"/>
<stop offset="0.2862" stop-color="#E2E1F2"/>
<stop offset="0.5524" stop-color="#5F5F66"/>
<stop offset="0.648" stop-color="#66666E"/>
<stop offset="0.7933" stop-color="#7A7983"/>
<stop offset="0.9123" stop-color="#8F8E99"/>
<stop offset="1" stop-color="#5F5F66"/>
</linearGradient>
<linearGradient id="paint2_linear_229_558" x1="119.623" y1="52.7108" x2="116.992" y2="57.2671" gradientUnits="userSpaceOnUse">
<stop offset="0.0148" stop-color="#8F8E99"/>
<stop offset="0.2862" stop-color="#E2E1F2"/>
<stop offset="1" stop-color="#5F5F66"/>
</linearGradient>
<linearGradient id="paint3_linear_229_558" x1="59.8323" y1="131.89" x2="55.6578" y2="124.659" gradientUnits="userSpaceOnUse">
<stop stop-color="#5F5F66"/>
<stop offset="0.7138" stop-color="#E2E1F2"/>
<stop offset="0.9852" stop-color="#8F8E99"/>
</linearGradient>
<linearGradient id="paint4_linear_229_558" x1="78.884" y1="18.8508" x2="90.0945" y2="18.8508" gradientUnits="userSpaceOnUse">
<stop offset="0.0148" stop-color="#8F8E99"/>
<stop offset="0.2862" stop-color="#E2E1F2"/>
<stop offset="0.5524" stop-color="#5F5F66"/>
<stop offset="0.648" stop-color="#66666E"/>
<stop offset="0.7933" stop-color="#7A7983"/>
<stop offset="0.9123" stop-color="#8F8E99"/>
<stop offset="1" stop-color="#5F5F66"/>
</linearGradient>
<linearGradient id="paint5_linear_229_558" x1="26.9575" y1="211.642" x2="25.8082" y2="179.462" gradientUnits="userSpaceOnUse">
<stop offset="0.00017593" stop-color="#FFBB29"/>
<stop offset="0.162" stop-color="#FF943B"/>
<stop offset="0.3344" stop-color="#FF714A"/>
<stop offset="0.4977" stop-color="#FF5856"/>
<stop offset="0.6465" stop-color="#FF495D"/>
<stop offset="0.7677" stop-color="#FF445F"/>
</linearGradient>
<linearGradient id="paint6_linear_229_558" x1="154.35" y1="148.476" x2="156.436" y2="85.5737" gradientUnits="userSpaceOnUse">
<stop offset="0.00017593" stop-color="#24A122"/>
<stop offset="0.0741" stop-color="#28A726"/>
<stop offset="0.1696" stop-color="#35B733"/>
<stop offset="0.2757" stop-color="#49D147"/>
<stop offset="0.3028" stop-color="#49D354"/>
<stop offset="0.3528" stop-color="#48D776"/>
<stop offset="0.4201" stop-color="#46DEAC"/>
<stop offset="0.5014" stop-color="#44E7F7"/>
<stop offset="0.5092" stop-color="#44E8FF"/>
<stop offset="0.5994" stop-color="#44D6FF"/>
<stop offset="0.7795" stop-color="#44A9FF"/>
<stop offset="1" stop-color="#4469FF"/>
</linearGradient>
</defs>
</svg>
