<svg width="229" height="229" viewBox="0 0 229 229" fill="none" xmlns="http://www.w3.org/2000/svg">
<path d="M114.079 218.782C171.905 218.782 218.782 171.905 218.782 114.079C218.782 56.2531 171.905 9.37598 114.079 9.37598C56.2531 9.37598 9.37598 56.2531 9.37598 114.079C9.37598 171.905 56.2531 218.782 114.079 218.782Z" fill="white"/>
<path d="M114.079 227.158C176.531 227.158 227.158 176.531 227.158 114.079C227.158 51.6272 176.531 1 114.079 1C51.6272 1 1 51.6272 1 114.079C1 176.531 51.6272 227.158 114.079 227.158Z" stroke="white" stroke-width="2" stroke-miterlimit="10"/>
<mask id="mask0_250_181" style="mask-type:luminance" maskUnits="userSpaceOnUse" x="9" y="9" width="210" height="210">
<path d="M114.079 218.782C171.905 218.782 218.782 171.905 218.782 114.079C218.782 56.2531 171.905 9.37598 114.079 9.37598C56.2531 9.37598 9.37598 56.2531 9.37598 114.079C9.37598 171.905 56.2531 218.782 114.079 218.782Z" fill="white"/>
</mask>
<g mask="url(#mask0_250_181)">
<path d="M176.635 177.604C176.438 176.972 170.557 126.293 165.903 86.0221C162.694 58.2491 140.502 37.4901 114.347 37.7881C88.027 38.0881 66.172 59.6121 63.719 87.6511L55.605 180.403L176.635 177.604Z" fill="#000035"/>
<path d="M176.13 173.911C168.813 168.424 152.808 164.202 141.465 159.392C141.295 159.32 141.138 159.246 140.97 159.173C139.591 158.578 138.277 157.976 137.07 157.359C136.533 157.085 136.02 156.807 135.524 156.528C132.315 154.718 130.008 152.79 129.22 150.659C129.138 150.437 129.062 150.215 128.985 149.992C120.348 151.885 111.269 151.745 102.695 149.587C102.579 149.946 102.459 150.303 102.328 150.659C101.443 153.053 98.6439 155.19 94.8009 157.192C94.4419 157.379 94.0849 157.567 93.7079 157.752C92.6439 158.274 91.5029 158.786 90.3169 159.292C89.6749 159.566 89.0239 159.838 88.3549 160.108C77.1669 164.626 62.3709 168.698 55.4189 173.912C44.0959 182.404 38.8389 218.395 38.8389 218.395H88.9209H96.4539H115.47H116.077H144.187H155.77H192.708C192.71 218.394 187.453 182.403 176.13 173.911Z" fill="#F0C02A"/>
<path d="M128.985 149.991C125.85 140.862 127.158 130.843 127.158 130.843L115.774 131.628L103.579 130.843C103.579 130.843 105.598 140.568 102.695 149.586C111.27 151.745 120.349 151.884 128.985 149.991Z" fill="#EBA08C"/>
<path d="M155.088 90.971C155.088 113.743 140.606 140.92 113.856 140.92C87.1058 140.92 72.6238 113.743 72.6238 90.971C72.6238 68.199 91.0838 49.739 113.856 49.739C136.628 49.74 155.088 68.2 155.088 90.971Z" fill="#EBA08C"/>
<path d="M77.217 93.3411C79.307 90.3951 80.385 86.8441 81.02 83.2881C81.722 79.3551 81.867 75.0871 79.936 71.5901C79.341 70.5131 78.528 69.5121 77.432 68.9511C75.495 67.9611 73.023 68.5861 71.368 69.9981C69.713 71.4101 68.746 73.4651 68.066 75.5321C66.074 81.5901 66.208 88.1221 67.338 94.3351C67.877 97.3001 67.765 99.5351 71.199 98.2121C73.631 97.2731 75.72 95.4511 77.217 93.3411Z" fill="#000035"/>
<path d="M152.221 93.3411C150.131 90.3951 149.053 86.8441 148.418 83.2881C147.716 79.3551 147.571 75.0871 149.502 71.5901C150.097 70.5131 150.91 69.5121 152.006 68.9511C153.943 67.9611 156.415 68.5861 158.07 69.9981C159.725 71.4101 160.692 73.4651 161.372 75.5321C163.364 81.5901 163.23 88.1221 162.1 94.3351C161.561 97.3001 161.673 99.5351 158.239 98.2121C155.806 97.2731 153.718 95.4511 152.221 93.3411Z" fill="#000035"/>
<path d="M166.041 97.9052C165.487 100.846 163.864 103.567 161.801 105.605C160.399 106.989 158.76 108.102 157.007 108.574C155.255 109.046 153.386 108.832 151.995 107.763C150.722 106.785 149.927 105.168 149.539 103.438C148.645 99.4442 149.855 94.8072 152.308 91.3332C154.012 88.9202 156.423 86.9502 159.018 86.6242C164.248 85.9652 167.02 92.7032 166.041 97.9052Z" fill="#EBA08C"/>
<path d="M151.317 104.031C152.571 103.959 153.815 103.512 154.872 102.753C155.192 102.523 155.527 102.198 155.512 101.792C155.503 101.566 155.384 101.367 155.263 101.184C154.55 100.103 153.661 99.1581 152.646 98.4011C153.387 96.7321 154.14 95.0421 155.245 93.6161C156.351 92.1891 157.868 91.0301 159.565 90.7941C161.263 90.5581 163.113 91.4251 163.761 93.0921C163.761 93.0921 166.039 97.9051 160.673 103.115C155.016 108.61 151.317 104.031 151.317 104.031Z" fill="#EBA08C"/>
<path d="M163.763 93.0932C163.119 91.9052 161.883 91.2612 160.681 91.1862C159.476 91.0992 158.317 91.6092 157.362 92.3562C156.399 93.1132 155.629 94.1012 154.98 95.1882C154.338 96.2822 153.781 97.4562 153.23 98.6612L153.028 97.8912C153.688 98.4142 154.288 99.0072 154.814 99.6562C155.071 99.9852 155.31 100.327 155.531 100.679C155.637 100.858 155.75 101.016 155.863 101.275C155.979 101.521 156.015 101.905 155.892 102.19C155.647 102.761 155.205 102.987 154.863 103.196C154.502 103.408 154.113 103.566 153.723 103.702C152.94 103.963 152.119 104.098 151.317 104.032C152.102 103.873 152.847 103.617 153.518 103.237C153.854 103.049 154.164 102.824 154.466 102.598C154.772 102.372 155.026 102.107 155.055 101.913C155.065 101.82 155.054 101.782 154.997 101.67C154.942 101.568 154.815 101.406 154.701 101.255C154.468 100.955 154.221 100.667 153.96 100.394C153.447 99.8412 152.88 99.3412 152.267 98.9142L151.857 98.6282L152.066 98.1442C152.59 96.9292 153.112 95.6752 153.843 94.5002C154.558 93.3242 155.482 92.2042 156.672 91.4032C157.837 90.6042 159.349 90.1002 160.795 90.4242C162.2 90.7152 163.453 91.7682 163.763 93.0932Z" fill="#000035"/>
<path d="M60.5349 97.9052C61.0889 100.846 62.7119 103.567 64.7749 105.605C66.1769 106.989 67.8159 108.102 69.5689 108.574C71.3209 109.046 73.1899 108.832 74.5819 107.763C75.8549 106.785 76.6499 105.168 77.0379 103.438C77.9319 99.4442 76.7229 94.8072 74.2689 91.3332C72.5649 88.9202 70.1539 86.9502 67.5589 86.6242C62.3279 85.9652 59.5559 92.7032 60.5349 97.9052Z" fill="#EBA08C"/>
<path d="M75.2578 104.031C74.0038 103.959 72.7598 103.512 71.7028 102.753C71.3828 102.523 71.0478 102.198 71.0628 101.792C71.0718 101.566 71.1908 101.367 71.3108 101.184C72.0238 100.103 72.9128 99.1581 73.9278 98.4011C73.1868 96.7321 72.4338 95.0421 71.3288 93.6161C70.2228 92.1891 68.7058 91.0301 67.0088 90.7941C65.3108 90.5581 63.4608 91.4251 62.8128 93.0921C62.8128 93.0921 60.5348 97.9051 65.9008 103.115C71.5598 108.61 75.2578 104.031 75.2578 104.031Z" fill="#EBA08C"/>
<path d="M62.813 93.0932C63.122 91.7692 64.376 90.7152 65.782 90.4242C67.227 90.1002 68.74 90.6042 69.905 91.4032C71.096 92.2032 72.019 93.3242 72.734 94.5002C73.465 95.6752 73.987 96.9292 74.511 98.1442L74.72 98.6282L74.31 98.9142C73.697 99.3412 73.13 99.8412 72.617 100.394C72.356 100.667 72.109 100.955 71.876 101.255C71.762 101.406 71.635 101.568 71.58 101.67C71.523 101.781 71.512 101.82 71.522 101.913C71.551 102.108 71.805 102.373 72.111 102.598C72.413 102.824 72.723 103.049 73.059 103.237C73.73 103.617 74.474 103.872 75.26 104.032C74.458 104.098 73.638 103.963 72.854 103.702C72.464 103.567 72.075 103.408 71.714 103.196C71.372 102.987 70.93 102.761 70.685 102.19C70.562 101.905 70.599 101.521 70.714 101.275C70.826 101.016 70.94 100.858 71.046 100.679C71.267 100.327 71.506 99.9852 71.763 99.6562C72.289 99.0072 72.889 98.4152 73.549 97.8912L73.347 98.6612C72.796 97.4572 72.239 96.2822 71.597 95.1892C70.948 94.1012 70.178 93.1142 69.215 92.3562C68.26 91.6092 67.101 91.0992 65.896 91.1862C64.693 91.2612 63.458 91.9042 62.813 93.0932Z" fill="#000035"/>
<path d="M87.0229 88.4C87.8349 86.595 88.9939 84.938 90.3559 83.459C91.7429 82.002 93.3479 80.74 95.1079 79.715C96.8629 78.706 98.7499 77.759 100.809 77.5C102.845 77.229 104.961 77.346 106.865 78.115L106.843 78.314C104.85 78.65 103.006 78.968 101.199 79.462C99.4129 79.966 97.5699 80.342 95.8449 81.136C94.1249 81.915 92.4999 82.939 91.0459 84.184C89.5669 85.405 88.2789 86.868 87.1989 88.497L87.0229 88.4Z" fill="#000035"/>
<path d="M143.103 88.497C142.023 86.868 140.735 85.405 139.256 84.184C137.802 82.939 136.177 81.915 134.457 81.136C132.732 80.342 130.889 79.966 129.103 79.462C127.296 78.968 125.451 78.65 123.459 78.314L123.437 78.115C125.341 77.346 127.457 77.229 129.493 77.5C131.552 77.76 133.439 78.706 135.194 79.715C136.953 80.74 138.559 82.002 139.945 83.459C141.306 84.938 142.466 86.595 143.278 88.4L143.103 88.497Z" fill="#000035"/>
<path d="M103.591 115.964C105.553 117.78 107.695 119.353 110.007 120.52C111.165 121.095 112.357 121.588 113.597 121.863C114.208 122.04 114.836 122.104 115.457 122.206C116.083 122.223 116.716 122.305 117.324 122.216C118.556 122.174 119.772 121.807 120.927 121.302C122.105 120.833 123.188 120.121 124.249 119.382C126.356 117.861 128.246 115.995 130.004 113.98C128.739 116.345 127.034 118.5 124.95 120.274C122.888 122.033 120.313 123.478 117.423 123.665C115.995 123.769 114.587 123.578 113.244 123.19C111.9 122.807 110.622 122.24 109.46 121.509C107.117 120.08 105.104 118.181 103.591 115.964Z" fill="#000035"/>
<path d="M94.095 135.11C97.544 137.171 101.216 138.732 104.981 139.848C108.749 140.92 112.662 141.527 116.519 141.38C120.355 141.22 124.128 140.052 127.652 138.351C131.171 136.619 134.497 134.409 137.565 131.817C135.061 134.978 131.89 137.621 128.358 139.681C124.825 141.737 120.792 143.101 116.607 143.314C112.45 143.44 108.344 142.7 104.507 141.285C100.686 139.855 97.077 137.831 94.095 135.11Z" fill="#000035"/>
<path opacity="0.2" d="M136.872 112.942C141.681 112.942 145.58 109.984 145.58 106.336C145.58 102.688 141.681 99.73 136.872 99.73C132.063 99.73 128.164 102.688 128.164 106.336C128.164 109.984 132.063 112.942 136.872 112.942Z" fill="#EBA08C"/>
<path opacity="0.2" d="M94.6318 112.942C99.4411 112.942 103.34 109.984 103.34 106.336C103.34 102.688 99.4411 99.73 94.6318 99.73C89.8225 99.73 85.9238 102.688 85.9238 106.336C85.9238 109.984 89.8225 112.942 94.6318 112.942Z" fill="#EBA08C"/>
<path d="M114.888 89.2571C115.261 91.2411 115.851 93.1671 116.349 95.1181L117.877 100.961C118.877 104.861 119.838 108.773 120.725 112.7L120.886 113.413L120.19 113.442C119.052 113.489 117.912 113.502 116.77 113.49C115.628 113.477 114.483 113.435 113.336 113.346C114.458 113.09 115.585 112.882 116.713 112.702C117.841 112.524 118.971 112.371 120.104 112.251L119.569 112.992C119.023 111.048 118.536 109.092 118.043 107.137C117.581 105.174 117.102 103.215 116.696 101.238C116.271 99.2661 115.886 97.2841 115.555 95.2891C115.381 94.2941 115.237 93.2921 115.118 92.2861C115.001 91.2821 114.863 90.2721 114.888 89.2571Z" fill="#000035"/>
<path d="M74.3049 66.4862C77.2049 70.7422 81.1389 74.8532 86.2399 75.5612C87.3039 75.7092 88.6649 75.5172 88.9999 74.4962C89.1399 74.0702 89.0499 73.6072 88.9549 73.1692C88.2209 69.8102 87.1719 66.5212 85.8269 63.3562C87.6749 65.9972 90.6249 67.6232 93.5339 69.0112C97.8909 71.0892 102.402 72.8432 107.019 74.2552C110.655 75.3672 114.436 76.2742 118.226 75.9672C119.157 75.8922 120.34 75.4522 120.288 74.5192C120.267 74.1412 120.028 73.8142 119.798 73.5132C118.215 71.4362 116.633 69.3582 115.05 67.2812C117.706 69.4612 121.077 70.5342 124.369 71.5152C134.243 74.4572 144.822 77.0072 154.728 74.1732C149.923 61.3592 140.294 49.4752 127.697 44.1282C122.878 42.0832 117.693 40.7852 112.458 40.8002C106.793 40.8172 101.242 42.3582 95.8969 44.2362C91.0049 45.9552 86.1509 48.0032 82.0529 51.1802C76.2239 55.7002 72.2209 62.3592 70.3369 69.4902" fill="#000035"/>
<path d="M93.8798 94.1772C93.5488 92.6222 94.1748 90.8792 95.3158 89.6432C96.4458 88.3922 98.1448 87.5322 99.9648 87.5662C101.785 87.5892 103.456 88.5072 104.544 89.7942C105.644 91.0672 106.212 92.8322 105.827 94.3752C105.36 92.8822 104.491 91.7442 103.447 90.9042C102.398 90.0722 101.149 89.5882 99.9318 89.5652C98.7148 89.5452 97.4498 89.9882 96.3718 90.7852C95.2998 91.5902 94.3938 92.7002 93.8798 94.1772Z" fill="#000035"/>
<path d="M126.242 94.1772C125.911 92.6222 126.537 90.8792 127.678 89.6432C128.808 88.3922 130.507 87.5322 132.327 87.5662C134.147 87.5892 135.818 88.5072 136.906 89.7942C138.006 91.0672 138.574 92.8322 138.188 94.3752C137.721 92.8822 136.852 91.7442 135.808 90.9042C134.758 90.0722 133.509 89.5882 132.293 89.5652C131.076 89.5452 129.811 89.9882 128.733 90.7852C127.662 91.5902 126.756 92.7002 126.242 94.1772Z" fill="#000035"/>
<g opacity="0.38">
<path d="M90.3169 52.1701C92.7619 55.4881 95.7559 58.3801 99.1559 60.6621C102.534 62.9691 106.308 64.6881 110.259 65.6781L109.822 66.2881C108.092 63.7471 106.35 61.2151 104.536 58.7341C102.727 56.2501 100.868 53.8021 98.9599 51.3941L99.7059 50.7671C102.447 53.7731 105.575 56.4331 109.027 58.6021C112.471 60.7831 116.215 62.4821 120.103 63.7221C123.99 64.9691 128.044 65.7181 132.133 65.9221C136.222 66.1571 140.347 65.8201 144.371 64.9471C140.401 66.0501 136.25 66.5091 132.114 66.4341C127.976 66.3271 123.848 65.6661 119.866 64.4931C115.886 63.3111 112.07 61.5771 108.535 59.3901C105.01 57.1921 101.741 54.5421 98.9809 51.4201L99.7269 50.7931C101.624 53.2271 103.472 55.6991 105.269 58.2071C107.061 60.7191 108.823 63.2521 110.493 65.8461L111.065 66.7341L110.056 66.4551C106.035 65.3451 102.235 63.5011 98.8639 61.0811C95.5119 58.6351 92.5699 55.6261 90.3169 52.1701Z" fill="white"/>
<path d="M107.871 44.134C110.238 46.397 112.849 48.367 115.663 49.968C118.482 51.557 121.473 52.831 124.581 53.703C127.683 54.597 130.896 55.091 134.129 55.224L136.559 55.242L138.989 55.093L141.415 54.812C142.213 54.655 143.017 54.51 143.827 54.373C143.046 54.615 142.259 54.849 141.467 55.072L139.051 55.58L136.595 55.874L134.12 55.995C130.811 56.043 127.497 55.563 124.308 54.666C121.125 53.747 118.056 52.409 115.269 50.625L113.229 49.219L111.296 47.676L109.509 45.972C108.953 45.364 108.408 44.75 107.871 44.134Z" fill="white"/>
<path d="M159.69 111.073C160.272 115.813 160.784 120.556 161.318 125.296L162.915 139.514L164.516 153.732L165.323 160.842L166.084 167.962C165.629 165.617 165.246 163.262 164.837 160.909L163.752 153.83C163.062 149.106 162.493 144.365 161.921 139.625C161.429 134.876 160.927 130.128 160.554 125.368C160.18 120.61 159.861 115.846 159.69 111.073Z" fill="white"/>
<path d="M149.114 125.925C149.486 128.528 149.749 131.139 149.995 133.75C150.252 136.361 150.432 138.977 150.611 141.592C150.766 144.209 150.919 146.827 150.995 149.449L151.105 153.383C151.105 154.697 151.14 156.008 151.11 157.323C150.914 156.022 150.782 154.717 150.616 153.414L150.227 149.498C149.97 146.887 149.791 144.271 149.613 141.656C149.459 139.039 149.306 136.421 149.231 133.799C149.145 131.178 149.075 128.555 149.114 125.925Z" fill="white"/>
<path d="M140.758 136.015C141.199 138.818 141.407 141.61 141.61 144.407C141.783 147.205 141.948 150 141.88 152.837C141.162 150.09 140.815 147.284 140.613 144.473C140.442 141.66 140.413 138.833 140.758 136.015Z" fill="white"/>
<path d="M91.9749 140.22C92.3689 142.229 92.4579 144.238 92.4749 146.248C92.4609 148.257 92.3719 150.266 91.9749 152.276C91.5789 150.267 91.4899 148.257 91.4749 146.248C91.4919 144.239 91.5809 142.23 91.9749 140.22Z" fill="white"/>
<path d="M76.8548 122.558C76.9788 126.047 76.9728 129.536 76.9308 133.023C76.8998 136.511 76.7718 139.996 76.6228 143.48C76.4508 146.963 76.2569 150.445 75.9659 153.921L75.5118 159.133C75.3178 160.867 75.1549 162.603 74.9229 164.334C74.9289 162.588 74.9949 160.846 75.0229 159.102L75.1989 153.877C75.3089 150.394 75.4759 146.914 75.6259 143.434L76.1668 132.996C76.3678 129.517 76.5668 126.037 76.8548 122.558Z" fill="white"/>
<path d="M67.8539 118.071C67.8469 122.007 67.7309 125.937 67.5979 129.867C67.4679 133.796 67.2469 137.721 67.0759 141.648C66.8239 145.571 66.6149 149.496 66.3229 153.417L65.8649 159.297C65.6759 161.255 65.5209 163.215 65.3009 165.171C65.2939 163.202 65.3519 161.237 65.3749 159.27L65.5549 153.375C65.6879 149.446 65.9049 145.521 66.0779 141.594C66.3319 137.671 66.5379 133.746 66.8329 129.826C67.1259 125.905 67.4349 121.985 67.8539 118.071Z" fill="white"/>
</g>
<path d="M101.477 152.815C110.886 155.202 120.94 154.993 130.241 152.216" stroke="#000035" stroke-miterlimit="10"/>
<path d="M69.6849 176.398C68.0499 179.636 66.8149 183.045 66.0399 186.55C65.2769 190.056 64.9129 193.644 65.0129 197.223C65.0909 200.803 65.6309 204.368 66.5659 207.832L67.3569 210.407L68.3239 212.926L69.4329 215.394C69.8659 216.185 70.2879 216.985 70.7059 217.792C70.1969 217.043 69.6939 216.286 69.2009 215.521L67.8779 213.129L66.7649 210.628L65.8289 208.051C64.6979 204.569 64.1149 200.911 64.0139 197.247C63.9359 193.583 64.3369 189.901 65.2959 186.367L66.1039 183.747L67.0919 181.194L68.2939 178.74C68.7489 177.952 69.2139 177.171 69.6849 176.398Z" fill="#000035"/>
<path d="M164.269 176.398C164.74 177.171 165.205 177.952 165.66 178.741L166.862 181.195L167.85 183.748L168.658 186.368C169.616 189.902 170.018 193.583 169.94 197.248C169.838 200.912 169.256 204.569 168.125 208.052L167.189 210.629L166.076 213.13L164.754 215.522C164.26 216.287 163.757 217.044 163.249 217.793C163.667 216.985 164.089 216.186 164.522 215.395L165.631 212.927L166.598 210.408L167.389 207.833C168.325 204.369 168.865 200.804 168.942 197.224C169.042 193.645 168.678 190.057 167.915 186.551C167.14 183.045 165.904 179.636 164.269 176.398Z" fill="#000035"/>
</g>
</svg>
