<svg width="229" height="229" viewBox="0 0 229 229" fill="none" xmlns="http://www.w3.org/2000/svg">
<path d="M114.079 218.782C171.905 218.782 218.782 171.905 218.782 114.079C218.782 56.2531 171.905 9.37598 114.079 9.37598C56.2531 9.37598 9.37598 56.2531 9.37598 114.079C9.37598 171.905 56.2531 218.782 114.079 218.782Z" fill="white"/>
<path d="M114.079 227.158C176.531 227.158 227.158 176.531 227.158 114.079C227.158 51.6272 176.531 1 114.079 1C51.6272 1 1 51.6272 1 114.079C1 176.531 51.6272 227.158 114.079 227.158Z" stroke="white" stroke-width="2" stroke-miterlimit="10"/>
<mask id="mask0_250_115" style="mask-type:luminance" maskUnits="userSpaceOnUse" x="9" y="9" width="210" height="210">
<path d="M114.079 218.782C171.905 218.782 218.782 171.905 218.782 114.079C218.782 56.2531 171.905 9.37598 114.079 9.37598C56.2531 9.37598 9.37598 56.2531 9.37598 114.079C9.37598 171.905 56.2531 218.782 114.079 218.782Z" fill="white"/>
</mask>
<g mask="url(#mask0_250_115)">
<path d="M90.273 210.232C71.272 210.062 52.363 204.032 36.772 193.169C21.181 182.306 9.76297 166.206 3.02197 148.44C6.38597 142.385 10.082 135.999 16.228 132.806C19.068 131.331 22.29 130.629 24.987 128.907C29.38 126.103 31.744 121.023 33.269 116.039C34.794 111.056 35.746 105.816 38.33 101.29C40.824 96.9219 44.723 93.4739 49.047 90.9039C53.226 88.4199 57.953 86.6009 61.222 83.0029C64.478 79.4179 65.841 74.5499 67.102 69.8739C68.718 71.1489 70.953 70.2259 73.008 70.3289C84.229 70.8919 95.527 69.9179 106.486 67.4419C111.793 97.3129 109.673 128.036 106.582 158.217C105.5 168.788 104.415 179.375 102.384 189.805C100.869 197.586 96.46 205.278 90.273 210.232Z" fill="#000035"/>
<path d="M136.347 210.232C155.348 210.062 174.257 204.032 189.848 193.169C205.439 182.306 216.857 166.206 223.598 148.44C220.234 142.385 216.538 135.999 210.392 132.806C207.552 131.331 204.33 130.629 201.633 128.907C197.24 126.103 194.876 121.023 193.351 116.039C191.826 111.056 190.874 105.816 188.29 101.29C185.796 96.9219 181.898 93.4739 177.574 90.9039C173.395 88.4199 168.668 86.6009 165.399 83.0029C162.143 79.4179 160.78 74.5499 159.519 69.8739C157.903 71.1489 155.668 70.2259 153.612 70.3289C142.391 70.8919 131.093 69.9179 120.134 67.4419C114.828 97.3129 116.948 128.036 120.038 158.217C121.12 168.788 122.205 179.375 124.236 189.805C125.751 197.586 130.16 205.278 136.347 210.232Z" fill="#000035"/>
<path d="M143.5 161.991C142.809 161.714 142.127 161.435 141.465 161.155C141.294 161.083 141.138 161.009 140.97 160.936C139.88 160.466 138.848 159.988 137.86 159.505C137.598 159.377 137.323 159.251 137.071 159.122C136.534 158.848 136.021 158.57 135.525 158.291C132.996 156.864 131.04 155.362 129.934 153.746C129.637 153.313 129.389 152.873 129.222 152.422C125.785 143.121 127.161 132.607 127.161 132.607L115.777 133.391L103.582 132.607C103.582 132.607 105.768 143.121 102.331 152.422C102.235 152.681 102.107 152.936 101.968 153.189C100.871 155.18 98.4559 156.994 95.2599 158.708C95.1059 158.79 94.9619 158.874 94.8049 158.956C94.4449 159.143 94.0889 159.331 93.7119 159.516C92.6479 160.038 91.5069 160.549 90.3209 161.055C89.6789 161.329 89.0279 161.601 88.3589 161.871C87.8639 162.071 87.3549 162.269 86.8469 162.467L115.545 205.514L143.5 161.991Z" fill="#EBA08C"/>
<path d="M176.13 175.674C169.24 170.507 154.65 166.461 143.5 161.991L115.541 205.513L86.8429 162.466C75.8659 166.75 62.0639 170.69 55.4189 175.674C44.0959 184.166 38.8389 220.157 38.8389 220.157H88.9209H96.4539H115.47H116.077H144.187H155.77H192.709C192.709 220.157 187.453 184.166 176.13 175.674Z" fill="#2847FB"/>
<path d="M113.322 129.701C139.953 129.701 161.542 108.86 161.542 83.152C161.542 57.4437 139.953 36.603 113.322 36.603C86.6909 36.603 65.1021 57.4437 65.1021 83.152C65.1021 108.86 86.6909 129.701 113.322 129.701Z" fill="#000035"/>
<path d="M155.088 92.7339C155.088 115.506 140.606 142.683 113.856 142.683C87.106 142.683 72.624 115.506 72.624 92.7339C72.624 69.9619 91.084 51.502 113.856 51.502C136.628 51.502 155.088 69.9629 155.088 92.7339Z" fill="#EBA08C"/>
<path d="M77.217 94.123C81.502 86.975 84.925 69.692 82.993 65.543C82.398 64.265 78.527 65.848 77.431 65.184C75.494 64.009 73.022 64.751 71.367 66.427C69.712 68.103 68.745 70.541 68.065 72.993C66.073 80.181 66.207 87.931 67.337 95.303C67.876 98.821 67.764 101.473 71.198 99.903C73.631 98.788 75.717 96.624 77.217 94.123Z" fill="#000035"/>
<path d="M150.171 94.6819C148.081 91.1859 147.003 86.9729 146.368 82.7529C145.666 78.0869 145.521 73.0219 147.452 68.8729C148.047 67.5949 148.86 66.4069 149.956 65.7419C151.893 64.5669 154.365 65.3089 156.02 66.9839C157.675 68.6599 158.642 71.0979 159.322 73.5499C161.314 80.7379 161.18 88.4879 160.05 95.8599C159.511 99.3779 159.623 102.03 156.189 100.46C153.756 99.3469 151.667 97.1849 150.171 94.6819Z" fill="#000035"/>
<path d="M166.041 99.6681C165.487 102.609 163.864 105.33 161.801 107.368C160.399 108.752 158.76 109.865 157.007 110.337C155.255 110.809 153.386 110.595 151.995 109.526C150.722 108.548 149.927 106.931 149.539 105.201C148.645 101.207 149.855 96.5691 152.308 93.0961C154.012 90.6831 156.423 88.7131 159.018 88.3871C164.248 87.7281 167.02 94.4651 166.041 99.6681Z" fill="#EBA08C"/>
<path d="M151.317 105.794C152.571 105.722 153.815 105.275 154.872 104.516C155.192 104.286 155.527 103.96 155.512 103.555C155.503 103.329 155.384 103.13 155.263 102.947C154.55 101.866 153.661 100.921 152.646 100.164C153.387 98.4951 154.14 96.8051 155.245 95.3781C156.351 93.9511 157.868 92.7921 159.565 92.5561C161.263 92.3201 163.113 93.1871 163.761 94.8541C163.761 94.8541 166.039 99.6671 160.673 104.877C155.016 110.372 151.317 105.794 151.317 105.794Z" fill="#EBA08C"/>
<path d="M163.763 94.8551C163.119 93.6661 161.883 93.0231 160.681 92.9481C159.476 92.8611 158.317 93.3711 157.362 94.1181C156.399 94.8751 155.628 95.8631 154.98 96.9511C154.338 98.0451 153.781 99.2191 153.23 100.423L153.028 99.6531C153.688 100.176 154.289 100.769 154.814 101.418C155.071 101.747 155.31 102.089 155.531 102.441C155.637 102.62 155.75 102.778 155.862 103.037C155.978 103.283 156.014 103.667 155.891 103.952C155.646 104.523 155.204 104.749 154.862 104.958C154.501 105.17 154.112 105.328 153.722 105.464C152.938 105.725 152.118 105.86 151.316 105.794C152.101 105.635 152.846 105.379 153.517 104.999C153.853 104.811 154.163 104.586 154.465 104.36C154.771 104.134 155.025 103.869 155.054 103.675C155.064 103.582 155.053 103.544 154.996 103.432C154.941 103.33 154.814 103.168 154.7 103.017C154.467 102.717 154.22 102.429 153.959 102.156C153.446 101.603 152.879 101.103 152.266 100.676L151.856 100.39L152.065 99.9061C152.589 98.6911 153.111 97.4371 153.842 96.2621C154.557 95.0861 155.481 93.9661 156.671 93.1651C157.836 92.3671 159.348 91.8621 160.794 92.1861C162.2 92.4781 163.453 93.5311 163.763 94.8551Z" fill="#000035"/>
<path d="M60.5349 99.6681C61.0889 102.609 62.7119 105.33 64.7749 107.368C66.1769 108.752 67.8159 109.865 69.5689 110.337C71.3209 110.809 73.1899 110.595 74.5819 109.526C75.8549 108.548 76.6499 106.931 77.0379 105.201C77.9319 101.207 76.7229 96.5691 74.2689 93.0961C72.5649 90.6831 70.1539 88.7131 67.5589 88.3871C62.3279 87.7281 59.5559 94.4651 60.5349 99.6681Z" fill="#EBA08C"/>
<path d="M75.2578 105.794C74.0038 105.722 72.7598 105.275 71.7028 104.516C71.3828 104.286 71.0478 103.96 71.0628 103.555C71.0718 103.329 71.1908 103.13 71.3108 102.947C72.0238 101.866 72.9128 100.921 73.9278 100.164C73.1868 98.4951 72.4338 96.8051 71.3288 95.3781C70.2228 93.9511 68.7058 92.7921 67.0088 92.5561C65.3108 92.3201 63.4608 93.1871 62.8128 94.8541C62.8128 94.8541 60.5348 99.6671 65.9008 104.877C71.5598 110.372 75.2578 105.794 75.2578 105.794Z" fill="#EBA08C"/>
<path d="M62.813 94.8552C63.122 93.5312 64.376 92.4772 65.782 92.1862C67.227 91.8622 68.74 92.3662 69.905 93.1652C71.096 93.9652 72.019 95.0862 72.734 96.2622C73.465 97.4372 73.987 98.6912 74.511 99.9062L74.72 100.39L74.31 100.676C73.697 101.103 73.13 101.603 72.617 102.156C72.356 102.429 72.109 102.717 71.876 103.017C71.762 103.168 71.635 103.33 71.58 103.432C71.523 103.543 71.512 103.582 71.522 103.675C71.551 103.87 71.805 104.135 72.111 104.36C72.413 104.586 72.723 104.811 73.059 104.999C73.73 105.379 74.474 105.634 75.26 105.794C74.458 105.86 73.638 105.725 72.854 105.464C72.464 105.329 72.075 105.17 71.714 104.958C71.372 104.749 70.93 104.523 70.685 103.952C70.562 103.667 70.599 103.283 70.714 103.037C70.826 102.778 70.94 102.62 71.046 102.441C71.267 102.089 71.506 101.747 71.763 101.418C72.289 100.769 72.889 100.177 73.549 99.6532L73.347 100.423C72.796 99.2192 72.239 98.0442 71.597 96.9512C70.948 95.8632 70.178 94.8762 69.215 94.1182C68.26 93.3712 67.101 92.8612 65.896 92.9482C64.693 93.0232 63.457 93.6672 62.813 94.8552Z" fill="#000035"/>
<path d="M103.049 90.382C103.049 92.406 101.408 94.046 99.3849 94.046C97.3609 94.046 95.7209 92.405 95.7209 90.382C95.7209 88.358 97.3619 86.718 99.3849 86.718C101.408 86.718 103.049 88.358 103.049 90.382Z" fill="#000035"/>
<path d="M86.9409 88.118C87.6269 86.23 88.7269 84.483 90.0329 82.883C91.3659 81.303 92.9689 79.924 94.7619 78.813C95.2149 78.545 95.6689 78.273 96.1199 77.984L97.5329 77.213C98.0239 76.998 98.5269 76.803 99.0379 76.636C99.5599 76.506 100.092 76.412 100.625 76.344C102.767 76.169 105.012 76.497 106.874 77.785L106.831 78.17C104.797 79.025 103.08 79.554 101.38 80.144C100.96 80.302 100.538 80.432 100.107 80.528C99.6839 80.654 99.2509 80.751 98.8079 80.83L97.4849 81.132C97.0519 81.263 96.6209 81.412 96.1889 81.564C94.5029 82.257 92.8749 83.165 91.3679 84.286C89.8339 85.386 88.4859 86.758 87.2799 88.305L86.9409 88.118Z" fill="#000035"/>
<path d="M127.252 90.382C127.252 92.406 128.893 94.046 130.916 94.046C132.94 94.046 134.58 92.405 134.58 90.382C134.58 88.358 132.939 86.718 130.916 86.718C128.893 86.718 127.252 88.358 127.252 90.382Z" fill="#000035"/>
<path d="M143.021 88.305C141.815 86.759 140.467 85.386 138.933 84.286C137.426 83.165 135.798 82.257 134.112 81.564C133.68 81.412 133.249 81.263 132.816 81.132L131.493 80.83C131.05 80.751 130.617 80.655 130.194 80.528C129.763 80.431 129.342 80.301 128.921 80.144C127.22 79.554 125.504 79.025 123.47 78.17L123.427 77.785C125.289 76.497 127.533 76.169 129.676 76.344C130.209 76.412 130.741 76.506 131.263 76.636C131.774 76.803 132.277 76.998 132.768 77.213L134.18 77.984C134.631 78.273 135.086 78.545 135.538 78.813C137.331 79.925 138.934 81.303 140.267 82.883C141.573 84.483 142.672 86.231 143.359 88.118L143.021 88.305Z" fill="#000035"/>
<path d="M102.591 115.726C104.553 117.542 106.695 119.115 109.007 120.282C110.165 120.857 111.357 121.351 112.597 121.625C113.208 121.802 113.836 121.866 114.457 121.968C115.083 121.985 115.716 122.067 116.324 121.977C117.556 121.935 118.772 121.568 119.927 121.063C121.105 120.594 122.188 119.883 123.249 119.143C125.356 117.622 127.246 115.756 129.004 113.741C127.739 116.106 126.034 118.261 123.95 120.035C121.888 121.794 119.313 123.239 116.423 123.426C114.995 123.53 113.587 123.339 112.244 122.951C110.9 122.568 109.622 122.001 108.46 121.27C106.117 119.843 104.104 117.944 102.591 115.726Z" fill="#000035"/>
<path d="M94.095 136.873C97.544 138.933 101.216 140.495 104.981 141.611C108.749 142.683 112.662 143.29 116.519 143.143C120.355 142.983 124.128 141.815 127.652 140.114C131.171 138.382 134.497 136.172 137.565 133.58C135.061 136.741 131.89 139.384 128.358 141.444C124.825 143.5 120.792 144.864 116.607 145.077C112.45 145.203 108.344 144.463 104.507 143.048C100.686 141.618 97.077 139.593 94.095 136.873Z" fill="#000035"/>
<path opacity="0.2" d="M145.581 106.099C145.581 109.747 141.682 112.705 136.873 112.705C132.064 112.705 128.165 109.747 128.165 106.099C128.165 102.45 132.064 99.4929 136.873 99.4929C141.682 99.4929 145.581 102.45 145.581 106.099Z" fill="#EBA08C"/>
<path opacity="0.2" d="M103.34 106.099C103.34 109.747 99.4408 112.705 94.6318 112.705C89.8228 112.705 85.9238 109.747 85.9238 106.099C85.9238 102.45 89.8228 99.4929 94.6318 99.4929C99.4418 99.4929 103.34 102.45 103.34 106.099Z" fill="#EBA08C"/>
<path d="M72.7329 81.25C76.5289 84.816 82.8139 84.42 86.2249 80.4C88.3539 77.891 89.2909 74.447 90.7759 71.417C92.2609 68.387 94.7999 65.479 97.8949 65.636C100.401 65.763 102.544 67.881 105.045 68.093C108.339 68.373 111.201 65.134 112.067 61.582C112.933 58.03 115.531 52.46 114.89 48.849C111.728 46.964 104.058 48.449 100.572 49.385C87.3419 52.938 76.8059 66.781 72.7329 81.25Z" fill="#000035"/>
<path d="M155.614 81.25C151.818 84.816 145.533 84.42 142.122 80.4C139.993 77.891 139.056 74.447 137.571 71.417C136.086 68.387 133.547 65.479 130.452 65.636C127.946 65.763 125.803 67.881 123.302 68.093C120.008 68.373 117.146 65.134 116.28 61.582C115.414 58.03 114.248 52.46 114.889 48.849C118.051 46.964 124.29 48.449 127.776 49.385C141.005 52.938 151.541 66.781 155.614 81.25Z" fill="#000035"/>
<path d="M114.539 88.0229C116.116 89.2439 117.47 90.761 118.606 92.429C119.738 94.102 120.634 95.964 121.187 97.946C121.449 98.953 121.636 99.943 121.769 100.934C121.918 101.926 122.035 102.926 122.107 103.93C122.23 105.951 122.272 107.938 121.932 110.024L121.841 110.583L121.286 110.567C119.503 110.517 117.72 110.448 115.937 110.34C114.154 110.238 112.371 110.11 110.588 109.911C112.371 109.712 114.154 109.584 115.937 109.482C117.72 109.374 119.503 109.306 121.286 109.255L120.64 109.798C120.824 107.956 120.765 105.962 120.619 104.038C120.468 102.116 120.228 100.122 119.862 98.2759C119.426 96.4239 118.726 94.6189 117.817 92.9019C116.894 91.1959 115.815 89.5469 114.539 88.0229Z" fill="#000035"/>
<path d="M82.2859 163.974L115.182 213.076L148.078 163.974" stroke="#000035" stroke-miterlimit="10"/>
<g opacity="0.38">
<path d="M107.627 56.8232C103.544 55.5352 99.132 55.7212 95.177 57.0802C91.228 58.4372 87.622 60.9262 85.268 64.3642C84.07 66.0552 83.244 67.9972 82.398 69.9622C81.54 71.9102 80.634 73.9452 79.145 75.5862C77.694 77.2292 75.892 78.5462 73.9 79.4062C71.9 80.2392 69.733 80.6772 67.595 80.5462C71.862 80.3712 75.944 78.3242 78.557 75.0912C81.224 71.8672 81.93 67.4492 84.449 63.7932C87.002 60.2122 90.787 57.6042 94.943 56.3522C97.024 55.7312 99.195 55.4222 101.356 55.4772C103.511 55.5622 105.66 55.9762 107.627 56.8232Z" fill="white"/>
<path d="M108.107 45.7451C106.436 44.6301 104.427 44.2342 102.475 44.3102C100.515 44.3592 98.5789 44.8041 96.7259 45.4471C93.0189 46.7211 89.5889 48.8161 86.8659 51.6211C84.0619 54.3571 82.1599 57.8911 79.8789 61.1801C78.7339 62.8251 77.4889 64.4241 76.0389 65.8281C74.5729 67.2031 72.9049 68.4111 71.0249 69.1021C72.8099 68.2031 74.3679 66.9461 75.6899 65.4841C77.0369 64.0431 78.1849 62.4302 79.2379 60.7542C81.3599 57.4252 83.2829 53.8421 86.1559 50.9181C89.0439 48.0611 92.6079 45.8761 96.4909 44.7181C98.4269 44.1471 100.443 43.7712 102.476 43.8232C104.49 43.9042 106.566 44.4401 108.107 45.7451Z" fill="white"/>
<path d="M118.93 60.5121C120.159 58.9131 121.902 57.7281 123.802 56.9831C125.722 56.2711 127.814 56.0281 129.869 56.2451C134.021 56.7241 137.701 59.2841 140.123 62.5931C141.347 64.2611 142.163 66.2041 142.822 68.0951C143.493 69.9881 144.162 71.8501 145.277 73.4431C147.504 76.6401 151.251 78.7821 155.255 79.0891C153.241 79.1541 151.215 78.6551 149.373 77.7791C147.539 76.8761 145.914 75.5351 144.655 73.8961C143.355 72.2541 142.677 70.2671 141.968 68.4091C141.28 66.5291 140.49 64.7431 139.313 63.1771C137.078 59.9951 133.628 57.6071 129.767 57.0041C125.932 56.4161 121.724 57.5901 118.93 60.5121Z" fill="white"/>
<path d="M119.146 47.7582C120.756 46.6392 122.607 45.8682 124.528 45.3832C126.464 44.9532 128.476 44.8462 130.464 45.0532C132.453 45.2692 134.395 45.8832 136.191 46.7842C137.976 47.7182 139.582 48.9602 140.973 50.3952C143.719 53.3162 145.681 56.8092 147.362 60.3432C148.194 62.1142 149.004 63.8842 150.034 65.5222C151.032 67.1732 152.311 68.6792 153.966 69.7402C152.192 68.8752 150.781 67.3872 149.626 65.7932C148.487 64.1722 147.587 62.4112 146.674 60.6862C144.865 57.2482 142.94 53.8312 140.254 51.0872C138.946 49.6952 137.436 48.4952 135.769 47.5882C134.088 46.6972 132.246 46.1352 130.362 45.8112C126.579 45.2342 122.584 45.8752 119.146 47.7582Z" fill="white"/>
<path d="M173.377 105.158C175.992 106.862 178.234 109.14 180.001 111.742C181.766 114.361 182.87 117.375 183.644 120.411C184.425 123.455 184.852 126.556 185.494 129.585C186.123 132.61 186.943 135.612 188.462 138.245C188.629 138.587 188.847 138.896 189.056 139.211C189.273 139.519 189.455 139.855 189.701 140.142C190.184 140.722 190.648 141.319 191.196 141.841C192.29 142.887 193.526 143.794 194.83 144.612C197.425 146.265 200.285 147.609 202.788 149.567C205.284 151.505 207.444 153.856 209.169 156.483C210.864 159.126 212.159 162.028 212.868 165.067C211.941 162.091 210.568 159.269 208.763 156.758C206.987 154.231 204.809 151.993 202.326 150.182C199.837 148.383 197.032 147.034 194.347 145.383C193.005 144.559 191.705 143.628 190.535 142.531C189.379 141.415 188.393 140.127 187.594 138.741C186.016 135.938 185.212 132.834 184.604 129.768C183.999 126.692 183.553 123.613 182.899 120.59C182.224 117.578 181.235 114.628 179.59 112.006C177.992 109.362 175.859 107.044 173.377 105.158Z" fill="white"/>
<path d="M155.892 118.948C159.005 119.539 161.587 121.778 163.349 124.366C165.114 127.012 166.124 130.044 167.093 133.003C168.981 138.938 171.203 144.762 173.894 150.364C174.553 151.754 175.287 153.085 176.362 154.103C177.431 155.138 178.76 155.916 180.113 156.676C182.859 158.177 185.526 159.955 187.815 162.122C190.131 164.26 192.174 166.69 193.878 169.328C195.564 171.978 196.922 174.832 197.859 177.813C196.709 174.91 195.274 172.129 193.471 169.601C191.708 167.052 189.633 164.72 187.301 162.694C184.969 160.656 182.422 158.924 179.671 157.471C178.303 156.718 176.896 155.924 175.702 154.793C174.488 153.662 173.676 152.209 172.994 150.795C170.354 145.107 168.102 139.24 166.362 133.229C165.484 130.246 164.571 127.254 162.94 124.63C161.35 122.022 158.939 119.761 155.892 118.948Z" fill="white"/>
<path d="M144.457 133.534C144.35 135.001 144.628 136.446 145.177 137.777C145.698 139.119 146.409 140.38 147.23 141.575C148.821 143.993 150.713 146.204 152.648 148.386C154.572 150.578 156.573 152.738 158.351 155.094C160.135 157.436 161.707 159.991 162.685 162.766C161.974 161.479 161.284 160.197 160.41 159.028C159.599 157.822 158.688 156.686 157.75 155.575C155.857 153.365 153.855 151.242 151.899 149.048C149.972 146.836 148.057 144.559 146.58 141.979C145.822 140.71 145.158 139.362 144.716 137.936C144.304 136.508 144.124 134.973 144.457 133.534Z" fill="white"/>
<path d="M54.9419 103.767C53.6909 104.168 52.4839 104.679 51.3439 105.309C50.2189 105.967 49.1529 106.717 48.1819 107.576C46.2339 109.287 44.6139 111.354 43.4109 113.637C42.2109 115.924 41.3819 118.377 40.9829 120.938C40.5549 123.495 40.4079 126.114 40.0529 128.74C39.6779 131.352 39.0509 134.018 37.7699 136.397C36.4979 138.763 34.7939 140.89 32.7659 142.612C30.7549 144.353 28.5489 145.832 26.2589 147.133C23.9509 148.406 21.5909 149.562 19.1919 150.63C21.4899 149.359 23.8019 148.117 26.0079 146.712C28.2289 145.337 30.3529 143.806 32.2499 142.042C34.1419 140.279 35.7869 138.257 36.9609 135.98C38.1519 133.707 38.7179 131.172 39.0629 128.602C39.4409 126.032 39.6189 123.402 40.0869 120.785C40.5379 118.17 41.3909 115.571 42.7399 113.269C44.0679 110.954 45.8049 108.88 47.8689 107.205C48.9129 106.381 50.0439 105.679 51.2209 105.078C52.4089 104.494 53.6629 104.064 54.9419 103.767Z" fill="white"/>
<path d="M67.3869 116.101C61.7839 118.703 57.2429 123.375 54.8579 128.97C53.6619 131.765 53.0609 134.779 52.7239 137.82C52.3869 140.867 52.2869 143.953 51.9879 147.049C51.6549 150.139 51.1049 153.251 49.9399 156.186C49.3559 157.647 48.6329 159.068 47.6959 160.349C46.7709 161.639 45.6219 162.76 44.3849 163.726C41.8909 165.648 39.1039 167.03 36.4779 168.623C33.8499 170.179 31.3189 172.069 29.7639 174.775C31.1169 171.951 33.6549 169.911 36.2169 168.208C38.8149 166.519 41.5529 165.057 43.9049 163.126C45.0679 162.151 46.1199 161.07 46.9929 159.846C47.8689 158.624 48.5459 157.263 49.0929 155.855C50.1849 153.027 50.6929 149.99 50.9939 146.949C51.3189 143.9 51.4499 140.807 51.8219 137.717C52.2079 134.64 52.8059 131.512 54.1579 128.662C55.4769 125.816 57.3189 123.223 59.5759 121.07C61.8519 118.941 64.4969 117.206 67.3869 116.101Z" fill="white"/>
<path d="M80.8439 130.943C79.6709 131.739 78.5649 132.614 77.6189 133.645C76.6439 134.642 75.8049 135.764 75.1109 136.959C73.6779 139.347 73.0349 142.045 72.5819 144.828C72.3259 146.214 72.0899 147.624 71.7179 149.017C71.3279 150.404 70.8559 151.771 70.2139 153.057C68.9759 155.648 67.2719 158.009 65.1819 159.93C66.0639 158.819 66.9109 157.692 67.6139 156.476C68.3479 155.282 68.9889 154.036 69.5119 152.743C70.6059 150.165 71.1499 147.454 71.5989 144.651C71.8579 143.258 72.1269 141.844 72.5739 140.462C73.0339 139.084 73.6479 137.752 74.4609 136.553C75.2679 135.353 76.2069 134.245 77.2819 133.292C78.3669 132.355 79.5589 131.544 80.8439 130.943Z" fill="white"/>
</g>
</g>
</svg>
