<svg width="229" height="229" viewBox="0 0 229 229" fill="none" xmlns="http://www.w3.org/2000/svg">
<path d="M114.079 218.782C171.905 218.782 218.782 171.905 218.782 114.079C218.782 56.2531 171.905 9.37598 114.079 9.37598C56.2531 9.37598 9.37598 56.2531 9.37598 114.079C9.37598 171.905 56.2531 218.782 114.079 218.782Z" fill="white"/>
<path d="M114.079 227.158C176.531 227.158 227.158 176.531 227.158 114.079C227.158 51.6272 176.531 1 114.079 1C51.6272 1 1 51.6272 1 114.079C1 176.531 51.6272 227.158 114.079 227.158Z" stroke="white" stroke-width="2" stroke-miterlimit="10"/>
<mask id="mask0_250_10" style="mask-type:luminance" maskUnits="userSpaceOnUse" x="9" y="9" width="210" height="210">
<path d="M114.079 218.782C171.905 218.782 218.782 171.905 218.782 114.079C218.782 56.2531 171.905 9.37598 114.079 9.37598C56.2531 9.37598 9.37598 56.2531 9.37598 114.079C9.37598 171.905 56.2531 218.782 114.079 218.782Z" fill="white"/>
</mask>
<g mask="url(#mask0_250_10)">
<path d="M154.271 99.846C154.271 122.618 139.789 149.795 113.039 149.795C86.2889 149.795 71.8069 122.618 71.8069 99.846C71.8069 77.074 90.2669 58.614 113.039 58.614C135.811 58.614 154.271 77.074 154.271 99.846Z" fill="#EBA08C"/>
<path d="M76.4001 102.215C78.4901 99.2689 79.5681 95.7179 80.2031 92.1619C80.9051 88.2289 81.0501 83.9609 79.1191 80.4639C78.5241 79.3869 77.7111 78.3859 76.6151 77.8249C74.6781 76.8349 72.2061 77.4599 70.5521 78.8719C68.8971 80.2839 67.9301 82.3389 67.2501 84.4059C65.2581 90.4639 65.3921 96.9959 66.5221 103.209C67.0611 106.174 66.9491 108.409 70.3831 107.086C72.8141 106.147 74.9031 104.325 76.4001 102.215Z" fill="#000035"/>
<path d="M151.404 102.215C149.314 99.2689 148.236 95.7179 147.601 92.1619C146.899 88.2289 146.754 83.9609 148.685 80.4639C149.28 79.3869 150.093 78.3859 151.189 77.8249C153.126 76.8349 155.598 77.4599 157.252 78.8719C158.907 80.2839 159.874 82.3389 160.554 84.4059C162.546 90.4639 162.412 96.9959 161.282 103.209C160.743 106.174 160.855 108.409 157.421 107.086C154.989 106.147 152.9 104.325 151.404 102.215Z" fill="#000035"/>
<path d="M102.232 97.4929C102.232 99.5169 100.592 101.157 98.5681 101.157C96.5441 101.157 94.9041 99.5159 94.9041 97.4929C94.9041 95.4689 96.5451 93.8289 98.5681 93.8289C100.591 93.8289 102.232 95.4699 102.232 97.4929Z" fill="#000035"/>
<path d="M86.124 95.2289C86.81 93.3409 87.91 91.5939 89.216 89.9939C90.549 88.4139 92.152 87.0349 93.945 85.9239C94.398 85.6559 94.852 85.3839 95.303 85.0949L96.715 84.3239C97.206 84.1089 97.709 83.9139 98.22 83.7469C98.742 83.6169 99.274 83.5229 99.807 83.4549C101.95 83.2799 104.194 83.6079 106.056 84.8959L106.013 85.2809C103.979 86.1359 102.262 86.6649 100.562 87.2549C100.142 87.4129 99.72 87.5429 99.289 87.6389C98.865 87.7649 98.433 87.8619 97.99 87.9409L96.666 88.2429C96.232 88.3739 95.802 88.5229 95.37 88.6749C93.684 89.3669 92.056 90.2759 90.549 91.3969C89.015 92.4959 87.667 93.8689 86.461 95.4159L86.124 95.2289Z" fill="#000035"/>
<path d="M130.099 101.157C132.123 101.157 133.763 99.5164 133.763 97.4929C133.763 95.4693 132.123 93.8289 130.099 93.8289C128.075 93.8289 126.435 95.4693 126.435 97.4929C126.435 99.5164 128.075 101.157 130.099 101.157Z" fill="#000035"/>
<path d="M142.204 95.4159C140.998 93.8699 139.65 92.4969 138.116 91.3969C136.609 90.2759 134.981 89.3669 133.295 88.6749C132.863 88.5229 132.432 88.3739 131.999 88.2429L130.675 87.9409C130.232 87.8619 129.799 87.7649 129.376 87.6389C128.945 87.5419 128.524 87.4119 128.103 87.2549C126.402 86.6649 124.686 86.1359 122.652 85.2809L122.609 84.8959C124.472 83.6079 126.716 83.2799 128.858 83.4549C129.391 83.5229 129.923 83.6169 130.445 83.7469C130.956 83.9139 131.459 84.1089 131.95 84.3239L133.363 85.0949C133.814 85.3839 134.269 85.6559 134.721 85.9239C136.514 87.0349 138.117 88.4139 139.45 89.9939C140.756 91.5939 141.855 93.3419 142.542 95.2289L142.204 95.4159Z" fill="#000035"/>
<path d="M101.773 122.838C103.735 124.654 105.878 126.227 108.189 127.394C109.346 127.969 110.539 128.462 111.779 128.737C112.39 128.914 113.018 128.978 113.639 129.08C114.265 129.097 114.898 129.179 115.506 129.09C116.738 129.048 117.954 128.681 119.109 128.176C120.287 127.707 121.37 126.995 122.431 126.256C124.537 124.736 126.428 122.869 128.186 120.854C126.921 123.219 125.216 125.374 123.132 127.148C121.07 128.907 118.495 130.352 115.605 130.539C114.177 130.643 112.769 130.452 111.426 130.064C110.082 129.681 108.804 129.114 107.642 128.383C105.3 126.954 103.287 125.055 101.773 122.838Z" fill="#000035"/>
<path d="M116.021 180.075C126.571 180.075 133.034 171.908 136.253 166.233C132.242 164.183 129.313 161.993 128.403 159.532C124.966 150.231 126.341 139.717 126.341 139.717L114.957 140.502L102.762 139.717C102.762 139.717 104.948 150.231 101.511 159.532C100.544 162.15 97.3019 164.463 92.8909 166.625C96.6049 171.603 104.601 180.075 116.021 180.075Z" fill="#EBA08C"/>
<path d="M175.313 182.785C167.996 177.298 151.991 173.076 140.648 168.266C136.695 175.239 128.753 185.281 115.786 185.281C101.926 185.281 92.172 175.123 87.538 168.981C76.35 173.499 61.554 177.571 54.602 182.785C43.279 191.277 38.022 227.268 38.022 227.268H114.654H115.261H191.893C191.893 227.268 186.635 191.277 175.313 182.785Z" fill="#2847FB"/>
<path d="M115.786 185.281C128.753 185.281 136.695 175.239 140.648 168.266C139.081 167.601 137.607 166.925 136.253 166.233C133.034 171.909 126.571 180.075 116.021 180.075C104.601 180.075 96.6059 171.603 92.8909 166.625C91.2509 167.429 89.4439 168.211 87.5369 168.981C92.1719 175.124 101.926 185.281 115.786 185.281Z" fill="#071882"/>
<path d="M93.2781 143.984C96.8271 145.646 100.522 146.845 104.263 147.713C108.009 148.525 111.842 148.996 115.627 148.877C119.388 148.76 123.111 147.803 126.651 146.363C130.188 144.899 133.577 142.99 136.749 140.692C134.101 143.6 130.834 145.952 127.273 147.737C125.495 148.643 123.607 149.338 121.673 149.89C119.729 150.405 117.722 150.73 115.697 150.814C111.669 150.904 107.687 150.32 103.878 149.175C100.089 148.002 96.4281 146.347 93.2781 143.984Z" fill="#000035"/>
<path opacity="0.2" d="M136.055 119.816C140.864 119.816 144.763 116.858 144.763 113.21C144.763 109.562 140.864 106.604 136.055 106.604C131.246 106.604 127.347 109.562 127.347 113.21C127.347 116.858 131.246 119.816 136.055 119.816Z" fill="#EBA08C"/>
<path opacity="0.2" d="M93.8149 119.816C98.6242 119.816 102.523 116.858 102.523 113.21C102.523 109.562 98.6242 106.604 93.8149 106.604C89.0056 106.604 85.1069 109.562 85.1069 113.21C85.1069 116.858 89.0056 119.816 93.8149 119.816Z" fill="#EBA08C"/>
<path d="M113.829 92.271C114.367 96.169 114.676 100.081 115.725 103.767C116.258 105.597 116.936 107.384 117.886 109.012C118.81 110.651 119.997 112.13 121.423 113.334L121.857 113.7L121.582 114.155C120.597 115.785 119.332 117.212 117.919 118.429C116.508 119.651 114.942 120.673 113.277 121.458C114.737 120.339 116.106 119.137 117.333 117.821C118.553 116.499 119.633 115.067 120.469 113.519L120.627 114.34C118.976 113.11 117.654 111.488 116.631 109.734C115.63 107.962 114.895 106.057 114.451 104.096C113.989 102.142 113.778 100.153 113.704 98.178C113.624 96.201 113.694 94.235 113.829 92.271Z" fill="#000035"/>
<path d="M160.856 97.1149C165.024 93.0959 168.494 60.6329 166.688 55.1889C166.081 57.2389 164.688 59.9269 163.048 61.3359C163.943 58.8689 164.629 56.3039 164.733 53.6879C164.95 48.2119 163.529 42.6169 161.253 37.6089C156.687 40.9829 150.921 42.6069 145.199 42.7629C139.478 42.9189 133.658 42.6789 128.283 40.7569C129.897 39.0789 131.146 36.8449 131.925 34.6709C126.678 36.1589 121.135 36.2629 115.672 36.2479C110.208 36.2329 104.693 36.1159 99.3399 37.1879C93.9869 38.2599 88.6029 41.3839 85.1919 45.5569C85.5639 42.7879 86.5249 38.9519 86.5139 36.1599C84.1689 39.2799 80.2879 40.9789 77.7499 43.9519C75.6619 46.3979 74.6079 49.6619 74.8819 52.8359C74.2779 52.0829 72.6039 51.7789 71.6249 51.7609C70.6459 51.7429 69.6879 52.0139 68.7549 52.3019C65.6299 53.2659 62.5779 54.4539 59.6299 55.8519C62.4979 57.8499 66.2879 59.0589 69.7519 58.4369C65.4939 61.5899 62.0809 66.9369 61.6889 72.1439C61.2959 77.3519 62.7419 94.2809 66.4809 98.0109C71.0669 97.8899 76.3059 84.6719 79.7759 81.7389C83.2459 78.8059 85.6369 74.6759 86.4209 70.2569C91.9339 75.5179 99.1289 79.0869 106.829 79.3589C105.784 75.6409 103.724 71.9959 100.792 69.4169C105.275 72.6729 110.179 72.8609 115.76 73.0379C121.341 73.2149 127.071 73.0039 132.338 74.8179C138.241 76.8519 147.456 83.7749 151.559 88.3949" fill="#000035"/>
<path d="M165.224 106.78C164.67 109.721 163.048 112.442 160.984 114.48C159.582 115.864 157.943 116.977 156.19 117.449C154.438 117.921 152.569 117.707 151.178 116.638C149.905 115.66 149.11 114.043 148.722 112.313C147.828 108.319 149.037 103.682 151.491 100.208C153.195 97.7948 155.607 95.8248 158.201 95.4988C163.43 94.8388 166.203 101.577 165.224 106.78Z" fill="#EBA08C"/>
<path d="M150.5 112.906C151.754 112.834 152.998 112.387 154.055 111.628C154.375 111.398 154.71 111.073 154.694 110.667C154.686 110.441 154.566 110.242 154.446 110.059C153.733 108.978 152.844 108.033 151.829 107.276C152.57 105.607 153.323 103.917 154.429 102.49C155.535 101.063 157.052 99.9029 158.749 99.6679C160.447 99.4319 162.297 100.299 162.945 101.966C162.945 101.966 165.223 106.779 159.857 111.989C154.199 117.484 150.5 112.906 150.5 112.906Z" fill="#EBA08C"/>
<path d="M162.945 101.967C162.301 100.779 161.065 100.135 159.863 100.06C158.658 99.9727 157.499 100.483 156.544 101.23C155.581 101.987 154.81 102.975 154.162 104.063C153.52 105.157 152.963 106.331 152.412 107.535L152.21 106.765C152.871 107.288 153.471 107.881 153.996 108.53C154.253 108.859 154.493 109.201 154.713 109.553C154.819 109.732 154.932 109.89 155.044 110.149C155.16 110.395 155.196 110.779 155.073 111.064C154.828 111.635 154.386 111.861 154.044 112.07C153.683 112.282 153.294 112.44 152.904 112.576C152.12 112.837 151.3 112.972 150.498 112.906C151.283 112.747 152.028 112.491 152.699 112.111C153.035 111.923 153.345 111.698 153.647 111.472C153.952 111.246 154.207 110.981 154.236 110.787C154.246 110.694 154.235 110.655 154.178 110.544C154.123 110.442 153.996 110.28 153.882 110.129C153.649 109.829 153.402 109.541 153.141 109.268C152.628 108.715 152.061 108.215 151.448 107.788L151.038 107.502L151.247 107.018C151.771 105.803 152.293 104.549 153.024 103.374C153.739 102.198 154.663 101.078 155.853 100.278C157.018 99.4787 158.53 98.9747 159.976 99.2987C161.383 99.5887 162.636 100.643 162.945 101.967Z" fill="#000035"/>
<path d="M59.718 106.78C60.272 109.721 61.894 112.442 63.958 114.48C65.36 115.864 66.999 116.977 68.752 117.449C70.504 117.921 72.373 117.707 73.765 116.638C75.038 115.66 75.833 114.043 76.221 112.313C77.115 108.319 75.906 103.682 73.452 100.208C71.748 97.7948 69.337 95.8248 66.742 95.4988C61.511 94.8388 58.739 101.577 59.718 106.78Z" fill="#EBA08C"/>
<path d="M74.4412 112.906C73.1872 112.834 71.9432 112.387 70.8862 111.628C70.5662 111.398 70.2312 111.073 70.2472 110.667C70.2552 110.441 70.3752 110.242 70.4952 110.059C71.2082 108.978 72.0972 108.033 73.1122 107.276C72.3712 105.607 71.6182 103.917 70.5132 102.49C69.4072 101.063 67.8902 99.9029 66.1932 99.6679C64.4952 99.4319 62.6452 100.299 61.9972 101.966C61.9972 101.966 59.7192 106.779 65.0852 111.989C70.7432 117.484 74.4412 112.906 74.4412 112.906Z" fill="#EBA08C"/>
<path d="M61.9961 101.967C62.3061 100.643 63.5591 99.5888 64.9651 99.2978C66.4101 98.9738 67.9231 99.4778 69.0881 100.277C70.2791 101.078 71.2021 102.198 71.9181 103.374C72.6491 104.549 73.1711 105.803 73.6951 107.018L73.9031 107.502L73.4931 107.788C72.8801 108.215 72.3131 108.715 71.8001 109.268C71.5391 109.541 71.2921 109.829 71.0591 110.129C70.9451 110.28 70.8181 110.442 70.7631 110.544C70.7061 110.655 70.6951 110.694 70.7051 110.787C70.7341 110.982 70.9881 111.247 71.2941 111.472C71.5961 111.698 71.9061 111.923 72.2421 112.111C72.9131 112.491 73.6571 112.746 74.4431 112.906C73.6411 112.972 72.8211 112.837 72.0371 112.576C71.6471 112.441 71.2581 112.282 70.8971 112.07C70.5551 111.861 70.1131 111.635 69.8681 111.064C69.7451 110.779 69.7821 110.395 69.8971 110.149C70.0091 109.89 70.1231 109.732 70.2291 109.553C70.4501 109.201 70.6891 108.86 70.9461 108.53C71.4721 107.881 72.0721 107.289 72.7321 106.765L72.5301 107.535C71.9791 106.331 71.4221 105.156 70.7801 104.063C70.1311 102.975 69.3611 101.988 68.3981 101.23C67.4431 100.483 66.2841 99.9728 65.0791 100.06C63.8761 100.135 62.6411 100.778 61.9961 101.967Z" fill="#000035"/>
<g opacity="0.35">
<path d="M84.7542 50.7429C86.1902 53.7829 88.6732 56.1939 91.4882 57.9229C94.3262 59.6529 97.4732 60.7979 100.67 61.7189L100.297 62.2069C99.2561 60.6119 97.9502 59.1779 96.6132 57.7849L92.4992 53.6559L93.1222 53.0539C95.0652 55.0469 97.5532 56.4579 100.193 57.3869C102.84 58.3289 105.638 58.7999 108.458 59.0689C111.28 59.3449 114.134 59.4649 116.996 59.6919C119.857 59.9479 122.722 60.3019 125.533 60.9219C131.161 62.1109 136.638 64.1199 141.59 67.0559C142.84 67.7689 144.02 68.5929 145.201 69.4109L146.894 70.7459C147.46 71.1879 147.971 71.6959 148.512 72.1669C150.618 74.1159 152.513 76.2889 154.103 78.6669C150.682 74.0799 146.264 70.3149 141.293 67.5709C136.343 64.7729 130.898 62.9569 125.352 61.7889C122.575 61.1969 119.752 60.8699 116.923 60.6369C114.087 60.4229 111.224 60.3539 108.359 60.0529C105.5 59.7589 102.619 59.2559 99.8801 58.2589C97.1491 57.2759 94.5422 55.7809 92.4982 53.6539L93.1212 53.0519C94.4672 54.4399 95.8592 55.8069 97.1832 57.2459C98.5042 58.6849 99.8022 60.1679 100.854 61.8579L101.324 62.6119L100.481 62.3459C97.2862 61.3379 94.0882 60.1399 91.2742 58.2569C88.4782 56.3979 86.0282 53.8619 84.7542 50.7429Z" fill="white"/>
<path d="M107.155 43.4399C109.909 45.7009 112.985 47.5299 116.246 48.8879C119.503 50.2599 122.966 51.0899 126.462 51.4319L126.181 52.2239C123.819 50.6949 121.248 49.2809 119.24 47.0949L116.207 43.7939L119.873 46.3859C121.088 47.2449 122.546 47.7019 124.056 47.8879C125.568 48.0839 127.127 48.0379 128.692 47.9499C130.256 47.8519 131.845 47.7339 133.445 47.7229C135.042 47.7239 136.637 47.8199 138.221 48.0059C141.385 48.4259 144.488 49.2239 147.453 50.3679C150.404 51.5469 153.214 53.0679 155.758 54.9419C154.414 54.1119 153.037 53.3449 151.626 52.6509C150.205 51.9749 148.747 51.3899 147.271 50.8619C144.31 49.8279 141.235 49.1449 138.126 48.8339C136.572 48.6819 135.012 48.5959 133.452 48.6139C131.895 48.6409 130.336 48.7729 128.751 48.8899C127.168 48.9949 125.557 49.0649 123.932 48.8729C122.313 48.6859 120.679 48.1449 119.314 47.1609L119.947 46.4509C121.792 48.5109 124.27 49.9259 126.654 51.4999L128.139 52.4799L126.374 52.2929C122.785 51.9119 119.286 50.8849 116.02 49.4039C112.757 47.9099 109.742 45.8879 107.155 43.4399Z" fill="white"/>
<path d="M79.7471 60.345C79.7401 60.926 79.7251 61.509 79.6971 62.093L79.5121 63.839L79.1751 65.566L78.7271 67.271C78.0591 69.529 77.0381 71.681 75.7811 73.677C74.5041 75.66 72.9851 77.495 71.2211 79.055L69.8641 80.181L68.4411 81.216L66.9361 82.12C66.4181 82.392 65.8961 82.652 65.3721 82.903C65.8431 82.557 66.3161 82.221 66.7931 81.897L68.1501 80.821L69.4571 79.697L70.6891 78.498C72.2801 76.852 73.7211 75.069 74.9381 73.139C76.1741 71.221 77.1811 69.162 78.0021 67.025C78.8131 64.882 79.3771 62.642 79.7471 60.345Z" fill="white"/>
</g>
</g>
</svg>
