<svg width="229" height="229" viewBox="0 0 229 229" fill="none" xmlns="http://www.w3.org/2000/svg">
<path d="M114.079 218.782C171.905 218.782 218.782 171.905 218.782 114.079C218.782 56.2531 171.905 9.37598 114.079 9.37598C56.2531 9.37598 9.37598 56.2531 9.37598 114.079C9.37598 171.905 56.2531 218.782 114.079 218.782Z" fill="white"/>
<path d="M114.079 227.158C176.531 227.158 227.158 176.531 227.158 114.079C227.158 51.6272 176.531 1 114.079 1C51.6272 1 1 51.6272 1 114.079C1 176.531 51.6272 227.158 114.079 227.158Z" stroke="white" stroke-width="2" stroke-miterlimit="10"/>
<mask id="mask0_250_57" style="mask-type:luminance" maskUnits="userSpaceOnUse" x="9" y="9" width="210" height="210">
<path d="M114.079 218.782C171.905 218.782 218.782 171.905 218.782 114.079C218.782 56.2531 171.905 9.37598 114.079 9.37598C56.2531 9.37598 9.37598 56.2531 9.37598 114.079C9.37598 171.905 56.2531 218.782 114.079 218.782Z" fill="white"/>
</mask>
<g mask="url(#mask0_250_57)">
<path d="M123.942 145.241C122.568 137.838 123.436 131.185 123.436 131.185L112.052 131.97L99.8569 131.185C99.8569 131.185 101.298 138.116 99.9999 145.701C107.88 147.343 116.128 147.174 123.942 145.241Z" fill="#EBA08C"/>
<path d="M151.365 91.3129C151.365 114.085 136.883 141.262 110.133 141.262C83.3829 141.262 68.9009 114.085 68.9009 91.3129C68.9009 68.5409 75.8929 42.6809 110.133 42.6809C144.373 42.6809 151.365 68.5419 151.365 91.3129Z" fill="#EBA08C"/>
<path d="M83.218 86.6969C83.904 84.8089 85.004 83.0619 86.31 81.4619C87.643 79.8819 89.246 78.5029 91.039 77.3919C91.492 77.1239 91.946 76.8519 92.397 76.5629L93.809 75.7919C94.3 75.5769 94.803 75.3819 95.314 75.2149C95.836 75.0849 96.368 74.9909 96.901 74.9229C99.043 74.7479 101.288 75.0759 103.15 76.3639L103.107 76.7489C101.073 77.6039 99.356 78.1329 97.656 78.7229C97.236 78.8809 96.814 79.0109 96.383 79.1069C95.96 79.2329 95.527 79.3299 95.084 79.4089L93.76 79.7109C93.326 79.8419 92.896 79.9909 92.464 80.1429C90.778 80.8359 89.15 81.7439 87.643 82.8649C86.109 83.9639 84.761 85.3369 83.555 86.8839L83.218 86.6969Z" fill="#000035"/>
<path d="M123.529 89.9609C123.529 91.9849 125.17 93.6248 127.193 93.6248C129.217 93.6248 130.857 91.9839 130.857 89.9609C130.857 87.9369 129.217 86.2969 127.193 86.2969C125.17 86.2969 123.529 87.9369 123.529 89.9609Z" fill="#000035"/>
<path d="M139.298 86.8839C138.092 85.3379 136.744 83.9649 135.21 82.8649C133.703 81.7439 132.075 80.8349 130.389 80.1429C129.957 79.9909 129.527 79.8419 129.093 79.7109L127.77 79.4089C127.327 79.3299 126.894 79.2329 126.471 79.1069C126.04 79.0099 125.619 78.8799 125.198 78.7229C123.497 78.1329 121.781 77.6039 119.746 76.7489L119.703 76.3639C121.566 75.0759 123.81 74.7479 125.952 74.9229C126.485 74.9909 127.017 75.0849 127.539 75.2149C128.05 75.3819 128.553 75.5769 129.044 75.7919L130.456 76.5629C130.907 76.8519 131.362 77.1239 131.814 77.3919C133.607 78.5039 135.21 79.8819 136.544 81.4619C137.85 83.0619 138.949 84.8099 139.636 86.6969L139.298 86.8839Z" fill="#000035"/>
<path d="M98.8679 114.306C100.83 116.122 102.973 117.695 105.284 118.862C106.441 119.437 107.634 119.931 108.874 120.205C109.485 120.382 110.113 120.446 110.734 120.548C111.36 120.565 111.993 120.647 112.601 120.557C113.833 120.515 115.049 120.148 116.204 119.643C117.382 119.174 118.465 118.463 119.526 117.723C121.633 116.202 123.523 114.336 125.281 112.321C124.016 114.686 122.311 116.841 120.227 118.615C118.165 120.374 115.59 121.819 112.7 122.006C111.271 122.11 109.864 121.919 108.521 121.531C107.177 121.148 105.9 120.581 104.737 119.85C102.395 118.422 100.382 116.523 98.8679 114.306Z" fill="#000035"/>
<path d="M90.3721 135.452C93.9221 137.113 97.6161 138.313 101.357 139.181C105.103 139.993 108.936 140.464 112.721 140.345C116.481 140.228 120.205 139.271 123.744 137.831C127.281 136.367 130.67 134.458 133.842 132.16C131.194 135.068 127.927 137.42 124.367 139.204C122.589 140.11 120.701 140.805 118.766 141.357C116.822 141.872 114.815 142.197 112.79 142.281C108.762 142.371 104.78 141.787 100.971 140.642C97.1831 139.469 93.5221 137.814 90.3721 135.452Z" fill="#000035"/>
<path opacity="0.2" d="M141.858 104.678C141.858 108.326 137.959 111.284 133.15 111.284C128.34 111.284 124.442 108.326 124.442 104.678C124.442 101.029 128.341 98.0718 133.15 98.0718C137.959 98.0718 141.858 101.03 141.858 104.678Z" fill="#EBA08C"/>
<path opacity="0.2" d="M99.6179 104.678C99.6179 108.326 95.7189 111.284 90.9099 111.284C86.0999 111.284 82.2019 108.326 82.2019 104.678C82.2019 101.029 86.1009 98.0718 90.9099 98.0718C95.7189 98.0718 99.6179 101.03 99.6179 104.678Z" fill="#EBA08C"/>
<path d="M152.485 97.5819C144.159 89.3789 140.257 77.5599 139.499 65.8959C129.882 71.3749 118.649 73.9769 107.603 73.2819C96.556 72.5869 86.41 69.2779 77.555 62.6369C77.533 69.7269 77.5 76.9089 75.69 83.7649C73.88 90.6209 70.065 97.2279 64.012 100.921C59.642 83.9249 62.986 60.1159 73.535 46.0919C73.726 42.0009 76.813 36.0539 81.201 34.0259C81.399 33.9339 81.64 33.8569 81.826 33.9709C82.047 34.1069 82.053 34.4219 82.025 34.6799C81.818 36.6059 81.214 38.4889 80.262 40.1759C81.744 38.2189 83.632 36.5699 85.77 35.3639C86.733 34.8209 87.824 34.3549 88.915 34.5329C88.537 36.0239 87.792 37.4209 86.764 38.5659C97.925 33.9619 110.338 32.9239 122.154 35.4019C131.006 37.2579 139.754 41.3869 145.153 48.6439C147.338 51.5809 148.906 54.9309 150.217 58.3479C155.324 71.6639 155.4 83.6209 152.485 97.5819Z" fill="#000035"/>
<path d="M162.318 98.2468C161.764 101.188 160.142 103.909 158.078 105.947C156.676 107.331 155.037 108.444 153.284 108.916C151.532 109.388 149.663 109.174 148.272 108.105C146.999 107.127 146.204 105.51 145.816 103.78C144.922 99.7858 146.131 95.1478 148.585 91.6748C150.289 89.2618 152.7 87.2918 155.295 86.9658C160.525 86.3068 163.297 93.0448 162.318 98.2468Z" fill="#EBA08C"/>
<path d="M147.595 104.373C148.849 104.301 150.093 103.854 151.15 103.095C151.47 102.865 151.805 102.539 151.79 102.134C151.781 101.908 151.662 101.709 151.542 101.526C150.829 100.445 149.94 99.4997 148.925 98.7427C149.666 97.0737 150.419 95.3837 151.524 93.9567C152.63 92.5297 154.147 91.3697 155.844 91.1347C157.542 90.8987 159.392 91.7657 160.04 93.4327C160.04 93.4327 162.318 98.2457 156.952 103.456C151.293 108.952 147.595 104.373 147.595 104.373Z" fill="#EBA08C"/>
<path d="M160.04 93.4349C159.396 92.2469 158.16 91.6029 156.958 91.5279C155.753 91.4409 154.594 91.9509 153.639 92.6979C152.676 93.4549 151.905 94.4429 151.257 95.5309C150.615 96.6249 150.058 97.7989 149.507 99.0039L149.305 98.2339C149.966 98.7569 150.566 99.3499 151.091 99.9989C151.348 100.328 151.587 100.67 151.808 101.022C151.914 101.201 152.027 101.36 152.14 101.618C152.256 101.864 152.292 102.248 152.169 102.533C151.924 103.104 151.482 103.33 151.14 103.539C150.779 103.751 150.39 103.909 150 104.044C149.216 104.305 148.396 104.44 147.594 104.374C148.379 104.215 149.124 103.959 149.795 103.579C150.131 103.391 150.441 103.166 150.743 102.94C151.048 102.714 151.303 102.449 151.332 102.255C151.342 102.162 151.331 102.124 151.274 102.012C151.218 101.909 151.092 101.748 150.978 101.597C150.745 101.297 150.498 101.009 150.237 100.736C149.724 100.183 149.157 99.6829 148.544 99.2559L148.134 98.9699L148.342 98.4859C148.866 97.2709 149.388 96.0169 150.119 94.8419C150.834 93.6659 151.758 92.5459 152.948 91.7449C154.113 90.9469 155.625 90.4419 157.071 90.7659C158.477 91.0569 159.73 92.1109 160.04 93.4349Z" fill="#000035"/>
<path d="M56.812 98.2468C57.366 101.188 58.988 103.909 61.052 105.947C62.454 107.331 64.093 108.444 65.846 108.916C67.598 109.388 69.467 109.174 70.859 108.105C72.132 107.127 72.927 105.51 73.315 103.78C74.209 99.7858 73 95.1478 70.546 91.6748C68.842 89.2618 66.431 87.2918 63.836 86.9658C58.606 86.3068 55.833 93.0448 56.812 98.2468Z" fill="#EBA08C"/>
<path d="M71.5359 104.373C70.2819 104.301 69.0379 103.854 67.9809 103.095C67.6609 102.865 67.3259 102.539 67.3409 102.134C67.3499 101.908 67.4689 101.709 67.5889 101.526C68.3019 100.445 69.1909 99.4997 70.2059 98.7427C69.4649 97.0737 68.7119 95.3837 67.6069 93.9567C66.5009 92.5297 64.9839 91.3697 63.2869 91.1347C61.5889 90.8987 59.7389 91.7657 59.0909 93.4327C59.0909 93.4327 56.8129 98.2457 62.1789 103.456C67.8379 108.952 71.5359 104.373 71.5359 104.373Z" fill="#EBA08C"/>
<path d="M59.0901 93.4348C59.4001 92.1108 60.6531 91.0568 62.0591 90.7658C63.5041 90.4418 65.0171 90.9458 66.1821 91.7448C67.3731 92.5458 68.2961 93.6658 69.0121 94.8418C69.7431 96.0168 70.2651 97.2708 70.7891 98.4858L70.9971 98.9698L70.5871 99.2558C69.9741 99.6828 69.4071 100.183 68.8941 100.736C68.6331 101.009 68.3861 101.297 68.1531 101.597C68.0391 101.748 67.9121 101.91 67.8571 102.012C67.8001 102.124 67.7891 102.162 67.7991 102.255C67.8281 102.45 68.0821 102.715 68.3881 102.94C68.6901 103.166 69.0001 103.391 69.3361 103.579C70.0071 103.959 70.7511 104.214 71.5371 104.374C70.7351 104.44 69.9151 104.305 69.1311 104.044C68.7411 103.909 68.3521 103.75 67.9911 103.539C67.6491 103.33 67.2071 103.104 66.9631 102.533C66.8401 102.248 66.8761 101.864 66.9921 101.618C67.1041 101.359 67.2181 101.201 67.3231 101.022C67.5441 100.67 67.7831 100.328 68.0401 99.9988C68.5661 99.3498 69.1661 98.7578 69.8261 98.2338L69.6241 99.0038C69.0731 97.7998 68.5161 96.6248 67.8741 95.5308C67.2261 94.4428 66.4551 93.4558 65.4921 92.6978C64.5371 91.9508 63.3781 91.4408 62.1731 91.5278C60.9701 91.6018 59.7351 92.2458 59.0901 93.4348Z" fill="#000035"/>
<path d="M89.985 158.093C88.345 158.897 86.538 159.679 84.631 160.449C73.443 164.967 58.647 169.039 51.695 174.253C40.372 182.745 35.115 218.736 35.115 218.736H104.237C101.743 197.72 98.138 176.837 93.428 156.205C92.388 156.848 91.241 157.478 89.985 158.093Z" fill="#000035"/>
<path d="M113.841 169.226C114.228 169.216 114.515 168.878 114.748 168.569C118.771 163.226 122.506 157.666 125.946 151.931C125.766 151.625 125.614 151.315 125.498 151C124.795 149.097 124.296 147.145 123.942 145.241C116.128 147.174 107.88 147.343 100 145.702C99.699 147.459 99.252 149.251 98.605 151.001C98.433 151.466 98.165 151.919 97.856 152.366C102.879 157.802 107.902 163.238 112.925 168.675C113.175 168.945 113.473 169.236 113.841 169.226Z" fill="#EBA08C"/>
<path d="M172.407 174.253C165.091 168.766 149.085 164.543 137.743 159.734C136.175 159.069 134.701 158.393 133.348 157.701C133.243 157.647 133.148 157.593 133.045 157.539C127.87 177.633 124.164 198.102 121.974 218.736H188.988C188.988 218.736 183.73 182.745 172.407 174.253Z" fill="#000035"/>
<path d="M125.945 151.931C122.505 157.667 118.77 163.226 114.747 168.569C114.514 168.878 114.227 169.215 113.84 169.226C113.472 169.236 113.174 168.944 112.924 168.674C107.901 163.238 102.878 157.802 97.855 152.365C96.919 153.716 95.392 154.989 93.427 156.204C98.137 176.836 101.742 197.72 104.236 218.735H111.746H112.353H121.971C124.16 198.101 127.867 177.632 133.042 157.538C129.699 155.798 127.139 153.956 125.945 151.931Z" fill="white"/>
<path d="M125.49 151.657C127.032 152.886 128.47 154.103 130.012 155.212C131.537 156.344 133.133 157.346 134.77 158.445C132.824 158.079 131.02 157.172 129.422 156.019C127.84 154.843 126.429 153.399 125.49 151.657Z" fill="#000035"/>
<path d="M92.769 156.743C94.004 155.418 95.3811 154.341 96.6171 153.149C97.8751 151.972 98.979 150.721 99.936 149.191C99.842 150.096 99.498 150.97 99.028 151.755C98.562 152.548 97.956 153.246 97.303 153.875C95.969 155.111 94.444 156.071 92.769 156.743Z" fill="#000035"/>
<path d="M105.456 174.951L110.7 183.088L103.648 213.466L104.238 218.736H121.973L122.634 213.828L116.667 183.631L122.092 175.313L113.841 169.226L105.456 174.951Z" fill="#2847FB"/>
<path d="M96.5959 180.738C96.9579 180.196 113.841 169.227 113.841 169.227L131.494 182.546" stroke="#000035" stroke-miterlimit="10"/>
<path d="M75.6919 163.001L95.4419 218.501" stroke="white" stroke-miterlimit="10"/>
<path d="M149.192 163.001L129.442 218.501" stroke="white" stroke-miterlimit="10"/>
<g opacity="0.28">
<path d="M73.718 46.7087C77.6 52.2197 82.909 56.6087 88.876 59.5787C94.845 62.5507 101.477 64.1997 108.134 64.2087C114.774 64.2867 121.504 62.7817 127.223 59.3637C130.076 57.6647 132.639 55.4587 134.731 52.8607C136.849 50.2827 138.46 47.2747 139.404 44.0417C138.679 47.3367 137.14 50.4398 135.118 53.1628C133.066 55.8708 130.506 58.1937 127.626 60.0197C121.832 63.6707 114.911 65.2117 108.129 65.2087C101.321 65.1177 94.535 63.4377 88.527 60.2607C85.528 58.6687 82.715 56.7288 80.198 54.4608C77.703 52.1708 75.479 49.5817 73.718 46.7087Z" fill="white"/>
<path d="M83.783 42.7068C85.297 43.7958 86.885 44.7658 88.568 45.5308C90.233 46.3278 91.979 46.9438 93.766 47.3658C97.335 48.2278 101.059 48.3878 104.657 47.7358C108.259 47.1128 111.717 45.7128 114.801 43.7268C116.34 42.7288 117.781 41.5628 119.075 40.2548C120.372 38.9648 121.473 37.4138 121.888 35.5818C121.7 37.4628 120.644 39.1568 119.436 40.5858C118.182 41.9958 116.766 43.2538 115.234 44.3618C112.158 46.5628 108.568 48.0518 104.831 48.7198C101.089 49.3738 97.199 49.1738 93.57 48.1058C89.934 47.0748 86.545 45.2188 83.783 42.7068Z" fill="white"/>
<path d="M148.343 56.0078C147.7 58.7208 147.077 61.4288 146.71 64.1628C146.355 66.8948 146.2 69.6498 146.485 72.3668C146.747 75.0778 147.477 77.7428 148.644 80.2088C149.821 82.6678 151.515 84.9038 153.699 86.6408C152.483 85.9508 151.4 85.0298 150.424 84.0098C149.471 82.9668 148.651 81.7998 147.96 80.5608C146.579 78.0758 145.785 75.2878 145.49 72.4648C145.22 69.6398 145.41 66.7918 145.954 64.0368C146.487 61.2798 147.307 58.5968 148.343 56.0078Z" fill="white"/>
<path d="M68.672 55.1748C69.433 56.3218 70.033 57.5738 70.549 58.8608C71.036 60.1598 71.399 61.5068 71.647 62.8788C72.142 65.6248 72.077 68.4758 71.495 71.2188C70.892 73.9568 69.772 76.5798 68.186 78.8758C67.393 80.0228 66.504 81.0988 65.525 82.0798C64.522 83.0378 63.459 83.9298 62.291 84.6588C63.322 83.7498 64.303 82.7978 65.166 81.7458C66.052 80.7178 66.849 79.6178 67.54 78.4588C68.922 76.1438 69.962 73.6298 70.519 71.0068C71.098 68.3878 71.19 65.6688 70.89 62.9898C70.577 60.3098 69.814 57.6738 68.672 55.1748Z" fill="white"/>
</g>
<path d="M112.339 86.8728C112.747 89.6758 113.256 92.4328 113.949 95.1258C114.123 95.7858 114.335 96.3868 114.67 96.8268C115.006 97.2698 115.539 97.6278 116.129 98.0348C117.379 98.8668 118.424 100.138 119.034 101.546C119.632 102.967 119.837 104.579 119.541 106.101C119.237 107.611 118.529 109.037 117.458 110.125C116.398 111.235 115.013 111.943 113.601 112.31C112.178 112.658 110.718 112.71 109.316 112.497C112.112 112.293 114.924 111.375 116.588 109.342C118.247 107.332 118.718 104.466 117.657 102.136C117.159 100.952 116.364 99.9488 115.293 99.1768C114.753 98.7548 114.099 98.3018 113.606 97.5908C113.115 96.8758 112.939 96.0858 112.812 95.3768C112.316 92.5608 112.126 89.7018 112.339 86.8728Z" fill="#000035"/>
<path d="M91.6971 92.8059C93.2581 92.0659 94.9351 91.5849 96.6441 91.2869C98.3541 90.9819 100.104 90.8939 101.843 90.9789L101.244 92.2089C100.067 90.9069 98.5151 89.9139 96.8281 89.2309C95.1311 88.5569 93.3001 88.1669 91.3611 88.1819C93.1951 87.5119 95.2881 87.5489 97.2141 88.0819C98.1821 88.3489 99.1191 88.7499 99.9941 89.2679C100.855 89.8049 101.684 90.4339 102.356 91.2279L103.497 92.5749L101.757 92.4579C100.1 92.3469 98.4371 92.3449 96.7631 92.4039C95.0901 92.4709 93.4141 92.6319 91.6971 92.8059Z" fill="#000035"/>
</g>
</svg>
