<svg width="214" height="165" viewBox="0 0 214 165" fill="none" xmlns="http://www.w3.org/2000/svg">
<path d="M97.484 24.5824C96.7205 24.1415 96.0281 24.1001 95.528 24.393L0.84082 79.4558C1.34093 79.1658 2.03343 79.2043 2.79692 79.6452L93.0807 132.273L187.291 76.4344L97.484 24.5824Z" fill="#D4D7D8"/>
<path d="M173.521 56.5751L173.501 73.0137L88.7773 122.267L88.7981 105.826L173.521 56.5751Z" fill="#2E2E2C"/>
<path d="M88.7996 105.826L88.7789 122.268L14.6201 79.4502L14.6408 63.0116L88.7996 105.826Z" fill="#1E1E1C"/>
<path d="M185.416 49.2242L185.392 53.9709L87.9854 110.596L88.009 105.847L185.416 49.2242Z" fill="#C0C6C7"/>
<path d="M2.75222 56.6224L2.72852 61.3691L87.9875 110.596L88.0111 105.847L2.75222 56.6224Z" fill="#A1AAAD"/>
<path d="M185.417 49.2241L88.0099 105.846L2.75098 56.6223L100.158 0L185.417 49.2241Z" fill="#E9ECED"/>
<path d="M212.577 103.334C212.559 103.293 212.541 103.251 212.521 103.213L194.813 64.4259C194.422 63.5707 193.907 62.7776 193.318 62.1088C192.78 61.4962 192.179 60.9843 191.557 60.6262L190.522 60.0284C189.661 59.5313 188.879 59.4839 188.314 59.8124L93.627 114.875C94.1922 114.547 94.9705 114.594 95.8346 115.091L96.8703 115.689C97.4917 116.047 98.0924 116.556 98.631 117.172C99.2199 117.84 99.7348 118.633 100.125 119.489L117.834 158.276C117.851 158.317 117.872 158.358 117.89 158.4C119.079 161.093 118.698 163.354 117.39 164.114L212.077 109.054C213.385 108.291 213.77 106.03 212.577 103.334Z" fill="url(#paint0_linear_242_2182)"/>
<path d="M92.7607 131.494L2.79947 79.6454C1.28137 78.7695 0.0444114 79.4767 0.0384929 81.2197L2.12516e-05 94.5452C-0.00589725 96.2882 1.22516 98.4189 2.74325 99.2948L94.8558 152.475L92.7607 131.494Z" fill="#A1AAAD"/>
<path d="M117.838 158.273L100.13 119.486C99.3779 117.849 98.1765 116.438 96.8744 115.689L95.8387 115.091C94.1341 114.106 92.7433 114.887 92.7285 116.843L92.7463 151.262L114.488 163.815C117.826 165.739 119.779 162.516 117.838 158.273Z" fill="#005A8A"/>
<path d="M163.715 85.8331L134.3 102.929C132.741 103.834 132.125 105.775 132.874 107.415L140.024 123.075C140.885 124.96 143.181 125.691 144.974 124.65L174.389 107.554C175.949 106.648 176.564 104.707 175.816 103.068L168.666 87.4074C167.805 85.5223 165.506 84.7914 163.715 85.8331Z" fill="#3E3E3C"/>
<path d="M164.633 86.8985L134.883 104.181C134.01 104.687 133.664 105.773 134.084 106.693L141.37 122.649C141.852 123.703 143.137 124.114 144.14 123.531L173.889 106.249C174.762 105.743 175.108 104.657 174.688 103.74L167.403 87.7834C166.92 86.7269 165.636 86.3185 164.633 86.8985Z" fill="url(#paint1_linear_242_2182)"/>
<path d="M144.425 135.85C143.789 135.468 143.271 134.941 142.892 134.341C142.123 133.107 141.942 131.553 142.549 130.26C142.848 129.618 143.3 129.121 143.839 128.783L142.534 129.597C141.992 129.934 141.543 130.435 141.244 131.074C140.637 132.367 140.815 133.921 141.587 135.155C141.963 135.758 142.481 136.282 143.117 136.664C144.425 137.439 145.896 137.41 146.993 136.723L148.299 135.909C147.204 136.599 145.733 136.625 144.425 135.85Z" fill="#A1AAAD"/>
<path d="M149.249 130.349C148.873 129.745 148.355 129.221 147.722 128.845C145.769 127.691 143.461 128.319 142.552 130.263C141.946 131.553 142.123 133.11 142.896 134.344C143.271 134.947 143.789 135.474 144.428 135.853C146.382 137.007 148.69 136.38 149.598 134.436C150.202 133.142 150.018 131.58 149.249 130.349Z" fill="#E9ECED"/>
<path d="M156.308 128.991C155.671 128.609 155.154 128.082 154.775 127.481C154.005 126.247 153.825 124.694 154.431 123.401C154.73 122.758 155.18 122.261 155.722 121.924L154.417 122.738C153.875 123.075 153.425 123.575 153.126 124.214C152.52 125.507 152.697 127.061 153.47 128.295C153.846 128.899 154.363 129.423 155.003 129.804C156.311 130.58 157.781 130.553 158.879 129.863L160.184 129.05C159.083 129.736 157.616 129.763 156.308 128.991Z" fill="#A1AAAD"/>
<path d="M161.13 123.486C160.754 122.883 160.236 122.359 159.603 121.983C157.65 120.829 155.339 121.456 154.433 123.401C153.826 124.694 154.004 126.247 154.776 127.481C155.152 128.085 155.67 128.609 156.309 128.991C158.262 130.145 160.571 129.517 161.479 127.573C162.083 126.28 161.902 124.72 161.13 123.486Z" fill="#E9ECED"/>
<path d="M168.191 122.128C167.555 121.746 167.037 121.22 166.659 120.619C165.889 119.385 165.709 117.831 166.315 116.538C166.614 115.896 167.064 115.399 167.606 115.061L166.3 115.875C165.759 116.213 165.309 116.713 165.01 117.352C164.404 118.645 164.581 120.199 165.354 121.433C165.729 122.036 166.247 122.56 166.886 122.942C168.194 123.717 169.665 123.688 170.763 123.001L172.068 122.187C170.97 122.877 169.499 122.903 168.191 122.128Z" fill="#A1AAAD"/>
<path d="M173.016 116.627C172.64 116.023 172.122 115.499 171.489 115.124C169.536 113.969 167.227 114.597 166.319 116.541C165.712 117.834 165.89 119.388 166.662 120.622C167.038 121.226 167.556 121.749 168.195 122.131C170.148 123.285 172.456 122.658 173.365 120.714C173.969 119.42 173.785 117.861 173.016 116.627Z" fill="#E9ECED"/>
<path d="M180.074 115.269C179.438 114.887 178.92 114.36 178.544 113.759C177.775 112.525 177.594 110.972 178.201 109.679C178.5 109.036 178.953 108.539 179.491 108.202L178.186 109.016C177.645 109.353 177.195 109.853 176.896 110.492C176.289 111.786 176.467 113.339 177.239 114.573C177.615 115.177 178.133 115.701 178.772 116.082C180.08 116.855 181.551 116.828 182.649 116.142L183.954 115.328C182.85 116.017 181.382 116.044 180.074 115.269Z" fill="#A1AAAD"/>
<path d="M184.897 109.767C184.521 109.164 184.003 108.64 183.37 108.264C181.416 107.11 179.108 107.737 178.2 109.682C177.593 110.975 177.771 112.528 178.543 113.762C178.919 114.366 179.437 114.89 180.073 115.272C182.026 116.426 184.337 115.798 185.243 113.854C185.849 112.561 185.669 110.998 184.897 109.767Z" fill="#E9ECED"/>
<path d="M147.258 109.412C147.145 109.235 146.994 109.081 146.808 108.968C146.234 108.628 145.55 108.814 145.284 109.386C145.106 109.767 145.156 110.226 145.384 110.587C145.494 110.765 145.648 110.918 145.834 111.031C146.408 111.371 147.092 111.185 147.358 110.614C147.539 110.238 147.485 109.776 147.258 109.412Z" fill="#35D3ED"/>
<path d="M154.081 105.614C153.968 105.436 153.817 105.282 153.631 105.17C153.057 104.83 152.373 105.016 152.107 105.587C151.929 105.969 151.98 106.428 152.208 106.789C152.317 106.966 152.471 107.12 152.657 107.233C153.231 107.573 153.915 107.387 154.181 106.815C154.362 106.44 154.309 105.978 154.081 105.614Z" fill="#35D3ED"/>
<path d="M160.081 101.614C159.968 101.436 159.817 101.282 159.631 101.17C159.057 100.83 158.373 101.016 158.107 101.587C157.929 101.969 157.98 102.428 158.208 102.789C158.317 102.966 158.471 103.12 158.657 103.233C159.231 103.573 159.915 103.387 160.181 102.815C160.362 102.44 160.309 101.978 160.081 101.614Z" fill="#35D3ED"/>
<path d="M165.081 98.6139C164.968 98.4364 164.817 98.2825 164.631 98.17C164.057 97.8297 163.373 98.0161 163.107 98.5873C162.929 98.969 162.98 99.4277 163.208 99.7887C163.317 99.9663 163.471 100.12 163.657 100.233C164.231 100.573 164.915 100.387 165.181 99.8154C165.362 99.4396 165.309 98.9779 165.081 98.6139Z" fill="#35D3ED"/>
<defs>
<linearGradient id="paint0_linear_242_2182" x1="140.596" y1="87.3657" x2="168.026" y2="134.876" gradientUnits="userSpaceOnUse">
<stop offset="0.0321" stop-color="#2890C9"/>
<stop offset="0.1124" stop-color="#4DAFE3"/>
<stop offset="0.1245" stop-color="#1881B9"/>
<stop offset="0.8996" stop-color="#1881B9"/>
<stop offset="0.9093" stop-color="#0F78B0"/>
<stop offset="0.927" stop-color="#066FA7"/>
<stop offset="0.9518" stop-color="#036CA4"/>
</linearGradient>
<linearGradient id="paint1_linear_242_2182" x1="133.907" y1="105.216" x2="174.865" y2="105.216" gradientUnits="userSpaceOnUse">
<stop stop-color="#221E1E"/>
<stop offset="0.5217" stop-color="#332D2D"/>
<stop offset="0.5296" stop-color="#221E1E"/>
</linearGradient>
</defs>
</svg>
