<svg width="134" height="226" viewBox="0 0 134 226" fill="none" xmlns="http://www.w3.org/2000/svg">
<path d="M120.389 193.695C108.551 188.595 89.035 185.216 66.933 185.117C44.83 185.019 25.286 188.23 13.401 193.224L1.54104 193.167L1.49404 203.323C1.41304 203.722 1.35504 204.122 1.35504 204.526C1.30804 215.399 30.588 224.354 66.752 224.512C102.927 224.676 132.286 215.984 132.331 205.111L132.387 193.752L120.389 193.695Z" fill="#006AB5"/>
<path d="M67.7491 225.869H66.7481C33.8941 225.721 -0.0569283 217.701 7.16729e-05 204.515C7.16729e-05 204.07 0.0570718 203.587 0.169072 203.048L0.188071 193.155C0.188071 192.801 0.331072 192.454 0.586072 192.204C0.842072 191.956 1.18307 191.811 1.54007 191.811C1.54007 191.811 1.54007 191.811 1.54607 191.811L13.1331 191.868C25.3851 186.792 45.0771 183.759 65.9071 183.759L66.9391 183.763C88.1881 183.861 108.24 187.066 120.67 192.345L132.391 192.402C132.749 192.402 133.094 192.545 133.344 192.801C133.596 193.055 133.74 193.394 133.739 193.756L133.685 205.115C133.629 218.109 100.12 225.869 67.7491 225.869ZM2.88607 194.525L2.84607 203.328C2.74407 203.953 2.70807 204.26 2.70807 204.527C2.66807 213.393 28.3971 222.998 66.7601 223.16L67.7491 223.168C105.523 223.168 130.944 213.831 130.982 205.102L131.028 195.092L120.386 195.051C120.201 195.051 120.022 195.017 119.855 194.942C107.766 189.731 87.9761 186.561 66.9261 186.469H65.9061C45.2711 186.469 25.8391 189.456 13.9241 194.473C13.7561 194.537 13.5811 194.575 13.4001 194.575H13.3921L2.88607 194.525Z" fill="#5E2C00"/>
<path d="M132.387 193.753C132.339 204.637 102.978 213.318 66.8063 213.154C30.6333 213.002 1.35534 204.048 1.40534 193.168C1.45834 182.287 30.8113 173.592 66.9803 173.762C103.153 173.917 132.434 182.873 132.387 193.753Z" fill="#0083C7"/>
<path d="M67.8003 214.513L66.8023 214.509C49.1793 214.433 32.6043 212.29 20.1283 208.476C7.15229 204.511 0.0242935 199.068 0.0542935 193.156C0.111294 180.171 33.6143 172.403 65.9643 172.403L66.9873 172.407C99.8413 172.551 133.796 180.578 133.739 193.757C133.683 206.75 100.168 214.513 67.8003 214.513ZM65.9643 175.105C28.2023 175.105 2.79729 184.457 2.75729 193.171C2.73629 197.721 9.35629 202.357 20.9163 205.892C33.1473 209.626 49.4493 211.73 66.8123 211.804H67.7993C105.578 211.804 130.993 202.467 131.031 193.744C131.069 184.878 105.343 175.28 66.9753 175.112L65.9643 175.105Z" fill="#5E2C00"/>
<path d="M121.961 187.931C121.917 197.079 97.2453 204.378 66.8473 204.247C36.4483 204.111 11.8413 196.584 11.8853 187.442C11.9213 178.301 36.5973 170.995 66.9953 171.128C97.3973 171.272 122.001 178.79 121.961 187.931Z" fill="#0083C7"/>
<path d="M67.6693 205.599H66.8413C52.0133 205.531 38.0623 203.731 27.5573 200.512C16.3923 197.105 10.5083 192.583 10.5313 187.436C10.5803 175.964 39.2373 169.773 66.1743 169.773L67.0033 169.781C94.7213 169.902 123.363 176.73 123.311 187.934C123.261 199.412 94.6073 205.599 67.6693 205.599ZM66.1733 172.475C34.5413 172.475 13.2643 180.224 13.2353 187.447C13.2203 191.111 18.8683 195.035 28.3463 197.927C38.6053 201.068 52.2783 202.829 66.8503 202.894L67.6683 202.898C99.2963 202.898 120.573 195.156 120.606 187.927C120.64 180.589 99.1053 172.63 66.9853 172.482L66.1733 172.475Z" fill="#5E2C00"/>
<path d="M39.952 161.215L39.849 182.529C39.831 182.644 39.792 182.755 39.792 182.861C39.775 186.785 51.911 190.018 66.91 190.085C81.907 190.146 94.076 187.029 94.093 183.109L94.188 161.455L39.952 161.215Z" fill="#0083C7"/>
<path d="M67.338 191.439H67.336H66.905C52.742 191.371 38.418 188.402 38.438 182.857C38.438 182.755 38.485 182.439 38.512 182.336L38.597 161.207C38.603 160.464 39.209 159.863 39.951 159.863H39.955L94.191 160.103C94.941 160.107 95.544 160.715 95.542 161.466L95.444 183.116C95.418 188.836 80.858 191.439 67.338 191.439ZM41.295 162.572L41.204 182.533C41.204 182.639 41.165 182.873 41.14 182.974C41.135 184.87 49.98 188.652 66.921 188.734H67.336C84.002 188.734 92.733 185.072 92.743 183.101L92.832 162.798L41.295 162.572Z" fill="#5E2C00"/>
<path d="M94.1892 161.455C94.1722 165.379 82.0052 168.502 67.0062 168.431C52.0092 168.363 39.8732 165.131 39.8882 161.215C39.9072 157.291 52.0742 154.174 67.0712 154.242C82.0692 154.306 94.2082 157.531 94.1892 161.455Z" fill="#0083C7"/>
<path d="M67.4812 169.785H67.0022C59.6392 169.755 52.7002 168.971 47.4722 167.57C41.5292 165.99 38.5222 163.851 38.5342 161.207C38.5602 155.487 53.1012 152.885 66.5992 152.885H67.0762C74.4462 152.918 81.3822 153.706 86.6082 155.092C92.5472 156.672 95.5522 158.819 95.5432 161.467C95.5172 167.181 80.9802 169.785 67.4812 169.785ZM66.5992 155.59C49.9652 155.59 41.2462 159.26 41.2392 161.222C41.2372 161.873 42.6812 163.501 48.1662 164.96C53.1852 166.291 59.8762 167.046 67.0132 167.08H67.4832C84.1132 167.08 92.8322 163.418 92.8412 161.451C92.8412 160.792 91.3982 159.162 85.9122 157.709C80.9052 156.377 74.2082 155.623 67.0652 155.59H66.5992Z" fill="#5E2C00"/>
<path d="M46.9598 72.9889L46.5728 159.984C46.5558 162.941 55.7108 165.379 67.0168 165.427C78.3258 165.48 87.5038 163.121 87.5198 160.163L87.9058 72.9349L46.9598 72.9889Z" fill="#D8D9DA"/>
<path d="M67.3678 166.782H67.0108C61.4318 166.756 56.1698 166.159 52.1978 165.103C47.5558 163.867 45.2078 162.146 45.2188 159.98L45.6078 72.9809C45.6118 72.2379 46.2178 71.6339 46.9608 71.6339L87.9028 71.5809H87.9068C88.2648 71.5809 88.6098 71.7239 88.8638 71.9729C89.1198 72.2299 89.2628 72.5729 89.2598 72.9389L88.8678 160.171C88.8478 164.715 77.7078 166.782 67.3678 166.782ZM48.3088 74.3359L47.9248 159.992C47.9208 160.225 48.8058 161.402 52.8978 162.493C56.6508 163.49 61.6658 164.051 67.0218 164.08H67.3688C79.7548 164.08 86.1588 161.332 86.1678 160.161L86.5508 74.2909L48.3088 74.3359Z" fill="#5E2C00"/>
<path d="M87.8609 83.4879L87.9059 72.9359L46.9599 72.9889L46.9219 81.7909C58.6039 88.2299 75.1659 88.7659 87.8609 83.4879Z" fill="#D8D9DA"/>
<path d="M50.6198 72.9819L46.9598 72.9889L46.5728 159.984C46.5658 161.119 47.9208 162.173 50.2188 163.048L50.6198 72.9819Z" fill="#D8D9DA"/>
<path d="M72.0829 72.9509L71.6719 165.306C80.7349 164.79 87.5049 162.706 87.5209 160.163L87.9069 72.9349L72.0829 72.9509Z" fill="#D8D9DA"/>
<path d="M44.511 47.991L44.397 74.162C44.386 77.489 54.677 80.236 67.399 80.292C80.121 80.345 90.444 77.696 90.462 74.372L90.574 48.194L44.511 47.991Z" fill="#D8D9DA"/>
<path d="M67.798 81.643H67.395C55.651 81.586 43.024 79.232 43.044 74.158L43.161 47.984C43.163 47.237 43.768 46.637 44.511 46.637H44.516L90.581 46.841C91.329 46.849 91.93 47.456 91.928 48.199L91.813 74.381C91.79 79.368 79.347 81.643 67.798 81.643ZM45.859 49.346L45.751 74.169C45.744 75.569 53.104 78.874 67.406 78.938H67.798C81.571 78.938 89.1 75.92 89.108 74.362L89.218 49.538L45.859 49.346Z" fill="#5E2C00"/>
<path d="M48.345 48.01L44.511 47.991L44.397 74.162C44.389 75.388 45.803 76.539 48.218 77.504L48.345 48.01Z" fill="#D8D9DA"/>
<path d="M72.909 48.116L72.771 80.145C82.895 79.556 90.443 77.206 90.461 74.373L90.573 48.195L72.909 48.116Z" fill="#D8D9DA"/>
<path d="M90.5743 48.195C90.5643 51.522 80.2353 54.178 67.5153 54.118C54.7953 54.061 44.4983 51.315 44.5103 47.991C44.5273 44.664 54.8463 42.023 67.5703 42.072C80.2893 42.133 90.5913 44.868 90.5743 48.195Z" fill="#76787A"/>
<path d="M67.9392 55.469H67.5122C55.7722 55.42 43.1412 53.054 43.1612 47.984C43.1822 42.993 55.6202 40.726 67.1712 40.726H67.5762C79.3162 40.771 91.9472 43.141 91.9272 48.199C91.9042 53.194 79.4802 55.469 67.9392 55.469ZM67.1712 43.427C53.3982 43.427 45.8712 46.448 45.8652 47.999C45.8592 49.395 53.2192 52.704 67.5252 52.764H67.9382C81.7002 52.764 89.2172 49.746 89.2192 48.196C89.2282 46.792 81.8672 43.491 67.5642 43.427H67.1712Z" fill="#5E2C00"/>
<path d="M90.3242 167.437V167.487C89.1342 167.715 88.1782 170.113 88.1642 173.092C88.1512 176.224 89.1822 178.763 90.4622 178.775L112.323 178.865L112.611 167.54L90.3242 167.437Z" fill="#D8D9DA"/>
<path d="M112.323 180.216H112.319L90.4571 180.128C87.9351 180.106 86.8001 176.466 86.8101 173.092C86.8261 170.124 87.7271 166.971 89.7001 166.261C89.8901 166.155 90.1071 166.092 90.3251 166.092H90.3321L112.618 166.193C112.979 166.193 113.328 166.334 113.586 166.6C113.834 166.865 113.973 167.208 113.965 167.577L113.679 178.902C113.657 179.634 113.059 180.216 112.323 180.216ZM90.6531 168.793C90.6311 168.804 90.6021 168.808 90.5821 168.814C90.3141 168.978 89.5281 170.482 89.5151 173.096C89.5061 175.73 90.2861 177.262 90.6111 177.45L111.007 177.512L111.223 168.883L90.6531 168.793Z" fill="#5E2C00"/>
<path d="M114.676 173.215C114.659 176.342 113.61 178.873 112.323 178.865C111.043 178.865 110.015 176.327 110.031 173.195C110.046 170.067 111.095 167.533 112.374 167.533C113.661 167.54 114.688 170.082 114.676 173.215Z" fill="#D8D9DA"/>
<path d="M112.329 180.216C112.329 180.216 112.329 180.216 112.325 180.216C111.863 180.216 111.162 180.071 110.487 179.394C109.354 178.259 108.663 175.881 108.677 173.187C108.691 169.819 109.858 166.181 112.373 166.181C114.906 166.197 116.041 169.837 116.03 173.221C116.01 176.59 114.845 180.216 112.329 180.216ZM112.234 168.857C112.186 169.046 111.394 170.573 111.383 173.203C111.371 175.508 111.964 176.965 112.33 177.418C112.701 176.965 113.309 175.52 113.32 173.211C113.339 170.573 112.557 169.047 112.234 168.857Z" fill="#5E2C00"/>
<path d="M61.298 51.21C61.298 51.21 46.073 50.448 46.373 36.923C46.668 23.402 67.542 0 67.542 0C67.542 0 98.923 33.637 87.906 43.536C76.892 53.424 61.298 51.21 61.298 51.21Z" fill="url(#paint0_linear_242_152)"/>
<path d="M64.2849 51.3C64.2849 51.3 55.5439 50.859 55.7149 43.098C55.8829 35.33 67.8699 21.9 67.8699 21.9C67.8699 21.9 85.8849 41.212 79.5609 46.894C73.2369 52.575 64.2849 51.3 64.2849 51.3Z" fill="url(#paint1_linear_242_152)"/>
<defs>
<linearGradient id="paint0_linear_242_152" x1="68.3098" y1="57.3589" x2="68.3098" y2="-2.2097" gradientUnits="userSpaceOnUse">
<stop offset="0.0307" stop-color="#FBB100"/>
<stop offset="1" stop-color="#FA6E3D"/>
</linearGradient>
<linearGradient id="paint1_linear_242_152" x1="68.3096" y1="22.8015" x2="68.3096" y2="53.4709" gradientUnits="userSpaceOnUse">
<stop offset="0.0262" stop-color="#99FFFF"/>
<stop offset="1" stop-color="#FA6E3D"/>
</linearGradient>
</defs>
</svg>
