<svg width="156" height="139" viewBox="0 0 156 139" fill="none" xmlns="http://www.w3.org/2000/svg">
<path d="M51.5354 129.721C49.9299 130.654 47.3152 130.659 45.6901 129.721C44.8715 129.247 44.4634 128.626 44.4658 128.008L44.5074 136.585C44.5049 137.203 44.913 137.824 45.7341 138.298C47.3592 139.237 49.9739 139.232 51.5794 138.298C52.3834 137.831 52.7866 137.221 52.789 136.61L52.7475 128.032C52.7426 128.643 52.3394 129.254 51.5354 129.721Z" fill="url(#paint0_linear_242_2829)"/>
<path d="M51.5256 126.331C49.9005 125.393 47.276 125.393 45.6607 126.331C44.0552 127.265 44.065 128.785 45.69 129.723C47.3151 130.662 49.9323 130.657 51.5353 129.723C53.1482 128.782 53.1506 127.267 51.5256 126.331Z" fill="#3E3E3C"/>
<path d="M96.6721 103.661C95.0666 104.595 92.4519 104.6 90.8268 103.661C90.0082 103.19 89.6001 102.569 89.6025 101.948L89.6441 110.526C89.6416 111.144 90.0497 111.765 90.8684 112.239C92.4934 113.177 95.1082 113.172 96.7137 112.239C97.5176 111.772 97.9209 111.161 97.9233 110.55L97.8817 101.973C97.8793 102.584 97.4761 103.195 96.6721 103.661Z" fill="url(#paint1_linear_242_2829)"/>
<path d="M96.6623 100.269C95.0372 99.3311 92.4127 99.3311 90.7974 100.269C89.1919 101.203 89.2017 102.723 90.8268 103.661C92.4518 104.6 95.069 104.595 96.672 103.661C98.2849 102.723 98.2873 101.208 96.6623 100.269Z" fill="#3E3E3C"/>
<path d="M9.19363 105.277C7.58812 106.21 4.97337 106.215 3.34832 105.277C2.52969 104.802 2.12159 104.182 2.12403 103.563L2.16558 112.141C2.16314 112.759 2.57123 113.38 3.39231 113.854C5.01736 114.792 7.6321 114.787 9.23761 113.854C10.0416 113.387 10.4448 112.776 10.4472 112.165L10.4057 103.588C10.4008 104.199 9.9976 104.807 9.19363 105.277Z" fill="url(#paint2_linear_242_2829)"/>
<path d="M9.18376 101.885C7.55871 100.946 4.93419 100.946 3.31891 101.885C1.71341 102.818 1.72318 104.338 3.34823 105.277C4.97328 106.215 7.59048 106.21 9.19354 105.277C10.8064 104.338 10.8088 102.823 9.18376 101.885Z" fill="#3E3E3C"/>
<path d="M54.3308 79.2145C52.7253 80.148 50.1106 80.1529 48.4855 79.2145C47.6669 78.7429 47.2588 78.1197 47.2588 77.5015L47.3003 86.0788C47.2979 86.6971 47.706 87.3178 48.5246 87.7918C50.1497 88.7302 52.7669 88.7253 54.3699 87.7918C55.1739 87.3251 55.5771 86.7142 55.5795 86.1032L55.5404 77.5259C55.538 78.1368 55.1348 78.7477 54.3308 79.2145Z" fill="url(#paint3_linear_242_2829)"/>
<path d="M54.3205 75.8227C52.6954 74.8843 50.0709 74.8843 48.4556 75.8227C46.8501 76.7562 46.8599 78.2761 48.485 79.2145C50.11 80.1529 52.7248 80.148 54.3303 79.2145C55.9431 78.2761 55.9455 76.7611 54.3205 75.8227Z" fill="#3E3E3C"/>
<path d="M100.165 99.0941H100.089C99.1287 99.0941 98.3516 98.3146 98.3516 97.3566V91.6897C98.3516 90.7294 99.1287 89.9523 100.089 89.9523H100.165C101.125 89.9523 101.902 90.7318 101.902 91.6897V97.3566C101.902 98.317 101.125 99.0941 100.165 99.0941Z" fill="#343432"/>
<path d="M100.165 69.0145H100.089C99.1287 69.0145 98.3516 68.2374 98.3516 67.2771V61.6101C98.3516 60.6498 99.1287 59.8727 100.089 59.8727H100.165C101.125 59.8727 101.902 60.6522 101.902 61.6101V67.2771C101.902 68.2374 101.125 69.0145 100.165 69.0145Z" fill="#343432"/>
<path d="M48.1846 78.5108L99.3578 48.7711L99.4214 106.669L48.2481 136.409L48.1846 78.5108Z" fill="#C0C6C7"/>
<path d="M151.804 78.8771L100.631 49.1375L100.638 107.036L151.814 136.775L151.804 78.8771Z" fill="#A1AAAD"/>
<path opacity="0.5" d="M150.897 79.3976L101.537 50.7136L101.547 106.513L150.907 135.197L150.897 79.3976ZM102.453 105.992L102.444 52.2898L149.991 79.9206L150 133.623L102.453 105.992Z" fill="#A1AAAD"/>
<path d="M155.5 76.7435L104.327 47.0038L100.631 49.1375L151.804 78.8772L155.5 76.7435Z" fill="#E9ECED"/>
<path d="M151.805 78.8773L151.814 136.776L155.51 134.642L155.5 76.7438L151.805 78.8773Z" fill="#C0C6C7"/>
<path d="M74.3928 70.6225C85.4651 64.2298 94.4677 69.3591 94.5043 82.0834C94.541 94.7905 85.5971 110.284 74.5247 116.676C63.4524 123.069 54.4499 117.94 54.4132 105.23C54.3765 92.5082 63.3204 77.0152 74.3928 70.6225Z" fill="url(#paint4_linear_242_2829)"/>
<mask id="mask0_242_2829" style="mask-type:luminance" maskUnits="userSpaceOnUse" x="54" y="67" width="41" height="53">
<path d="M74.3928 70.6225C85.4651 64.2298 94.4677 69.3591 94.5043 82.0834C94.541 94.7905 85.5971 110.284 74.5247 116.676C63.4524 123.069 54.4499 117.94 54.4132 105.23C54.3765 92.5082 63.3204 77.0152 74.3928 70.6225Z" fill="white"/>
</mask>
<g mask="url(#mask0_242_2829)">
<path opacity="0.4" d="M60.1422 64.0198L19.2373 87.6356L51.8117 106.603L92.719 82.9877L60.1422 64.0198Z" fill="#87C9C1"/>
<path opacity="0.8" d="M92.7188 82.9875L51.8115 106.603L51.814 107.735L92.7213 84.1165L92.7188 82.9875Z" fill="#87C9C1"/>
</g>
<path d="M55.9678 62.0527L107.141 32.313L107.082 53.231L55.9092 82.9706L55.9678 62.0527Z" fill="#056EA6"/>
<path d="M51.1733 0L0 29.7397L55.9678 62.0526L107.141 32.3129L51.1733 0Z" fill="#E9ECED"/>
<path d="M55.9678 62.0526L0 29.7397L0.00244235 108.556L48.2482 136.409L48.1846 78.5109L55.9091 82.9706L55.9678 62.0526Z" fill="#A1AAAD"/>
<path opacity="0.5" d="M125.875 70.1239C122.642 68.2569 119.588 67.3723 116.88 67.3723C110.311 67.3723 105.791 72.5749 105.764 81.5848C105.727 94.292 114.671 109.785 125.743 116.178C128.976 118.045 132.033 118.929 134.741 118.929C141.31 118.929 145.828 113.732 145.855 104.734C145.892 92.0096 136.948 76.5166 125.875 70.1239ZM134.741 118.023C132.131 118.023 129.177 117.114 126.195 115.393C115.392 109.157 106.634 93.9914 106.668 81.5897C106.692 73.3813 110.602 68.2838 116.875 68.2838C119.485 68.2838 122.44 69.1929 125.418 70.9132C136.222 77.1495 144.98 92.3224 144.946 104.734C144.924 112.928 141.014 118.023 134.741 118.023Z" fill="#A1AAAD"/>
<path d="M50.8556 111.564L50.2178 111.193L50.2324 103.793L50.8727 104.165L50.8556 111.564Z" fill="#1E1E1C"/>
<path d="M50.8717 104.165L50.2314 103.793L52.4772 102.496L53.1174 102.867L50.8717 104.165Z" fill="#3E3E3C"/>
<path d="M53.1173 102.867L53.1027 110.266L50.8545 111.564L50.8716 104.165L53.1173 102.867Z" fill="#2E2E2C"/>
<path opacity="0.4" d="M41.8053 76.16L6.05176 55.5157V53.9884L41.8053 74.6302V76.16ZM41.8053 77.9927L6.05176 57.3509V58.8782L41.8053 79.5225V77.9927ZM41.8053 81.3553L6.05176 60.7134V62.2407L41.8053 82.8826V81.3553ZM41.8053 84.7153L6.05176 64.0735V65.6008L41.8053 86.2426V84.7153ZM41.8053 101.828L6.05176 81.1842V79.6569L41.8053 100.299V101.828ZM41.8053 103.664L6.05176 83.0219V84.5492L41.8053 105.191V103.664ZM41.8053 107.024L6.05176 86.3819V87.9092L41.8053 108.551V107.024ZM41.8053 110.386L6.05176 89.7444V91.2717L41.8053 111.914V110.386Z" fill="#A1AAAD"/>
<path opacity="0.5" d="M62.8753 63.0396C62.8753 64.0024 62.0958 65.2316 61.133 65.7863C60.1702 66.341 59.3906 66.0111 59.3906 65.0507C59.3906 64.0879 60.1702 62.8587 61.133 62.304C62.0958 61.7493 62.8753 62.0767 62.8753 63.0396Z" fill="#1F5A75"/>
<path d="M62.3233 63.1935C62.3233 63.9438 61.7149 64.9017 60.9671 65.3342C60.2169 65.7667 59.6084 65.5102 59.6084 64.7599C59.6084 64.0097 60.2169 63.0518 60.9671 62.6193C61.7149 62.1867 62.3233 62.4433 62.3233 63.1935Z" fill="#C0C6C7"/>
<path opacity="0.5" d="M70.9564 58.3746C70.9564 59.3374 70.1768 60.5666 69.214 61.1213C68.2512 61.6761 67.4717 61.3462 67.4717 60.3858C67.4717 59.423 68.2512 58.1938 69.214 57.6391C70.1768 57.0819 70.9564 57.4118 70.9564 58.3746Z" fill="#1F5A75"/>
<path d="M70.4034 58.5288C70.4034 59.279 69.7949 60.2369 69.0447 60.6694C68.2945 61.102 67.6885 60.8454 67.6885 60.0952C67.6885 59.3449 68.297 58.387 69.0447 57.9545C69.7949 57.522 70.4034 57.7785 70.4034 58.5288Z" fill="#C0C6C7"/>
<path opacity="0.5" d="M79.0384 53.7074C79.0384 54.6702 78.2589 55.8994 77.2961 56.4541C76.3333 57.0088 75.5537 56.6789 75.5537 55.7185C75.5537 54.7557 76.3333 53.5265 77.2961 52.9718C78.2589 52.4171 79.0384 52.747 79.0384 53.7074Z" fill="#1F5A75"/>
<path d="M78.4859 53.8614C78.4859 54.6116 77.8775 55.5695 77.1297 56.002C76.3795 56.4346 75.7734 56.178 75.7734 55.4278C75.7734 54.6776 76.3819 53.7196 77.1297 53.2871C77.8775 52.857 78.4859 53.1136 78.4859 53.8614Z" fill="#C0C6C7"/>
<path opacity="0.5" d="M62.8753 68.6286C62.8753 69.5914 62.0958 70.8205 61.133 71.3753C60.1702 71.93 59.3906 71.6001 59.3906 70.6397C59.3906 69.6769 60.1702 68.4477 61.133 67.893C62.0958 67.3383 62.8753 67.6657 62.8753 68.6286Z" fill="#1F5A75"/>
<path d="M62.3233 68.7825C62.3233 69.5327 61.7149 70.4907 60.9671 70.9232C60.2169 71.3557 59.6084 71.0992 59.6084 70.3489C59.6084 69.5987 60.2169 68.6408 60.9671 68.2083C61.7149 67.7757 62.3233 68.0323 62.3233 68.7825Z" fill="#C0C6C7"/>
<path opacity="0.5" d="M70.9564 63.9634C70.9564 64.9262 70.1768 66.1554 69.214 66.7101C68.2512 67.2648 67.4717 66.9349 67.4717 65.9745C67.4717 65.0142 68.2512 63.7825 69.214 63.2278C70.1768 62.6707 70.9564 63.0006 70.9564 63.9634Z" fill="#1F5A75"/>
<path d="M70.4034 64.1174C70.4034 64.8676 69.7949 65.8255 69.0447 66.258C68.2945 66.6906 67.6885 66.434 67.6885 65.6838C67.6885 64.9336 68.297 63.9756 69.0447 63.5431C69.7949 63.1106 70.4034 63.3672 70.4034 64.1174Z" fill="#C0C6C7"/>
<path opacity="0.5" d="M79.0384 59.296C79.0384 60.2588 78.2589 61.488 77.2961 62.0427C76.3333 62.5974 75.5537 62.2675 75.5537 61.3071C75.5537 60.3468 76.3333 59.1152 77.2961 58.5604C78.2589 58.0057 79.0384 58.3356 79.0384 59.296Z" fill="#1F5A75"/>
<path d="M78.4859 59.4522C78.4859 60.2024 77.8775 61.1603 77.1297 61.5929C76.3795 62.0254 75.7734 61.7688 75.7734 61.0186C75.7734 60.2684 76.3819 59.3105 77.1297 58.8779C77.8775 58.4454 78.4859 58.702 78.4859 59.4522Z" fill="#C0C6C7"/>
<path d="M104.456 45.5088L81.8711 58.5483V50.3448L104.456 37.3053V45.5088Z" fill="url(#paint5_linear_242_2829)"/>
<path d="M94.4251 45.5309V46.633L95.5272 45.9976V46.8187L94.4251 47.4541V48.5562L93.604 49.0303V47.9282L92.502 48.5635V47.7424L93.604 47.1071V46.005L94.4251 45.5309ZM99.0339 45.8486V46.6697L96.0331 48.4022V47.8109L97.7925 44.8564C97.9978 44.5217 98.098 44.3164 98.098 44.0647V44.006C98.098 43.5906 97.8756 43.5124 97.5653 43.6932L97.5066 43.7275C97.1841 43.9132 96.9739 44.2357 96.9739 44.8149L96.0355 45.3574V45.2401C96.0355 44.2553 96.5169 43.4806 97.5359 42.8917C98.6503 42.249 99.0364 42.6938 99.0364 43.29V43.3951C99.0364 43.9352 98.8653 44.3017 98.5256 44.8736L97.36 46.8236L97.7754 46.5768L99.0339 45.8486ZM101.023 44.7758L101.082 44.7416C101.375 44.573 101.644 44.2406 101.644 43.8374V43.7739C101.644 43.4171 101.434 43.3633 101.092 43.5588L100.463 43.9205V43.0994L101.072 42.7475C101.412 42.552 101.612 42.2661 101.612 41.9142V41.8629C101.612 41.5575 101.39 41.4817 101.079 41.6601L101.021 41.6943C100.693 41.8849 100.488 42.2026 100.488 42.7817L99.5496 43.3242V43.207C99.5496 42.2221 100.031 41.4475 101.05 40.8586C102.164 40.2159 102.55 40.6606 102.55 41.2105V41.3229C102.55 41.8092 102.316 42.2612 102.018 42.6083C102.333 42.6083 102.58 42.7818 102.58 43.2852V43.3951C102.58 43.9743 102.147 44.9469 101.05 45.5798C100.024 46.1711 99.5202 45.9366 99.5202 44.9982V44.9224L100.459 44.3799C100.461 44.9249 100.708 44.9591 101.023 44.7758Z" fill="#ED3535"/>
<defs>
<linearGradient id="paint0_linear_242_2829" x1="44.4629" y1="133.505" x2="52.7844" y2="133.505" gradientUnits="userSpaceOnUse">
<stop stop-color="#1E1E1C"/>
<stop offset="1" stop-color="#2E2E2C"/>
</linearGradient>
<linearGradient id="paint1_linear_242_2829" x1="89.6004" y1="107.445" x2="97.9218" y2="107.445" gradientUnits="userSpaceOnUse">
<stop stop-color="#1E1E1C"/>
<stop offset="1" stop-color="#2E2E2C"/>
</linearGradient>
<linearGradient id="paint2_linear_242_2829" x1="2.12135" y1="109.059" x2="10.4428" y2="109.059" gradientUnits="userSpaceOnUse">
<stop stop-color="#1E1E1C"/>
<stop offset="1" stop-color="#2E2E2C"/>
</linearGradient>
<linearGradient id="paint3_linear_242_2829" x1="47.2593" y1="82.9988" x2="55.5808" y2="82.9988" gradientUnits="userSpaceOnUse">
<stop stop-color="#1E1E1C"/>
<stop offset="1" stop-color="#2E2E2C"/>
</linearGradient>
<linearGradient id="paint4_linear_242_2829" x1="88.585" y1="69.1832" x2="60.3325" y2="118.118" gradientUnits="userSpaceOnUse">
<stop offset="0.3614" stop-color="#2B2B2D"/>
<stop offset="0.4096" stop-color="#3C3C3F"/>
<stop offset="0.4764" stop-color="#4C4C50"/>
<stop offset="0.5595" stop-color="#57575B"/>
<stop offset="0.6762" stop-color="#5D5D62"/>
<stop offset="1" stop-color="#5F5F64"/>
</linearGradient>
<linearGradient id="paint5_linear_242_2829" x1="100.033" y1="36.0282" x2="92.6367" y2="61.6551" gradientUnits="userSpaceOnUse">
<stop stop-color="#221E1E"/>
<stop offset="0.5217" stop-color="#332D2D"/>
<stop offset="0.5296" stop-color="#221E1E"/>
</linearGradient>
</defs>
</svg>
