<svg width="346" height="102" viewBox="0 0 346 102" fill="none" xmlns="http://www.w3.org/2000/svg">
<path d="M15.6001 84.3252L20.3751 98.9652C20.3751 98.9652 20.5741 101.289 24.9511 101.521H25.0501H34.5001H34.5991C38.9761 101.289 39.1751 98.9652 39.1751 98.9652L43.9501 84.3252H15.6001Z" fill="#474749"/>
<path d="M34.5002 101.871H24.9512C20.5962 101.64 20.0862 99.4092 20.0332 99.0422L15.1182 83.9752H44.4332L39.5192 99.0422C39.4652 99.4092 38.9572 101.639 34.6192 101.87L34.5002 101.871ZM16.0832 84.6762L20.7242 98.9352C20.7332 99.0142 20.9912 100.96 24.9692 101.171L25.0502 101.17H34.5992C38.5592 100.959 38.8172 99.0132 38.8262 98.9312L38.8412 98.8562L43.4662 84.6752L16.0832 84.6762Z" fill="#434445"/>
<path opacity="0.49" d="M39.8581 96.8722L43.9501 84.3252H15.6001L19.6921 96.8722H39.8581Z" fill="#474749"/>
<path d="M20.674 97.3002C20.674 97.3002 21.758 100.359 24.741 100.747H33.958C33.958 100.747 25.55 100.295 24.315 99.4302C22.766 98.3462 21.72 95.2472 21.72 95.2472H19.939L20.674 97.3002Z" fill="#474749"/>
<path d="M301.217 84.3252L305.992 98.9652C305.992 98.9652 306.191 101.289 310.568 101.521H310.667H320.117H320.217C324.594 101.289 324.793 98.9652 324.793 98.9652L329.568 84.3252H301.217Z" fill="#474749"/>
<path d="M320.117 101.871H310.568C306.213 101.64 305.703 99.4092 305.649 99.0422L300.735 83.9752H330.05L325.136 99.0422C325.082 99.4092 324.573 101.639 320.236 101.87L320.117 101.871ZM301.7 84.6762L306.341 98.9352C306.35 99.0142 306.608 100.96 310.587 101.171L310.668 101.17H320.217C324.176 100.959 324.435 99.0132 324.444 98.9302L324.459 98.8552L329.084 84.6742H301.7V84.6762Z" fill="#434445"/>
<path opacity="0.49" d="M325.475 96.8722L329.567 84.3252H301.217L305.309 96.8722H325.475Z" fill="#474749"/>
<path d="M306.291 97.3002C306.291 97.3002 307.375 100.359 310.357 100.747H319.575C319.575 100.747 311.167 100.295 309.931 99.4302C308.382 98.3462 307.336 95.2472 307.336 95.2472H305.555L306.291 97.3002Z" fill="#474749"/>
<path d="M344.568 82.7313L331.089 78.4313C314.398 57.7093 280.831 16.0163 279.235 13.8983C277.107 11.0733 273.154 11.7623 273.154 11.7623H214.375H130.791H72.0129C72.0129 11.7623 68.0609 11.0733 65.9329 13.8983C64.2269 16.1623 25.9949 63.6393 10.8889 82.3923L0.483887 82.6223L3.73689 92.2733C3.91989 93.1263 5.00089 93.9223 8.24289 94.0853H91.7999H253.368H336.925C339.833 93.9393 341 93.2833 341.343 92.5343H341.463L344.568 82.7313Z" fill="#212123"/>
<path d="M253.367 94.4353H8.242C5.243 94.2853 3.663 93.6013 3.394 92.3463L0 82.2823L10.718 82.0443C26.761 62.1273 63.971 15.9193 65.653 13.6863C67.885 10.7253 71.903 11.3873 72.074 11.4163L273.155 11.4113C273.265 11.3863 277.284 10.7243 279.515 13.6863C281.064 15.7423 312.59 54.9043 331.296 78.1283L345.008 82.5033L341.719 92.8863L341.55 92.8853C340.969 93.8003 339.458 94.3083 336.943 94.4343L253.367 94.4353ZM0.967 82.9613L4.068 92.1613C4.264 93.0633 5.748 93.6093 8.259 93.7353H336.924C339.868 93.5863 340.78 92.9213 341.023 92.3893L341.117 92.1833L341.205 92.1843L344.127 82.9593L330.881 78.7333L330.815 78.6513C312.115 55.4343 280.51 16.1753 278.954 14.1093C276.978 11.4863 273.25 12.1023 273.213 12.1083L72.013 12.1123C71.915 12.1003 68.182 11.4933 66.212 14.1083C64.52 16.3533 27.149 62.7623 11.161 82.6103L11.059 82.7373L0.967 82.9613Z" fill="#1A1B1C"/>
<path d="M331.089 78.4302C314.398 57.7082 280.831 16.0152 279.235 13.8972C277.107 11.0722 273.154 11.7612 273.154 11.7612H214.375H130.791H72.0129C72.0129 11.7612 68.0609 11.0722 65.9329 13.8972C64.2269 16.1612 25.9949 63.6382 10.8889 82.3912L0.483887 82.6222L3.73689 92.2732V87.8112C3.73689 87.8112 3.71989 85.9522 5.81089 85.7202H336.477C336.477 85.7202 340.195 85.7202 340.079 87.6952C340.018 88.7312 339.254 91.5142 338.541 93.9272C340.285 93.6562 341.073 93.1252 341.343 92.5352H341.463L344.568 82.7312L331.089 78.4302Z" fill="#575558"/>
<path d="M343.545 80.0813C343.545 80.0813 283.438 5.48625 281.269 2.60825C279.1 -0.270745 275.072 0.432255 275.072 0.432255H215.172H129.994H70.094C70.094 0.432255 65.333 0.462255 63.164 3.34125C60.996 6.22025 1.62204 80.0813 1.62204 80.0813C1.62204 80.0813 -2.56096 83.9393 5.10804 84.3253H90.259H254.909H340.06C347.728 83.9403 343.545 80.0813 343.545 80.0813Z" fill="#343537"/>
<path d="M254.908 84.6762H5.10822C2.23522 84.5322 0.646221 83.9072 0.233221 82.7672C-0.271779 81.3732 1.31722 79.8862 1.38522 79.8242C1.94322 79.1242 60.7452 5.97224 62.8862 3.13024C65.1332 0.14724 69.8912 0.0832404 70.0932 0.0812404H275.073C275.186 0.0562404 279.278 -0.61776 281.549 2.39724C283.678 5.22324 342.572 78.3152 343.803 79.8432C344 80.0312 345.415 81.4412 344.935 82.7672C344.522 83.9072 342.933 84.5312 340.077 84.6752L254.908 84.6762ZM70.0942 0.782241C70.0512 0.782241 65.4822 0.84824 63.4442 3.55124C61.2972 6.40224 2.48822 79.5622 1.89422 80.3012C1.49222 80.6792 0.602221 81.7362 0.890221 82.5302C1.18422 83.3402 2.68822 83.8532 5.12422 83.9762H340.058C342.476 83.8542 343.98 83.3402 344.274 82.5302C344.563 81.7362 343.673 80.6792 343.306 80.3392L343.271 80.3022C342.67 79.5562 283.136 5.67024 280.988 2.81924C278.972 0.14224 275.171 0.77124 275.131 0.77724L70.0942 0.782241Z" fill="#1A1B1C"/>
<path opacity="0.24" d="M74.6718 32.2013C101.314 26.3553 128.575 23.4263 155.815 22.4773C182.594 21.5443 209.482 22.8733 236.064 26.2303C262.407 29.5573 288.556 34.9703 313.826 43.1773C298.336 23.9303 282.368 4.06725 281.269 2.60825C279.1 -0.270745 275.072 0.432255 275.072 0.432255H70.0938C70.0938 0.432255 65.3328 0.462255 63.1648 3.34125C62.0228 4.85725 45.0198 26.0533 29.1758 45.7853C43.9188 39.9783 59.2478 35.5853 74.6718 32.2013Z" fill="url(#paint0_linear_242_571)"/>
<path d="M172.195 50.9513C172.195 51.2183 171.524 51.4343 170.696 51.4343C169.868 51.4343 169.197 51.2183 169.197 50.9513C169.197 50.6843 169.868 50.4683 170.696 50.4683C171.524 50.4683 172.195 50.6843 172.195 50.9513Z" fill="#759CBC"/>
<path d="M172.195 53.0613C172.195 53.3283 171.524 53.5443 170.696 53.5443C169.868 53.5443 169.197 53.3283 169.197 53.0613C169.197 52.7943 169.868 52.5773 170.696 52.5773C171.524 52.5773 172.195 52.7933 172.195 53.0613Z" fill="#759CBC"/>
<path d="M172.195 55.1703C172.195 55.4373 171.524 55.6543 170.696 55.6543C169.868 55.6543 169.197 55.4383 169.197 55.1703C169.197 54.9033 169.868 54.6873 170.696 54.6873C171.524 54.6873 172.195 54.9033 172.195 55.1703Z" fill="#759CBC"/>
<path d="M172.195 57.2793C172.195 57.5463 171.524 57.7623 170.696 57.7623C169.868 57.7623 169.197 57.5463 169.197 57.2793C169.197 57.0123 169.868 56.7953 170.696 56.7953C171.524 56.7963 172.195 57.0123 172.195 57.2793Z" fill="#759CBC"/>
<path d="M172.195 59.3893C172.195 59.6563 171.524 59.8733 170.696 59.8733C169.868 59.8733 169.197 59.6573 169.197 59.3893C169.197 59.1223 169.868 58.9063 170.696 58.9063C171.524 58.9053 172.195 59.1223 172.195 59.3893Z" fill="#759CBC"/>
<path d="M172.195 61.4983C172.195 61.7653 171.524 61.9823 170.696 61.9823C169.868 61.9823 169.197 61.7653 169.197 61.4983C169.197 61.2313 169.868 61.0143 170.696 61.0143C171.524 61.0153 172.195 61.2313 172.195 61.4983Z" fill="#759CBC"/>
<path d="M172.195 63.6083C172.195 63.8753 171.524 64.0913 170.696 64.0913C169.868 64.0913 169.197 63.8753 169.197 63.6083C169.197 63.3413 169.868 63.1243 170.696 63.1243C171.524 63.1243 172.195 63.3403 172.195 63.6083Z" fill="#759CBC"/>
<path d="M172.195 65.7173C172.195 65.9843 171.524 66.2013 170.696 66.2013C169.868 66.2013 169.197 65.9853 169.197 65.7173C169.197 65.4503 169.868 65.2343 170.696 65.2343C171.524 65.2343 172.195 65.4503 172.195 65.7173Z" fill="#759CBC"/>
<path d="M172.195 3.57726C172.195 3.84426 171.524 4.06126 170.696 4.06126C169.868 4.06126 169.197 3.84526 169.197 3.57726C169.197 3.30926 169.868 3.09326 170.696 3.09326C171.524 3.09426 172.195 3.31026 172.195 3.57726Z" fill="#759CBC"/>
<path d="M172.195 5.68725C172.195 5.95425 171.524 6.17125 170.696 6.17125C169.868 6.17125 169.197 5.95525 169.197 5.68725C169.197 5.42025 169.868 5.20325 170.696 5.20325C171.524 5.20325 172.195 5.42025 172.195 5.68725Z" fill="#759CBC"/>
<path d="M172.195 7.79623C172.195 8.06323 171.524 8.28023 170.696 8.28023C169.868 8.28023 169.197 8.06323 169.197 7.79623C169.197 7.52923 169.868 7.31323 170.696 7.31323C171.524 7.31323 172.195 7.52923 172.195 7.79623Z" fill="#759CBC"/>
<path d="M172.195 9.90624C172.195 10.1732 171.524 10.3892 170.696 10.3892C169.868 10.3892 169.197 10.1722 169.197 9.90624C169.197 9.63924 169.868 9.42224 170.696 9.42224C171.524 9.42224 172.195 9.63924 172.195 9.90624Z" fill="#759CBC"/>
<path d="M172.195 12.0153C172.195 12.2823 171.524 12.4983 170.696 12.4983C169.868 12.4983 169.197 12.2823 169.197 12.0153C169.197 11.7483 169.868 11.5312 170.696 11.5312C171.524 11.5312 172.195 11.7483 172.195 12.0153Z" fill="#759CBC"/>
<path d="M172.195 14.1242C172.195 14.3912 171.524 14.6072 170.696 14.6072C169.868 14.6072 169.197 14.3912 169.197 14.1242C169.197 13.8572 169.868 13.6412 170.696 13.6412C171.524 13.6412 172.195 13.8572 172.195 14.1242Z" fill="#759CBC"/>
<path d="M172.195 16.2342C172.195 16.5012 171.524 16.7172 170.696 16.7172C169.868 16.7172 169.197 16.5012 169.197 16.2342C169.197 15.9672 169.868 15.7502 170.696 15.7502C171.524 15.7502 172.195 15.9672 172.195 16.2342Z" fill="#759CBC"/>
<path d="M172.195 18.3432C172.195 18.6102 171.524 18.8262 170.696 18.8262C169.868 18.8262 169.197 18.6102 169.197 18.3432C169.197 18.0762 169.868 17.8602 170.696 17.8602C171.524 17.8602 172.195 18.0762 172.195 18.3432Z" fill="#759CBC"/>
<path d="M120.163 35.1313C119.335 35.1313 118.664 34.9153 118.664 34.6473C118.664 34.3803 119.335 34.1643 120.163 34.1643C120.991 34.1643 121.662 34.3803 121.662 34.6473C121.662 34.9143 120.991 35.1313 120.163 35.1313Z" fill="#759CBC"/>
<path d="M113.625 35.1313C112.797 35.1313 112.127 34.9153 112.127 34.6473C112.127 34.3803 112.798 34.1643 113.625 34.1643C114.453 34.1643 115.124 34.3803 115.124 34.6473C115.124 34.9143 114.453 35.1313 113.625 35.1313Z" fill="#759CBC"/>
<path d="M107.087 35.1313C106.259 35.1313 105.589 34.9153 105.589 34.6473C105.589 34.3803 106.26 34.1643 107.087 34.1643C107.914 34.1643 108.586 34.3803 108.586 34.6473C108.586 34.9143 107.915 35.1313 107.087 35.1313Z" fill="#759CBC"/>
<path d="M100.549 35.1313C99.7208 35.1313 99.0498 34.9153 99.0498 34.6473C99.0498 34.3803 99.7208 34.1643 100.549 34.1643C101.377 34.1643 102.048 34.3803 102.048 34.6473C102.048 34.9143 101.377 35.1313 100.549 35.1313Z" fill="#759CBC"/>
<path d="M94.0107 35.1313C93.1827 35.1313 92.5117 34.9153 92.5117 34.6473C92.5117 34.3803 93.1827 34.1643 94.0107 34.1643C94.8387 34.1643 95.5097 34.3803 95.5097 34.6473C95.5097 34.9143 94.8387 35.1313 94.0107 35.1313Z" fill="#759CBC"/>
<path d="M87.4731 35.1313C86.6451 35.1313 85.9751 34.9153 85.9751 34.6473C85.9751 34.3803 86.6461 34.1643 87.4731 34.1643C88.3001 34.1643 88.9711 34.3803 88.9711 34.6473C88.9721 34.9143 88.3011 35.1313 87.4731 35.1313Z" fill="#759CBC"/>
<path d="M80.935 35.1313C80.107 35.1313 79.436 34.9153 79.436 34.6473C79.436 34.3803 80.107 34.1643 80.935 34.1643C81.763 34.1643 82.434 34.3803 82.434 34.6473C82.434 34.9143 81.763 35.1313 80.935 35.1313Z" fill="#759CBC"/>
<path d="M74.3979 35.1313C73.5699 35.1313 72.8989 34.9153 72.8989 34.6473C72.8989 34.3803 73.5699 34.1643 74.3979 34.1643C75.2259 34.1643 75.8969 34.3803 75.8969 34.6473C75.8959 34.9143 75.2249 35.1313 74.3979 35.1313Z" fill="#759CBC"/>
<path d="M266.995 35.1313C266.167 35.1313 265.496 34.9153 265.496 34.6473C265.496 34.3803 266.167 34.1643 266.995 34.1643C267.823 34.1643 268.493 34.3803 268.493 34.6473C268.493 34.9143 267.822 35.1313 266.995 35.1313Z" fill="#759CBC"/>
<path d="M260.457 35.1313C259.629 35.1313 258.958 34.9153 258.958 34.6473C258.958 34.3803 259.629 34.1643 260.457 34.1643C261.285 34.1643 261.956 34.3803 261.956 34.6473C261.955 34.9143 261.284 35.1313 260.457 35.1313Z" fill="#759CBC"/>
<path d="M253.919 35.1313C253.091 35.1313 252.421 34.9153 252.421 34.6473C252.421 34.3803 253.092 34.1643 253.919 34.1643C254.747 34.1643 255.418 34.3803 255.418 34.6473C255.417 34.9143 254.746 35.1313 253.919 35.1313Z" fill="#759CBC"/>
<path d="M247.381 35.1313C246.553 35.1313 245.882 34.9153 245.882 34.6473C245.882 34.3803 246.553 34.1643 247.381 34.1643C248.209 34.1643 248.88 34.3803 248.88 34.6473C248.879 34.9143 248.209 35.1313 247.381 35.1313Z" fill="#759CBC"/>
<path d="M240.843 35.1313C240.015 35.1313 239.344 34.9153 239.344 34.6473C239.344 34.3803 240.015 34.1643 240.843 34.1643C241.671 34.1643 242.342 34.3803 242.342 34.6473C242.342 34.9143 241.671 35.1313 240.843 35.1313Z" fill="#759CBC"/>
<path d="M234.305 35.1313C233.477 35.1313 232.806 34.9153 232.806 34.6473C232.806 34.3803 233.477 34.1643 234.305 34.1643C235.133 34.1643 235.804 34.3803 235.804 34.6473C235.804 34.9143 235.133 35.1313 234.305 35.1313Z" fill="#759CBC"/>
<path d="M227.767 35.1313C226.939 35.1313 226.268 34.9153 226.268 34.6473C226.268 34.3803 226.939 34.1643 227.767 34.1643C228.595 34.1643 229.265 34.3803 229.265 34.6473C229.266 34.9143 228.595 35.1313 227.767 35.1313Z" fill="#759CBC"/>
<path d="M221.229 35.1313C220.401 35.1313 219.731 34.9153 219.731 34.6473C219.731 34.3803 220.402 34.1643 221.229 34.1643C222.057 34.1643 222.728 34.3803 222.728 34.6473C222.728 34.9143 222.057 35.1313 221.229 35.1313Z" fill="#759CBC"/>
<path d="M136.023 46.5183C135.438 46.7073 134.489 46.7073 133.904 46.5183C133.319 46.3293 133.319 46.0233 133.904 45.8343C134.489 45.6453 135.438 45.6453 136.023 45.8343C136.609 46.0233 136.609 46.3293 136.023 46.5183Z" fill="#759CBC"/>
<path d="M131.4 48.0092C130.815 48.1982 129.866 48.1982 129.281 48.0092C128.696 47.8202 128.696 47.5142 129.281 47.3252C129.866 47.1362 130.815 47.1362 131.4 47.3252C131.986 47.5142 131.986 47.8202 131.4 48.0092Z" fill="#759CBC"/>
<path d="M126.777 49.5013C126.192 49.6903 125.243 49.6903 124.658 49.5013C124.073 49.3123 124.073 49.0063 124.658 48.8173C125.243 48.6283 126.192 48.6283 126.777 48.8173C127.363 49.0063 127.363 49.3123 126.777 49.5013Z" fill="#759CBC"/>
<path d="M122.155 50.9932C121.57 51.1822 120.621 51.1822 120.036 50.9932C119.451 50.8042 119.451 50.4982 120.036 50.3092C120.621 50.1202 121.57 50.1202 122.155 50.3092C122.74 50.4972 122.74 50.8042 122.155 50.9932Z" fill="#759CBC"/>
<path d="M117.531 52.4842C116.946 52.6732 115.997 52.6732 115.412 52.4842C114.827 52.2952 114.827 51.9892 115.412 51.8002C115.997 51.6112 116.946 51.6112 117.531 51.8002C118.117 51.9892 118.117 52.2952 117.531 52.4842Z" fill="#759CBC"/>
<path d="M112.908 53.9763C112.323 54.1653 111.374 54.1653 110.789 53.9763C110.204 53.7873 110.204 53.4813 110.789 53.2923C111.374 53.1033 112.323 53.1033 112.908 53.2923C113.494 53.4813 113.494 53.7873 112.908 53.9763Z" fill="#759CBC"/>
<path d="M108.285 55.4672C107.7 55.6562 106.751 55.6562 106.166 55.4672C105.581 55.2782 105.581 54.9722 106.166 54.7832C106.751 54.5942 107.7 54.5942 108.285 54.7832C108.871 54.9722 108.871 55.2782 108.285 55.4672Z" fill="#759CBC"/>
<path d="M103.662 56.9593C103.077 57.1483 102.128 57.1483 101.543 56.9593C100.958 56.7703 100.958 56.4643 101.543 56.2753C102.128 56.0863 103.077 56.0863 103.662 56.2753C104.248 56.4643 104.248 56.7703 103.662 56.9593Z" fill="#759CBC"/>
<path d="M239.849 13.0192C239.264 13.2082 238.315 13.2082 237.73 13.0192C237.145 12.8302 237.145 12.5242 237.73 12.3352C238.315 12.1462 239.264 12.1462 239.849 12.3352C240.434 12.5242 240.434 12.8312 239.849 13.0192Z" fill="#759CBC"/>
<path d="M235.226 14.5112C234.641 14.7002 233.692 14.7002 233.107 14.5112C232.522 14.3222 232.522 14.0162 233.107 13.8272C233.692 13.6382 234.641 13.6382 235.226 13.8272C235.811 14.0162 235.811 14.3222 235.226 14.5112Z" fill="#759CBC"/>
<path d="M230.603 16.0023C230.018 16.1913 229.069 16.1913 228.484 16.0023C227.899 15.8133 227.899 15.5073 228.484 15.3183C229.069 15.1293 230.018 15.1293 230.603 15.3183C231.188 15.5083 231.188 15.8143 230.603 16.0023Z" fill="#759CBC"/>
<path d="M225.98 17.4942C225.395 17.6832 224.446 17.6832 223.861 17.4942C223.276 17.3052 223.276 16.9992 223.861 16.8102C224.446 16.6212 225.395 16.6212 225.98 16.8102C226.565 16.9992 226.565 17.3052 225.98 17.4942Z" fill="#759CBC"/>
<path d="M221.357 18.9863C220.772 19.1753 219.823 19.1753 219.238 18.9863C218.653 18.7973 218.653 18.4913 219.238 18.3023C219.823 18.1133 220.772 18.1133 221.357 18.3023C221.942 18.4913 221.942 18.7973 221.357 18.9863Z" fill="#759CBC"/>
<path d="M216.734 20.4772C216.149 20.6662 215.2 20.6662 214.615 20.4772C214.03 20.2882 214.03 19.9822 214.615 19.7932C215.2 19.6042 216.149 19.6042 216.734 19.7932C217.319 19.9822 217.319 20.2892 216.734 20.4772Z" fill="#759CBC"/>
<path d="M212.111 21.9692C211.526 22.1582 210.577 22.1582 209.992 21.9692C209.407 21.7802 209.407 21.4742 209.992 21.2852C210.577 21.0962 211.526 21.0962 212.111 21.2852C212.696 21.4742 212.696 21.7802 212.111 21.9692Z" fill="#759CBC"/>
<path d="M207.488 23.4603C206.903 23.6493 205.954 23.6493 205.369 23.4603C204.784 23.2713 204.784 22.9653 205.369 22.7763C205.954 22.5873 206.903 22.5873 207.488 22.7763C208.073 22.9653 208.073 23.2723 207.488 23.4603Z" fill="#759CBC"/>
<path d="M133.904 23.4603C133.319 23.2713 133.319 22.9653 133.904 22.7763C134.489 22.5873 135.438 22.5873 136.023 22.7763C136.608 22.9653 136.608 23.2713 136.023 23.4603C135.438 23.6493 134.489 23.6493 133.904 23.4603Z" fill="#759CBC"/>
<path d="M129.281 21.9692C128.696 21.7802 128.696 21.4742 129.281 21.2852C129.866 21.0962 130.815 21.0962 131.4 21.2852C131.985 21.4742 131.985 21.7802 131.4 21.9692C130.815 22.1582 129.866 22.1582 129.281 21.9692Z" fill="#759CBC"/>
<path d="M124.658 20.4772C124.073 20.2882 124.073 19.9822 124.658 19.7932C125.243 19.6042 126.192 19.6042 126.777 19.7932C127.362 19.9822 127.362 20.2882 126.777 20.4772C126.192 20.6662 125.243 20.6662 124.658 20.4772Z" fill="#759CBC"/>
<path d="M120.035 18.9863C119.45 18.7973 119.45 18.4913 120.035 18.3023C120.62 18.1133 121.569 18.1133 122.154 18.3023C122.739 18.4913 122.739 18.7973 122.154 18.9863C121.569 19.1753 120.62 19.1753 120.035 18.9863Z" fill="#759CBC"/>
<path d="M115.412 17.4942C114.827 17.3052 114.827 16.9992 115.412 16.8102C115.997 16.6212 116.946 16.6212 117.531 16.8102C118.116 16.9992 118.116 17.3052 117.531 17.4942C116.946 17.6832 115.997 17.6832 115.412 17.4942Z" fill="#759CBC"/>
<path d="M110.789 16.0023C110.204 15.8133 110.204 15.5073 110.789 15.3183C111.374 15.1293 112.323 15.1293 112.908 15.3183C113.493 15.5073 113.493 15.8133 112.908 16.0023C112.323 16.1913 111.374 16.1913 110.789 16.0023Z" fill="#759CBC"/>
<path d="M106.166 14.5112C105.581 14.3222 105.581 14.0162 106.166 13.8272C106.751 13.6382 107.7 13.6382 108.285 13.8272C108.87 14.0162 108.87 14.3222 108.285 14.5112C107.7 14.7002 106.751 14.7002 106.166 14.5112Z" fill="#759CBC"/>
<path d="M101.543 13.0192C100.958 12.8302 100.958 12.5242 101.543 12.3352C102.128 12.1462 103.077 12.1462 103.662 12.3352C104.247 12.5242 104.247 12.8302 103.662 13.0192C103.077 13.2082 102.128 13.2082 101.543 13.0192Z" fill="#759CBC"/>
<path d="M237.73 56.9593C237.145 56.7703 237.145 56.4643 237.73 56.2753C238.315 56.0863 239.264 56.0863 239.849 56.2753C240.434 56.4643 240.434 56.7703 239.849 56.9593C239.264 57.1483 238.315 57.1483 237.73 56.9593Z" fill="#759CBC"/>
<path d="M233.107 55.4672C232.522 55.2782 232.522 54.9722 233.107 54.7832C233.692 54.5942 234.641 54.5942 235.226 54.7832C235.811 54.9722 235.811 55.2782 235.226 55.4672C234.641 55.6562 233.692 55.6562 233.107 55.4672Z" fill="#759CBC"/>
<path d="M228.484 53.9763C227.899 53.7873 227.899 53.4813 228.484 53.2923C229.069 53.1033 230.018 53.1033 230.603 53.2923C231.188 53.4813 231.188 53.7873 230.603 53.9763C230.018 54.1643 229.069 54.1643 228.484 53.9763Z" fill="#759CBC"/>
<path d="M223.861 52.4842C223.276 52.2952 223.276 51.9892 223.861 51.8002C224.446 51.6112 225.395 51.6112 225.98 51.8002C226.565 51.9892 226.565 52.2952 225.98 52.4842C225.395 52.6732 224.446 52.6732 223.861 52.4842Z" fill="#759CBC"/>
<path d="M219.238 50.9932C218.653 50.8042 218.653 50.4982 219.238 50.3092C219.823 50.1202 220.772 50.1202 221.357 50.3092C221.942 50.4982 221.942 50.8042 221.357 50.9932C220.772 51.1812 219.823 51.1812 219.238 50.9932Z" fill="#759CBC"/>
<path d="M214.615 49.5013C214.03 49.3123 214.03 49.0063 214.615 48.8173C215.2 48.6283 216.149 48.6283 216.734 48.8173C217.319 49.0063 217.319 49.3123 216.734 49.5013C216.149 49.6903 215.2 49.6903 214.615 49.5013Z" fill="#759CBC"/>
<path d="M209.992 48.0092C209.407 47.8202 209.407 47.5142 209.992 47.3252C210.577 47.1362 211.526 47.1362 212.111 47.3252C212.696 47.5142 212.696 47.8202 212.111 48.0092C211.526 48.1982 210.577 48.1982 209.992 48.0092Z" fill="#759CBC"/>
<path d="M205.369 46.5183C204.784 46.3293 204.784 46.0233 205.369 45.8343C205.954 45.6453 206.903 45.6453 207.488 45.8343C208.073 46.0233 208.073 46.3293 207.488 46.5183C206.903 46.7073 205.954 46.7073 205.369 46.5183Z" fill="#759CBC"/>
<path d="M152.548 49.8713C152.228 50.1173 151.35 50.2333 150.587 50.1303C149.824 50.0273 149.464 49.7443 149.784 49.4973C150.104 49.2513 150.982 49.1353 151.745 49.2383C152.509 49.3423 152.868 49.6253 152.548 49.8713Z" fill="#759CBC"/>
<path d="M150.021 51.8173C149.701 52.0633 148.823 52.1793 148.06 52.0763C147.297 51.9733 146.937 51.6893 147.257 51.4433C147.577 51.1973 148.455 51.0813 149.218 51.1843C149.982 51.2873 150.341 51.5703 150.021 51.8173Z" fill="#759CBC"/>
<path d="M147.495 53.7623C147.175 54.0083 146.297 54.1243 145.534 54.0213C144.771 53.9183 144.411 53.6353 144.731 53.3883C145.051 53.1423 145.929 53.0263 146.692 53.1293C147.455 53.2333 147.815 53.5163 147.495 53.7623Z" fill="#759CBC"/>
<path d="M144.968 55.7083C144.648 55.9543 143.77 56.0703 143.007 55.9673C142.244 55.8643 141.884 55.5813 142.204 55.3343C142.524 55.0883 143.402 54.9723 144.165 55.0753C144.928 55.1783 145.288 55.4613 144.968 55.7083Z" fill="#759CBC"/>
<path d="M142.441 57.6532C142.121 57.8992 141.243 58.0152 140.48 57.9122C139.717 57.8092 139.357 57.5252 139.677 57.2792C139.997 57.0332 140.875 56.9172 141.638 57.0202C142.402 57.1242 142.761 57.4072 142.441 57.6532Z" fill="#759CBC"/>
<path d="M139.914 59.5993C139.594 59.8453 138.716 59.9613 137.953 59.8583C137.19 59.7553 136.83 59.4713 137.15 59.2253C137.47 58.9793 138.348 58.8633 139.111 58.9663C139.875 59.0693 140.234 59.3523 139.914 59.5993Z" fill="#759CBC"/>
<path d="M137.388 61.5442C137.068 61.7902 136.19 61.9062 135.427 61.8032C134.664 61.7002 134.304 61.4162 134.624 61.1702C134.944 60.9242 135.822 60.8082 136.585 60.9112C137.348 61.0152 137.707 61.2982 137.388 61.5442Z" fill="#759CBC"/>
<path d="M134.861 63.4903C134.541 63.7363 133.663 63.8523 132.9 63.7493C132.137 63.6463 131.777 63.3633 132.097 63.1163C132.417 62.8703 133.295 62.7543 134.058 62.8573C134.821 62.9603 135.181 63.2433 134.861 63.4903Z" fill="#759CBC"/>
<path d="M209.296 6.17827C208.976 6.42427 208.098 6.54027 207.335 6.43727C206.572 6.33427 206.212 6.05127 206.532 5.80427C206.852 5.55827 207.73 5.44227 208.493 5.54527C209.256 5.64927 209.615 5.93227 209.296 6.17827Z" fill="#759CBC"/>
<path d="M206.769 8.12432C206.449 8.37032 205.571 8.48632 204.808 8.38332C204.045 8.28032 203.685 7.99632 204.005 7.75032C204.325 7.50432 205.203 7.38832 205.966 7.49132C206.729 7.59432 207.089 7.87832 206.769 8.12432Z" fill="#759CBC"/>
<path d="M204.242 10.0693C203.922 10.3153 203.044 10.4313 202.281 10.3283C201.518 10.2253 201.158 9.94226 201.478 9.69526C201.798 9.44926 202.676 9.33326 203.439 9.43626C204.202 9.54026 204.562 9.82326 204.242 10.0693Z" fill="#759CBC"/>
<path d="M201.715 12.0153C201.395 12.2613 200.517 12.3773 199.754 12.2743C198.991 12.1713 198.631 11.8873 198.951 11.6413C199.271 11.3953 200.149 11.2793 200.912 11.3823C201.675 11.4853 202.035 11.7693 201.715 12.0153Z" fill="#759CBC"/>
<path d="M199.189 13.9603C198.869 14.2063 197.991 14.3223 197.228 14.2193C196.465 14.1163 196.105 13.8323 196.425 13.5863C196.745 13.3403 197.623 13.2243 198.386 13.3273C199.149 13.4313 199.508 13.7143 199.189 13.9603Z" fill="#759CBC"/>
<path d="M196.662 15.9063C196.342 16.1523 195.464 16.2683 194.701 16.1653C193.938 16.0623 193.578 15.7793 193.898 15.5323C194.218 15.2863 195.096 15.1703 195.859 15.2733C196.622 15.3763 196.982 15.6603 196.662 15.9063Z" fill="#759CBC"/>
<path d="M194.135 17.8512C193.815 18.0972 192.937 18.2132 192.174 18.1102C191.411 18.0072 191.051 17.7242 191.371 17.4772C191.691 17.2312 192.569 17.1152 193.332 17.2182C194.095 17.3222 194.455 17.6052 194.135 17.8512Z" fill="#759CBC"/>
<path d="M191.608 19.7973C191.288 20.0433 190.41 20.1593 189.647 20.0563C188.884 19.9533 188.524 19.6693 188.844 19.4233C189.164 19.1773 190.042 19.0613 190.805 19.1643C191.569 19.2673 191.928 19.5513 191.608 19.7973Z" fill="#759CBC"/>
<path d="M123.51 28.7923C122.747 28.6893 122.387 28.4053 122.707 28.1593C123.027 27.9133 123.905 27.7973 124.668 27.9003C125.431 28.0033 125.791 28.2873 125.471 28.5333C125.152 28.7793 124.274 28.8953 123.51 28.7923Z" fill="#759CBC"/>
<path d="M117.48 27.9772C116.717 27.8742 116.357 27.5902 116.677 27.3442C116.997 27.0982 117.875 26.9822 118.638 27.0852C119.401 27.1882 119.761 27.4712 119.441 27.7182C119.122 27.9642 118.244 28.0802 117.48 27.9772Z" fill="#759CBC"/>
<path d="M111.451 27.1613C110.688 27.0583 110.328 26.7753 110.648 26.5283C110.968 26.2823 111.846 26.1663 112.609 26.2693C113.372 26.3723 113.732 26.6553 113.412 26.9023C113.092 27.1493 112.214 27.2653 111.451 27.1613Z" fill="#759CBC"/>
<path d="M105.421 26.3462C104.658 26.2432 104.298 25.9602 104.618 25.7132C104.938 25.4672 105.816 25.3512 106.579 25.4542C107.342 25.5572 107.702 25.8402 107.382 26.0872C107.062 26.3332 106.184 26.4492 105.421 26.3462Z" fill="#759CBC"/>
<path d="M99.3905 25.5313C98.6275 25.4283 98.2675 25.1443 98.5875 24.8983C98.9075 24.6523 99.7855 24.5363 100.549 24.6393C101.312 24.7423 101.672 25.0263 101.352 25.2723C101.032 25.5183 100.154 25.6343 99.3905 25.5313Z" fill="#759CBC"/>
<path d="M93.3608 24.7162C92.5978 24.6132 92.2378 24.3302 92.5578 24.0832C92.8778 23.8372 93.7558 23.7212 94.5188 23.8242C95.2818 23.9272 95.6418 24.2112 95.3218 24.4572C95.0018 24.7032 94.1238 24.8192 93.3608 24.7162Z" fill="#759CBC"/>
<path d="M87.3305 23.9013C86.5675 23.7983 86.2075 23.5153 86.5275 23.2683C86.8475 23.0223 87.7255 22.9063 88.4885 23.0093C89.2515 23.1123 89.6115 23.3953 89.2915 23.6423C88.9715 23.8883 88.0935 24.0043 87.3305 23.9013Z" fill="#759CBC"/>
<path d="M81.3007 23.0852C80.5377 22.9822 80.1777 22.6992 80.4977 22.4522C80.8177 22.2062 81.6957 22.0902 82.4587 22.1932C83.2217 22.2962 83.5817 22.5792 83.2617 22.8262C82.9417 23.0722 82.0637 23.1892 81.3007 23.0852Z" fill="#759CBC"/>
<path d="M258.933 47.1012C258.17 46.9982 257.81 46.7152 258.13 46.4682C258.45 46.2222 259.328 46.1062 260.091 46.2092C260.854 46.3122 261.214 46.5962 260.894 46.8422C260.574 47.0882 259.696 47.2042 258.933 47.1012Z" fill="#759CBC"/>
<path d="M252.903 46.2861C252.14 46.1831 251.78 45.9001 252.1 45.6531C252.42 45.4071 253.298 45.2911 254.061 45.3941C254.824 45.4971 255.184 45.7811 254.864 46.0271C254.544 46.2731 253.666 46.3891 252.903 46.2861Z" fill="#759CBC"/>
<path d="M246.872 45.4702C246.109 45.3672 245.749 45.0842 246.069 44.8372C246.389 44.5912 247.267 44.4752 248.03 44.5782C248.793 44.6812 249.153 44.9652 248.833 45.2112C248.513 45.4572 247.636 45.5742 246.872 45.4702Z" fill="#759CBC"/>
<path d="M240.843 44.6552C240.08 44.5522 239.72 44.2682 240.04 44.0222C240.36 43.7762 241.238 43.6602 242.001 43.7632C242.764 43.8662 243.124 44.1492 242.804 44.3962C242.485 44.6422 241.607 44.7582 240.843 44.6552Z" fill="#759CBC"/>
<path d="M234.812 43.8402C234.049 43.7372 233.689 43.4532 234.009 43.2072C234.329 42.9612 235.207 42.8452 235.97 42.9482C236.733 43.0512 237.093 43.3342 236.773 43.5812C236.454 43.8272 235.576 43.9432 234.812 43.8402Z" fill="#759CBC"/>
<path d="M228.783 43.0252C228.02 42.9222 227.66 42.6382 227.98 42.3922C228.3 42.1462 229.178 42.0302 229.941 42.1332C230.704 42.2362 231.064 42.5192 230.744 42.7662C230.425 43.0122 229.547 43.1282 228.783 43.0252Z" fill="#759CBC"/>
<path d="M222.752 42.2102C221.989 42.1072 221.629 41.8232 221.949 41.5772C222.269 41.3312 223.147 41.2152 223.91 41.3182C224.673 41.4212 225.033 41.7042 224.713 41.9512C224.394 42.1972 223.516 42.3132 222.752 42.2102Z" fill="#759CBC"/>
<path d="M216.724 41.3942C215.961 41.2912 215.601 41.0082 215.921 40.7612C216.241 40.5152 217.119 40.3992 217.882 40.5022C218.645 40.6052 219.005 40.8892 218.685 41.1352C218.365 41.3822 217.487 41.4972 216.724 41.3942Z" fill="#759CBC"/>
<path d="M124.498 41.2723C123.732 41.3733 122.857 41.2553 122.543 41.0083C122.229 40.7613 122.596 40.4793 123.362 40.3773C124.128 40.2763 125.003 40.3943 125.317 40.6413C125.631 40.8883 125.264 41.1713 124.498 41.2723Z" fill="#759CBC"/>
<path d="M118.448 42.0713C117.682 42.1723 116.807 42.0543 116.493 41.8073C116.18 41.5603 116.546 41.2783 117.312 41.1763C118.078 41.0753 118.953 41.1933 119.266 41.4403C119.58 41.6883 119.214 41.9703 118.448 42.0713Z" fill="#759CBC"/>
<path d="M112.397 42.8703C111.631 42.9713 110.756 42.8533 110.443 42.6063C110.129 42.3593 110.496 42.0773 111.262 41.9753C112.028 41.8743 112.903 41.9923 113.216 42.2393C113.53 42.4873 113.163 42.7693 112.397 42.8703Z" fill="#759CBC"/>
<path d="M106.347 43.6703C105.581 43.7713 104.706 43.6533 104.392 43.4063C104.078 43.1593 104.445 42.8773 105.211 42.7753C105.977 42.6743 106.852 42.7923 107.166 43.0393C107.479 43.2863 107.113 43.5683 106.347 43.6703Z" fill="#759CBC"/>
<path d="M100.296 44.4693C99.5299 44.5703 98.6549 44.4523 98.3409 44.2053C98.0279 43.9583 98.3939 43.6763 99.1599 43.5743C99.9259 43.4733 100.801 43.5913 101.114 43.8383C101.429 44.0853 101.062 44.3683 100.296 44.4693Z" fill="#759CBC"/>
<path d="M94.2461 45.2683C93.4801 45.3693 92.6051 45.2513 92.2911 45.0043C91.9781 44.7573 92.3441 44.4753 93.1101 44.3733C93.8761 44.2723 94.7511 44.3903 95.0641 44.6373C95.3781 44.8843 95.0121 45.1673 94.2461 45.2683Z" fill="#759CBC"/>
<path d="M88.1947 46.0674C87.4287 46.1684 86.5537 46.0504 86.2407 45.8034C85.9267 45.5564 86.2937 45.2744 87.0597 45.1724C87.8257 45.0714 88.7007 45.1894 89.0147 45.4364C89.3277 45.6844 88.9607 45.9664 88.1947 46.0674Z" fill="#759CBC"/>
<path d="M82.145 46.8663C81.379 46.9673 80.504 46.8493 80.19 46.6023C79.876 46.3553 80.243 46.0733 81.009 45.9713C81.775 45.8703 82.65 45.9883 82.964 46.2353C83.277 46.4833 82.911 46.7653 82.145 46.8663Z" fill="#759CBC"/>
<path d="M260.383 23.3233C259.617 23.4243 258.742 23.3063 258.429 23.0593C258.115 22.8123 258.482 22.5303 259.248 22.4283C260.014 22.3273 260.889 22.4453 261.203 22.6923C261.516 22.9393 261.149 23.2223 260.383 23.3233Z" fill="#759CBC"/>
<path d="M254.332 24.1223C253.566 24.2233 252.691 24.1053 252.377 23.8583C252.063 23.6113 252.43 23.3293 253.196 23.2273C253.962 23.1253 254.837 23.2443 255.151 23.4913C255.465 23.7393 255.098 24.0213 254.332 24.1223Z" fill="#759CBC"/>
<path d="M248.282 24.9214C247.516 25.0224 246.641 24.9044 246.327 24.6574C246.014 24.4104 246.38 24.1284 247.146 24.0264C247.912 23.9254 248.787 24.0434 249.1 24.2904C249.415 24.5384 249.048 24.8204 248.282 24.9214Z" fill="#759CBC"/>
<path d="M242.232 25.7213C241.466 25.8223 240.591 25.7043 240.277 25.4573C239.963 25.2103 240.33 24.9283 241.096 24.8263C241.862 24.7253 242.737 24.8433 243.051 25.0903C243.364 25.3373 242.997 25.6193 242.232 25.7213Z" fill="#759CBC"/>
<path d="M236.181 26.5204C235.415 26.6214 234.54 26.5034 234.227 26.2564C233.913 26.0094 234.28 25.7274 235.046 25.6254C235.812 25.5244 236.687 25.6424 237.001 25.8894C237.314 26.1364 236.947 26.4194 236.181 26.5204Z" fill="#759CBC"/>
<path d="M230.13 27.3194C229.364 27.4204 228.489 27.3024 228.175 27.0554C227.861 26.8084 228.228 26.5264 228.994 26.4244C229.76 26.3224 230.635 26.4414 230.949 26.6884C231.263 26.9354 230.896 27.2184 230.13 27.3194Z" fill="#759CBC"/>
<path d="M224.08 28.1184C223.314 28.2194 222.439 28.1014 222.125 27.8544C221.812 27.6074 222.178 27.3254 222.944 27.2234C223.71 27.1224 224.585 27.2404 224.898 27.4874C225.213 27.7354 224.846 28.0174 224.08 28.1184Z" fill="#759CBC"/>
<path d="M218.029 28.9173C217.263 29.0183 216.388 28.9003 216.074 28.6533C215.76 28.4063 216.127 28.1243 216.893 28.0223C217.659 27.9213 218.534 28.0393 218.848 28.2863C219.162 28.5343 218.795 28.8163 218.029 28.9173Z" fill="#759CBC"/>
<path d="M150.163 19.7423C149.849 19.4953 150.216 19.2133 150.982 19.1113C151.748 19.0103 152.623 19.1283 152.937 19.3753C153.251 19.6223 152.884 19.9053 152.118 20.0063C151.352 20.1073 150.477 19.9893 150.163 19.7423Z" fill="#759CBC"/>
<path d="M147.686 17.7903C147.373 17.5433 147.739 17.2613 148.505 17.1593C149.271 17.0583 150.146 17.1763 150.46 17.4233C150.774 17.6703 150.407 17.9533 149.641 18.0543C148.875 18.1553 148 18.0373 147.686 17.7903Z" fill="#759CBC"/>
<path d="M145.209 15.8383C144.895 15.5913 145.262 15.3093 146.028 15.2073C146.794 15.1063 147.669 15.2243 147.983 15.4713C148.297 15.7183 147.93 16.0003 147.164 16.1023C146.398 16.2033 145.523 16.0853 145.209 15.8383Z" fill="#759CBC"/>
<path d="M142.732 13.8853C142.419 13.6383 142.785 13.3563 143.551 13.2543C144.317 13.1523 145.192 13.2713 145.505 13.5183C145.819 13.7653 145.452 14.0473 144.686 14.1493C143.921 14.2513 143.046 14.1333 142.732 13.8853Z" fill="#759CBC"/>
<path d="M140.255 11.9332C139.942 11.6862 140.308 11.4032 141.074 11.3022C141.84 11.2012 142.715 11.3192 143.029 11.5662C143.342 11.8132 142.976 12.0952 142.21 12.1972C141.443 12.2992 140.568 12.1812 140.255 11.9332Z" fill="#759CBC"/>
<path d="M137.778 9.98133C137.464 9.73433 137.831 9.45133 138.597 9.35033C139.363 9.24933 140.238 9.36733 140.551 9.61433C140.865 9.86133 140.498 10.1443 139.732 10.2453C138.967 10.3473 138.091 10.2283 137.778 9.98133Z" fill="#759CBC"/>
<path d="M135.301 8.02931C134.987 7.78231 135.354 7.49931 136.12 7.39831C136.886 7.29731 137.761 7.41531 138.074 7.66231C138.388 7.90931 138.021 8.19131 137.255 8.29331C136.489 8.39531 135.614 8.27631 135.301 8.02931Z" fill="#759CBC"/>
<path d="M132.824 6.07728C132.51 5.83028 132.877 5.54728 133.643 5.44628C134.409 5.34528 135.284 5.46328 135.598 5.71028C135.912 5.95728 135.545 6.23928 134.779 6.34128C134.012 6.44228 133.137 6.32428 132.824 6.07728Z" fill="#759CBC"/>
<path d="M205.794 63.5844C205.48 63.3374 205.847 63.0554 206.613 62.9534C207.379 62.8524 208.254 62.9704 208.568 63.2174C208.881 63.4644 208.515 63.7474 207.749 63.8484C206.983 63.9494 206.108 63.8314 205.794 63.5844Z" fill="#759CBC"/>
<path d="M203.317 61.6323C203.003 61.3853 203.37 61.1033 204.136 61.0013C204.902 60.9003 205.777 61.0183 206.091 61.2653C206.405 61.5123 206.038 61.7943 205.272 61.8963C204.506 61.9973 203.63 61.8793 203.317 61.6323Z" fill="#759CBC"/>
<path d="M200.841 59.6803C200.527 59.4333 200.894 59.1503 201.66 59.0493C202.426 58.9483 203.301 59.0663 203.615 59.3133C203.928 59.5603 203.562 59.8423 202.796 59.9443C202.029 60.0453 201.154 59.9273 200.841 59.6803Z" fill="#759CBC"/>
<path d="M198.364 57.7273C198.05 57.4803 198.417 57.1983 199.183 57.0963C199.949 56.9953 200.824 57.1133 201.138 57.3603C201.452 57.6073 201.085 57.8893 200.319 57.9913C199.553 58.0933 198.677 57.9743 198.364 57.7273Z" fill="#759CBC"/>
<path d="M195.887 55.7753C195.573 55.5283 195.94 55.2453 196.706 55.1443C197.472 55.0433 198.347 55.1613 198.661 55.4083C198.975 55.6553 198.608 55.9373 197.842 56.0393C197.075 56.1413 196.2 56.0223 195.887 55.7753Z" fill="#759CBC"/>
<path d="M193.41 53.8234C193.096 53.5764 193.463 53.2934 194.229 53.1924C194.995 53.0914 195.87 53.2094 196.184 53.4564C196.498 53.7034 196.131 53.9854 195.365 54.0874C194.598 54.1894 193.723 54.0704 193.41 53.8234Z" fill="#759CBC"/>
<path d="M190.932 51.8713C190.618 51.6243 190.985 51.3423 191.751 51.2403C192.517 51.1393 193.392 51.2573 193.705 51.5043C194.019 51.7513 193.652 52.0333 192.886 52.1353C192.121 52.2363 191.246 52.1183 190.932 51.8713Z" fill="#759CBC"/>
<path d="M188.455 49.9193C188.141 49.6723 188.508 49.3903 189.274 49.2883C190.04 49.1873 190.915 49.3053 191.229 49.5523C191.542 49.7993 191.176 50.0813 190.41 50.1833C189.644 50.2843 188.769 50.1663 188.455 49.9193Z" fill="#759CBC"/>
<path d="M162.538 50.7453C162.38 51.0073 161.594 51.1783 160.781 51.1273C159.968 51.0763 159.438 50.8223 159.595 50.5603C159.753 50.2983 160.539 50.1273 161.352 50.1783C162.165 50.2293 162.696 50.4823 162.538 50.7453Z" fill="#759CBC"/>
<path d="M161.292 52.8153C161.134 53.0773 160.348 53.2483 159.535 53.1973C158.723 53.1463 158.192 52.8923 158.349 52.6303C158.507 52.3683 159.293 52.1973 160.106 52.2483C160.919 52.2993 161.45 52.5533 161.292 52.8153Z" fill="#759CBC"/>
<path d="M160.047 54.8863C159.889 55.1483 159.103 55.3193 158.29 55.2683C157.478 55.2173 156.947 54.9633 157.105 54.7013C157.263 54.4393 158.049 54.2683 158.862 54.3193C159.673 54.3703 160.204 54.6243 160.047 54.8863Z" fill="#759CBC"/>
<path d="M158.801 56.9573C158.643 57.2193 157.857 57.3903 157.044 57.3393C156.231 57.2883 155.701 57.0343 155.858 56.7723C156.016 56.5103 156.802 56.3393 157.615 56.3903C158.428 56.4413 158.958 56.6953 158.801 56.9573Z" fill="#759CBC"/>
<path d="M157.555 59.0283C157.397 59.2903 156.611 59.4613 155.798 59.4103C154.985 59.3593 154.455 59.1053 154.612 58.8433C154.769 58.5813 155.556 58.4103 156.369 58.4613C157.182 58.5123 157.713 58.7653 157.555 59.0283Z" fill="#759CBC"/>
<path d="M156.309 61.0983C156.151 61.3603 155.365 61.5313 154.552 61.4803C153.739 61.4293 153.209 61.1753 153.366 60.9133C153.524 60.6513 154.31 60.4803 155.123 60.5313C155.936 60.5823 156.467 60.8363 156.309 61.0983Z" fill="#759CBC"/>
<path d="M155.063 63.1693C154.905 63.4313 154.119 63.6023 153.306 63.5513C152.494 63.5003 151.963 63.2463 152.121 62.9843C152.279 62.7223 153.065 62.5513 153.878 62.6023C154.69 62.6533 155.221 62.9073 155.063 63.1693Z" fill="#759CBC"/>
<path d="M153.817 65.2403C153.659 65.5023 152.873 65.6733 152.06 65.6233C151.247 65.5723 150.717 65.3183 150.874 65.0563C151.032 64.7943 151.818 64.6233 152.631 64.6743C153.444 64.7243 153.975 64.9783 153.817 65.2403Z" fill="#759CBC"/>
<path d="M190.517 4.23926C190.359 4.50126 189.573 4.67226 188.76 4.62226C187.948 4.57126 187.417 4.31726 187.574 4.05526C187.732 3.79326 188.518 3.62226 189.331 3.67226C190.144 3.72326 190.675 3.97726 190.517 4.23926Z" fill="#759CBC"/>
<path d="M189.271 6.3103C189.113 6.5723 188.327 6.7433 187.514 6.6933C186.702 6.6423 186.171 6.3883 186.328 6.1263C186.486 5.8643 187.272 5.6933 188.085 5.7433C188.898 5.7943 189.429 6.0473 189.271 6.3103Z" fill="#759CBC"/>
<path d="M188.025 8.3802C187.867 8.6422 187.081 8.8132 186.268 8.7622C185.455 8.7112 184.925 8.4572 185.082 8.1952C185.24 7.9332 186.026 7.7622 186.839 7.8132C187.652 7.8642 188.183 8.1182 188.025 8.3802Z" fill="#759CBC"/>
<path d="M186.779 10.4512C186.621 10.7132 185.835 10.8842 185.022 10.8332C184.209 10.7822 183.679 10.5292 183.836 10.2662C183.994 10.0042 184.78 9.83324 185.593 9.88424C186.406 9.93524 186.937 10.1892 186.779 10.4512Z" fill="#759CBC"/>
<path d="M185.534 12.5223C185.376 12.7843 184.59 12.9553 183.777 12.9043C182.964 12.8533 182.434 12.5993 182.591 12.3373C182.749 12.0753 183.535 11.9043 184.348 11.9553C185.161 12.0063 185.691 12.2603 185.534 12.5223Z" fill="#759CBC"/>
<path d="M184.288 14.5933C184.13 14.8553 183.344 15.0263 182.531 14.9753C181.718 14.9243 181.188 14.6703 181.345 14.4083C181.503 14.1463 182.289 13.9753 183.102 14.0253C183.915 14.0773 184.446 14.3303 184.288 14.5933Z" fill="#759CBC"/>
<path d="M183.042 16.6633C182.884 16.9253 182.098 17.0963 181.285 17.0453C180.473 16.9943 179.942 16.7403 180.099 16.4783C180.256 16.2163 181.043 16.0453 181.856 16.0963C182.669 16.1473 183.2 16.4013 183.042 16.6633Z" fill="#759CBC"/>
<path d="M181.796 18.7343C181.638 18.9963 180.852 19.1673 180.039 19.1163C179.227 19.0653 178.696 18.8113 178.853 18.5493C179.011 18.2873 179.797 18.1163 180.61 18.1663C181.423 18.2183 181.954 18.4723 181.796 18.7343Z" fill="#759CBC"/>
<path d="M120.803 32.0152C119.991 31.9642 119.46 31.7102 119.617 31.4482C119.775 31.1862 120.561 31.0152 121.374 31.0662C122.187 31.1172 122.717 31.3712 122.56 31.6332C122.402 31.8952 121.616 32.0662 120.803 32.0152Z" fill="#759CBC"/>
<path d="M114.385 31.6133C113.572 31.5623 113.042 31.3083 113.199 31.0463C113.357 30.7843 114.143 30.6133 114.956 30.6643C115.769 30.7153 116.299 30.9693 116.141 31.2313C115.984 31.4933 115.198 31.6643 114.385 31.6133Z" fill="#759CBC"/>
<path d="M107.967 31.2113C107.155 31.1603 106.624 30.9063 106.781 30.6443C106.939 30.3823 107.725 30.2113 108.538 30.2623C109.35 30.3133 109.881 30.5673 109.724 30.8293C109.566 31.0913 108.78 31.2623 107.967 31.2113Z" fill="#759CBC"/>
<path d="M101.549 30.8093C100.737 30.7583 100.206 30.5043 100.363 30.2423C100.521 29.9803 101.307 29.8093 102.12 29.8603C102.933 29.9113 103.463 30.1653 103.306 30.4273C103.148 30.6893 102.362 30.8603 101.549 30.8093Z" fill="#759CBC"/>
<path d="M95.131 30.4072C94.319 30.3562 93.788 30.1022 93.945 29.8402C94.103 29.5782 94.889 29.4072 95.702 29.4582C96.515 29.5092 97.045 29.7632 96.888 30.0252C96.731 30.2872 95.943 30.4582 95.131 30.4072Z" fill="#759CBC"/>
<path d="M88.7131 30.0052C87.9001 29.9542 87.3701 29.7002 87.5271 29.4382C87.6841 29.1762 88.4711 29.0052 89.2841 29.0562C90.0971 29.1072 90.6271 29.3612 90.4701 29.6232C90.3121 29.8852 89.5251 30.0562 88.7131 30.0052Z" fill="#759CBC"/>
<path d="M82.2951 29.6032C81.4821 29.5522 80.9521 29.2982 81.1091 29.0362C81.2671 28.7742 82.0531 28.6032 82.8661 28.6532C83.6781 28.7042 84.2091 28.9582 84.0511 29.2202C83.8931 29.4832 83.1071 29.6542 82.2951 29.6032Z" fill="#759CBC"/>
<path d="M75.8761 29.2023C75.0641 29.1513 74.5331 28.8973 74.6901 28.6353C74.8481 28.3733 75.6341 28.2023 76.4471 28.2533C77.2601 28.3043 77.7901 28.5583 77.6331 28.8203C77.4751 29.0813 76.6891 29.2523 75.8761 29.2023Z" fill="#759CBC"/>
<path d="M264.945 41.0422C264.133 40.9912 263.602 40.7372 263.76 40.4752C263.918 40.2132 264.704 40.0422 265.517 40.0932C266.33 40.1442 266.86 40.3982 266.702 40.6602C266.544 40.9222 265.757 41.0932 264.945 41.0422Z" fill="#759CBC"/>
<path d="M258.527 40.6402C257.714 40.5892 257.184 40.3352 257.341 40.0732C257.499 39.8112 258.285 39.6402 259.098 39.6912C259.91 39.7422 260.441 39.9962 260.283 40.2582C260.126 40.5202 259.339 40.6912 258.527 40.6402Z" fill="#759CBC"/>
<path d="M252.108 40.2383C251.295 40.1873 250.765 39.9333 250.923 39.6713C251.081 39.4093 251.867 39.2383 252.68 39.2893C253.492 39.3403 254.023 39.5943 253.866 39.8563C253.707 40.1183 252.921 40.2893 252.108 40.2383Z" fill="#759CBC"/>
<path d="M245.69 39.8363C244.878 39.7853 244.347 39.5313 244.505 39.2693C244.663 39.0073 245.449 38.8363 246.262 38.8873C247.075 38.9383 247.605 39.1923 247.448 39.4543C247.289 39.7163 246.503 39.8873 245.69 39.8363Z" fill="#759CBC"/>
<path d="M239.272 39.4342C238.46 39.3832 237.929 39.1292 238.087 38.8672C238.245 38.6052 239.031 38.4342 239.844 38.4852C240.657 38.5362 241.187 38.7902 241.03 39.0522C240.871 39.3142 240.085 39.4852 239.272 39.4342Z" fill="#759CBC"/>
<path d="M232.854 39.0322C232.041 38.9812 231.511 38.7272 231.668 38.4652C231.825 38.2032 232.612 38.0322 233.425 38.0832C234.238 38.1342 234.768 38.3882 234.611 38.6502C234.453 38.9122 233.667 39.0832 232.854 39.0322Z" fill="#759CBC"/>
<path d="M226.436 38.6312C225.623 38.5802 225.093 38.3262 225.25 38.0642C225.408 37.8022 226.194 37.6312 227.007 37.6822C227.819 37.7332 228.35 37.9872 228.193 38.2492C228.035 38.5102 227.248 38.6812 226.436 38.6312Z" fill="#759CBC"/>
<path d="M220.018 38.2292C219.206 38.1782 218.675 37.9242 218.832 37.6622C218.99 37.4002 219.776 37.2292 220.589 37.2802C221.402 37.3312 221.932 37.5852 221.775 37.8472C221.617 38.1082 220.83 38.2792 220.018 38.2292Z" fill="#759CBC"/>
<path d="M129.648 44.1693C128.962 44.3183 128.031 44.2603 127.567 44.0393C127.104 43.8183 127.285 43.5173 127.971 43.3683C128.657 43.2193 129.588 43.2773 130.051 43.4983C130.515 43.7193 130.334 44.0193 129.648 44.1693Z" fill="#759CBC"/>
<path d="M124.229 45.3493C123.543 45.4983 122.612 45.4403 122.149 45.2193C121.686 44.9983 121.867 44.6973 122.553 44.5483C123.239 44.3993 124.171 44.4573 124.634 44.6783C125.096 44.8993 124.915 45.1993 124.229 45.3493Z" fill="#759CBC"/>
<path d="M118.81 46.5292C118.124 46.6782 117.193 46.6202 116.73 46.3992C116.267 46.1782 116.448 45.8772 117.134 45.7282C117.82 45.5792 118.751 45.6372 119.214 45.8582C119.676 46.0792 119.496 46.3792 118.81 46.5292Z" fill="#759CBC"/>
<path d="M113.39 47.7093C112.704 47.8583 111.773 47.8003 111.31 47.5793C110.847 47.3583 111.028 47.0573 111.714 46.9083C112.4 46.7593 113.331 46.8173 113.794 47.0383C114.257 47.2593 114.076 47.5593 113.39 47.7093Z" fill="#759CBC"/>
<path d="M107.971 48.8892C107.285 49.0382 106.354 48.9802 105.891 48.7592C105.428 48.5382 105.609 48.2372 106.295 48.0882C106.981 47.9392 107.913 47.9972 108.375 48.2182C108.838 48.4392 108.657 48.7392 107.971 48.8892Z" fill="#759CBC"/>
<path d="M102.552 50.0693C101.866 50.2183 100.935 50.1603 100.472 49.9393C100.009 49.7183 100.19 49.4173 100.876 49.2683C101.562 49.1193 102.493 49.1773 102.956 49.3983C103.419 49.6193 103.238 49.9193 102.552 50.0693Z" fill="#759CBC"/>
<path d="M97.1329 51.2492C96.4469 51.3982 95.5159 51.3402 95.0529 51.1192C94.5899 50.8982 94.7709 50.5972 95.4569 50.4482C96.1429 50.2992 97.0739 50.3572 97.5369 50.5782C97.9989 50.7992 97.8189 51.0992 97.1329 51.2492Z" fill="#759CBC"/>
<path d="M91.713 52.4293C91.027 52.5783 90.096 52.5203 89.633 52.2993C89.17 52.0783 89.351 51.7773 90.037 51.6283C90.723 51.4793 91.655 51.5373 92.117 51.7583C92.58 51.9793 92.399 52.2793 91.713 52.4293Z" fill="#759CBC"/>
<path d="M251.355 17.6673C250.669 17.8163 249.738 17.7583 249.275 17.5373C248.812 17.3163 248.993 17.0153 249.679 16.8663C250.365 16.7173 251.296 16.7753 251.76 16.9963C252.222 17.2173 252.041 17.5183 251.355 17.6673Z" fill="#759CBC"/>
<path d="M245.936 18.8474C245.25 18.9964 244.319 18.9384 243.856 18.7174C243.393 18.4964 243.574 18.1954 244.26 18.0464C244.946 17.8974 245.878 17.9554 246.34 18.1764C246.803 18.3974 246.622 18.6984 245.936 18.8474Z" fill="#759CBC"/>
<path d="M240.517 20.0273C239.831 20.1763 238.9 20.1183 238.437 19.8973C237.974 19.6763 238.155 19.3753 238.841 19.2263C239.527 19.0773 240.459 19.1353 240.921 19.3563C241.384 19.5773 241.203 19.8783 240.517 20.0273Z" fill="#759CBC"/>
<path d="M235.098 21.2073C234.412 21.3563 233.481 21.2983 233.018 21.0773C232.555 20.8563 232.736 20.5553 233.422 20.4063C234.108 20.2573 235.04 20.3153 235.503 20.5363C235.964 20.7573 235.784 21.0583 235.098 21.2073Z" fill="#759CBC"/>
<path d="M229.678 22.3873C228.992 22.5363 228.061 22.4783 227.598 22.2573C227.135 22.0363 227.316 21.7353 228.002 21.5863C228.688 21.4373 229.619 21.4953 230.082 21.7163C230.545 21.9373 230.365 22.2383 229.678 22.3873Z" fill="#759CBC"/>
<path d="M224.259 23.5673C223.573 23.7163 222.642 23.6583 222.179 23.4373C221.716 23.2163 221.897 22.9153 222.583 22.7663C223.269 22.6173 224.2 22.6753 224.663 22.8963C225.126 23.1173 224.945 23.4183 224.259 23.5673Z" fill="#759CBC"/>
<path d="M218.84 24.7473C218.154 24.8963 217.223 24.8383 216.76 24.6173C216.297 24.3963 216.478 24.0953 217.164 23.9463C217.85 23.7973 218.781 23.8553 219.244 24.0763C219.707 24.2973 219.526 24.5983 218.84 24.7473Z" fill="#759CBC"/>
<path d="M213.421 25.9273C212.735 26.0763 211.804 26.0183 211.341 25.7973C210.878 25.5763 211.059 25.2753 211.745 25.1263C212.431 24.9773 213.363 25.0353 213.825 25.2563C214.288 25.4773 214.107 25.7783 213.421 25.9273Z" fill="#759CBC"/>
<path d="M141.185 21.4043C140.722 21.1833 140.903 20.8823 141.589 20.7333C142.275 20.5843 143.206 20.6423 143.669 20.8633C144.132 21.0843 143.951 21.3853 143.265 21.5343C142.58 21.6833 141.648 21.6253 141.185 21.4043Z" fill="#759CBC"/>
<path d="M137.528 19.6552C137.065 19.4342 137.246 19.1332 137.932 18.9842C138.618 18.8352 139.549 18.8932 140.012 19.1142C140.475 19.3352 140.294 19.6362 139.608 19.7852C138.922 19.9352 137.991 19.8762 137.528 19.6552Z" fill="#759CBC"/>
<path d="M133.87 17.9073C133.407 17.6863 133.588 17.3853 134.274 17.2363C134.96 17.0873 135.891 17.1453 136.354 17.3663C136.817 17.5873 136.636 17.8883 135.95 18.0373C135.265 18.1863 134.333 18.1283 133.87 17.9073Z" fill="#759CBC"/>
<path d="M130.213 16.1583C129.75 15.9373 129.931 15.6363 130.617 15.4873C131.303 15.3383 132.235 15.3963 132.697 15.6173C133.16 15.8383 132.979 16.1393 132.293 16.2883C131.607 16.4383 130.676 16.3793 130.213 16.1583Z" fill="#759CBC"/>
<path d="M126.556 14.4102C126.093 14.1892 126.274 13.8882 126.96 13.7392C127.646 13.5902 128.577 13.6482 129.04 13.8692C129.503 14.0902 129.322 14.3912 128.636 14.5402C127.95 14.6892 127.019 14.6312 126.556 14.4102Z" fill="#759CBC"/>
<path d="M122.898 12.6612C122.435 12.4402 122.616 12.1392 123.302 11.9902C123.988 11.8412 124.919 11.8992 125.382 12.1202C125.845 12.3412 125.664 12.6422 124.978 12.7912C124.293 12.9412 123.361 12.8822 122.898 12.6612Z" fill="#759CBC"/>
<path d="M119.241 10.9133C118.778 10.6923 118.959 10.3913 119.645 10.2423C120.331 10.0933 121.262 10.1513 121.725 10.3723C122.188 10.5933 122.007 10.8943 121.321 11.0433C120.635 11.1923 119.704 11.1343 119.241 10.9133Z" fill="#759CBC"/>
<path d="M115.584 9.16426C115.121 8.94326 115.302 8.64226 115.988 8.49326C116.674 8.34426 117.605 8.40226 118.068 8.62326C118.531 8.84426 118.35 9.14526 117.664 9.29426C116.978 9.44426 116.046 9.38626 115.584 9.16426Z" fill="#759CBC"/>
<path d="M223.325 60.6712C222.862 60.4502 223.043 60.1492 223.729 60.0002C224.415 59.8512 225.346 59.9092 225.81 60.1302C226.273 60.3512 226.092 60.6522 225.406 60.8012C224.719 60.9512 223.788 60.8922 223.325 60.6712Z" fill="#759CBC"/>
<path d="M219.667 58.9232C219.204 58.7022 219.385 58.4012 220.071 58.2522C220.757 58.1032 221.688 58.1612 222.151 58.3822C222.614 58.6032 222.433 58.9042 221.747 59.0532C221.061 59.2022 220.13 59.1442 219.667 58.9232Z" fill="#759CBC"/>
<path d="M216.01 57.1742C215.547 56.9532 215.728 56.6521 216.414 56.5031C217.1 56.3541 218.031 56.4122 218.494 56.6332C218.957 56.8542 218.776 57.1552 218.09 57.3042C217.404 57.4542 216.473 57.3962 216.01 57.1742Z" fill="#759CBC"/>
<path d="M212.352 55.4262C211.889 55.2052 212.07 54.9042 212.756 54.7552C213.442 54.6062 214.373 54.6642 214.836 54.8852C215.299 55.1062 215.118 55.4072 214.432 55.5562C213.746 55.7052 212.815 55.6472 212.352 55.4262Z" fill="#759CBC"/>
<path d="M208.695 53.6772C208.232 53.4562 208.413 53.1552 209.099 53.0062C209.785 52.8572 210.716 52.9152 211.179 53.1362C211.642 53.3572 211.461 53.6582 210.775 53.8072C210.089 53.9572 209.158 53.8992 208.695 53.6772Z" fill="#759CBC"/>
<path d="M205.038 51.9292C204.575 51.7082 204.756 51.4072 205.442 51.2582C206.128 51.1092 207.059 51.1672 207.522 51.3882C207.985 51.6092 207.804 51.9102 207.118 52.0592C206.432 52.2092 205.501 52.1502 205.038 51.9292Z" fill="#759CBC"/>
<path d="M201.381 50.1803C200.918 49.9593 201.099 49.6583 201.785 49.5093C202.471 49.3603 203.403 49.4183 203.865 49.6393C204.328 49.8603 204.147 50.1613 203.461 50.3103C202.776 50.4603 201.844 50.4023 201.381 50.1803Z" fill="#759CBC"/>
<path d="M197.723 48.4322C197.26 48.2112 197.441 47.9102 198.127 47.7612C198.813 47.6122 199.744 47.6702 200.207 47.8912C200.67 48.1122 200.489 48.4132 199.803 48.5622C199.117 48.7112 198.186 48.6532 197.723 48.4322Z" fill="#759CBC"/>
<path d="M143.889 48.4762C143.43 48.6982 142.499 48.7582 141.811 48.6102C141.123 48.4622 140.937 48.1622 141.397 47.9392C141.856 47.7172 142.787 47.6572 143.475 47.8052C144.163 47.9542 144.349 48.2542 143.889 48.4762Z" fill="#759CBC"/>
<path d="M140.26 50.2312C139.801 50.4532 138.87 50.5132 138.182 50.3652C137.494 50.2172 137.308 49.9162 137.767 49.6942C138.227 49.4722 139.157 49.4122 139.845 49.5602C140.534 49.7092 140.719 50.0092 140.26 50.2312Z" fill="#759CBC"/>
<path d="M136.631 51.9862C136.171 52.2082 135.241 52.2682 134.553 52.1202C133.865 51.9722 133.679 51.6712 134.139 51.4492C134.598 51.2272 135.529 51.1672 136.217 51.3152C136.904 51.4632 137.09 51.7632 136.631 51.9862Z" fill="#759CBC"/>
<path d="M133.001 53.7402C132.542 53.9622 131.611 54.0222 130.923 53.8742C130.235 53.7262 130.049 53.4262 130.508 53.2032C130.967 52.9812 131.898 52.9212 132.586 53.0692C133.275 53.2182 133.46 53.5182 133.001 53.7402Z" fill="#759CBC"/>
<path d="M129.372 55.4941C128.913 55.7161 127.982 55.7761 127.294 55.6281C126.606 55.4801 126.42 55.1801 126.88 54.9571C127.339 54.7351 128.27 54.6751 128.958 54.8231C129.645 54.9721 129.831 55.2721 129.372 55.4941Z" fill="#759CBC"/>
<path d="M125.742 57.2491C125.283 57.4711 124.352 57.5311 123.664 57.3831C122.976 57.2351 122.79 56.9341 123.249 56.7121C123.708 56.4901 124.639 56.4301 125.327 56.5781C126.016 56.7271 126.202 57.0271 125.742 57.2491Z" fill="#759CBC"/>
<path d="M122.113 59.0041C121.653 59.2261 120.723 59.2861 120.035 59.1381C119.347 58.9901 119.161 58.6901 119.621 58.4671C120.08 58.2451 121.011 58.1851 121.699 58.3331C122.387 58.4811 122.572 58.7811 122.113 59.0041Z" fill="#759CBC"/>
<path d="M118.483 60.7582C118.024 60.9802 117.093 61.0402 116.405 60.8922C115.717 60.7442 115.531 60.4442 115.99 60.2212C116.45 59.9992 117.38 59.9392 118.068 60.0872C118.757 60.2362 118.943 60.5362 118.483 60.7582Z" fill="#759CBC"/>
<path d="M225.402 9.07323C224.943 9.29523 224.012 9.35523 223.324 9.20723C222.636 9.05923 222.45 8.75823 222.909 8.53623C223.369 8.31423 224.299 8.25423 224.987 8.40223C225.676 8.55123 225.861 8.85123 225.402 9.07323Z" fill="#759CBC"/>
<path d="M221.773 10.8282C221.314 11.0502 220.383 11.1102 219.695 10.9622C219.007 10.8142 218.821 10.5142 219.28 10.2922C219.739 10.0702 220.67 10.0102 221.358 10.1582C222.046 10.3052 222.232 10.6062 221.773 10.8282Z" fill="#759CBC"/>
<path d="M218.143 12.5823C217.683 12.8043 216.753 12.8643 216.065 12.7163C215.377 12.5683 215.191 12.2683 215.65 12.0453C216.11 11.8233 217.04 11.7633 217.728 11.9113C218.417 12.0603 218.602 12.3603 218.143 12.5823Z" fill="#759CBC"/>
<path d="M214.514 14.3373C214.055 14.5593 213.124 14.6193 212.436 14.4713C211.748 14.3233 211.562 14.0233 212.022 13.8003C212.481 13.5783 213.412 13.5183 214.1 13.6663C214.788 13.8143 214.973 14.1143 214.514 14.3373Z" fill="#759CBC"/>
<path d="M210.884 16.0912C210.425 16.3132 209.494 16.3732 208.806 16.2252C208.118 16.0772 207.932 15.7772 208.391 15.5542C208.85 15.3322 209.781 15.2722 210.469 15.4202C211.158 15.5692 211.344 15.8692 210.884 16.0912Z" fill="#759CBC"/>
<path d="M207.255 17.8463C206.795 18.0683 205.865 18.1283 205.177 17.9803C204.489 17.8323 204.303 17.5323 204.762 17.3103C205.222 17.0883 206.152 17.0283 206.84 17.1763C207.528 17.3233 207.714 17.6243 207.255 17.8463Z" fill="#759CBC"/>
<path d="M203.625 19.6002C203.166 19.8222 202.235 19.8822 201.547 19.7342C200.859 19.5862 200.673 19.2862 201.132 19.0632C201.591 18.8412 202.522 18.7812 203.21 18.9292C203.899 19.0782 204.085 19.3782 203.625 19.6002Z" fill="#759CBC"/>
<path d="M199.996 21.3552C199.536 21.5772 198.606 21.6372 197.918 21.4892C197.23 21.3412 197.044 21.0412 197.504 20.8192C197.963 20.5972 198.894 20.5372 199.582 20.6852C200.269 20.8322 200.455 21.1332 199.996 21.3552Z" fill="#759CBC"/>
<path d="M127.833 25.9982C127.145 25.8502 126.959 25.5502 127.419 25.3272C127.878 25.1052 128.809 25.0452 129.497 25.1932C130.185 25.3412 130.371 25.6412 129.912 25.8632C129.452 26.0872 128.521 26.1472 127.833 25.9982Z" fill="#759CBC"/>
<path d="M122.395 24.8272C121.707 24.6792 121.521 24.3792 121.981 24.1562C122.44 23.9342 123.371 23.8742 124.059 24.0222C124.747 24.1702 124.933 24.4702 124.473 24.6932C124.014 24.9162 123.083 24.9762 122.395 24.8272Z" fill="#759CBC"/>
<path d="M116.957 23.6562C116.269 23.5082 116.083 23.2082 116.543 22.9852C117.002 22.7632 117.933 22.7032 118.621 22.8512C119.309 22.9992 119.495 23.2992 119.035 23.5222C118.576 23.7452 117.645 23.8042 116.957 23.6562Z" fill="#759CBC"/>
<path d="M111.519 22.4852C110.831 22.3372 110.645 22.0372 111.105 21.8152C111.564 21.5932 112.495 21.5332 113.183 21.6812C113.871 21.8292 114.057 22.1292 113.597 22.3512C113.138 22.5742 112.208 22.6332 111.519 22.4852Z" fill="#759CBC"/>
<path d="M106.081 21.3141C105.393 21.1661 105.207 20.8661 105.666 20.6441C106.125 20.4221 107.056 20.3621 107.744 20.5101C108.432 20.6581 108.618 20.9581 108.158 21.1811C107.7 21.4031 106.77 21.4631 106.081 21.3141Z" fill="#759CBC"/>
<path d="M100.643 20.1432C99.9551 19.9952 99.7691 19.6952 100.229 19.4732C100.688 19.2512 101.619 19.1912 102.307 19.3392C102.995 19.4872 103.181 19.7872 102.721 20.0102C102.262 20.2312 101.332 20.2922 100.643 20.1432Z" fill="#759CBC"/>
<path d="M95.2054 18.9722C94.5174 18.8242 94.3314 18.5242 94.7904 18.3022C95.2494 18.0802 96.1804 18.0202 96.8684 18.1682C97.5564 18.3162 97.7424 18.6162 97.2824 18.8392C96.8244 19.0602 95.8944 19.1202 95.2054 18.9722Z" fill="#759CBC"/>
<path d="M89.7672 17.8012C89.0792 17.6532 88.8932 17.3532 89.3532 17.1312C89.8122 16.9092 90.7432 16.8492 91.4312 16.9972C92.1192 17.1452 92.3052 17.4452 91.8462 17.6682C91.3862 17.8902 90.4562 17.9492 89.7672 17.8012Z" fill="#759CBC"/>
<path d="M249.961 52.2982C249.273 52.1502 249.087 51.8502 249.546 51.6272C250.006 51.4052 250.936 51.3452 251.624 51.4932C252.312 51.6412 252.498 51.9412 252.038 52.1642C251.58 52.3862 250.65 52.4462 249.961 52.2982Z" fill="#759CBC"/>
<path d="M244.524 51.1262C243.836 50.9782 243.65 50.6772 244.11 50.4552C244.569 50.2332 245.5 50.1732 246.188 50.3212C246.876 50.4692 247.062 50.7692 246.603 50.9922C246.143 51.2152 245.213 51.2752 244.524 51.1262Z" fill="#759CBC"/>
<path d="M239.086 49.9551C238.398 49.8071 238.212 49.5071 238.672 49.2851C239.131 49.0631 240.062 49.0031 240.75 49.1511C241.438 49.2991 241.624 49.5991 241.165 49.8221C240.705 50.0441 239.774 50.1041 239.086 49.9551Z" fill="#759CBC"/>
<path d="M233.647 48.7841C232.959 48.6361 232.773 48.3361 233.232 48.1131C233.691 47.8911 234.622 47.8311 235.31 47.9791C235.998 48.1271 236.184 48.4271 235.725 48.6501C235.266 48.8731 234.336 48.9331 233.647 48.7841Z" fill="#759CBC"/>
<path d="M228.209 47.6131C227.521 47.4651 227.335 47.1651 227.794 46.9421C228.253 46.7201 229.184 46.6601 229.872 46.8081C230.56 46.9561 230.746 47.2561 230.287 47.4791C229.828 47.7021 228.898 47.7621 228.209 47.6131Z" fill="#759CBC"/>
<path d="M222.771 46.4422C222.083 46.2942 221.897 45.9942 222.356 45.7722C222.815 45.5502 223.746 45.4902 224.434 45.6382C225.122 45.7862 225.308 46.0862 224.848 46.3092C224.39 46.5312 223.46 46.5912 222.771 46.4422Z" fill="#759CBC"/>
<path d="M217.333 45.2712C216.645 45.1232 216.459 44.8222 216.918 44.6002C217.377 44.3782 218.308 44.3182 218.996 44.4662C219.684 44.6142 219.87 44.9142 219.411 45.1372C218.952 45.3602 218.022 45.4202 217.333 45.2712Z" fill="#759CBC"/>
<path d="M211.895 44.1002C211.207 43.9522 211.021 43.6512 211.48 43.4302C211.939 43.2082 212.87 43.1481 213.558 43.2961C214.246 43.4441 214.432 43.7442 213.973 43.9662C213.514 44.1892 212.584 44.2492 211.895 44.1002Z" fill="#759CBC"/>
<path d="M121.432 38.3103C120.62 38.3623 119.831 38.1923 119.669 37.9303C119.507 37.6683 120.034 37.4143 120.845 37.3613C121.657 37.3093 122.446 37.4793 122.608 37.7413C122.771 38.0033 122.244 38.2583 121.432 38.3103Z" fill="#759CBC"/>
<path d="M115.021 38.7232C114.209 38.7752 113.42 38.6052 113.258 38.3432C113.096 38.0812 113.623 37.8262 114.434 37.7742C115.246 37.7222 116.035 37.8922 116.197 38.1542C116.359 38.4162 115.832 38.6712 115.021 38.7232Z" fill="#759CBC"/>
<path d="M108.609 39.1352C107.797 39.1872 107.008 39.0172 106.846 38.7552C106.684 38.4932 107.211 38.2392 108.022 38.1862C108.834 38.1342 109.623 38.3042 109.785 38.5662C109.947 38.8292 109.421 39.0832 108.609 39.1352Z" fill="#759CBC"/>
<path d="M102.197 39.5483C101.385 39.6003 100.596 39.4303 100.434 39.1683C100.272 38.9063 100.799 38.6523 101.611 38.5993C102.423 38.5473 103.212 38.7173 103.374 38.9783C103.536 39.2413 103.009 39.4963 102.197 39.5483Z" fill="#759CBC"/>
<path d="M95.7859 39.9613C94.9739 40.0133 94.1849 39.8433 94.0229 39.5813C93.8609 39.3193 94.3879 39.0643 95.1989 39.0123C96.0109 38.9603 96.7999 39.1303 96.9619 39.3923C97.1239 39.6543 96.5969 39.9093 95.7859 39.9613Z" fill="#759CBC"/>
<path d="M89.3743 40.3733C88.5623 40.4253 87.7733 40.2553 87.6113 39.9933C87.4493 39.7313 87.9763 39.4773 88.7873 39.4243C89.5993 39.3723 90.3883 39.5423 90.5503 39.8043C90.7123 40.0663 90.1863 40.3213 89.3743 40.3733Z" fill="#759CBC"/>
<path d="M82.9622 40.7863C82.1502 40.8383 81.3612 40.6683 81.1992 40.4063C81.0372 40.1443 81.5642 39.8903 82.3762 39.8373C83.1882 39.7843 83.9772 39.9553 84.1392 40.2163C84.3012 40.4793 83.7742 40.7343 82.9622 40.7863Z" fill="#759CBC"/>
<path d="M76.5511 41.1982C75.7391 41.2502 74.9501 41.0802 74.7881 40.8182C74.6261 40.5562 75.1531 40.3022 75.9641 40.2492C76.7761 40.1972 77.5651 40.3672 77.7271 40.6292C77.8891 40.8922 77.3621 41.1462 76.5511 41.1982Z" fill="#759CBC"/>
<path d="M265.428 29.0443C264.616 29.0963 263.827 28.9263 263.665 28.6643C263.503 28.4023 264.03 28.1473 264.842 28.0953C265.653 28.0433 266.443 28.2133 266.605 28.4753C266.766 28.7373 266.24 28.9923 265.428 29.0443Z" fill="#759CBC"/>
<path d="M259.016 29.4572C258.204 29.5092 257.415 29.3392 257.253 29.0782C257.091 28.8162 257.618 28.5612 258.429 28.5092C259.241 28.4572 260.03 28.6272 260.192 28.8892C260.355 29.1502 259.828 29.4052 259.016 29.4572Z" fill="#759CBC"/>
<path d="M252.605 29.8692C251.793 29.9212 251.004 29.7512 250.842 29.4892C250.68 29.2272 251.207 28.9732 252.019 28.9202C252.83 28.8682 253.62 29.0382 253.782 29.2992C253.943 29.5632 253.416 29.8172 252.605 29.8692Z" fill="#759CBC"/>
<path d="M246.193 30.2823C245.381 30.3343 244.592 30.1643 244.43 29.9023C244.268 29.6403 244.795 29.3863 245.606 29.3333C246.418 29.2813 247.207 29.4513 247.369 29.7133C247.531 29.9753 247.004 30.2303 246.193 30.2823Z" fill="#759CBC"/>
<path d="M239.781 30.6953C238.969 30.7473 238.18 30.5773 238.018 30.3153C237.856 30.0533 238.383 29.7993 239.195 29.7463C240.007 29.6943 240.796 29.8643 240.958 30.1263C241.12 30.3883 240.593 30.6423 239.781 30.6953Z" fill="#759CBC"/>
<path d="M233.37 31.1073C232.558 31.1593 231.769 30.9893 231.607 30.7273C231.445 30.4653 231.972 30.2103 232.783 30.1583C233.595 30.1063 234.384 30.2763 234.546 30.5383C234.708 30.8003 234.181 31.0553 233.37 31.1073Z" fill="#759CBC"/>
<path d="M226.958 31.5202C226.146 31.5722 225.357 31.4022 225.195 31.1402C225.033 30.8782 225.56 30.6242 226.371 30.5712C227.183 30.5192 227.972 30.6892 228.134 30.9512C228.296 31.2132 227.769 31.4682 226.958 31.5202Z" fill="#759CBC"/>
<path d="M220.546 31.9322C219.734 31.9842 218.945 31.8142 218.783 31.5522C218.621 31.2902 219.148 31.0362 219.959 30.9832C220.771 30.9312 221.56 31.1012 221.722 31.3632C221.885 31.6262 221.358 31.8802 220.546 31.9322Z" fill="#759CBC"/>
<path d="M159.343 18.7533C159.181 18.4913 159.708 18.2363 160.519 18.1843C161.33 18.1323 162.12 18.3023 162.282 18.5643C162.444 18.8263 161.917 19.0813 161.106 19.1333C160.294 19.1853 159.504 19.0153 159.343 18.7533Z" fill="#759CBC"/>
<path d="M158.064 16.6842C157.902 16.4222 158.429 16.1672 159.24 16.1152C160.052 16.0632 160.841 16.2332 161.003 16.4952C161.165 16.7572 160.638 17.0112 159.827 17.0642C159.015 17.1162 158.226 16.9462 158.064 16.6842Z" fill="#759CBC"/>
<path d="M156.785 14.6152C156.623 14.3532 157.15 14.0992 157.961 14.0462C158.773 13.9942 159.562 14.1642 159.724 14.4252C159.886 14.6872 159.359 14.9422 158.548 14.9942C157.736 15.0472 156.947 14.8772 156.785 14.6152Z" fill="#759CBC"/>
<path d="M155.506 12.5472C155.344 12.2852 155.871 12.0302 156.683 11.9782C157.495 11.9262 158.284 12.0962 158.446 12.3582C158.608 12.6202 158.081 12.8742 157.27 12.9272C156.457 12.9792 155.668 12.8092 155.506 12.5472Z" fill="#759CBC"/>
<path d="M154.227 10.4783C154.065 10.2163 154.592 9.96226 155.403 9.90926C156.215 9.85726 157.004 10.0273 157.166 10.2893C157.328 10.5513 156.801 10.8053 155.99 10.8583C155.178 10.9103 154.389 10.7403 154.227 10.4783Z" fill="#759CBC"/>
<path d="M152.949 8.4092C152.787 8.1472 153.314 7.8932 154.125 7.8402C154.936 7.7872 155.726 7.9582 155.888 8.2202C156.05 8.4822 155.523 8.7362 154.712 8.7892C153.9 8.8412 153.111 8.6712 152.949 8.4092Z" fill="#759CBC"/>
<path d="M151.67 6.34129C151.508 6.07929 152.035 5.82529 152.846 5.77229C153.658 5.72029 154.447 5.8903 154.609 6.1523C154.771 6.4143 154.244 6.66829 153.432 6.72129C152.621 6.77329 151.832 6.60329 151.67 6.34129Z" fill="#759CBC"/>
<path d="M150.391 4.27224C150.229 4.01024 150.756 3.75624 151.567 3.70324C152.378 3.65024 153.168 3.82124 153.33 4.08324C153.492 4.34524 152.965 4.59924 152.154 4.65224C151.342 4.70424 150.553 4.53424 150.391 4.27224Z" fill="#759CBC"/>
<path d="M188.062 65.2112C187.9 64.9492 188.427 64.6952 189.238 64.6422C190.05 64.5902 190.839 64.7602 191.001 65.0222C191.163 65.2842 190.636 65.5392 189.825 65.5912C189.013 65.6432 188.224 65.4732 188.062 65.2112Z" fill="#759CBC"/>
<path d="M186.783 63.1432C186.621 62.8812 187.148 62.6272 187.959 62.5742C188.771 62.5222 189.56 62.6922 189.722 62.9542C189.884 63.2162 189.357 63.4702 188.546 63.5232C187.734 63.5752 186.945 63.4052 186.783 63.1432Z" fill="#759CBC"/>
<path d="M185.504 61.0742C185.342 60.8122 185.869 60.5572 186.68 60.5052C187.492 60.4532 188.281 60.6232 188.443 60.8852C188.605 61.1472 188.078 61.4022 187.267 61.4542C186.456 61.5062 185.666 61.3362 185.504 61.0742Z" fill="#759CBC"/>
<path d="M184.227 59.0062C184.065 58.7442 184.592 58.4892 185.403 58.4372C186.215 58.3852 187.004 58.5552 187.166 58.8172C187.328 59.0792 186.801 59.3332 185.99 59.3862C185.178 59.4372 184.389 59.2672 184.227 59.0062Z" fill="#759CBC"/>
<path d="M182.947 56.9372C182.785 56.6752 183.312 56.4212 184.123 56.3682C184.935 56.3162 185.724 56.4862 185.886 56.7482C186.048 57.0102 185.521 57.2652 184.709 57.3172C183.898 57.3692 183.109 57.1992 182.947 56.9372Z" fill="#759CBC"/>
<path d="M181.668 54.8682C181.506 54.6062 182.033 54.3522 182.844 54.2992C183.655 54.2462 184.445 54.4172 184.607 54.6792C184.769 54.9412 184.242 55.1952 183.431 55.2482C182.619 55.3002 181.83 55.1302 181.668 54.8682Z" fill="#759CBC"/>
<path d="M180.389 52.8002C180.227 52.5382 180.754 52.2842 181.565 52.2312C182.377 52.1792 183.166 52.3492 183.328 52.6102C183.49 52.8722 182.963 53.1272 182.152 53.1792C181.34 53.2312 180.551 53.0612 180.389 52.8002Z" fill="#759CBC"/>
<path d="M179.111 50.7312C178.949 50.4692 179.476 50.2152 180.287 50.1622C181.099 50.1102 181.888 50.2802 182.05 50.5422C182.212 50.8042 181.685 51.0592 180.874 51.1112C180.062 51.1632 179.272 50.9932 179.111 50.7312Z" fill="#759CBC"/>
<path d="M211.622 78.2632C211.622 79.9662 208.965 81.3472 205.686 81.3472C202.408 81.3472 199.751 79.9662 199.751 78.2632C199.751 76.5602 202.408 75.1792 205.686 75.1792C208.965 75.1792 211.622 76.5602 211.622 78.2632Z" fill="#252628"/>
<path d="M205.687 81.0982C208.965 81.0982 211.622 79.7174 211.622 78.0142C211.622 76.3109 208.965 74.9302 205.687 74.9302C202.409 74.9302 199.752 76.3109 199.752 78.0142C199.752 79.7174 202.409 81.0982 205.687 81.0982Z" fill="#4F5153"/>
<path d="M205.687 80.8562C202.675 80.8562 200.224 79.5832 200.224 78.0182C200.224 76.4532 202.675 75.1802 205.687 75.1802C208.699 75.1802 211.15 76.4532 211.15 78.0182C211.15 79.5832 208.699 80.8562 205.687 80.8562ZM205.687 75.3532C202.859 75.3532 200.558 76.5482 200.558 78.0182C200.558 79.4882 202.859 80.6832 205.687 80.6832C208.515 80.6832 210.816 79.4882 210.816 78.0182C210.816 76.5482 208.515 75.3532 205.687 75.3532Z" fill="#C7BBC3"/>
<path d="M206.792 76.3972V76.5822C207.885 76.8102 208.66 77.3662 208.66 78.0152C208.66 78.8672 207.326 79.5602 205.687 79.5602C204.048 79.5602 202.714 78.8672 202.714 78.0152C202.714 77.3172 203.609 76.7272 204.833 76.5362V76.3572C203.423 76.5532 202.38 77.2212 202.38 78.0152C202.38 78.9622 203.864 79.7332 205.687 79.7332C207.511 79.7332 208.994 78.9622 208.994 78.0152C208.994 77.2682 208.073 76.6342 206.792 76.3972Z" fill="#C7BBC3"/>
<path d="M205.807 78.0441H205.566C205.449 78.0441 205.354 77.9491 205.354 77.8321V76.1281C205.354 76.0111 205.449 75.9161 205.566 75.9161H205.807C205.924 75.9161 206.019 76.0121 206.019 76.1281V77.8321C206.019 77.9491 205.924 78.0441 205.807 78.0441Z" fill="#C7BBC3"/>
<path d="M195.543 78.1372C195.543 79.9082 192.78 81.3442 189.371 81.3442C185.963 81.3442 183.199 79.9082 183.199 78.1372C183.199 76.3662 185.962 74.9312 189.371 74.9312C192.78 74.9302 195.543 76.3662 195.543 78.1372Z" fill="#252628"/>
<path d="M195.307 78.0142C195.307 79.7172 192.65 81.0982 189.371 81.0982C186.093 81.0982 183.436 79.7172 183.436 78.0142C183.436 76.3112 186.093 74.9302 189.371 74.9302C192.649 74.9302 195.307 76.3112 195.307 78.0142Z" fill="#4F5153"/>
<g opacity="0.15">
<path d="M189.715 75.8042C191.516 75.8042 193.102 76.2792 194.036 77.0022C193.332 75.9422 191.4 75.1792 189.121 75.1792C186.247 75.1792 183.918 76.3892 183.918 77.8822C183.918 78.4392 184.243 78.9572 184.8 79.3882C184.616 79.1122 184.512 78.8162 184.512 78.5072C184.512 77.0152 186.842 75.8042 189.715 75.8042Z" fill="#4F5153"/>
</g>
<path d="M178.991 78.1372C178.991 79.9082 176.228 81.3442 172.819 81.3442C169.411 81.3442 166.647 79.9082 166.647 78.1372C166.647 76.3662 169.41 74.9312 172.819 74.9312C176.228 74.9302 178.991 76.3662 178.991 78.1372Z" fill="#252628"/>
<path d="M172.82 81.0982C176.098 81.0982 178.755 79.7174 178.755 78.0142C178.755 76.3109 176.098 74.9302 172.82 74.9302C169.542 74.9302 166.885 76.3109 166.885 78.0142C166.885 79.7174 169.542 81.0982 172.82 81.0982Z" fill="#4F5153"/>
<g opacity="0.15">
<path d="M173.164 75.8042C174.965 75.8042 176.551 76.2792 177.485 77.0022C176.781 75.9422 174.849 75.1792 172.57 75.1792C169.696 75.1792 167.367 76.3892 167.367 77.8822C167.367 78.4392 167.692 78.9572 168.249 79.3882C168.065 79.1122 167.961 78.8162 167.961 78.5072C167.961 77.0152 170.29 75.8042 173.164 75.8042Z" fill="#4F5153"/>
</g>
<path d="M156.268 81.3442C159.676 81.3442 162.44 79.9084 162.44 78.1372C162.44 76.366 159.676 74.9302 156.268 74.9302C152.859 74.9302 150.096 76.366 150.096 78.1372C150.096 79.9084 152.859 81.3442 156.268 81.3442Z" fill="#252628"/>
<path d="M156.268 81.0982C159.545 81.0982 162.203 79.7174 162.203 78.0142C162.203 76.3109 159.545 74.9302 156.268 74.9302C152.99 74.9302 150.333 76.3109 150.333 78.0142C150.333 79.7174 152.99 81.0982 156.268 81.0982Z" fill="#4F5153"/>
<g opacity="0.15">
<path d="M156.611 75.8042C158.412 75.8042 159.998 76.2792 160.932 77.0022C160.228 75.9422 158.296 75.1792 156.017 75.1792C153.143 75.1792 150.814 76.3892 150.814 77.8822C150.814 78.4392 151.139 78.9572 151.696 79.3882C151.513 79.1122 151.408 78.8162 151.408 78.5072C151.408 77.0152 153.738 75.8042 156.611 75.8042Z" fill="#4F5153"/>
</g>
<path d="M139.716 81.3442C143.125 81.3442 145.888 79.9084 145.888 78.1372C145.888 76.366 143.125 74.9302 139.716 74.9302C136.307 74.9302 133.544 76.366 133.544 78.1372C133.544 79.9084 136.307 81.3442 139.716 81.3442Z" fill="#252628"/>
<path d="M139.716 81.0982C142.994 81.0982 145.651 79.7174 145.651 78.0142C145.651 76.3109 142.994 74.9302 139.716 74.9302C136.438 74.9302 133.781 76.3109 133.781 78.0142C133.781 79.7174 136.438 81.0982 139.716 81.0982Z" fill="#4F5153"/>
<g opacity="0.15">
<path d="M140.061 75.8042C141.862 75.8042 143.448 76.2792 144.382 77.0022C143.678 75.9422 141.746 75.1792 139.467 75.1792C136.593 75.1792 134.264 76.3892 134.264 77.8822C134.264 78.4392 134.589 78.9572 135.146 79.3882C134.963 79.1122 134.858 78.8162 134.858 78.5072C134.858 77.0152 137.187 75.8042 140.061 75.8042Z" fill="#4F5153"/>
</g>
<defs>
<linearGradient id="paint0_linear_242_571" x1="171.501" y1="-21.1714" x2="171.501" y2="30.4342" gradientUnits="userSpaceOnUse">
<stop stop-color="white"/>
<stop offset="1"/>
</linearGradient>
</defs>
</svg>
