<svg width="164" height="241" viewBox="0 0 164 241" fill="none" xmlns="http://www.w3.org/2000/svg">
<path d="M161.984 169.554C156.154 182.306 133.566 189.871 111.542 186.457C104.289 185.333 97.9977 183.157 93.0347 180.288C85.3203 175.833 80.7989 169.711 80.8186 163.266L80.795 171.063C80.7753 177.509 85.2967 183.634 93.0112 188.089C97.9741 190.955 104.265 193.131 111.519 194.258C133.542 197.672 156.13 190.107 161.96 177.355C162.887 175.321 163.336 173.283 163.34 171.272L163.364 163.475C163.36 165.482 162.91 167.52 161.984 169.554Z" fill="url(#paint0_linear_242_3148)"/>
<path d="M151.147 146.45C146.18 143.584 139.893 141.408 132.639 140.281C110.616 136.867 88.0282 144.432 82.198 157.184C78.2915 165.734 82.9154 174.446 93.0344 180.288C97.9974 183.154 104.289 185.33 111.542 186.457C133.566 189.871 156.153 182.306 161.984 169.554C165.89 161.004 161.266 152.292 151.147 146.45Z" fill="#E9ECED"/>
<path d="M122.456 152.702H85.0982C83.8959 154.109 82.9183 155.607 82.1969 157.184C81.0222 159.754 80.6319 162.336 80.9197 164.855H122.456V152.702Z" fill="#BDC3C4"/>
<path d="M129.019 40.3554L129.003 160.956C128.999 161.997 128.317 163.038 126.953 163.83C124.198 165.43 119.716 165.43 116.941 163.83C115.545 163.026 114.848 161.965 114.852 160.909L114.867 40.3081C114.863 41.3646 115.561 42.421 116.957 43.2291C119.728 44.8295 124.214 44.8295 126.969 43.2291C128.333 42.4368 129.015 41.3961 129.019 40.3554Z" fill="url(#paint1_linear_242_3148)"/>
<path d="M126.929 37.4346C129.7 39.035 129.716 41.6328 126.968 43.2293C124.213 44.8297 119.731 44.8297 116.955 43.2293C114.184 41.6289 114.169 39.0311 116.924 37.4306C119.672 35.8341 124.157 35.8341 126.929 37.4346Z" fill="#E9ECED"/>
<path opacity="0.6" d="M87.7098 211.201C87.7531 211.666 87.7768 212.127 87.7768 212.593C87.7768 212.127 87.7492 211.666 87.7098 211.201C87.5679 209.668 87.1973 208.142 86.5784 206.64C86.5902 206.676 86.5981 206.711 86.6099 206.747C86.5941 206.707 86.5863 206.672 86.5706 206.632C86.5232 206.573 86.4523 206.487 86.3971 206.419C86.4562 206.494 86.5271 206.585 86.5784 206.64C85.9319 205.071 57.9124 167.981 54.877 160.354L54.948 134.892C56.6628 132.523 55.8941 128.431 52.6025 126.464C48.2033 123.835 40.9697 123.76 36.4404 126.303C33.409 128.002 32.4196 131.687 33.3854 133.903L33.3144 160.298C30.2397 167.899 2.10972 204.705 1.36863 206.38C1.36468 206.384 1.35681 206.396 1.35287 206.4C0.946843 207.373 0.639363 208.363 0.43438 209.356C0.331888 209.857 0.253086 210.361 0.201841 210.866C-1.44196 222.018 7.32098 229.413 13.1906 233.028C24.1296 239.769 50.257 245.898 73.7985 233.655C80.011 230.115 89.3142 222.751 87.7098 211.201Z" fill="url(#paint2_linear_242_3148)"/>
<path opacity="0.7" d="M44.0171 197.621C57.0165 197.621 67.5546 191.537 67.5546 184.033C67.5546 176.528 57.0165 170.445 44.0171 170.445C31.0176 170.445 20.4795 176.528 20.4795 184.033C20.4795 191.537 31.0176 197.621 44.0171 197.621Z" fill="url(#paint3_linear_242_3148)"/>
<path d="M86.9705 212.588H86.8995V212.549L86.9665 212.553C86.9389 212.135 86.8956 211.709 86.8365 211.28C86.7024 209.825 86.3438 208.378 85.7722 206.987L85.7603 206.967L85.7169 206.979L85.7524 206.955C85.3898 206.289 82.4333 202.221 79.0235 197.518C75.2865 192.366 70.7729 186.146 66.5983 180.221C68.9241 184.829 66.9452 190.009 60.6499 193.639C51.4572 198.945 36.5565 198.945 27.3638 193.639C21.033 189.985 19.066 184.766 21.4548 180.138H21.4391C17.2488 186.011 12.7273 192.173 8.98243 197.274C5.46618 202.063 2.43082 206.198 2.16276 206.731L2.11549 206.825C1.75282 207.712 1.47295 208.623 1.28374 209.529C1.18519 210.002 1.1142 210.479 1.05902 210.992C-0.533542 221.793 8.26107 228.971 13.6419 232.286C19.5391 235.921 30.6791 239.804 44.2552 239.804C54.7566 239.804 64.5604 237.474 73.3628 232.897C78.8421 229.771 87.6682 223.07 86.9705 212.588Z" fill="url(#paint4_linear_242_3148)"/>
<path opacity="0.5" d="M67.9183 206.92C55.0438 199.58 33.8715 199.379 20.6265 206.463C7.38142 213.551 7.08178 225.247 19.9563 232.586C32.8308 239.926 54.0032 240.127 67.2482 233.044C80.4932 225.956 80.7928 214.26 67.9183 206.92Z" fill="#0CAD00"/>
<path opacity="0.8" d="M33.3931 133.997L33.3183 160.302C30.2436 167.902 2.11362 204.708 1.37253 206.384L1.35677 206.404C0.95075 207.377 0.643269 208.367 0.438286 209.36C0.335795 209.861 0.256993 210.365 0.205747 210.87C-1.43806 222.022 7.32489 229.417 13.1945 233.032C14.9092 234.088 16.9906 235.129 19.3834 236.083C21.4766 230.422 35.2183 184.482 39.9684 168.561C41.0366 164.977 41.5807 161.26 41.5807 157.523V137.561C38.3365 137.131 35.4036 135.688 33.3931 133.997Z" fill="#83A1A1"/>
<path d="M53.2904 162.494C52.7858 161.725 52.5138 160.822 52.5099 159.9L52.4232 137.163C51.3628 137.655 50.2709 138.065 49.1514 138.345L49.2223 162.927L53.1328 240.092C59.9524 239.197 66.9809 237.198 73.7965 233.654C79.2601 230.532 87.1166 224.45 87.8261 215.159L53.2904 162.494Z" fill="url(#paint5_linear_242_3148)"/>
<path opacity="0.5" d="M53.2115 123.224C44.3933 118.289 31.3532 122.026 31.4084 129.468C31.4714 137.908 48.1657 141.113 55.2258 134.041C58.1113 131.155 58.3873 126.381 53.2115 123.224ZM51.753 135.704C47.4877 138.085 40.7114 138.014 36.6196 135.551C32.5279 133.087 32.6659 129.161 36.9311 126.784C41.1963 124.403 47.9725 124.474 52.0643 126.937C56.16 129.401 56.0182 133.327 51.753 135.704Z" fill="#84B8C0"/>
<path opacity="0.5" d="M52.0565 123.319C47.9647 120.855 41.1885 120.788 36.9233 123.165C32.658 125.542 32.5161 129.468 36.6118 131.932C40.7036 134.396 47.4798 134.463 51.745 132.086C56.0102 129.705 56.1482 125.782 52.0565 123.319ZM50.523 131.348C46.9595 133.335 41.3028 133.276 37.8851 131.218C34.4674 129.161 34.5857 125.885 38.1453 123.898C41.7088 121.911 47.3655 121.97 50.7832 124.028C54.2009 126.086 54.0826 129.366 50.523 131.348Z" fill="url(#paint6_linear_242_3148)"/>
<path opacity="0.6" d="M53.2118 123.224C49.6562 121.115 44.5986 120.449 40.0141 121.482C30.987 123.516 28.4798 131.325 35.465 135.645C38.8078 137.711 44.1098 138.413 48.6588 137.388C57.8436 135.318 60.268 127.773 53.2118 123.224ZM51.7454 132.086C47.4801 134.463 40.7039 134.396 36.6122 131.932C32.5204 129.468 32.6584 125.542 36.9236 123.165C41.1888 120.788 47.965 120.855 52.0568 123.319C56.1486 125.783 56.0106 129.705 51.7454 132.086Z" fill="url(#paint7_linear_242_3148)"/>
<path d="M54.3737 131.837C54.2358 131.758 54.0624 131.845 52.9389 132.401C51.3621 133.185 50.2426 133.524 49.8208 133.651C48.3504 134.092 47.089 134.289 46.0247 134.435C45.1062 134.561 44.168 134.514 43.2613 134.758C43.1036 134.802 42.8396 134.81 42.7568 134.947C42.7292 134.991 42.7253 135.07 42.749 135.113C42.9934 135.535 46.1272 136.24 49.4622 135.365C52.5132 134.561 54.4486 132.732 54.4407 132.042C54.4526 131.975 54.4289 131.869 54.3737 131.837Z" fill="#9BE7FF"/>
<path d="M114.6 67.3226L100.897 59.3598L100.89 26.7676L114.592 34.7304L114.6 67.3226Z" fill="#A1AAAD"/>
<path d="M114.592 34.7304L100.89 26.7676L124.715 13.014L138.413 20.9768L114.592 34.7304Z" fill="#E9ECED"/>
<path d="M138.411 20.9769L138.419 53.5652L114.598 67.3227L114.59 34.7305L138.411 20.9769Z" fill="#C0C6C7"/>
<path d="M116.211 35.6648L136.792 23.7837L136.835 42.4253L116.219 54.3104L116.211 35.6648Z" fill="url(#paint8_linear_242_3148)"/>
<path d="M109.676 40.0479C109.388 39.3936 108.99 38.7668 108.525 38.2346C108.131 37.7892 107.693 37.4108 107.224 37.1388C106.4 36.6618 105.651 36.6184 105.111 36.9338L51.8076 67.7561C52.3477 67.4407 53.0967 67.4841 53.9206 67.9611C54.3857 68.2291 54.8273 68.6076 55.2215 69.0569C55.6866 69.5852 56.0847 70.2119 56.3725 70.8703C56.6997 71.6113 56.8888 72.384 56.8888 73.1014C56.8849 74.0396 56.5538 74.6979 56.0216 75.0054L109.325 44.1831C109.857 43.8717 110.188 43.2134 110.192 42.2791C110.192 41.5656 110.003 40.789 109.676 40.0479Z" fill="url(#paint9_linear_242_3148)"/>
<path d="M53.9215 67.9649C52.2817 67.0189 50.9454 67.7797 50.9375 69.6679C50.9336 71.5561 52.2619 73.8542 53.9018 74.8003C55.5456 75.7503 56.882 74.9895 56.886 73.1013C56.8899 71.2131 55.5653 68.915 53.9215 67.9649Z" fill="#AEB6B8"/>
<path d="M54.7716 75.2498L54.7559 80.2522L61.8633 76.121L61.879 71.1187L54.7716 75.2498Z" fill="#2E2E2C"/>
<path d="M50.455 71.9268C47.0216 69.944 41.4713 69.944 38.0615 71.9268C36.536 72.8138 35.6371 73.9885 35.5346 75.2499C35.507 75.4904 34.1787 75.4825 33.8475 75.2933C33.8002 75.2657 33.7726 75.2341 33.7726 75.2026L33.7568 80.205C33.7568 80.2404 33.7845 80.268 33.8318 80.2956C34.1629 80.4848 35.4913 80.4967 35.5189 80.2523C35.6174 78.9948 36.5202 77.8161 38.0458 76.9292C41.4556 74.9464 47.0058 74.9464 50.4393 76.9292C52.1698 77.9265 53.0331 79.2392 53.0292 80.5518L53.0449 75.5495C53.0489 74.2368 52.1855 72.9241 50.455 71.9268Z" fill="url(#paint10_linear_242_3148)"/>
<path d="M51.8227 65.312L44.7153 69.4432C41.8653 69.3604 38.9837 69.9517 36.8196 71.2092C34.9905 72.2735 33.9104 73.6887 33.7764 75.1945C33.7764 75.23 33.8 75.2616 33.8473 75.2891C34.1785 75.4784 35.5068 75.4902 35.5344 75.2458C35.633 73.9883 36.5358 72.8096 38.0613 71.9227C41.4711 69.9399 47.0214 69.9399 50.4548 71.9227C53.8883 73.9055 53.9119 77.1261 50.5021 79.105C48.9766 79.9919 46.9387 80.5123 44.7745 80.5793C44.3291 80.5911 44.5576 81.4386 44.7981 81.5766C44.8178 81.5884 44.8414 81.5963 44.8611 81.5963C47.4628 81.5135 49.9148 80.8868 51.7438 79.8264C53.908 78.5689 54.9092 76.8935 54.7673 75.2458L61.8747 71.1146L51.8227 65.312Z" fill="#3E3E3C"/>
<path d="M46.4869 103.809C45.2058 104.527 43.1638 104.507 41.9182 103.762C41.3072 103.395 41.0035 102.922 41.0035 102.453L40.9365 126.369C40.9365 126.838 41.2402 127.311 41.8512 127.678C43.0968 128.423 45.1388 128.443 46.4199 127.725C47.0703 127.359 47.3975 126.874 47.3975 126.389L47.4645 102.473C47.4645 102.958 47.1373 103.443 46.4869 103.809Z" fill="url(#paint11_linear_242_3148)"/>
<path d="M46.4199 127.725C45.1388 128.443 43.0968 128.423 41.8512 127.678C41.2402 127.312 40.9365 126.838 40.9365 126.369C40.9483 127.532 41.5042 128.51 42.4975 129.121C42.8602 129.342 44.1611 130.004 45.7615 129.164C46.7943 128.569 47.3462 127.635 47.3975 126.385C47.3975 126.874 47.0703 127.359 46.4199 127.725Z" fill="#2C2C2A"/>
<path d="M50.1303 50.1631C46.8703 51.9922 41.663 51.937 38.4976 50.0449C36.9405 49.1146 36.1679 47.9123 36.1679 46.71L36.0772 79.3732C36.0732 80.5715 36.0732 80.5715 36.0772 79.4047C36.1481 88.0337 37.7053 95.2948 41.119 102.938C41.257 103.238 41.525 103.522 41.9231 103.758C43.1649 104.499 45.2107 104.523 46.4919 103.806C46.9215 103.565 47.2132 103.269 47.3749 102.919C50.828 95.2909 52.4167 88.0416 52.535 79.4165L52.6256 46.7533C52.6216 47.999 51.786 49.2328 50.1303 50.1631Z" fill="url(#paint12_linear_242_3148)"/>
<path d="M47.6513 39.6578C45.9129 38.6171 43.051 38.5895 41.2613 39.5947C39.4717 40.5999 39.4323 42.2555 41.1708 43.2962C42.9092 44.3369 45.7711 44.3645 47.5607 43.3593C49.3504 42.3541 49.3897 40.6984 47.6513 39.6578Z" fill="#2D2D2B"/>
<path d="M51.9116 44.8059L48.5374 40.4145C49.2863 41.3882 48.9553 42.5708 47.5598 43.3552C47.4416 43.4222 47.3153 43.4853 47.1892 43.5444C46.5387 43.8362 45.7819 44.0135 45.0054 44.0687C43.6375 44.1712 42.2066 43.9111 41.1699 43.2922C39.8414 42.4959 39.5497 41.3409 40.2869 40.3909L36.8889 44.7625C35.5447 46.4891 36.0728 48.5941 38.4932 50.0448C40.3775 51.1722 42.9871 51.6452 45.4784 51.4599C46.8936 51.3535 48.2693 51.0342 49.4519 50.502C49.6845 50.3956 49.9131 50.2813 50.1299 50.1591C52.6725 48.736 53.2756 46.5837 51.9116 44.8059Z" fill="#3E3E3C"/>
<path d="M45.4779 51.46L45.0049 44.0688C45.7815 44.0097 46.5383 43.8363 47.1887 43.5446L49.4554 50.5021C48.2688 51.0382 46.8931 51.3575 45.4779 51.46Z" fill="#3E3E3C"/>
<path d="M51.3533 64.307C51.3533 69.0847 50.2495 72.9557 48.8895 72.9557C47.5295 72.9557 46.4258 69.0847 46.4258 64.307C46.4258 59.5293 47.5295 55.6583 48.8895 55.6583C50.2495 55.6583 51.3533 59.5293 51.3533 64.307Z" fill="#1881B9"/>
<path d="M51.7463 79.8307C49.9172 80.895 47.4692 81.5218 44.8636 81.6006C44.8438 81.6006 44.8202 81.5927 44.8005 81.5809C44.6586 81.4981 44.5245 81.1749 44.5245 80.9186L44.5088 85.921C44.5088 86.1772 44.6468 86.5044 44.7848 86.5833C44.8045 86.5951 44.8281 86.603 44.8478 86.603C47.4495 86.5202 49.9014 85.8934 51.7305 84.833C53.7567 83.6544 54.7618 82.1131 54.7658 80.5678L54.7816 75.5654C54.7777 77.1067 53.7724 78.652 51.7463 79.8307Z" fill="url(#paint13_linear_242_3148)"/>
<path d="M52.7044 74.1303C53.552 75.8451 52.8226 77.7648 50.5048 79.109C48.9792 79.996 46.9451 80.5163 44.7771 80.5833C44.3316 80.5952 44.5603 81.4427 44.8007 81.5807C44.8205 81.5925 44.8441 81.6004 44.8638 81.6004C47.4655 81.5176 49.9174 80.8908 51.7465 79.8304C53.9106 78.5729 54.9119 76.8976 54.77 75.2498L61.8774 71.1187L52.7044 74.1303Z" fill="#3E3E3C"/>
<path d="M117.054 6.84488C114.082 4.82659 110.278 6.3206 105.867 8.05507C99.3352 10.6292 91.2147 13.8261 81.6475 8.30736C71.8753 2.67033 58.4569 -3.02977 50.0171 1.84646C45.1172 4.6768 42.6299 10.6174 42.6299 19.5065C42.6299 22.0964 42.6574 24.9661 42.6889 28.1237C42.7284 31.9829 42.7679 36.2796 42.7679 41.0297C42.7679 42.4646 46.0081 42.4646 46.0081 41.0297C46.0081 36.2678 45.9648 31.9632 45.9254 28.0921C45.8938 24.9425 45.8662 22.0846 45.8662 19.5065C45.8662 11.863 47.8057 6.86459 51.6333 4.65314C59.1034 0.33668 72.6283 6.84883 80.0234 11.114C90.9388 17.4133 100.254 13.7473 107.046 11.0707C110.597 9.67128 113.668 8.46898 115.221 9.52543C117.149 10.8381 117.602 14.9378 117.602 23.7441C117.602 25.1435 120.843 25.246 120.843 23.7441C120.851 13.2309 120.098 8.91836 117.054 6.84488Z" fill="url(#paint14_linear_242_3148)"/>
<path d="M121.158 55.5244C120.807 55.3194 120.322 55.347 119.79 55.6545C118.71 56.2813 117.843 57.7792 117.847 59.0209C117.847 59.6398 118.064 60.0734 118.414 60.2745L119.053 60.645C118.702 60.44 118.489 60.0104 118.485 59.3915C118.481 58.1497 119.349 56.6479 120.429 56.025C120.961 55.7176 121.446 55.69 121.797 55.8949L121.158 55.5244Z" fill="#036CA4"/>
<path d="M120.43 56.0251C119.35 56.6479 118.482 58.1498 118.486 59.3916C118.49 60.6333 119.361 61.13 120.442 60.5071C121.502 59.8922 122.369 58.3942 122.365 57.1525C122.365 55.9108 121.49 55.4141 120.43 56.0251Z" fill="#2189C0"/>
<path d="M128.211 51.4481C127.86 51.2431 127.375 51.2707 126.843 51.5782C125.763 52.201 124.895 53.7029 124.899 54.9446C124.899 55.5635 125.116 55.9971 125.467 56.1982L126.106 56.5687C125.755 56.3637 125.542 55.9341 125.538 55.3152C125.534 54.0735 126.401 52.5716 127.481 51.9487C128.014 51.6413 128.498 51.6137 128.849 51.8187L128.211 51.4481Z" fill="#036CA4"/>
<path d="M127.482 51.9527C126.401 52.5756 125.534 54.0774 125.538 55.3192C125.542 56.5609 126.413 57.0576 127.493 56.4348C128.554 55.8198 129.421 54.3219 129.417 53.0801C129.417 51.8384 128.546 51.3417 127.482 51.9527Z" fill="#2189C0"/>
<path d="M135.267 47.3765C134.916 47.1715 134.432 47.203 133.899 47.5065C132.819 48.1294 131.952 49.6313 131.956 50.873C131.956 51.4919 132.173 51.9255 132.524 52.1265L133.162 52.4971C132.811 52.2921 132.599 51.8624 132.595 51.2435C132.591 50.0018 133.458 48.4999 134.538 47.8771C135.07 47.5696 135.555 47.542 135.906 47.747L135.267 47.3765Z" fill="#036CA4"/>
<path d="M134.538 47.8808C133.458 48.5036 132.591 50.0055 132.595 51.2473C132.599 52.489 133.47 52.9857 134.55 52.3628C135.61 51.7479 136.478 50.2499 136.474 49.0082C136.47 47.7626 135.599 47.2659 134.538 47.8808Z" fill="#2189C0"/>
<path d="M119.34 46.8913C120.081 46.4616 120.684 45.5155 120.684 44.7744C120.684 44.0333 120.085 43.781 119.34 44.2068C118.599 44.6364 118 45.5825 118 46.3236C118 47.0647 118.599 47.3209 119.34 46.8913Z" fill="#35D3ED"/>
<path d="M127.34 41.8913C128.081 41.4616 128.684 40.5155 128.684 39.7744C128.684 39.0333 128.085 38.781 127.34 39.2068C126.599 39.6364 126 40.5825 126 41.3236C126 42.0647 126.599 42.3209 127.34 41.8913Z" fill="#35D3ED"/>
<path d="M134.34 37.8913C135.081 37.4616 135.684 36.5155 135.684 35.7744C135.684 35.0333 135.085 34.781 134.34 35.2068C133.599 35.6364 133 36.5825 133 37.3236C133 38.0647 133.599 38.3209 134.34 37.8913Z" fill="#35D3ED"/>
<defs>
<linearGradient id="paint0_linear_242_3148" x1="80.7954" y1="179.169" x2="163.364" y2="179.169" gradientUnits="userSpaceOnUse">
<stop stop-color="#B2B9BB"/>
<stop offset="0.0233" stop-color="#B0B7B9"/>
<stop offset="0.2226" stop-color="#A5ADB0"/>
<stop offset="0.4337" stop-color="#A1AAAD"/>
<stop offset="1" stop-color="#C0C6C7"/>
</linearGradient>
<linearGradient id="paint1_linear_242_3148" x1="114.854" y1="102.671" x2="129.02" y2="102.671" gradientUnits="userSpaceOnUse">
<stop stop-color="#B2B9BB"/>
<stop offset="0.0233" stop-color="#B0B7B9"/>
<stop offset="0.2226" stop-color="#A5ADB0"/>
<stop offset="0.4337" stop-color="#A1AAAD"/>
<stop offset="1" stop-color="#C0C6C7"/>
</linearGradient>
<linearGradient id="paint2_linear_242_3148" x1="0.00434644" y1="182.563" x2="87.8919" y2="182.563" gradientUnits="userSpaceOnUse">
<stop stop-color="#9ACCDA"/>
<stop offset="0.3684" stop-color="#A5D4E1"/>
<stop offset="1" stop-color="#C2E7F3"/>
</linearGradient>
<linearGradient id="paint3_linear_242_3148" x1="30.6597" y1="170.533" x2="54.0001" y2="194.125" gradientUnits="userSpaceOnUse">
<stop stop-color="#5CF133"/>
<stop offset="1" stop-color="#DDFF4A"/>
</linearGradient>
<linearGradient id="paint4_linear_242_3148" x1="43.9438" y1="182.64" x2="43.9438" y2="230.797" gradientUnits="userSpaceOnUse">
<stop stop-color="#44E218"/>
<stop offset="1" stop-color="#23AC01"/>
</linearGradient>
<linearGradient id="paint5_linear_242_3148" x1="74.8026" y1="149.065" x2="50.7089" y2="256.392" gradientUnits="userSpaceOnUse">
<stop stop-color="#9BE7FF"/>
<stop offset="0.5763" stop-color="#437974"/>
<stop offset="1" stop-color="#00260B"/>
</linearGradient>
<linearGradient id="paint6_linear_242_3148" x1="39.7622" y1="121.71" x2="49.7835" y2="134.679" gradientUnits="userSpaceOnUse">
<stop stop-color="#628D93"/>
<stop offset="1" stop-color="white"/>
</linearGradient>
<linearGradient id="paint7_linear_242_3148" x1="31.4481" y1="129.429" x2="57.3048" y2="129.429" gradientUnits="userSpaceOnUse">
<stop stop-color="#9ACCDA"/>
<stop offset="0.3684" stop-color="#A5D4E1"/>
<stop offset="1" stop-color="#C2E7F3"/>
</linearGradient>
<linearGradient id="paint8_linear_242_3148" x1="134.773" y1="24.7546" x2="120.425" y2="49.6072" gradientUnits="userSpaceOnUse">
<stop stop-color="#221E1E"/>
<stop offset="0.5217" stop-color="#332D2D"/>
<stop offset="0.5296" stop-color="#221E1E"/>
</linearGradient>
<linearGradient id="paint9_linear_242_3148" x1="79.5039" y1="51.7213" x2="83.7163" y2="59.0171" gradientUnits="userSpaceOnUse">
<stop stop-color="#C4CACB"/>
<stop offset="0.1092" stop-color="#D2D7D8"/>
<stop offset="0.2856" stop-color="#E3E6E7"/>
<stop offset="0.4177" stop-color="#E9ECED"/>
<stop offset="0.5253" stop-color="#DEE2E3"/>
<stop offset="0.8217" stop-color="#C4CBCC"/>
<stop offset="1" stop-color="#BBC2C3"/>
</linearGradient>
<linearGradient id="paint10_linear_242_3148" x1="54.6379" y1="70.9914" x2="29.8034" y2="85.3296" gradientUnits="userSpaceOnUse">
<stop stop-color="#1E1E1C"/>
<stop offset="0.5187" stop-color="#21211F"/>
<stop offset="0.9104" stop-color="#2B2B29"/>
<stop offset="1" stop-color="#2E2E2C"/>
</linearGradient>
<linearGradient id="paint11_linear_242_3148" x1="40.9389" y1="115.352" x2="47.4668" y2="115.352" gradientUnits="userSpaceOnUse">
<stop stop-color="#879699"/>
<stop offset="0.0879" stop-color="#92A2A5"/>
<stop offset="0.2048" stop-color="#9EACAF"/>
<stop offset="0.4056" stop-color="#BCC6C7"/>
<stop offset="0.5172" stop-color="#B1BCBE"/>
<stop offset="0.7146" stop-color="#93A3A6"/>
<stop offset="0.7184" stop-color="#92A2A5"/>
<stop offset="0.7837" stop-color="#97A6A9"/>
<stop offset="0.8642" stop-color="#A6B2B4"/>
<stop offset="0.9524" stop-color="#BFC7C7"/>
<stop offset="1" stop-color="#D0D4D4"/>
</linearGradient>
<linearGradient id="paint12_linear_242_3148" x1="36.0732" y1="75.5223" x2="52.6236" y2="75.5223" gradientUnits="userSpaceOnUse">
<stop stop-color="#1E1E1C"/>
<stop offset="1" stop-color="#2E2E2C"/>
</linearGradient>
<linearGradient id="paint13_linear_242_3148" x1="44.193" y1="81.0846" x2="44.8695" y2="81.0846" gradientUnits="userSpaceOnUse">
<stop stop-color="#1E1E1C"/>
<stop offset="0.5187" stop-color="#21211F"/>
<stop offset="0.9104" stop-color="#2B2B29"/>
<stop offset="1" stop-color="#2E2E2C"/>
</linearGradient>
<linearGradient id="paint14_linear_242_3148" x1="42.6319" y1="21.0518" x2="120.851" y2="21.0518" gradientUnits="userSpaceOnUse">
<stop stop-color="#1E1E1C"/>
<stop offset="1" stop-color="#2E2E2C"/>
</linearGradient>
</defs>
</svg>
