<svg width="330" height="59" viewBox="0 0 330 59" fill="none" xmlns="http://www.w3.org/2000/svg">
<path d="M325.079 52.693L245.246 58.161H171.177L5.091 52.693C5.091 52.693 0 43.943 0 29.08C0 14.217 5.091 5.468 5.091 5.468L171.177 0H245.246L325.079 5.468C325.079 5.468 329.976 15.431 329.976 29.08C329.976 42.729 325.079 52.693 325.079 52.693Z" fill="#97ADF3"/>
<path d="M245.246 0H171.177V58.161H245.246V0Z" fill="#748DE6"/>
<path d="M171.177 0C171.177 0 159.86 9.29 159.86 29.081C159.86 48.872 171.177 58.162 171.177 58.162V0Z" fill="#5467D7"/>
<path d="M245.246 0C245.246 0 252.658 10.579 252.658 29.081C252.658 47.582 245.246 58.162 245.246 58.162V0Z" fill="#5467D7"/>
<path d="M138.506 43.943C133.641 43.943 129.696 39.999 129.696 35.133V23.028C129.696 18.163 133.64 14.218 138.506 14.218C143.371 14.218 147.316 18.162 147.316 23.028V35.134C147.316 39.999 143.372 43.943 138.506 43.943Z" fill="#E2353F"/>
<path d="M25.0332 53.494L36.1892 53.942V4.21899C32.2552 4.37699 27.8232 4.55499 25.0332 4.66699V53.494Z" fill="#E2353F"/>
<path d="M235.12 49.912H181.303C178.535 49.912 176.292 47.668 176.292 44.901V13.261C176.292 10.493 178.536 8.25 181.303 8.25H235.12C237.888 8.25 240.131 10.494 240.131 13.261V44.901C240.131 47.668 237.888 49.912 235.12 49.912Z" fill="#E2353F"/>
<path d="M232.771 12.396H183.651V45.765H232.771V12.396Z" fill="#BDBCCD"/>
<path d="M232.772 45.765H198.979L217.445 12.396H232.772V45.765Z" fill="#9A94AD"/>
<path d="M218.277 31.1041V42.699H216.873V32.5761H216.805L213.974 34.4557V33.029L216.873 31.1041H218.277ZM221.611 42.699V41.6799L225.438 37.4903C225.888 36.9997 226.258 36.5731 226.548 36.2108C226.839 35.8447 227.054 35.5012 227.194 35.1804C227.337 34.8558 227.409 34.5161 227.409 34.1613C227.409 33.7537 227.311 33.4008 227.114 33.1026C226.922 32.8044 226.658 32.5742 226.322 32.4119C225.986 32.2496 225.608 32.1684 225.189 32.1684C224.744 32.1684 224.355 32.2609 224.023 32.4459C223.695 32.627 223.44 32.8818 223.259 33.2102C223.081 33.5385 222.993 33.9235 222.993 34.3651H221.657C221.657 33.6857 221.813 33.0894 222.126 32.5761C222.44 32.0628 222.866 31.6627 223.406 31.3758C223.949 31.089 224.559 30.9455 225.235 30.9455C225.914 30.9455 226.516 31.089 227.041 31.3758C227.565 31.6627 227.977 32.0495 228.275 32.5364C228.573 33.0233 228.722 33.565 228.722 34.1613C228.722 34.5878 228.645 35.0049 228.49 35.4125C228.339 35.8164 228.075 36.2674 227.697 36.7656C227.324 37.2601 226.805 37.864 226.141 38.5773L223.536 41.3628V41.4534H228.926V42.699H221.611Z" fill="#574C76"/>
<path d="M185.733 21.9817V15.9284H187.849C188.271 15.9284 188.619 16.0013 188.893 16.1471C189.167 16.2909 189.371 16.485 189.505 16.7294C189.639 16.9717 189.706 17.2407 189.706 17.5363C189.706 17.7964 189.659 18.0112 189.567 18.1806C189.476 18.3501 189.356 18.4841 189.206 18.5826C189.058 18.6811 188.898 18.754 188.724 18.8013V18.8605C188.909 18.8723 189.096 18.9373 189.283 19.0555C189.47 19.1738 189.627 19.3432 189.753 19.5639C189.879 19.7846 189.942 20.0546 189.942 20.3738C189.942 20.6772 189.873 20.9501 189.735 21.1925C189.597 21.4349 189.379 21.627 189.082 21.7689C188.784 21.9108 188.397 21.9817 187.92 21.9817H185.733ZM186.466 21.3314H187.92C188.399 21.3314 188.739 21.2388 188.94 21.0536C189.143 20.8664 189.244 20.6398 189.244 20.3738C189.244 20.1688 189.192 19.9797 189.088 19.8063C188.983 19.6309 188.835 19.491 188.641 19.3866C188.448 19.2802 188.22 19.227 187.956 19.227H186.466V21.3314ZM186.466 18.5885H187.826C188.046 18.5885 188.245 18.5452 188.423 18.4585C188.602 18.3718 188.744 18.2496 188.848 18.092C188.955 17.9343 189.008 17.7491 189.008 17.5363C189.008 17.2703 188.915 17.0447 188.73 16.8594C188.545 16.6722 188.251 16.5786 187.849 16.5786H186.466V18.5885ZM192.388 22.0881C192.1 22.0881 191.839 22.0339 191.605 21.9255C191.37 21.8152 191.184 21.6566 191.046 21.4497C190.908 21.2408 190.839 20.9886 190.839 20.693C190.839 20.4329 190.89 20.2221 190.993 20.0605C191.095 19.8969 191.232 19.7688 191.404 19.6762C191.575 19.5836 191.764 19.5147 191.971 19.4693C192.18 19.422 192.39 19.3846 192.601 19.357C192.876 19.3215 193.1 19.2949 193.272 19.2772C193.445 19.2575 193.571 19.225 193.65 19.1797C193.731 19.1343 193.771 19.0555 193.771 18.9432V18.9196C193.771 18.6279 193.691 18.4013 193.532 18.2398C193.374 18.0782 193.135 17.9974 192.813 17.9974C192.48 17.9974 192.219 18.0703 192.03 18.2161C191.841 18.3619 191.708 18.5176 191.631 18.6831L190.969 18.4467C191.087 18.1708 191.245 17.956 191.442 17.8023C191.641 17.6466 191.858 17.5383 192.092 17.4772C192.329 17.4141 192.561 17.3826 192.79 17.3826C192.936 17.3826 193.103 17.4003 193.292 17.4358C193.483 17.4693 193.668 17.5392 193.845 17.6457C194.024 17.7521 194.173 17.9127 194.291 18.1274C194.41 18.3422 194.469 18.6299 194.469 18.9905V21.9817H193.771V21.3669H193.736C193.688 21.4654 193.61 21.5708 193.499 21.6832C193.389 21.7955 193.242 21.891 193.059 21.9699C192.876 22.0487 192.652 22.0881 192.388 22.0881ZM192.494 21.4615C192.77 21.4615 193.003 21.4073 193.192 21.2989C193.383 21.1905 193.527 21.0506 193.623 20.8792C193.722 20.7078 193.771 20.5275 193.771 20.3383V19.6999C193.742 19.7353 193.677 19.7679 193.576 19.7974C193.477 19.825 193.363 19.8496 193.233 19.8713C193.105 19.891 192.98 19.9087 192.858 19.9245C192.738 19.9383 192.64 19.9501 192.565 19.96C192.384 19.9836 192.214 20.022 192.057 20.0753C191.901 20.1265 191.775 20.2043 191.678 20.3088C191.584 20.4112 191.537 20.5511 191.537 20.7285C191.537 20.9708 191.626 21.1541 191.806 21.2782C191.987 21.4004 192.216 21.4615 192.494 21.4615ZM198.958 18.4585L198.331 18.6358C198.292 18.5314 198.233 18.4299 198.157 18.3314C198.082 18.2309 197.979 18.1481 197.849 18.0831C197.719 18.0181 197.553 17.9856 197.35 17.9856C197.072 17.9856 196.84 18.0496 196.655 18.1777C196.472 18.3038 196.38 18.4644 196.38 18.6595C196.38 18.8329 196.443 18.9698 196.569 19.0703C196.696 19.1708 196.893 19.2545 197.161 19.3215L197.834 19.4871C198.24 19.5856 198.543 19.7363 198.742 19.9393C198.941 20.1403 199.04 20.3994 199.04 20.7166C199.04 20.9767 198.966 21.2093 198.816 21.4142C198.668 21.6191 198.461 21.7807 198.195 21.8989C197.929 22.0172 197.62 22.0763 197.267 22.0763C196.804 22.0763 196.421 21.9758 196.117 21.7748C195.814 21.5738 195.622 21.2802 195.541 20.894L196.203 20.7285C196.266 20.9728 196.385 21.1561 196.561 21.2782C196.738 21.4004 196.969 21.4615 197.255 21.4615C197.58 21.4615 197.838 21.3925 198.03 21.2546C198.223 21.1147 198.319 20.9472 198.319 20.7521C198.319 20.5945 198.264 20.4625 198.154 20.356C198.043 20.2477 197.874 20.1669 197.645 20.1137L196.889 19.9363C196.473 19.8378 196.167 19.6851 195.972 19.4782C195.779 19.2693 195.683 19.0082 195.683 18.6949C195.683 18.4388 195.755 18.2122 195.898 18.0151C196.044 17.8181 196.242 17.6634 196.493 17.5511C196.745 17.4388 197.031 17.3826 197.35 17.3826C197.799 17.3826 198.152 17.4811 198.408 17.6782C198.666 17.8752 198.849 18.1353 198.958 18.4585ZM201.994 22.0763C201.556 22.0763 201.179 21.9797 200.862 21.7866C200.547 21.5915 200.303 21.3196 200.132 20.9708C199.962 20.6201 199.878 20.2122 199.878 19.7472C199.878 19.2821 199.962 18.8723 200.132 18.5176C200.303 18.1609 200.542 17.8831 200.847 17.6841C201.154 17.4831 201.513 17.3826 201.923 17.3826C202.159 17.3826 202.393 17.422 202.623 17.5008C202.854 17.5796 203.064 17.7077 203.253 17.8851C203.442 18.0604 203.593 18.293 203.705 18.5826C203.818 18.8723 203.874 19.2289 203.874 19.6526V19.9482H200.374V19.3452H203.164C203.164 19.089 203.113 18.8605 203.011 18.6595C202.91 18.4585 202.766 18.2999 202.579 18.1836C202.394 18.0673 202.175 18.0092 201.923 18.0092C201.645 18.0092 201.405 18.0782 201.202 18.2161C201.001 18.3521 200.846 18.5294 200.738 18.7481C200.629 18.9669 200.575 19.2013 200.575 19.4516V19.8536C200.575 20.1964 200.634 20.4871 200.752 20.7255C200.873 20.962 201.039 21.1423 201.252 21.2664C201.465 21.3886 201.712 21.4497 201.994 21.4497C202.177 21.4497 202.343 21.424 202.49 21.3728C202.64 21.3196 202.769 21.2408 202.878 21.1364C202.986 21.0299 203.07 20.8979 203.129 20.7403L203.803 20.9295C203.732 21.158 203.613 21.359 203.445 21.5324C203.278 21.7039 203.071 21.8378 202.824 21.9344C202.578 22.029 202.301 22.0763 201.994 22.0763Z" fill="#574C76"/>
</svg>
