<svg width="46" height="402" viewBox="0 0 46 402" fill="none" xmlns="http://www.w3.org/2000/svg">
<path d="M20.8135 398.898V121.107H24.9855V398.898L22.8995 401.421L20.8135 398.898Z" fill="#9A94AD"/>
<path d="M18.4707 141.098V121.107H27.2927V141.098C27.2927 141.098 25.2917 142.147 22.8817 142.147C20.4717 142.148 18.4707 141.098 18.4707 141.098Z" fill="#D9D9EB"/>
<path d="M0 104.42V22.882C0 10.245 10.245 0 22.882 0C35.519 0 45.764 10.245 45.764 22.882V104.42C45.764 117.057 35.519 127.302 22.882 127.302C10.245 127.302 0 117.058 0 104.42Z" fill="#E4E4EF"/>
<path d="M5.81934 22.882C5.81934 13.473 13.4744 5.81897 22.8834 5.81897C32.2924 5.81897 39.9464 13.473 39.9464 22.882V104.42C39.9464 113.829 32.2924 121.484 22.8834 121.484C13.4744 121.484 5.81934 113.829 5.81934 104.42V22.882Z" fill="#2F2546"/>
<path d="M8.59766 99.705V55.445C8.59766 54.16 9.63965 53.118 10.9247 53.118H34.8406C36.1256 53.118 37.1676 54.16 37.1676 55.445V99.705C37.1676 100.99 36.1256 102.032 34.8406 102.032H10.9247C9.63865 102.032 8.59766 100.99 8.59766 99.705Z" fill="#BDBCCD"/>
<path d="M37.1667 99.705V77.575L8.59766 61.943V99.705C8.59766 100.99 9.63965 102.032 10.9247 102.032H34.8406C36.1246 102.032 37.1667 100.99 37.1667 99.705Z" fill="#9A94AD"/>
<path d="M11.7525 72.7819C11.7525 72.103 11.8691 71.4979 12.1022 70.9664C12.3353 70.4384 12.6593 70.0184 13.0742 69.7064C13.4925 69.3978 13.9776 69.2298 14.5296 69.2024V70.4984C14.1902 70.5259 13.8971 70.6424 13.6502 70.8481C13.4068 71.0539 13.2182 71.323 13.0845 71.6556C12.9508 71.9881 12.8839 72.3567 12.8839 72.7613C12.8839 73.2139 12.9628 73.615 13.1205 73.9647C13.2782 74.3145 13.4976 74.5887 13.7788 74.7876C14.0599 74.9865 14.3856 75.0859 14.7559 75.0859C15.1434 75.0859 15.4845 74.9899 15.7794 74.7979C16.0777 74.6059 16.3108 74.3247 16.4788 73.9545C16.6468 73.5842 16.7308 73.1316 16.7308 72.5967V71.7533H17.8622V72.5967C17.8622 73.015 17.9377 73.3819 18.0885 73.6973C18.2394 74.0162 18.452 74.2647 18.7263 74.443C19.0005 74.6247 19.3228 74.7156 19.6931 74.7156C20.0497 74.7156 20.36 74.6367 20.624 74.479C20.888 74.3213 21.0937 74.0985 21.2411 73.8104C21.3886 73.5259 21.4623 73.1899 21.4623 72.8024C21.4623 72.439 21.3954 72.0962 21.2617 71.7739C21.1314 71.455 20.9411 71.1944 20.6908 70.9921C20.444 70.7899 20.1457 70.6801 19.796 70.663V69.4287C20.348 69.4493 20.8314 69.6156 21.2463 69.9276C21.6646 70.2396 21.9903 70.6476 22.2234 71.1516C22.4566 71.659 22.5731 72.2162 22.5731 72.823C22.5731 73.4744 22.4411 74.0333 22.1771 74.4996C21.9166 74.9659 21.572 75.3242 21.1434 75.5745C20.7148 75.8248 20.252 75.9499 19.7548 75.9499C19.1617 75.9499 18.656 75.7939 18.2377 75.4819C17.8194 75.1733 17.5297 74.7533 17.3685 74.2219H17.2862C17.1765 74.887 16.8937 75.4065 16.4377 75.7802C15.9851 76.1539 15.4245 76.3408 14.7559 76.3408C14.1834 76.3408 13.6691 76.1848 13.2131 75.8728C12.7605 75.5642 12.4039 75.1425 12.1433 74.6076C11.8828 74.0727 11.7525 73.4642 11.7525 72.7819ZM11.7525 81.9414C11.7593 81.5094 11.8416 81.0774 11.9993 80.6454C12.1571 80.2134 12.4228 79.8191 12.7965 79.4625C13.1736 79.1059 13.6828 78.8196 14.3239 78.6036C14.9685 78.3876 15.7777 78.2796 16.7514 78.2796C17.684 78.2796 18.5103 78.3671 19.2303 78.5419C19.9537 78.7168 20.5623 78.9705 21.056 79.3031C21.5531 79.6356 21.9303 80.0368 22.1874 80.5065C22.4446 80.9796 22.5731 81.5128 22.5731 82.1059C22.5731 82.6957 22.4549 83.2202 22.2183 83.6797C21.9851 84.1425 21.6594 84.5197 21.2411 84.8111C20.8228 85.1025 20.3411 85.2911 19.796 85.3768V84.122C20.2691 84.0054 20.6617 83.7791 20.9737 83.4431C21.2857 83.1071 21.4417 82.6614 21.4417 82.1059C21.4417 81.2899 21.0868 80.6471 20.3771 80.1774C19.6674 79.7111 18.6714 79.4762 17.3891 79.4728V79.5551C17.6805 79.7471 17.9291 79.9751 18.1348 80.2391C18.344 80.5065 18.5051 80.8014 18.6183 81.1236C18.7314 81.4459 18.788 81.7871 18.788 82.1471C18.788 82.7505 18.6371 83.3025 18.3354 83.8031C18.0371 84.3037 17.624 84.7048 17.096 85.0065C16.5714 85.3083 15.9697 85.4591 15.2908 85.4591C14.6394 85.4591 14.0428 85.3134 13.5011 85.022C12.9628 84.7305 12.5342 84.3208 12.2153 83.7928C11.8999 83.2682 11.7456 82.6511 11.7525 81.9414ZM12.8839 81.9414C12.8839 82.3734 12.9919 82.7608 13.2079 83.1037C13.4239 83.45 13.7136 83.7225 14.0771 83.9214C14.4405 84.1237 14.8451 84.2248 15.2908 84.2248C15.7262 84.2248 16.1222 84.1271 16.4788 83.9317C16.8388 83.7397 17.1251 83.474 17.3377 83.1345C17.5502 82.7985 17.6565 82.4145 17.6565 81.9825C17.6565 81.6568 17.5914 81.3534 17.4611 81.0722C17.3342 80.7911 17.1594 80.5442 16.9365 80.3316C16.7137 80.1225 16.4582 79.9579 16.1702 79.8379C15.8857 79.7179 15.5857 79.6579 15.2702 79.6579C14.8519 79.6579 14.4611 79.7556 14.0976 79.9511C13.7342 80.1499 13.4411 80.4208 13.2182 80.7636C12.9954 81.1099 12.8839 81.5025 12.8839 81.9414ZM11.8142 87.8917C11.8142 87.638 11.9051 87.4203 12.0868 87.2386C12.2685 87.0568 12.4862 86.966 12.7399 86.966C12.9936 86.966 13.2114 87.0568 13.3931 87.2386C13.5748 87.4203 13.6656 87.638 13.6656 87.8917C13.6656 88.1454 13.5748 88.3631 13.3931 88.5449C13.2114 88.7266 12.9936 88.8174 12.7399 88.8174C12.5719 88.8174 12.4176 88.7746 12.2771 88.6889C12.1365 88.6066 12.0233 88.4951 11.9376 88.3546C11.8553 88.2174 11.8142 88.0631 11.8142 87.8917ZM11.7525 94.0542C11.7525 93.4507 11.8725 92.9073 12.1125 92.4239C12.3525 91.9404 12.6816 91.553 13.0999 91.2616C13.5182 90.9702 13.9948 90.8107 14.5296 90.7833V92.0176C14.0531 92.0656 13.6588 92.2816 13.3468 92.6656C13.0382 93.053 12.8839 93.5159 12.8839 94.0542C12.8839 94.4862 12.9851 94.8702 13.1874 95.2062C13.3896 95.5456 13.6674 95.8113 14.0205 96.0033C14.3771 96.1988 14.7799 96.2965 15.2291 96.2965C15.6885 96.2965 16.0982 96.1953 16.4582 95.9931C16.8217 95.7942 17.108 95.5199 17.3171 95.1702C17.5262 94.8205 17.6325 94.421 17.636 93.9719C17.6394 93.6496 17.5897 93.3187 17.4868 92.9793C17.3874 92.6399 17.2588 92.3605 17.1011 92.141L17.2451 90.9479L22.4291 91.5856V97.0576H21.2977V92.6553L18.1914 92.285V92.3467C18.3628 92.5627 18.5051 92.8336 18.6183 93.1593C18.7314 93.485 18.788 93.8245 18.788 94.1776C18.788 94.8222 18.6337 95.3965 18.3251 95.9005C18.02 96.4079 17.6017 96.8056 17.0702 97.0936C16.5388 97.3851 15.9319 97.5308 15.2497 97.5308C14.5776 97.5308 13.9776 97.3799 13.4496 97.0782C12.9251 96.7799 12.5102 96.3685 12.2051 95.8439C11.9033 95.3193 11.7525 94.7228 11.7525 94.0542ZM17.78 101.775C17.78 101.34 17.8862 100.942 18.0988 100.582C18.3114 100.225 18.596 99.9407 18.9525 99.7281C19.3125 99.5155 19.7103 99.4092 20.1457 99.4092C20.5811 99.4092 20.9771 99.5155 21.3337 99.7281C21.6937 99.9407 21.98 100.225 22.1926 100.582C22.4051 100.942 22.5114 101.34 22.5114 101.775C22.5114 102.21 22.4051 102.606 22.1926 102.963C21.98 103.323 21.6937 103.609 21.3337 103.822C20.9771 104.034 20.5811 104.141 20.1457 104.141C19.7103 104.141 19.3125 104.034 18.9525 103.822C18.596 103.609 18.3114 103.323 18.0988 102.963C17.8862 102.606 17.78 102.21 17.78 101.775ZM18.8085 101.775C18.8085 102.022 18.8685 102.246 18.9885 102.449C19.1085 102.651 19.2697 102.812 19.472 102.932C19.6743 103.052 19.8988 103.112 20.1457 103.112C20.3926 103.112 20.6171 103.052 20.8194 102.932C21.0217 102.812 21.1828 102.651 21.3028 102.449C21.4228 102.246 21.4828 102.022 21.4828 101.775C21.4828 101.528 21.4228 101.304 21.3028 101.101C21.1828 100.899 21.0217 100.738 20.8194 100.618C20.6171 100.498 20.3926 100.438 20.1457 100.438C19.8988 100.438 19.6743 100.498 19.472 100.618C19.2697 100.738 19.1085 100.899 18.9885 101.101C18.8685 101.304 18.8085 101.528 18.8085 101.775ZM19.1377 114.641V113.366C19.5045 113.29 19.8268 113.158 20.1045 112.97C20.3823 112.785 20.6154 112.558 20.804 112.291C20.996 112.027 21.14 111.734 21.236 111.411C21.332 111.089 21.38 110.753 21.38 110.403C21.38 109.766 21.2188 109.188 20.8966 108.67C20.5743 108.156 20.0994 107.746 19.472 107.441C18.8445 107.139 18.0748 106.989 17.1628 106.989C16.2508 106.989 15.4811 107.139 14.8537 107.441C14.2262 107.746 13.7514 108.156 13.4291 108.67C13.1068 109.188 12.9456 109.766 12.9456 110.403C12.9456 110.753 12.9936 111.089 13.0896 111.411C13.1856 111.734 13.3279 112.027 13.5165 112.291C13.7085 112.558 13.9434 112.785 14.2211 112.97C14.5022 113.158 14.8245 113.29 15.1879 113.366V114.641C14.6496 114.545 14.1679 114.37 13.7428 114.117C13.3176 113.863 12.9559 113.547 12.6576 113.17C12.3628 112.793 12.1382 112.37 11.9839 111.9C11.8296 111.434 11.7525 110.935 11.7525 110.403C11.7525 109.505 11.9719 108.706 12.4108 108.007C12.8496 107.307 13.4736 106.757 14.2828 106.356C15.0919 105.955 16.0519 105.754 17.1628 105.754C18.2737 105.754 19.2337 105.955 20.0428 106.356C20.852 106.757 21.476 107.307 21.9148 108.007C22.3537 108.706 22.5731 109.505 22.5731 110.403C22.5731 110.935 22.496 111.434 22.3417 111.9C22.1874 112.37 21.9611 112.793 21.6628 113.17C21.368 113.547 21.008 113.863 20.5828 114.117C20.1611 114.37 19.6794 114.545 19.1377 114.641Z" fill="#574C76"/>
<path d="M33.7149 60.5752C33.987 60.543 34.1982 60.4123 34.3485 60.1832C34.4989 59.9541 34.5741 59.6731 34.5741 59.3402C34.5741 59.0967 34.5347 58.8837 34.4559 58.7011C34.3772 58.5203 34.2689 58.3789 34.1311 58.2769C33.9932 58.1767 33.8366 58.1266 33.6612 58.1266C33.5144 58.1266 33.3882 58.1615 33.2826 58.2313C33.1788 58.3029 33.092 58.3942 33.0222 58.5051C32.9542 58.6161 32.8978 58.7325 32.853 58.8542C32.8101 58.9759 32.7752 59.0878 32.7483 59.1898L32.598 59.7483C32.5604 59.8915 32.5085 60.0508 32.4422 60.2262C32.376 60.4034 32.2856 60.5725 32.1711 60.7336C32.0583 60.8965 31.9133 61.0308 31.7361 61.1364C31.5589 61.242 31.3414 61.2948 31.0836 61.2948C30.7865 61.2948 30.518 61.2169 30.2782 61.0612C30.0383 60.9073 29.8477 60.6817 29.7063 60.3846C29.5649 60.0892 29.4942 59.7304 29.4942 59.3079C29.4942 58.9141 29.5577 58.5732 29.6848 58.285C29.8119 57.9986 29.9891 57.773 30.2164 57.6084C30.4437 57.4455 30.7078 57.3533 31.0085 57.3318V58.0192C30.8008 58.0371 30.629 58.1069 30.493 58.2286C30.3587 58.3521 30.2585 58.5078 30.1922 58.6958C30.1278 58.8855 30.0956 59.0896 30.0956 59.3079C30.0956 59.5621 30.1368 59.7903 30.2191 59.9926C30.3032 60.1949 30.4196 60.3551 30.5681 60.4732C30.7185 60.5913 30.8939 60.6504 31.0944 60.6504C31.277 60.6504 31.4255 60.5994 31.5401 60.4974C31.6546 60.3953 31.7477 60.2611 31.8193 60.0946C31.8909 59.9282 31.9536 59.7483 32.0073 59.5549L32.2006 58.8783C32.3241 58.4487 32.5004 58.1087 32.7295 57.8581C32.9586 57.6075 33.2585 57.4822 33.629 57.4822C33.9368 57.4822 34.2053 57.5654 34.4345 57.7319C34.6654 57.9001 34.8444 58.1257 34.9714 58.4085C35.1003 58.6931 35.1648 59.0108 35.1648 59.3616C35.1648 59.716 35.1012 60.0311 34.9741 60.3067C34.8488 60.5824 34.677 60.8008 34.4586 60.9619C34.2402 61.1247 33.9923 61.2107 33.7149 61.2196V60.5752ZM29.5049 63.9791C29.5049 63.5924 29.5962 63.2595 29.7788 62.9803C29.9613 62.701 30.2128 62.4862 30.5332 62.3359C30.8536 62.1855 31.2197 62.1103 31.6314 62.1103C32.0502 62.1103 32.4199 62.1873 32.7403 62.3412C33.0625 62.497 33.3139 62.7136 33.4947 62.991C33.6773 63.2702 33.7686 63.596 33.7686 63.9683C33.7686 64.2583 33.7149 64.5196 33.6075 64.7523C33.5001 64.985 33.3497 65.1757 33.1564 65.3242C32.9631 65.4728 32.7376 65.565 32.4798 65.6008V64.9671C32.6678 64.9188 32.8342 64.8114 32.9792 64.6449C33.126 64.4803 33.1994 64.2583 33.1994 63.9791C33.1994 63.732 33.1349 63.5155 33.0061 63.3293C32.879 63.1449 32.6991 63.0008 32.4664 62.897C32.2355 62.795 31.9643 62.744 31.6529 62.744C31.3342 62.744 31.0568 62.7941 30.8205 62.8943C30.5842 62.9964 30.4008 63.1396 30.2701 63.3239C30.1394 63.5101 30.0741 63.7285 30.0741 63.9791C30.0741 64.1437 30.1027 64.2932 30.16 64.4274C30.2173 64.5617 30.2996 64.6754 30.407 64.7684C30.5144 64.8615 30.6433 64.9277 30.7937 64.9671V65.6008C30.5502 65.565 30.331 65.4764 30.1359 65.335C29.9425 65.1953 29.7886 65.0101 29.6741 64.7792C29.5613 64.5501 29.5049 64.2834 29.5049 63.9791ZM29.4942 67.7407C29.4942 67.4793 29.5434 67.2422 29.6418 67.0292C29.7421 66.8162 29.8862 66.647 30.0741 66.5217C30.2638 66.3964 30.493 66.3338 30.7615 66.3338C30.9977 66.3338 31.1893 66.3803 31.336 66.4734C31.4846 66.5665 31.6009 66.6909 31.6851 66.8466C31.7692 67.0023 31.8319 67.1741 31.873 67.3621C31.916 67.5518 31.95 67.7425 31.975 67.934C32.0073 68.1846 32.0314 68.3877 32.0475 68.5435C32.0654 68.701 32.095 68.8155 32.1361 68.8871C32.1773 68.9605 32.2489 68.9972 32.3509 68.9972H32.3724C32.6373 68.9972 32.8432 68.9247 32.99 68.7797C33.1367 68.6365 33.2101 68.4191 33.2101 68.1273C33.2101 67.8248 33.1439 67.5876 33.0114 67.4158C32.879 67.244 32.7376 67.1231 32.5872 67.0533L32.802 66.4519C33.0526 66.5593 33.2477 66.7025 33.3873 66.8815C33.5287 67.0623 33.6272 67.2592 33.6827 67.4722C33.74 67.687 33.7686 67.8982 33.7686 68.1058C33.7686 68.2383 33.7525 68.3904 33.7203 68.5623C33.6898 68.7359 33.6263 68.9032 33.5296 69.0643C33.433 69.2272 33.2871 69.3624 33.092 69.4698C32.8969 69.5772 32.6355 69.6309 32.308 69.6309H29.5908V68.9972H30.1493V68.965C30.0598 68.922 29.964 68.8504 29.862 68.7502C29.76 68.65 29.6732 68.5166 29.6016 68.3501C29.53 68.1837 29.4942 67.9805 29.4942 67.7407ZM30.0634 67.8373C30.0634 68.0879 30.1126 68.2991 30.211 68.471C30.3095 68.6446 30.4366 68.7753 30.5923 68.863C30.748 68.9525 30.9118 68.9972 31.0836 68.9972H31.6636C31.6314 68.9704 31.6018 68.9113 31.575 68.82C31.5499 68.7305 31.5276 68.6267 31.5079 68.5086C31.49 68.3922 31.4739 68.2786 31.4595 68.1676C31.447 68.0584 31.4363 67.9698 31.4273 67.9018C31.4058 67.7371 31.3709 67.5831 31.3226 67.44C31.2761 67.2985 31.2054 67.184 31.1105 67.0963C31.0174 67.0104 30.8903 66.9674 30.7292 66.9674C30.5091 66.9674 30.3426 67.0488 30.2298 67.2117C30.1189 67.3764 30.0634 67.5849 30.0634 67.8373ZM32.0717 71.4211H29.5908V70.7874H33.7149V71.3996H33.0705V71.4533C33.2799 71.5499 33.4482 71.6967 33.5753 71.8936C33.7042 72.0905 33.7686 72.3447 33.7686 72.6561C33.7686 72.9354 33.7113 73.1797 33.5968 73.3891C33.484 73.5985 33.3122 73.7614 33.0812 73.8778C32.8521 73.9941 32.5622 74.0523 32.2113 74.0523H29.5908V73.4187H32.1684C32.4923 73.4187 32.7447 73.3345 32.9255 73.1663C33.1081 72.998 33.1994 72.7671 33.1994 72.4736C33.1994 72.2713 33.1555 72.0905 33.0678 71.9312C32.9801 71.7737 32.8521 71.6493 32.6839 71.558C32.5156 71.4667 32.3116 71.4211 32.0717 71.4211Z" fill="#574C76"/>
<path d="M14.7917 49.093C11.3707 49.093 8.59766 46.32 8.59766 42.898C8.59766 39.477 11.3707 36.704 14.7917 36.704C18.2127 36.704 20.9857 39.477 20.9857 42.898C20.9857 46.32 18.2127 49.093 14.7917 49.093Z" fill="#E4E4EF"/>
<path d="M22.8815 35.239C19.4605 35.239 16.6875 32.466 16.6875 29.045C16.6875 25.624 19.4605 22.851 22.8815 22.851C26.3025 22.851 29.0765 25.624 29.0765 29.045C29.0765 32.466 26.3025 35.239 22.8815 35.239Z" fill="#E4E4EF"/>
<path d="M30.9713 49.093C27.5503 49.093 24.7773 46.32 24.7773 42.898C24.7773 39.477 27.5503 36.704 30.9713 36.704C34.3923 36.704 37.1664 39.477 37.1664 42.898C37.1664 46.32 34.3933 49.093 30.9713 49.093Z" fill="#E4E4EF"/>
</svg>
