<svg width="1488" height="1928" viewBox="0 0 1488 1928" fill="none" xmlns="http://www.w3.org/2000/svg">
<path d="M1268.94 692.075L1268.03 692.925C1373.34 817.834 1436.84 979.142 1436.84 1155.31C1436.84 1315.59 1384.3 1463.58 1295.51 1583.04C1234.02 1665.78 1154.4 1734.28 1064.02 1783.76C974.534 1832.75 874.766 1863.24 772.986 1871.07C755.044 1872.45 737.042 1873.11 719.046 1873.11C545.605 1873.11 386.539 1811.6 262.459 1709.2C258.029 1705.54 253.642 1701.83 249.301 1698.07C239.212 1689.33 229.4 1680.28 219.812 1671L218.901 1671.85C350.798 1828.29 548.195 1927.7 768.837 1927.7C1165.95 1927.7 1487.88 1605.78 1487.88 1208.66C1487.88 1005.91 1403.93 822.788 1268.94 692.075Z" fill="#D36724"/>
<path d="M365.688 419.84L266.015 484.12L298 533.716L298.529 533.366C326.792 514.611 361.293 494.438 401.564 475.624L402.211 475.322L366.211 419.501L365.688 419.84Z" fill="#7C7C7B"/>
<path d="M647.578 406.498L648.268 406.424C675.534 403.455 703.844 401.754 733.27 401.754C761.108 401.754 787.838 403.422 813.554 406.329L814.247 406.408V405.709V289.925H647.577L647.578 406.498Z" fill="#7C7C7B"/>
<path d="M1171.55 483.782L1071.88 419.501L1038.59 471.118L1039.22 471.425C1079.06 490.596 1113.08 511.498 1140.98 531.132L1141.51 531.506L1172.07 484.121L1171.55 483.782Z" fill="#7C7C7B"/>
<path d="M1110.59 717.417L1110.18 717.046L1109.76 717.415L1104.89 721.746C1099.03 726.944 1091.72 729.561 1084.38 729.605H1084.19C1076.91 729.605 1069.63 727.074 1063.74 722.016C1039.94 701.588 995.853 668.452 934.411 641.871C930.796 640.307 927.122 638.766 923.388 637.252C915.921 634.223 908.215 631.301 900.277 628.517C880.432 621.556 859.13 615.457 836.448 610.71C827.375 608.811 818.081 607.129 808.571 605.694C784.797 602.107 759.671 600.068 733.272 600.068C549.325 600.071 419 687.468 370.153 726.313C367.519 728.407 364.606 729.913 361.575 731.038C360.262 731.525 358.931 731.9 357.568 732.205C356.376 732.472 355.217 732.739 354.064 732.86C352.959 732.977 351.85 733.035 350.743 733.035C342.825 733.034 334.949 730.06 328.917 724.149L324.628 719.949L324.194 720.346C205.882 827.81 131.592 982.887 131.594 1155.31C131.594 1479.75 394.604 1742.76 719.046 1742.76C1043.48 1742.76 1306.5 1479.75 1306.5 1155.31C1306.5 981.301 1230.81 824.982 1110.59 717.417Z" fill="#DCE2EE"/>
<path d="M1153.5 1165.04H1244.61L1244.6 1164.41C1242.54 1029.36 1191.21 906.282 1107.77 812.329L1107.33 811.833L1036.53 882.634L1016.27 862.381L1087.73 790.926L1087.29 790.484C988.86 691.175 852.362 629.649 701.489 629.649C401.476 629.649 158.268 872.857 158.268 1172.87C158.268 1472.88 401.475 1716.09 701.489 1716.09C702.543 1716.09 703.574 1716.06 704.602 1716.05L705.222 1716.05V1613.33H733.866V1715.1L734.526 1715.06C868.969 1706.99 990.217 1650.04 1080.75 1561.72L1081.2 1561.28L1016.27 1496.35L1036.53 1476.1L1101.16 1540.73L1101.6 1540.25C1185.94 1448.45 1239.07 1327.55 1244.25 1194.33L1244.27 1193.69H1153.5L1153.5 1165.04Z" fill="white"/>
<path d="M1295.57 1582.98C1165.09 1717.58 982.406 1801.27 780.141 1801.27C581.924 1801.27 402.479 1720.93 272.581 1591.03C142.685 1461.14 62.344 1281.69 62.342 1083.47C62.343 923.197 114.889 775.209 203.67 655.75L202.722 654.944C198.838 658.951 195.002 663.004 191.213 667.099L191.045 667.279L191.006 667.32L191.041 667.283C80.497 787.441 12.507 944.496 1.59 1107.53C0.524996 1123.43 1.49047e-07 1139.38 1.49047e-07 1155.31C-0.000999851 1204.95 5.03 1253.42 14.608 1300.22C18.199 1317.78 22.432 1335.1 27.277 1352.16C28.892 1357.85 30.575 1363.51 32.327 1369.13C37.579 1386.02 43.438 1402.64 49.875 1418.97C52.023 1424.41 54.232 1429.82 56.506 1435.2C61.054 1445.95 65.857 1456.57 70.906 1467.05C75.956 1477.53 81.252 1487.86 86.787 1498.05C103.39 1528.62 122.145 1557.84 142.849 1585.53C173.906 1627.06 209.346 1665.11 248.484 1699.02C252.832 1702.78 257.227 1706.5 261.667 1710.16C385.958 1812.74 545.308 1874.36 719.046 1874.36C833.021 1874.36 946.115 1847.1 1047.41 1794.86C1145.05 1744.5 1230.96 1671.99 1296.51 1583.78L1295.57 1582.98Z" fill="#F3912B"/>
<path d="M371.102 636.084C487.744 584.243 613.801 549.928 738.748 549.929C854.173 549.931 968.648 579.203 1073.95 650.997L1073.97 651.01L1073.99 651.023C1084.52 657.037 1096.38 659.906 1108.64 659.905C1137.45 659.901 1168.44 644.074 1189.55 615.932L1189.58 615.892L1189.59 615.867C1195.44 605.637 1200.4 592.875 1203.31 579.415L1203.38 579.062L1203.11 578.821C1188.04 565.27 1167.47 548.241 1141.7 530.111C1113.75 510.443 1079.67 489.505 1039.77 470.3C977.96 440.558 902.178 415.091 813.695 405.089C787.935 402.177 761.159 400.506 733.271 400.506C703.797 400.506 675.441 402.21 648.134 405.183C551.133 415.744 468.09 443.167 401.037 474.494C360.703 493.337 326.148 513.541 297.839 532.327C289.722 537.714 282.166 542.959 275.093 548.033L274.139 548.718L273.769 548.984L273.909 549.418C280.998 571.26 290.227 594.366 302.295 612.061C314.351 629.743 329.317 642.092 347.865 642.097C355.089 642.097 362.827 640.216 371.102 636.084Z" fill="#352E35"/>
<path d="M703.975 746.65H735.111V641.738H734.489H703.975V746.65Z" fill="#352E35"/>
<path d="M703.975 1612.7V1715.43V1716.37V1716.99H735.111V1714.44V1612.08H703.975V1612.7Z" fill="#352E35"/>
<path d="M1243.98 1163.8H1152.26V1194.93H1152.88H1243.63H1257.17V1163.8H1243.98Z" fill="#352E35"/>
<path d="M181.916 1194.93H182.54H286.828V1163.8H181.916V1194.93Z" fill="#352E35"/>
<path d="M1088.25 788.637L1086.41 790.481L1014.51 862.38L1036.53 884.4L1107.74 813.183L1110.27 810.655L1110.71 810.214L1088.69 788.196L1088.25 788.637Z" fill="#352E35"/>
<path d="M328.374 1548.52L328.815 1548.96L350.392 1570.54L424.577 1496.35L402.556 1474.33L328.374 1548.52Z" fill="#352E35"/>
<path d="M1036.53 1474.33L1014.51 1496.35L1014.95 1496.79L1079.88 1561.71L1088.69 1570.54L1110.71 1548.52L1101.59 1539.39L1036.53 1474.33Z" fill="#352E35"/>
<path d="M328.374 810.214L328.815 810.655L402.557 884.4L424.577 862.381L350.391 788.195L328.374 810.214Z" fill="#352E35"/>
<path d="M1101.61 1363.66C1032.04 1313.34 903.454 1231.71 826.219 1186.64C812.018 1178.36 799.22 1171.91 787.856 1167.03C788.51 1163.22 788.925 1159.32 788.925 1155.31C788.925 1124.48 768.803 1098.38 740.987 1089.34C740.804 1047.97 738.372 987.991 734.541 938.263C732.619 913.313 730.347 890.95 727.827 874.801C726.566 866.725 725.246 860.207 723.865 855.669C723.173 853.399 722.471 851.624 721.721 850.37C720.977 849.14 720.161 848.297 719.044 848.27C717.924 848.297 717.107 849.142 716.362 850.375C713.6 855.045 711.146 867.343 708.855 884.612C702.05 936.224 697.336 1031.54 697.098 1089.71C669.808 1099.05 650.158 1124.86 650.158 1155.31C650.158 1193.63 681.222 1224.69 719.542 1224.69C735.726 1224.69 750.584 1219.1 762.385 1209.81C772.298 1217.38 784.314 1225.44 798.689 1233.82C851.786 1264.8 931.87 1308.4 1002.1 1344.26C1037.21 1362.18 1069.86 1378.18 1095.44 1389.7C1121.06 1401.21 1139.45 1408.25 1146.57 1408.29C1148.04 1408.28 1149.2 1408.01 1149.8 1407.05L1150.07 1405.99C1150.04 1404.63 1149.11 1403.09 1147.5 1401.1C1141.42 1393.7 1124.81 1380.44 1101.61 1363.66Z" fill="#352E35"/>
<path d="M1087.86 394.714L1071.2 420.549L1071.73 420.887L1171.4 485.168L1188.06 459.333L1087.86 394.714Z" fill="#5C5C5B"/>
<path d="M350.225 394.713L250.029 459.333L267.502 486.431V484.646L366.651 420.703V420.363V420.18L366.551 420.025L350.225 394.713Z" fill="#5C5C5B"/>
<path d="M647.578 248.569V291.172H814.248V248.569H813.625H647.578Z" fill="#5C5C5B"/>
<path d="M1280.19 221.998L1165.13 400.407L1165.66 400.745L1177.83 408.598L1292.89 230.188L1280.19 221.998Z" fill="#C6C6C6"/>
<path d="M1302.92 236.652V234.866L1301.77 236.654L1187.05 414.539L1199.74 422.729L1314.8 244.32L1302.92 236.652Z" fill="#C6C6C6"/>
<path d="M1371.73 226.293L1371.34 224.978L1230.87 442.799L1239.15 448.14L1239.49 447.615L1368.64 247.358C1371.41 243.058 1372.75 238.227 1372.74 233.451C1372.74 231.025 1372.4 228.614 1371.73 226.293Z" fill="#C6C6C6"/>
<path d="M1250.49 199.177C1249.06 196.245 1248.32 193.014 1248.32 189.757C1248.32 185.804 1249.41 181.814 1251.7 178.264C1255.76 171.966 1262.65 168.525 1269.66 168.525L1270.26 168.534L1270.6 168.539L1277.49 157.859L1261.78 147.722L1261.44 148.247L1132.29 348.51C1129.52 352.797 1128.2 357.589 1128.21 362.326C1128.21 368.236 1130.25 374.063 1134.07 378.744L1134.61 379.411L1250.64 199.494L1250.49 199.177Z" fill="#C6C6C6"/>
<path d="M1299.4 171.988L1286.7 163.799L1286.37 164.323L1281.62 171.682V171.867V172.207L1294.08 180.244L1299.4 171.988Z" fill="#C6C6C6"/>
<path d="M1315.99 194.375L1321.32 186.118L1308.62 177.93L1308.28 178.454L1303.16 186.391L1303.9 186.578L1315.99 194.375Z" fill="#C6C6C6"/>
<path d="M1343.23 200.25L1330.53 192.061L1330.19 192.585L1325.44 199.943V200.129V200.469L1337.9 208.506L1343.23 200.25Z" fill="#C6C6C6"/>
<path d="M1356.77 225.528L1357.21 226.672L1364.88 214.777L1364.5 214.422C1363.42 213.424 1362.21 212.491 1360.93 211.665L1352.44 206.192L1347.12 214.449L1348.48 215.325C1352.39 217.85 1355.2 221.464 1356.77 225.528Z" fill="#C6C6C6"/>
<path d="M1336.87 254.518C1332.92 254.517 1328.93 253.426 1325.38 251.138L1324.54 250.601L1324.02 250.263L1208.96 428.671L1221.66 436.861L1339.3 254.449L1336.87 254.518Z" fill="#C6C6C6"/>
<path d="M1258.28 207.869L1257.94 208.392L1143.22 386.276L1155.92 394.466L1270.98 216.057L1258.28 207.869Z" fill="#C6C6C6"/>
<path d="M149.821 237.361L260.253 408.596L260.78 408.259L272.954 400.407L162.177 228.64L149.821 237.361Z" fill="#C6C6C6"/>
<path d="M118.811 258.543C116.267 259.562 113.584 260.059 110.917 260.059C108.109 260.059 105.318 259.509 102.718 258.441L100.88 257.689L101.957 259.356L216.431 436.859L229.129 428.671L119.288 258.351L118.811 258.543Z" fill="#C6C6C6"/>
<path d="M66.3628 226.292C65.6858 228.613 65.3408 231.024 65.3408 233.449C65.3398 238.226 66.6768 243.058 69.4538 247.359L198.94 448.139L207.222 442.8L66.7418 224.98L66.3628 226.292Z" fill="#C6C6C6"/>
<path d="M128.5 252.41L238.343 422.728L238.868 422.39L251.044 414.538L140.856 243.689L128.5 252.41Z" fill="#C6C6C6"/>
<path d="M182.815 213.873C182.166 214.465 181.472 215.024 180.737 215.543L171.141 222.314L171.466 222.816L282.164 394.464L294.865 386.275L183.358 213.376L182.815 213.873Z" fill="#C6C6C6"/>
<path d="M89.5921 238.088C89.7781 232.635 92.0341 227.303 96.1331 223.378L96.5031 223.022L85.6481 206.192L77.1611 211.664C75.8771 212.491 74.6681 213.423 73.5911 214.421L73.2061 214.777L89.5241 240.085L89.5921 238.088Z" fill="#C6C6C6"/>
<path d="M117.737 207.842L107.559 192.06L107.037 192.399L94.8623 200.25L105.38 216.563L117.737 207.842Z" fill="#C6C6C6"/>
<path d="M127.501 200.952L139.06 192.795L129.471 177.929L128.949 178.268L116.775 186.119L127.501 202.755V200.952Z" fill="#C6C6C6"/>
<path d="M148.821 185.905L156.16 180.725C157.397 179.852 158.697 179.131 160.037 178.557L160.716 178.267L151.385 163.798L150.862 164.137L138.686 171.988L148.821 187.707V185.905Z" fill="#C6C6C6"/>
<path d="M176.309 147.722L160.597 157.858L173.191 177.387L173.436 177.445C178.298 178.613 182.766 181.469 185.856 185.847C188.476 189.559 189.731 193.838 189.732 198.086C189.732 199.442 189.601 200.796 189.352 202.128L189.306 202.371L303.478 379.408L304.023 378.743C307.839 374.062 309.882 368.235 309.882 362.324C309.883 357.588 308.567 352.796 305.805 348.509L176.309 147.722Z" fill="#C6C6C6"/>
<path d="M779.518 20.809H780.141H800.203V0.00100708H779.518V20.809Z" fill="#C6C6C6"/>
<path d="M706.4 20.809H727.084V20.185V0.00100708H706.4V20.809Z" fill="#C6C6C6"/>
<path d="M742.958 20.809H763.643V20.185V0.00100708H742.958V20.809Z" fill="#C6C6C6"/>
<path d="M664.809 0.625999V160.113C664.809 176.108 675.265 189.648 689.709 194.308L690.524 194.572V62.154L690.126 62C682.152 58.912 676.454 51.142 676.456 42.115C676.454 33.088 682.151 25.32 690.126 22.232L690.524 22.078V0L664.809 0.0039978V0.625999Z" fill="#C6C6C6"/>
<path d="M829.985 0.00100708H816.076V20.809H822.761C827.64 20.81 832.147 22.47 835.752 25.257L836.757 26.036V0.623009L836.243 0.532005C834.232 0.176005 832.112 0.00100708 829.985 0.00100708Z" fill="#C6C6C6"/>
<path d="M822.761 63.425H816.7H816.076V64.049V196.053H836.757V58.196L835.752 58.976C832.146 61.763 827.64 63.425 822.761 63.425Z" fill="#C6C6C6"/>
<path d="M779.512 196.053H780.138H800.203V63.425H779.516L779.512 196.053Z" fill="#C6C6C6"/>
<path d="M853.658 8.97L852.626 8.078V196.053H865.939V195.429V35.954C865.941 25.21 861.215 15.523 853.658 8.97Z" fill="#C6C6C6"/>
<path d="M706.4 196.053H707.024H727.084V63.425H706.4V196.053Z" fill="#C6C6C6"/>
<path d="M742.958 196.053H743.582H763.643V63.425H742.958V196.053Z" fill="#C6C6C6"/>
<path d="M1239.32 446.768L1232.59 442.427L1371.8 226.569L1371.73 226.3C1370.48 221.814 1368.03 217.708 1364.5 214.422L1363.95 213.914L1356.73 225.119V225.304V225.422L1356.77 225.528C1357.72 227.999 1358.21 230.634 1358.21 233.287C1358.21 237.24 1357.12 241.229 1354.83 244.779C1351.01 250.709 1344.68 254.106 1338.09 254.483L1337.77 254.502L1221.28 435.135L1210.68 428.299L1324.83 251.308V251.125V250.785L1314.56 244.167V242.381L1199.37 421.004L1188.77 414.167L1303.15 236.805L1291.84 229.513L1177.46 406.872L1166.85 400.035L1281.24 222.674L1269.93 215.381L1155.55 392.742L1144.95 385.904L1259.09 208.913V208.73V208.39L1258.06 207.721C1254.72 205.568 1252.19 202.623 1250.55 199.287V197.329L1134.53 377.224C1131.25 372.893 1129.45 367.658 1129.45 362.327C1129.45 357.82 1130.7 353.269 1133.33 349.187L1262.83 148.399L1242.16 135.069C1239.42 133.316 1233.87 130.887 1229.04 130.873C1228.54 130.873 1228.05 130.899 1227.57 130.957C1219.44 131.925 1211.32 135.259 1206.48 142.771L1070.19 354.09C1067.41 358.4 1066.09 363.228 1066.09 367.998C1066.09 373.328 1067.74 378.59 1070.87 382.998C1072.71 385.6 1075.04 387.93 1077.89 389.77L1087.71 396.101L1186.95 460.099L1196.68 466.373C1201 469.162 1205.85 470.496 1210.64 470.496C1219.12 470.497 1227.42 466.324 1232.36 458.672L1239.8 447.127L1239.34 446.777L1239.32 446.768Z" fill="#B0B0B0"/>
<path d="M1281.15 171.907L1281.91 172.391L1282.43 172.729L1287.75 164.474L1276.44 157.182L1269.14 168.5L1270.25 168.532C1274.01 168.636 1277.78 169.731 1281.15 171.907Z" fill="#B0B0B0"/>
<path d="M1309.66 178.605L1309.14 178.268L1298.35 171.313L1293.03 179.567L1304.34 186.861L1309.66 178.605Z" fill="#B0B0B0"/>
<path d="M1326.59 200.467L1331.58 192.736L1320.26 185.442L1314.94 193.698L1326.25 200.991L1326.59 200.467Z" fill="#B0B0B0"/>
<path d="M1348.16 215.122L1353.49 206.867L1342.18 199.575L1336.85 207.829L1347.35 214.602L1348.16 215.122Z" fill="#B0B0B0"/>
<path d="M231.613 142.77C226.786 135.286 218.735 131.129 210.456 130.952L210.242 130.95C209.246 130.951 208.29 131.092 207.376 131.181C206.817 131.239 206.18 131.208 205.475 131.328L205.439 131.334L205.351 131.359L205.352 131.362C202.091 131.946 198.887 133.162 195.93 135.068L175.261 148.398L304.754 349.185C307.386 353.267 308.633 357.818 308.633 362.324C308.633 367.655 306.829 372.892 303.553 377.222L189.642 200.596L189.353 202.127C188.51 206.546 186.29 210.702 182.815 213.873L182.612 214.058V214.334V214.519L293.141 385.904L282.538 392.741L172.161 221.594L161.157 229.362L271.229 400.035L260.626 406.873L150.048 235.413V237.202L140.064 244.249V244.573V244.759L249.32 414.165L238.717 421.003L128.726 250.462V252.251L123.154 256.184C121.775 257.157 120.318 257.942 118.812 258.544L118.11 258.826L227.406 428.299L216.807 435.135L102.87 258.472L102.688 258.426C99.0861 256.939 95.8581 254.46 93.4591 251.06C90.8381 247.347 89.5771 243.068 89.5761 238.821L89.5921 238.098V238.067V237.882L74.1331 213.913L73.5901 214.421C70.0601 217.708 67.6081 221.813 66.3611 226.299L66.2861 226.568L205.499 442.426L198.769 446.765L198.753 446.777L198.288 447.126L205.734 458.67C210.67 466.322 218.973 470.496 227.448 470.494C232.237 470.494 237.088 469.16 241.415 466.371L251.231 460.04L350.379 396.098L360.195 389.767C362.796 388.09 364.907 385.974 366.664 383.666C370.133 379.108 371.982 373.556 371.982 367.927C371.983 363.181 370.664 358.38 367.898 354.086L231.613 142.77Z" fill="#B0B0B0"/>
<path d="M160.038 178.557C162.722 177.409 165.568 176.849 168.4 176.849C170.095 176.849 171.784 177.05 173.436 177.446L174.948 177.811L174.106 176.501L161.644 157.181L150.337 164.475L159.551 178.764L160.038 178.557Z" fill="#B0B0B0"/>
<path d="M149.045 185.747L139.733 171.312L139.211 171.651L128.424 178.606L138.038 193.514L149.045 185.747Z" fill="#B0B0B0"/>
<path d="M117.169 208.235L117.212 208.213L127.724 200.795L127.401 200.292L117.823 185.443L106.512 192.737L116.667 208.485L117.169 208.235Z" fill="#B0B0B0"/>
<path d="M96.1326 223.378C96.8846 222.657 97.7006 221.983 98.5786 221.364L106.178 216V215.677V215.494L95.9086 199.573L84.6006 206.867L95.5846 223.901L96.1326 223.378Z" fill="#B0B0B0"/>
<path d="M853.873 194.806V9.161L853.665 8.97599C848.824 4.66499 842.856 1.712 836.244 0.532997L835.512 0.403992V25.071L835.753 25.258C840.805 29.165 844.071 35.277 844.071 42.116C844.071 48.954 840.806 55.068 835.753 58.976L835.512 59.163V194.806H817.322L817.323 63.425H798.957V194.806H780.761L780.765 63.425H762.397V194.806H744.204L744.205 63.425H725.84V194.806H707.647L707.648 63.425H697.769C695.078 63.425 692.503 62.92 690.128 62L689.28 61.674V192.786C675.774 188.041 666.057 175.241 666.057 160.114V0.00299072H631.823C627.154 0.0279907 615.3 2.717 608.942 8.228C601.165 15.02 595.882 24.774 595.883 35.943V213.876C595.883 228.761 604.931 241.533 617.828 246.99C622.13 248.81 626.86 249.816 631.822 249.816H648.202H813.625H830.002C849.852 249.816 865.942 233.725 865.942 213.876V194.806H865.317H853.873Z" fill="#B0B0B0"/>
<path d="M697.767 20.809H707.646V0.00100708H689.278V22.559L690.126 22.232C692.502 21.314 695.076 20.809 697.767 20.809Z" fill="#B0B0B0"/>
<path d="M744.204 20.185V0.00100708H725.839V20.809H744.204V20.185Z" fill="#B0B0B0"/>
<path d="M780.766 20.185V0.00100708H762.396V20.809H780.766V20.185Z" fill="#B0B0B0"/>
<path d="M817.322 20.185V0.00100708H798.957V20.809H817.322V20.185Z" fill="#B0B0B0"/>
<path d="M1268.98 692.121C1250.4 670.083 1230.52 649.181 1209.46 629.526L1209.01 629.114L1208.59 629.542C1208.11 630.026 1207.67 630.502 1207.19 630.924L1109.24 717.879L1109.76 718.345C1229.72 825.687 1305.25 981.665 1305.25 1155.31C1305.25 1317.19 1239.64 1463.74 1133.55 1569.82C1027.47 1675.9 880.923 1741.52 719.044 1741.52C557.165 1741.52 410.618 1675.9 304.534 1569.82C198.45 1463.74 132.839 1317.19 132.838 1155.31C132.839 983.249 206.968 828.508 325.031 721.268L325.518 720.824L231.272 628.499L230.988 628.189L230.562 627.725L230.104 628.153C220.742 636.841 211.609 645.77 202.722 654.94L202.693 654.97L202.67 655.002C113.733 774.668 61.0937 922.92 61.0947 1083.47C61.0947 1480.59 383.02 1802.51 780.139 1802.52C982.751 1802.52 1165.76 1718.68 1296.46 1583.84L1296.48 1583.82L1296.51 1583.78C1385.45 1464.12 1438.09 1315.86 1438.09 1155.31C1438.09 978.84 1374.48 817.243 1268.98 692.121Z" fill="#F9B657"/>
<path d="M1208.56 583.776C1207.45 582.757 1206.25 581.672 1205.07 580.605C1204.41 580.007 1203.8 579.438 1203.11 578.821L1202.31 578.102L1202.09 579.153C1199.22 592.471 1194.29 605.115 1188.52 615.216C1167.63 643.054 1136.98 658.662 1108.64 658.658C1096.58 658.658 1084.93 655.838 1074.62 649.943C969.111 578.014 854.371 548.678 738.749 548.68C613.57 548.681 487.354 583.05 370.597 634.943L370.585 634.948L370.572 634.954C362.429 639.024 354.881 640.847 347.866 640.847C329.926 640.852 315.288 628.89 303.322 611.351C291.367 593.827 282.159 570.805 275.093 549.02L274.827 548.205L274.134 548.706C259.743 559.065 245.631 569.96 232.099 581.423C224.486 587.869 220.635 596.999 220.636 606.151C220.635 614.397 223.76 622.674 230.071 629.031V629.032L230.367 629.355L230.375 629.364L324.177 721.253L328.044 725.04C334.318 731.187 342.515 734.283 350.742 734.283C351.892 734.283 353.044 734.222 354.195 734.101C355.451 733.968 356.655 733.687 357.841 733.422C359.247 733.107 360.635 732.718 362.011 732.207C365.137 731.047 368.173 729.481 370.929 727.289C419.651 688.542 549.732 601.312 733.271 601.315C759.606 601.315 784.668 603.349 808.384 606.927C817.87 608.358 827.142 610.036 836.193 611.931C858.816 616.667 880.068 622.751 899.864 629.694C907.782 632.471 915.469 635.386 922.919 638.408C926.644 639.919 930.31 641.456 933.915 643.015C995.211 669.532 1039.2 702.595 1062.93 722.962C1069.05 728.218 1076.63 730.852 1084.19 730.852L1084.38 730.851C1092.01 730.806 1099.62 728.083 1105.71 722.678L1208.02 631.857C1215.29 625.4 1218.95 616.464 1218.95 607.535C1218.95 598.863 1215.5 590.183 1208.56 583.776Z" fill="#20181D"/>
<path d="M1006.28 480.545C993.397 467.068 970.511 455.91 952.848 450.269C873.088 424.824 812.999 414.908 718.372 412.833C715.495 412.77 712.586 412.739 709.649 412.739C635.737 412.742 543.39 432.422 475.762 456.878C468.478 459.513 460.659 462.93 454.381 467.65C448.107 472.364 443.349 478.429 442.365 486.304C442.252 487.208 442.196 488.111 442.197 489.008C442.21 499.314 449.365 508.849 458.384 513.92C468.172 519.412 479.682 520.561 490.755 520.846C492.878 520.9 494.999 520.926 497.119 520.926C546.793 520.922 595.329 506.524 644.353 498.932C671.581 494.712 699.127 492.621 726.678 492.621C797.618 492.621 868.578 506.486 934.158 533.569C947.316 538.999 960.607 545.07 974.93 546.466C976.661 546.635 978.413 546.72 980.173 546.72C992.983 546.718 1006.19 542.181 1013.7 531.809C1017.79 526.145 1019.6 519.474 1019.6 512.657C1019.6 501.08 1014.41 489.062 1006.28 480.545Z" fill="#493D47"/>
<path d="M734.489 1098.13C711.884 1098.13 693.558 1116.45 693.558 1139.06C693.558 1161.66 711.883 1179.99 734.489 1179.99C757.094 1179.99 775.419 1161.66 775.419 1139.06C775.42 1116.45 757.094 1098.13 734.489 1098.13Z" fill="#544652"/>
<path d="M720.275 1025.8C720.753 1040.59 720.281 1055.84 721.916 1070.63C722.207 1073.37 724.408 1074.87 726.505 1074.85C728.561 1074.88 730.654 1073.37 730.759 1070.59C730.881 1067.92 730.932 1065.23 730.932 1062.54C730.932 1050.69 729.925 1038.72 729.552 1027C729.071 1012.08 728.59 997.147 728.11 982.219C727.644 967.772 727.764 953.078 726.276 938.635C724.734 923.685 722.854 908.789 721.365 893.853L721.308 893.291H720.551H719.948L719.928 893.893C719.416 908.405 718.513 922.902 717.95 937.431C717.828 940.561 717.777 943.695 717.777 946.832C717.777 958.654 718.494 970.51 718.876 982.259C719.339 996.773 719.807 1011.29 720.275 1025.8Z" fill="#544652"/>
<path d="M1059.43 1344.59C1056.59 1341.05 1052.68 1339.09 1049.06 1336.81C1044.2 1333.76 1039.34 1330.69 1034.49 1327.62C1025.9 1322.19 1017.33 1316.72 1008.64 1311.43C991.149 1300.79 973.717 1290.05 956.307 1279.28C921.629 1257.82 886.72 1236.75 851.658 1215.93C841.894 1210.14 832.116 1204.36 822.317 1198.63C812.391 1192.83 801.678 1184.46 790.127 1181.76C789.557 1181.62 788.997 1181.56 788.454 1181.56C784.42 1181.57 781.383 1184.97 781.377 1188.65C781.374 1190.28 781.995 1191.97 783.377 1193.38C790.658 1200.85 801.188 1205.1 809.975 1210.06C818.825 1215.04 827.657 1220.06 836.477 1225.1C854.249 1235.25 871.967 1245.51 889.662 1255.79C924.916 1276.29 960.348 1296.45 995.97 1316.3C1005.91 1321.84 1015.88 1327.25 1025.98 1332.48C1031.44 1335.31 1036.9 1338.13 1042.38 1340.94C1047.13 1343.37 1052.11 1346.78 1057.72 1347.55L1058.02 1347.57C1059.05 1347.57 1059.87 1346.78 1059.88 1345.81L1059.43 1344.59Z" fill="#544652"/>
<path d="M1337.69 832.469C1307.63 775.412 1269.16 722.544 1224.28 676.247C1219.54 671.362 1212.72 668.855 1205.94 668.853C1199.31 668.853 1192.69 671.254 1188.09 676.259C1183.31 681.474 1180.81 688.031 1180.82 694.571C1180.81 700.956 1183.19 707.33 1188.11 712.393C1197.59 722.175 1206.78 732.229 1215.64 742.584C1293.73 833.912 1344.55 948.774 1360.4 1067.81C1364.02 1094.96 1365.8 1122.28 1365.8 1149.56C1365.8 1267.6 1332.42 1384.97 1269.76 1485.45C1267.41 1489.21 1266.32 1493.6 1266.32 1498.01C1266.32 1507.01 1270.86 1516.18 1278.95 1520.46C1283.09 1522.65 1287.5 1523.71 1291.82 1523.71C1300.52 1523.72 1308.85 1519.38 1313.9 1511.29C1377.83 1408.78 1413.32 1289.03 1416.82 1168.34C1417 1162.1 1417.09 1155.85 1417.09 1149.61C1417.09 1039.39 1389.04 929.948 1337.69 832.469Z" fill="#FDD187"/>
<path d="M173.727 176.233L172.212 175.871L190.283 203.892L190.578 202.36C190.846 200.954 190.981 199.522 190.981 198.087C190.982 193.594 189.65 189.057 186.876 185.129C183.605 180.493 178.87 177.467 173.727 176.233Z" fill="#E1E1E1"/>
<path d="M159.547 177.411C158.127 178.019 156.75 178.783 155.441 179.706L147.347 185.418L171.817 223.363L181.457 216.562C182.234 216.012 182.968 215.421 183.657 214.794L183.86 214.608V214.333V214.15L160.029 177.202L159.547 177.411Z" fill="#E1E1E1"/>
<path d="M137.851 192.12L126.027 200.465L150.496 238.412L151.295 237.848L162.855 229.691L138.381 191.745L137.851 192.12Z" fill="#E1E1E1"/>
<path d="M116.612 207.12L116.568 207.141L116.53 207.168L104.931 215.354V215.678V215.864L129.175 253.461L129.973 252.897L141.311 244.896V244.573V244.389L117.111 206.869L116.612 207.12Z" fill="#E1E1E1"/>
<path d="M95.2697 222.477C90.9277 226.636 88.5427 232.279 88.3467 238.045V238.067V238.252L102.087 259.56L102.329 259.621V259.619C105.057 260.728 107.976 261.305 110.917 261.305C113.739 261.305 116.58 260.779 119.275 259.7L119.977 259.419L95.8137 221.952L95.2697 222.477Z" fill="#E1E1E1"/>
<path d="M1294.23 178.857L1282.06 171.006L1257.85 208.545V208.73V209.07L1270.31 217.106L1294.76 179.195L1294.23 178.857Z" fill="#E1E1E1"/>
<path d="M1357.93 225.079C1356.27 220.78 1353.3 216.948 1349.15 214.275L1347.79 213.397L1323.58 250.938V251.124V251.465L1324.7 252.185C1328.46 254.607 1332.69 255.765 1336.87 255.764H1336.89L1338.15 255.728L1338.48 255.719L1357.98 225.486V225.303V225.184L1357.93 225.079Z" fill="#E1E1E1"/>
<path d="M1271.4 167.301L1270.28 167.285L1269.67 167.277C1262.24 167.277 1254.95 170.918 1250.65 177.587C1248.23 181.345 1247.07 185.574 1247.07 189.757C1247.07 193.15 1247.84 196.51 1249.3 199.575L1250.05 200.405L1271.4 167.301Z" fill="#E1E1E1"/>
<path d="M1316.14 192.988L1303.97 185.136L1279.52 223.047L1292.22 231.237L1316.67 193.326L1316.14 192.988Z" fill="#E1E1E1"/>
<path d="M1338.58 207.456L1338.05 207.119L1325.88 199.266L1301.43 237.178L1313.32 244.846L1314.32 245.492L1338.58 207.456Z" fill="#E1E1E1"/>
<path d="M173.727 176.233C171.985 175.815 170.197 175.602 168.4 175.602C165.404 175.602 162.389 176.194 159.547 177.411L158.867 177.702L183.11 215.292L183.657 214.794C187.336 211.433 189.689 207.033 190.578 202.36L190.624 202.114L173.97 176.29L173.727 176.233Z" fill="#D4D4D4"/>
<path d="M147.574 185.259L137.362 192.465L161.833 230.411L172.838 222.645L148.366 184.699L147.574 185.259Z" fill="#D4D4D4"/>
<path d="M126.254 200.306L116.043 207.512L140.513 245.458L151.518 237.691L127.046 199.746L126.254 200.306Z" fill="#D4D4D4"/>
<path d="M97.8594 220.345C96.9314 221 96.0684 221.713 95.2704 222.477L94.8984 222.833L118.797 259.892L119.275 259.701C120.87 259.063 122.414 258.232 123.873 257.201L130.196 252.739L105.723 214.792L97.8594 220.345Z" fill="#D4D4D4"/>
<path d="M88.3461 238.044L88.3311 238.821C88.3301 243.314 89.6611 247.851 92.4391 251.78C94.9851 255.389 98.4201 258.023 102.242 259.594L104.078 260.351L88.4171 236.068L88.3461 238.044Z" fill="#D4D4D4"/>
<path d="M1282.87 171.867V171.527L1281.83 170.858C1278.26 168.555 1274.26 167.395 1270.28 167.286L1269.93 167.276L1249.21 199.407L1249.36 199.723C1251.1 203.302 1253.81 206.465 1257.38 208.769L1258.13 209.254L1258.66 209.593L1282.87 172.051V171.867Z" fill="#D4D4D4"/>
<path d="M1304.41 185.417L1293.71 178.52L1269.26 216.429L1280.57 223.724L1305.15 185.604L1304.41 185.417Z" fill="#D4D4D4"/>
<path d="M1326.69 200.312V200.129V199.789L1315.62 192.65L1291.17 230.561L1301.67 237.332L1302.48 237.853L1326.69 200.312Z" fill="#D4D4D4"/>
<path d="M1337.53 206.782L1337.19 207.305L1313.08 244.692L1324.39 251.986L1348.84 214.076L1337.53 206.782Z" fill="#D4D4D4"/>
<path d="M1359.46 233.287C1359.46 230.48 1358.94 227.693 1357.93 225.081L1357.49 223.934L1336.94 255.797L1338.17 255.728C1345.13 255.331 1351.83 251.735 1355.88 245.455C1358.3 241.697 1359.46 237.468 1359.46 233.287Z" fill="#D4D4D4"/>
<path d="M706.4 20.185V64.672H727.084V19.562H706.4V20.185Z" fill="#E1E1E1"/>
<path d="M675.21 42.116C675.212 51.678 681.235 59.895 689.677 63.164L690.525 63.493V20.741L689.677 21.07C681.235 24.338 675.212 32.553 675.21 42.116Z" fill="#E1E1E1"/>
<path d="M779.517 20.185L779.515 64.672H800.203V19.562H779.517V20.185Z" fill="#E1E1E1"/>
<path d="M822.761 19.562H816.7H816.076V20.186V64.673H822.761C827.927 64.673 832.704 62.911 836.516 59.963L836.757 59.777V24.458L836.516 24.271C832.703 21.322 827.926 19.562 822.761 19.562Z" fill="#E1E1E1"/>
<path d="M742.958 20.185V64.672H763.643V19.562H742.958V20.185Z" fill="#E1E1E1"/>
<path d="M689.677 21.07L689.279 21.224V63.01L689.677 63.164C692.191 64.138 694.919 64.673 697.767 64.673H707.646V19.562H697.767C694.919 19.562 692.191 20.097 689.677 21.07Z" fill="#D4D4D4"/>
<path d="M725.839 20.185V64.672H744.204V19.562H725.839V20.185Z" fill="#D4D4D4"/>
<path d="M762.396 19.562V64.672H780.766V19.562H780.142H762.396Z" fill="#D4D4D4"/>
<path d="M798.957 20.185V64.672H817.322V19.562H798.957V20.185Z" fill="#D4D4D4"/>
<path d="M836.516 24.27L835.511 23.495V60.739L836.516 59.962C841.858 55.83 845.316 49.357 845.316 42.115C845.316 34.874 841.858 28.401 836.516 24.27Z" fill="#D4D4D4"/>
</svg>
